%TF.GenerationSoftware,KiCad,Pcbnew,9.0.1*%
%TF.CreationDate,2025-07-31T18:48:45+02:00*%
%TF.ProjectId,crazyflie2-exp-custom-qi-deck-ohne-Schottky,6372617a-7966-46c6-9965-322d6578702d,A*%
%TF.SameCoordinates,Original*%
%TF.FileFunction,Soldermask,Top*%
%TF.FilePolarity,Negative*%
%FSLAX46Y46*%
G04 Gerber Fmt 4.6, Leading zero omitted, Abs format (unit mm)*
G04 Created by KiCad (PCBNEW 9.0.1) date 2025-07-31 18:48:45*
%MOMM*%
%LPD*%
G01*
G04 APERTURE LIST*
G04 Aperture macros list*
%AMRoundRect*
0 Rectangle with rounded corners*
0 $1 Rounding radius*
0 $2 $3 $4 $5 $6 $7 $8 $9 X,Y pos of 4 corners*
0 Add a 4 corners polygon primitive as box body*
4,1,4,$2,$3,$4,$5,$6,$7,$8,$9,$2,$3,0*
0 Add four circle primitives for the rounded corners*
1,1,$1+$1,$2,$3*
1,1,$1+$1,$4,$5*
1,1,$1+$1,$6,$7*
1,1,$1+$1,$8,$9*
0 Add four rect primitives between the rounded corners*
20,1,$1+$1,$2,$3,$4,$5,0*
20,1,$1+$1,$4,$5,$6,$7,0*
20,1,$1+$1,$6,$7,$8,$9,0*
20,1,$1+$1,$8,$9,$2,$3,0*%
%AMFreePoly0*
4,1,505,-0.203634,2.555678,-0.202053,2.555421,-0.199231,2.554726,-0.198634,2.554678,-0.197053,2.554421,-0.194231,2.553726,-0.193634,2.553678,-0.192053,2.553421,-0.176164,2.549509,-0.173164,2.548509,-0.166423,2.545994,-0.165768,2.545723,-0.159148,2.542704,-0.157464,2.541862,-0.157608,2.541572,-0.146835,2.536534,-0.144880,2.535327,-0.140541,2.531895,-0.136165,2.529249,-0.134865,2.528313,
-0.133109,2.526820,-0.132165,2.526249,-0.130865,2.525313,-0.118339,2.514661,-0.110339,2.506661,-0.099687,2.494135,-0.098751,2.492835,-0.098179,2.491890,-0.096687,2.490135,-0.095751,2.488835,-0.093104,2.484458,-0.089673,2.480120,-0.088466,2.478165,-0.083427,2.467391,-0.083138,2.467536,-0.082296,2.465852,-0.079277,2.459232,-0.079006,2.458577,-0.076491,2.451836,-0.075491,2.448836,
-0.071579,2.432947,-0.071322,2.431366,-0.071273,2.430768,-0.070579,2.427947,-0.070322,2.426366,-0.070273,2.425768,-0.069579,2.422947,-0.069322,2.421366,-0.068000,2.405000,-0.068000,2.032000,0.068000,2.032000,0.068000,2.405000,0.069322,2.421366,0.069579,2.422947,0.070273,2.425768,0.070322,2.426366,0.070579,2.427947,0.071273,2.430768,0.071322,2.431366,0.071579,2.432947,
0.075491,2.448836,0.076491,2.451836,0.079006,2.458577,0.079277,2.459232,0.082296,2.465852,0.083138,2.467536,0.083427,2.467391,0.088466,2.478165,0.089673,2.480120,0.093104,2.484458,0.095751,2.488835,0.096687,2.490135,0.098179,2.491890,0.098751,2.492835,0.099687,2.494135,0.110339,2.506661,0.118339,2.514661,0.130865,2.525313,0.132165,2.526249,0.133109,2.526820,
0.134865,2.528313,0.136165,2.529249,0.140541,2.531895,0.144880,2.535327,0.146835,2.536534,0.157608,2.541572,0.157464,2.541862,0.159148,2.542704,0.165768,2.545723,0.166423,2.545994,0.173164,2.548509,0.176164,2.549509,0.192053,2.553421,0.193634,2.553678,0.194231,2.553726,0.197053,2.554421,0.198634,2.554678,0.199231,2.554726,0.202053,2.555421,0.203634,2.555678,
0.220000,2.557000,0.330000,2.557000,0.346366,2.555678,0.347947,2.555421,0.350768,2.554726,0.351366,2.554678,0.352947,2.554421,0.355768,2.553726,0.356366,2.553678,0.357947,2.553421,0.373836,2.549509,0.376836,2.548509,0.383577,2.545994,0.384232,2.545723,0.390852,2.542704,0.392536,2.541862,0.392391,2.541572,0.403165,2.536534,0.405120,2.535327,0.409458,2.531895,
0.413835,2.529249,0.415135,2.528313,0.416890,2.526820,0.417835,2.526249,0.419135,2.525313,0.431661,2.514661,0.439661,2.506661,0.450313,2.494135,0.451249,2.492835,0.451820,2.491890,0.453313,2.490135,0.454249,2.488835,0.456895,2.484458,0.460327,2.480120,0.461534,2.478165,0.466572,2.467391,0.466862,2.467536,0.467704,2.465852,0.470723,2.459232,0.470994,2.458577,
0.473509,2.451836,0.474509,2.448836,0.478421,2.432947,0.478678,2.431366,0.478726,2.430768,0.479421,2.427947,0.479678,2.426366,0.479726,2.425768,0.480421,2.422947,0.480678,2.421366,0.482000,2.405000,0.482000,1.632000,0.980000,1.632000,0.996366,1.630678,0.997947,1.630421,1.000768,1.629726,1.001366,1.629678,1.002947,1.629421,1.005768,1.628726,1.006366,1.628678,
1.007947,1.628421,1.013719,1.627000,1.025000,1.627000,1.084954,1.607520,1.122008,1.556520,1.127000,1.525000,1.127000,1.513718,1.128421,1.507947,1.128678,1.506366,1.128726,1.505768,1.129421,1.502947,1.129678,1.501366,1.129726,1.500768,1.130421,1.497947,1.130678,1.496366,1.132000,1.480000,1.132000,-1.480000,1.130678,-1.496366,1.130421,-1.497947,1.129726,-1.500768,
1.129678,-1.501366,1.129421,-1.502947,1.128726,-1.505768,1.128678,-1.506366,1.128421,-1.507947,1.127000,-1.513718,1.127000,-1.525000,1.107520,-1.584954,1.056520,-1.622008,1.025000,-1.627000,1.013719,-1.627000,1.007947,-1.628421,1.006366,-1.628678,1.005768,-1.628726,1.002947,-1.629421,1.001366,-1.629678,1.000768,-1.629726,0.997947,-1.630421,0.996366,-1.630678,0.980000,-1.632000,
0.482000,-1.632000,0.482000,-2.405000,0.480678,-2.421366,0.480421,-2.422947,0.479726,-2.425768,0.479678,-2.426366,0.479421,-2.427947,0.478726,-2.430768,0.478678,-2.431366,0.478421,-2.432947,0.474509,-2.448836,0.473509,-2.451836,0.470994,-2.458577,0.470723,-2.459232,0.467704,-2.465852,0.466862,-2.467536,0.466572,-2.467391,0.461534,-2.478165,0.460327,-2.480120,0.456895,-2.484458,
0.454249,-2.488835,0.453313,-2.490135,0.451820,-2.491890,0.451249,-2.492835,0.450313,-2.494135,0.439661,-2.506661,0.431661,-2.514661,0.419135,-2.525313,0.417835,-2.526249,0.416890,-2.526820,0.415135,-2.528313,0.413835,-2.529249,0.409458,-2.531895,0.405120,-2.535327,0.403165,-2.536534,0.392391,-2.541572,0.392536,-2.541862,0.390852,-2.542704,0.384232,-2.545723,0.383577,-2.545994,
0.376836,-2.548509,0.373836,-2.549509,0.357947,-2.553421,0.356366,-2.553678,0.355768,-2.553726,0.352947,-2.554421,0.351366,-2.554678,0.350768,-2.554726,0.347947,-2.555421,0.346366,-2.555678,0.330000,-2.557000,0.220000,-2.557000,0.203634,-2.555678,0.202053,-2.555421,0.199231,-2.554726,0.198634,-2.554678,0.197053,-2.554421,0.194231,-2.553726,0.193634,-2.553678,0.192053,-2.553421,
0.176164,-2.549509,0.173164,-2.548509,0.166423,-2.545994,0.165768,-2.545723,0.159148,-2.542704,0.157464,-2.541862,0.157608,-2.541572,0.146835,-2.536534,0.144880,-2.535327,0.140541,-2.531895,0.136165,-2.529249,0.134865,-2.528313,0.133109,-2.526820,0.132165,-2.526249,0.130865,-2.525313,0.118339,-2.514661,0.110339,-2.506661,0.099687,-2.494135,0.098751,-2.492835,0.098179,-2.491890,
0.096687,-2.490135,0.095751,-2.488835,0.093104,-2.484458,0.089673,-2.480120,0.088466,-2.478165,0.083427,-2.467391,0.083138,-2.467536,0.082296,-2.465852,0.079277,-2.459232,0.079006,-2.458577,0.076491,-2.451836,0.075491,-2.448836,0.071579,-2.432947,0.071322,-2.431366,0.071273,-2.430768,0.070579,-2.427947,0.070322,-2.426366,0.070273,-2.425768,0.069579,-2.422947,0.069322,-2.421366,
0.068000,-2.405000,0.068000,-2.032000,-0.068000,-2.032000,-0.068000,-2.405000,-0.069322,-2.421366,-0.069579,-2.422947,-0.070273,-2.425768,-0.070322,-2.426366,-0.070579,-2.427947,-0.071273,-2.430768,-0.071322,-2.431366,-0.071579,-2.432947,-0.075491,-2.448836,-0.076491,-2.451836,-0.079006,-2.458577,-0.079277,-2.459232,-0.082296,-2.465852,-0.083138,-2.467536,-0.083427,-2.467391,-0.088466,-2.478165,
-0.089673,-2.480120,-0.093104,-2.484458,-0.095751,-2.488835,-0.096687,-2.490135,-0.098179,-2.491890,-0.098751,-2.492835,-0.099687,-2.494135,-0.110339,-2.506661,-0.118339,-2.514661,-0.130865,-2.525313,-0.132165,-2.526249,-0.133109,-2.526820,-0.134865,-2.528313,-0.136165,-2.529249,-0.140541,-2.531895,-0.144880,-2.535327,-0.146835,-2.536534,-0.157608,-2.541572,-0.157464,-2.541862,-0.159148,-2.542704,
-0.165768,-2.545723,-0.166423,-2.545994,-0.173164,-2.548509,-0.176164,-2.549509,-0.192053,-2.553421,-0.193634,-2.553678,-0.194231,-2.553726,-0.197053,-2.554421,-0.198634,-2.554678,-0.199231,-2.554726,-0.202053,-2.555421,-0.203634,-2.555678,-0.220000,-2.557000,-0.330000,-2.557000,-0.346366,-2.555678,-0.347947,-2.555421,-0.350768,-2.554726,-0.351366,-2.554678,-0.352947,-2.554421,-0.355768,-2.553726,
-0.356366,-2.553678,-0.357947,-2.553421,-0.373836,-2.549509,-0.376836,-2.548509,-0.383577,-2.545994,-0.384232,-2.545723,-0.390852,-2.542704,-0.392536,-2.541862,-0.392391,-2.541572,-0.403165,-2.536534,-0.405120,-2.535327,-0.409458,-2.531895,-0.413835,-2.529249,-0.415135,-2.528313,-0.416890,-2.526820,-0.417835,-2.526249,-0.419135,-2.525313,-0.431661,-2.514661,-0.439661,-2.506661,-0.450313,-2.494135,
-0.451249,-2.492835,-0.451820,-2.491890,-0.453313,-2.490135,-0.454249,-2.488835,-0.456895,-2.484458,-0.460327,-2.480120,-0.461534,-2.478165,-0.466572,-2.467391,-0.466862,-2.467536,-0.467704,-2.465852,-0.470723,-2.459232,-0.470994,-2.458577,-0.473509,-2.451836,-0.474509,-2.448836,-0.478421,-2.432947,-0.478678,-2.431366,-0.478726,-2.430768,-0.479421,-2.427947,-0.479678,-2.426366,-0.479726,-2.425768,
-0.480421,-2.422947,-0.480678,-2.421366,-0.482000,-2.405000,-0.482000,-1.632000,-0.980000,-1.632000,-0.996366,-1.630678,-0.997947,-1.630421,-1.000768,-1.629726,-1.001366,-1.629678,-1.002947,-1.629421,-1.005768,-1.628726,-1.006366,-1.628678,-1.007947,-1.628421,-1.013719,-1.627000,-1.025000,-1.627000,-1.084954,-1.607520,-1.122008,-1.556520,-1.127000,-1.525000,-1.127000,-1.513718,-1.128421,-1.507947,
-1.128678,-1.506366,-1.128726,-1.505768,-1.129421,-1.502947,-1.129678,-1.501366,-1.129726,-1.500768,-1.130421,-1.497947,-1.130678,-1.496366,-1.132000,-1.480000,-1.132000,1.480000,-1.130678,1.496366,-1.130421,1.497947,-1.129726,1.500768,-1.129678,1.501366,-1.129421,1.502947,-1.128726,1.505768,-1.128678,1.506366,-1.128421,1.507947,-1.127000,1.513718,-1.127000,1.525000,-1.107520,1.584954,
-1.056520,1.622008,-1.025000,1.627000,-1.013719,1.627000,-1.007947,1.628421,-1.006366,1.628678,-1.005768,1.628726,-1.002947,1.629421,-1.001366,1.629678,-1.000768,1.629726,-0.997947,1.630421,-0.996366,1.630678,-0.980000,1.632000,-0.482000,1.632000,-0.482000,2.405000,-0.480678,2.421366,-0.480421,2.422947,-0.479726,2.425768,-0.479678,2.426366,-0.479421,2.427947,-0.478726,2.430768,
-0.478678,2.431366,-0.478421,2.432947,-0.474509,2.448836,-0.473509,2.451836,-0.470994,2.458577,-0.470723,2.459232,-0.467704,2.465852,-0.466862,2.467536,-0.466572,2.467391,-0.461534,2.478165,-0.460327,2.480120,-0.456895,2.484458,-0.454249,2.488835,-0.453313,2.490135,-0.451820,2.491890,-0.451249,2.492835,-0.450313,2.494135,-0.439661,2.506661,-0.431661,2.514661,-0.419135,2.525313,
-0.417835,2.526249,-0.416890,2.526820,-0.415135,2.528313,-0.413835,2.529249,-0.409458,2.531895,-0.405120,2.535327,-0.403165,2.536534,-0.392391,2.541572,-0.392536,2.541862,-0.390852,2.542704,-0.384232,2.545723,-0.383577,2.545994,-0.376836,2.548509,-0.373836,2.549509,-0.357947,2.553421,-0.356366,2.553678,-0.355768,2.553726,-0.352947,2.554421,-0.351366,2.554678,-0.350768,2.554726,
-0.347947,2.555421,-0.346366,2.555678,-0.330000,2.557000,-0.220000,2.557000,-0.203634,2.555678,-0.203634,2.555678,$1*%
G04 Aperture macros list end*
%ADD10C,0.100000*%
%ADD11C,0.150000*%
%ADD12C,0.300000*%
%ADD13C,0.400000*%
%ADD14C,0.000000*%
%ADD15R,1.000000X1.600000*%
%ADD16C,0.950000*%
%ADD17RoundRect,0.250000X-0.350000X-0.450000X0.350000X-0.450000X0.350000X0.450000X-0.350000X0.450000X0*%
%ADD18RoundRect,0.250000X-0.475000X0.337500X-0.475000X-0.337500X0.475000X-0.337500X0.475000X0.337500X0*%
%ADD19R,1.250000X0.600000*%
%ADD20RoundRect,0.250000X0.450000X-0.350000X0.450000X0.350000X-0.450000X0.350000X-0.450000X-0.350000X0*%
%ADD21RoundRect,0.250000X0.475000X-0.337500X0.475000X0.337500X-0.475000X0.337500X-0.475000X-0.337500X0*%
%ADD22FreePoly0,90.000000*%
%ADD23RoundRect,0.250000X0.337500X0.475000X-0.337500X0.475000X-0.337500X-0.475000X0.337500X-0.475000X0*%
%ADD24RoundRect,0.250000X-0.450000X0.350000X-0.450000X-0.350000X0.450000X-0.350000X0.450000X0.350000X0*%
%ADD25RoundRect,0.093072X-0.308528X0.128528X-0.308528X-0.128528X0.308528X-0.128528X0.308528X0.128528X0*%
%ADD26RoundRect,0.093072X-0.128528X0.308528X-0.128528X-0.308528X0.128528X-0.308528X0.128528X0.308528X0*%
%ADD27C,0.703200*%
%ADD28RoundRect,0.250000X-0.450000X0.325000X-0.450000X-0.325000X0.450000X-0.325000X0.450000X0.325000X0*%
%ADD29C,1.400000*%
%ADD30RoundRect,0.250000X0.350000X0.450000X-0.350000X0.450000X-0.350000X-0.450000X0.350000X-0.450000X0*%
G04 APERTURE END LIST*
D10*
D11*
X177002200Y-166007200D02*
X285002200Y-166007200D01*
X285002200Y-198007200D01*
X177002200Y-198007200D01*
X177002200Y-166007200D01*
D10*
D11*
X10000000Y-10000000D02*
X287002200Y-10000000D01*
X287002200Y-200007200D01*
X10000000Y-200007200D01*
X10000000Y-10000000D01*
D10*
D11*
X12000000Y-12000000D02*
X285002200Y-12000000D01*
X285002200Y-198007200D01*
X12000000Y-198007200D01*
X12000000Y-12000000D01*
D10*
D11*
X60000000Y-12000000D02*
X60000000Y-10000000D01*
D10*
D11*
X110000000Y-12000000D02*
X110000000Y-10000000D01*
D10*
D11*
X160000000Y-12000000D02*
X160000000Y-10000000D01*
D10*
D11*
X210000000Y-12000000D02*
X210000000Y-10000000D01*
D10*
D11*
X260000000Y-12000000D02*
X260000000Y-10000000D01*
D10*
D11*
X36089160Y-11593604D02*
X35346303Y-11593604D01*
X35717731Y-11593604D02*
X35717731Y-10293604D01*
X35717731Y-10293604D02*
X35593922Y-10479319D01*
X35593922Y-10479319D02*
X35470112Y-10603128D01*
X35470112Y-10603128D02*
X35346303Y-10665033D01*
D10*
D11*
X85346303Y-10417414D02*
X85408207Y-10355509D01*
X85408207Y-10355509D02*
X85532017Y-10293604D01*
X85532017Y-10293604D02*
X85841541Y-10293604D01*
X85841541Y-10293604D02*
X85965350Y-10355509D01*
X85965350Y-10355509D02*
X86027255Y-10417414D01*
X86027255Y-10417414D02*
X86089160Y-10541223D01*
X86089160Y-10541223D02*
X86089160Y-10665033D01*
X86089160Y-10665033D02*
X86027255Y-10850747D01*
X86027255Y-10850747D02*
X85284398Y-11593604D01*
X85284398Y-11593604D02*
X86089160Y-11593604D01*
D10*
D11*
X135284398Y-10293604D02*
X136089160Y-10293604D01*
X136089160Y-10293604D02*
X135655826Y-10788842D01*
X135655826Y-10788842D02*
X135841541Y-10788842D01*
X135841541Y-10788842D02*
X135965350Y-10850747D01*
X135965350Y-10850747D02*
X136027255Y-10912652D01*
X136027255Y-10912652D02*
X136089160Y-11036461D01*
X136089160Y-11036461D02*
X136089160Y-11345985D01*
X136089160Y-11345985D02*
X136027255Y-11469795D01*
X136027255Y-11469795D02*
X135965350Y-11531700D01*
X135965350Y-11531700D02*
X135841541Y-11593604D01*
X135841541Y-11593604D02*
X135470112Y-11593604D01*
X135470112Y-11593604D02*
X135346303Y-11531700D01*
X135346303Y-11531700D02*
X135284398Y-11469795D01*
D10*
D11*
X185965350Y-10726938D02*
X185965350Y-11593604D01*
X185655826Y-10231700D02*
X185346303Y-11160271D01*
X185346303Y-11160271D02*
X186151064Y-11160271D01*
D10*
D11*
X236027255Y-10293604D02*
X235408207Y-10293604D01*
X235408207Y-10293604D02*
X235346303Y-10912652D01*
X235346303Y-10912652D02*
X235408207Y-10850747D01*
X235408207Y-10850747D02*
X235532017Y-10788842D01*
X235532017Y-10788842D02*
X235841541Y-10788842D01*
X235841541Y-10788842D02*
X235965350Y-10850747D01*
X235965350Y-10850747D02*
X236027255Y-10912652D01*
X236027255Y-10912652D02*
X236089160Y-11036461D01*
X236089160Y-11036461D02*
X236089160Y-11345985D01*
X236089160Y-11345985D02*
X236027255Y-11469795D01*
X236027255Y-11469795D02*
X235965350Y-11531700D01*
X235965350Y-11531700D02*
X235841541Y-11593604D01*
X235841541Y-11593604D02*
X235532017Y-11593604D01*
X235532017Y-11593604D02*
X235408207Y-11531700D01*
X235408207Y-11531700D02*
X235346303Y-11469795D01*
D10*
D11*
X285965350Y-10293604D02*
X285717731Y-10293604D01*
X285717731Y-10293604D02*
X285593922Y-10355509D01*
X285593922Y-10355509D02*
X285532017Y-10417414D01*
X285532017Y-10417414D02*
X285408207Y-10603128D01*
X285408207Y-10603128D02*
X285346303Y-10850747D01*
X285346303Y-10850747D02*
X285346303Y-11345985D01*
X285346303Y-11345985D02*
X285408207Y-11469795D01*
X285408207Y-11469795D02*
X285470112Y-11531700D01*
X285470112Y-11531700D02*
X285593922Y-11593604D01*
X285593922Y-11593604D02*
X285841541Y-11593604D01*
X285841541Y-11593604D02*
X285965350Y-11531700D01*
X285965350Y-11531700D02*
X286027255Y-11469795D01*
X286027255Y-11469795D02*
X286089160Y-11345985D01*
X286089160Y-11345985D02*
X286089160Y-11036461D01*
X286089160Y-11036461D02*
X286027255Y-10912652D01*
X286027255Y-10912652D02*
X285965350Y-10850747D01*
X285965350Y-10850747D02*
X285841541Y-10788842D01*
X285841541Y-10788842D02*
X285593922Y-10788842D01*
X285593922Y-10788842D02*
X285470112Y-10850747D01*
X285470112Y-10850747D02*
X285408207Y-10912652D01*
X285408207Y-10912652D02*
X285346303Y-11036461D01*
D10*
D11*
X60000000Y-198007200D02*
X60000000Y-200007200D01*
D10*
D11*
X110000000Y-198007200D02*
X110000000Y-200007200D01*
D10*
D11*
X160000000Y-198007200D02*
X160000000Y-200007200D01*
D10*
D11*
X210000000Y-198007200D02*
X210000000Y-200007200D01*
D10*
D11*
X260000000Y-198007200D02*
X260000000Y-200007200D01*
D10*
D11*
X36089160Y-199600804D02*
X35346303Y-199600804D01*
X35717731Y-199600804D02*
X35717731Y-198300804D01*
X35717731Y-198300804D02*
X35593922Y-198486519D01*
X35593922Y-198486519D02*
X35470112Y-198610328D01*
X35470112Y-198610328D02*
X35346303Y-198672233D01*
D10*
D11*
X85346303Y-198424614D02*
X85408207Y-198362709D01*
X85408207Y-198362709D02*
X85532017Y-198300804D01*
X85532017Y-198300804D02*
X85841541Y-198300804D01*
X85841541Y-198300804D02*
X85965350Y-198362709D01*
X85965350Y-198362709D02*
X86027255Y-198424614D01*
X86027255Y-198424614D02*
X86089160Y-198548423D01*
X86089160Y-198548423D02*
X86089160Y-198672233D01*
X86089160Y-198672233D02*
X86027255Y-198857947D01*
X86027255Y-198857947D02*
X85284398Y-199600804D01*
X85284398Y-199600804D02*
X86089160Y-199600804D01*
D10*
D11*
X135284398Y-198300804D02*
X136089160Y-198300804D01*
X136089160Y-198300804D02*
X135655826Y-198796042D01*
X135655826Y-198796042D02*
X135841541Y-198796042D01*
X135841541Y-198796042D02*
X135965350Y-198857947D01*
X135965350Y-198857947D02*
X136027255Y-198919852D01*
X136027255Y-198919852D02*
X136089160Y-199043661D01*
X136089160Y-199043661D02*
X136089160Y-199353185D01*
X136089160Y-199353185D02*
X136027255Y-199476995D01*
X136027255Y-199476995D02*
X135965350Y-199538900D01*
X135965350Y-199538900D02*
X135841541Y-199600804D01*
X135841541Y-199600804D02*
X135470112Y-199600804D01*
X135470112Y-199600804D02*
X135346303Y-199538900D01*
X135346303Y-199538900D02*
X135284398Y-199476995D01*
D10*
D11*
X185965350Y-198734138D02*
X185965350Y-199600804D01*
X185655826Y-198238900D02*
X185346303Y-199167471D01*
X185346303Y-199167471D02*
X186151064Y-199167471D01*
D10*
D11*
X236027255Y-198300804D02*
X235408207Y-198300804D01*
X235408207Y-198300804D02*
X235346303Y-198919852D01*
X235346303Y-198919852D02*
X235408207Y-198857947D01*
X235408207Y-198857947D02*
X235532017Y-198796042D01*
X235532017Y-198796042D02*
X235841541Y-198796042D01*
X235841541Y-198796042D02*
X235965350Y-198857947D01*
X235965350Y-198857947D02*
X236027255Y-198919852D01*
X236027255Y-198919852D02*
X236089160Y-199043661D01*
X236089160Y-199043661D02*
X236089160Y-199353185D01*
X236089160Y-199353185D02*
X236027255Y-199476995D01*
X236027255Y-199476995D02*
X235965350Y-199538900D01*
X235965350Y-199538900D02*
X235841541Y-199600804D01*
X235841541Y-199600804D02*
X235532017Y-199600804D01*
X235532017Y-199600804D02*
X235408207Y-199538900D01*
X235408207Y-199538900D02*
X235346303Y-199476995D01*
D10*
D11*
X285965350Y-198300804D02*
X285717731Y-198300804D01*
X285717731Y-198300804D02*
X285593922Y-198362709D01*
X285593922Y-198362709D02*
X285532017Y-198424614D01*
X285532017Y-198424614D02*
X285408207Y-198610328D01*
X285408207Y-198610328D02*
X285346303Y-198857947D01*
X285346303Y-198857947D02*
X285346303Y-199353185D01*
X285346303Y-199353185D02*
X285408207Y-199476995D01*
X285408207Y-199476995D02*
X285470112Y-199538900D01*
X285470112Y-199538900D02*
X285593922Y-199600804D01*
X285593922Y-199600804D02*
X285841541Y-199600804D01*
X285841541Y-199600804D02*
X285965350Y-199538900D01*
X285965350Y-199538900D02*
X286027255Y-199476995D01*
X286027255Y-199476995D02*
X286089160Y-199353185D01*
X286089160Y-199353185D02*
X286089160Y-199043661D01*
X286089160Y-199043661D02*
X286027255Y-198919852D01*
X286027255Y-198919852D02*
X285965350Y-198857947D01*
X285965350Y-198857947D02*
X285841541Y-198796042D01*
X285841541Y-198796042D02*
X285593922Y-198796042D01*
X285593922Y-198796042D02*
X285470112Y-198857947D01*
X285470112Y-198857947D02*
X285408207Y-198919852D01*
X285408207Y-198919852D02*
X285346303Y-199043661D01*
D10*
D11*
X10000000Y-60000000D02*
X12000000Y-60000000D01*
D10*
D11*
X10000000Y-110000000D02*
X12000000Y-110000000D01*
D10*
D11*
X10000000Y-160000000D02*
X12000000Y-160000000D01*
D10*
D11*
X10690476Y-35222176D02*
X11309523Y-35222176D01*
X10566666Y-35593604D02*
X10999999Y-34293604D01*
X10999999Y-34293604D02*
X11433333Y-35593604D01*
D10*
D11*
X11092857Y-84912652D02*
X11278571Y-84974557D01*
X11278571Y-84974557D02*
X11340476Y-85036461D01*
X11340476Y-85036461D02*
X11402380Y-85160271D01*
X11402380Y-85160271D02*
X11402380Y-85345985D01*
X11402380Y-85345985D02*
X11340476Y-85469795D01*
X11340476Y-85469795D02*
X11278571Y-85531700D01*
X11278571Y-85531700D02*
X11154761Y-85593604D01*
X11154761Y-85593604D02*
X10659523Y-85593604D01*
X10659523Y-85593604D02*
X10659523Y-84293604D01*
X10659523Y-84293604D02*
X11092857Y-84293604D01*
X11092857Y-84293604D02*
X11216666Y-84355509D01*
X11216666Y-84355509D02*
X11278571Y-84417414D01*
X11278571Y-84417414D02*
X11340476Y-84541223D01*
X11340476Y-84541223D02*
X11340476Y-84665033D01*
X11340476Y-84665033D02*
X11278571Y-84788842D01*
X11278571Y-84788842D02*
X11216666Y-84850747D01*
X11216666Y-84850747D02*
X11092857Y-84912652D01*
X11092857Y-84912652D02*
X10659523Y-84912652D01*
D10*
D11*
X11402380Y-135469795D02*
X11340476Y-135531700D01*
X11340476Y-135531700D02*
X11154761Y-135593604D01*
X11154761Y-135593604D02*
X11030952Y-135593604D01*
X11030952Y-135593604D02*
X10845238Y-135531700D01*
X10845238Y-135531700D02*
X10721428Y-135407890D01*
X10721428Y-135407890D02*
X10659523Y-135284080D01*
X10659523Y-135284080D02*
X10597619Y-135036461D01*
X10597619Y-135036461D02*
X10597619Y-134850747D01*
X10597619Y-134850747D02*
X10659523Y-134603128D01*
X10659523Y-134603128D02*
X10721428Y-134479319D01*
X10721428Y-134479319D02*
X10845238Y-134355509D01*
X10845238Y-134355509D02*
X11030952Y-134293604D01*
X11030952Y-134293604D02*
X11154761Y-134293604D01*
X11154761Y-134293604D02*
X11340476Y-134355509D01*
X11340476Y-134355509D02*
X11402380Y-134417414D01*
D10*
D11*
X10659523Y-185593604D02*
X10659523Y-184293604D01*
X10659523Y-184293604D02*
X10969047Y-184293604D01*
X10969047Y-184293604D02*
X11154761Y-184355509D01*
X11154761Y-184355509D02*
X11278571Y-184479319D01*
X11278571Y-184479319D02*
X11340476Y-184603128D01*
X11340476Y-184603128D02*
X11402380Y-184850747D01*
X11402380Y-184850747D02*
X11402380Y-185036461D01*
X11402380Y-185036461D02*
X11340476Y-185284080D01*
X11340476Y-185284080D02*
X11278571Y-185407890D01*
X11278571Y-185407890D02*
X11154761Y-185531700D01*
X11154761Y-185531700D02*
X10969047Y-185593604D01*
X10969047Y-185593604D02*
X10659523Y-185593604D01*
D10*
D11*
X287002200Y-60000000D02*
X285002200Y-60000000D01*
D10*
D11*
X287002200Y-110000000D02*
X285002200Y-110000000D01*
D10*
D11*
X287002200Y-160000000D02*
X285002200Y-160000000D01*
D10*
D11*
X285692676Y-35222176D02*
X286311723Y-35222176D01*
X285568866Y-35593604D02*
X286002199Y-34293604D01*
X286002199Y-34293604D02*
X286435533Y-35593604D01*
D10*
D11*
X286095057Y-84912652D02*
X286280771Y-84974557D01*
X286280771Y-84974557D02*
X286342676Y-85036461D01*
X286342676Y-85036461D02*
X286404580Y-85160271D01*
X286404580Y-85160271D02*
X286404580Y-85345985D01*
X286404580Y-85345985D02*
X286342676Y-85469795D01*
X286342676Y-85469795D02*
X286280771Y-85531700D01*
X286280771Y-85531700D02*
X286156961Y-85593604D01*
X286156961Y-85593604D02*
X285661723Y-85593604D01*
X285661723Y-85593604D02*
X285661723Y-84293604D01*
X285661723Y-84293604D02*
X286095057Y-84293604D01*
X286095057Y-84293604D02*
X286218866Y-84355509D01*
X286218866Y-84355509D02*
X286280771Y-84417414D01*
X286280771Y-84417414D02*
X286342676Y-84541223D01*
X286342676Y-84541223D02*
X286342676Y-84665033D01*
X286342676Y-84665033D02*
X286280771Y-84788842D01*
X286280771Y-84788842D02*
X286218866Y-84850747D01*
X286218866Y-84850747D02*
X286095057Y-84912652D01*
X286095057Y-84912652D02*
X285661723Y-84912652D01*
D10*
D11*
X286404580Y-135469795D02*
X286342676Y-135531700D01*
X286342676Y-135531700D02*
X286156961Y-135593604D01*
X286156961Y-135593604D02*
X286033152Y-135593604D01*
X286033152Y-135593604D02*
X285847438Y-135531700D01*
X285847438Y-135531700D02*
X285723628Y-135407890D01*
X285723628Y-135407890D02*
X285661723Y-135284080D01*
X285661723Y-135284080D02*
X285599819Y-135036461D01*
X285599819Y-135036461D02*
X285599819Y-134850747D01*
X285599819Y-134850747D02*
X285661723Y-134603128D01*
X285661723Y-134603128D02*
X285723628Y-134479319D01*
X285723628Y-134479319D02*
X285847438Y-134355509D01*
X285847438Y-134355509D02*
X286033152Y-134293604D01*
X286033152Y-134293604D02*
X286156961Y-134293604D01*
X286156961Y-134293604D02*
X286342676Y-134355509D01*
X286342676Y-134355509D02*
X286404580Y-134417414D01*
D10*
D11*
X285661723Y-185593604D02*
X285661723Y-184293604D01*
X285661723Y-184293604D02*
X285971247Y-184293604D01*
X285971247Y-184293604D02*
X286156961Y-184355509D01*
X286156961Y-184355509D02*
X286280771Y-184479319D01*
X286280771Y-184479319D02*
X286342676Y-184603128D01*
X286342676Y-184603128D02*
X286404580Y-184850747D01*
X286404580Y-184850747D02*
X286404580Y-185036461D01*
X286404580Y-185036461D02*
X286342676Y-185284080D01*
X286342676Y-185284080D02*
X286280771Y-185407890D01*
X286280771Y-185407890D02*
X286156961Y-185531700D01*
X286156961Y-185531700D02*
X285971247Y-185593604D01*
X285971247Y-185593604D02*
X285661723Y-185593604D01*
D10*
D11*
X200458026Y-193793328D02*
X200458026Y-192293328D01*
X200458026Y-192293328D02*
X200815169Y-192293328D01*
X200815169Y-192293328D02*
X201029455Y-192364757D01*
X201029455Y-192364757D02*
X201172312Y-192507614D01*
X201172312Y-192507614D02*
X201243741Y-192650471D01*
X201243741Y-192650471D02*
X201315169Y-192936185D01*
X201315169Y-192936185D02*
X201315169Y-193150471D01*
X201315169Y-193150471D02*
X201243741Y-193436185D01*
X201243741Y-193436185D02*
X201172312Y-193579042D01*
X201172312Y-193579042D02*
X201029455Y-193721900D01*
X201029455Y-193721900D02*
X200815169Y-193793328D01*
X200815169Y-193793328D02*
X200458026Y-193793328D01*
X202600884Y-193793328D02*
X202600884Y-193007614D01*
X202600884Y-193007614D02*
X202529455Y-192864757D01*
X202529455Y-192864757D02*
X202386598Y-192793328D01*
X202386598Y-192793328D02*
X202100884Y-192793328D01*
X202100884Y-192793328D02*
X201958026Y-192864757D01*
X202600884Y-193721900D02*
X202458026Y-193793328D01*
X202458026Y-193793328D02*
X202100884Y-193793328D01*
X202100884Y-193793328D02*
X201958026Y-193721900D01*
X201958026Y-193721900D02*
X201886598Y-193579042D01*
X201886598Y-193579042D02*
X201886598Y-193436185D01*
X201886598Y-193436185D02*
X201958026Y-193293328D01*
X201958026Y-193293328D02*
X202100884Y-193221900D01*
X202100884Y-193221900D02*
X202458026Y-193221900D01*
X202458026Y-193221900D02*
X202600884Y-193150471D01*
X203100884Y-192793328D02*
X203672312Y-192793328D01*
X203315169Y-192293328D02*
X203315169Y-193579042D01*
X203315169Y-193579042D02*
X203386598Y-193721900D01*
X203386598Y-193721900D02*
X203529455Y-193793328D01*
X203529455Y-193793328D02*
X203672312Y-193793328D01*
X204743741Y-193721900D02*
X204600884Y-193793328D01*
X204600884Y-193793328D02*
X204315170Y-193793328D01*
X204315170Y-193793328D02*
X204172312Y-193721900D01*
X204172312Y-193721900D02*
X204100884Y-193579042D01*
X204100884Y-193579042D02*
X204100884Y-193007614D01*
X204100884Y-193007614D02*
X204172312Y-192864757D01*
X204172312Y-192864757D02*
X204315170Y-192793328D01*
X204315170Y-192793328D02*
X204600884Y-192793328D01*
X204600884Y-192793328D02*
X204743741Y-192864757D01*
X204743741Y-192864757D02*
X204815170Y-193007614D01*
X204815170Y-193007614D02*
X204815170Y-193150471D01*
X204815170Y-193150471D02*
X204100884Y-193293328D01*
X205458026Y-193650471D02*
X205529455Y-193721900D01*
X205529455Y-193721900D02*
X205458026Y-193793328D01*
X205458026Y-193793328D02*
X205386598Y-193721900D01*
X205386598Y-193721900D02*
X205458026Y-193650471D01*
X205458026Y-193650471D02*
X205458026Y-193793328D01*
X205458026Y-192864757D02*
X205529455Y-192936185D01*
X205529455Y-192936185D02*
X205458026Y-193007614D01*
X205458026Y-193007614D02*
X205386598Y-192936185D01*
X205386598Y-192936185D02*
X205458026Y-192864757D01*
X205458026Y-192864757D02*
X205458026Y-193007614D01*
X207243741Y-192436185D02*
X207315169Y-192364757D01*
X207315169Y-192364757D02*
X207458027Y-192293328D01*
X207458027Y-192293328D02*
X207815169Y-192293328D01*
X207815169Y-192293328D02*
X207958027Y-192364757D01*
X207958027Y-192364757D02*
X208029455Y-192436185D01*
X208029455Y-192436185D02*
X208100884Y-192579042D01*
X208100884Y-192579042D02*
X208100884Y-192721900D01*
X208100884Y-192721900D02*
X208029455Y-192936185D01*
X208029455Y-192936185D02*
X207172312Y-193793328D01*
X207172312Y-193793328D02*
X208100884Y-193793328D01*
X209029455Y-192293328D02*
X209172312Y-192293328D01*
X209172312Y-192293328D02*
X209315169Y-192364757D01*
X209315169Y-192364757D02*
X209386598Y-192436185D01*
X209386598Y-192436185D02*
X209458026Y-192579042D01*
X209458026Y-192579042D02*
X209529455Y-192864757D01*
X209529455Y-192864757D02*
X209529455Y-193221900D01*
X209529455Y-193221900D02*
X209458026Y-193507614D01*
X209458026Y-193507614D02*
X209386598Y-193650471D01*
X209386598Y-193650471D02*
X209315169Y-193721900D01*
X209315169Y-193721900D02*
X209172312Y-193793328D01*
X209172312Y-193793328D02*
X209029455Y-193793328D01*
X209029455Y-193793328D02*
X208886598Y-193721900D01*
X208886598Y-193721900D02*
X208815169Y-193650471D01*
X208815169Y-193650471D02*
X208743740Y-193507614D01*
X208743740Y-193507614D02*
X208672312Y-193221900D01*
X208672312Y-193221900D02*
X208672312Y-192864757D01*
X208672312Y-192864757D02*
X208743740Y-192579042D01*
X208743740Y-192579042D02*
X208815169Y-192436185D01*
X208815169Y-192436185D02*
X208886598Y-192364757D01*
X208886598Y-192364757D02*
X209029455Y-192293328D01*
X210100883Y-192436185D02*
X210172311Y-192364757D01*
X210172311Y-192364757D02*
X210315169Y-192293328D01*
X210315169Y-192293328D02*
X210672311Y-192293328D01*
X210672311Y-192293328D02*
X210815169Y-192364757D01*
X210815169Y-192364757D02*
X210886597Y-192436185D01*
X210886597Y-192436185D02*
X210958026Y-192579042D01*
X210958026Y-192579042D02*
X210958026Y-192721900D01*
X210958026Y-192721900D02*
X210886597Y-192936185D01*
X210886597Y-192936185D02*
X210029454Y-193793328D01*
X210029454Y-193793328D02*
X210958026Y-193793328D01*
X212315168Y-192293328D02*
X211600882Y-192293328D01*
X211600882Y-192293328D02*
X211529454Y-193007614D01*
X211529454Y-193007614D02*
X211600882Y-192936185D01*
X211600882Y-192936185D02*
X211743740Y-192864757D01*
X211743740Y-192864757D02*
X212100882Y-192864757D01*
X212100882Y-192864757D02*
X212243740Y-192936185D01*
X212243740Y-192936185D02*
X212315168Y-193007614D01*
X212315168Y-193007614D02*
X212386597Y-193150471D01*
X212386597Y-193150471D02*
X212386597Y-193507614D01*
X212386597Y-193507614D02*
X212315168Y-193650471D01*
X212315168Y-193650471D02*
X212243740Y-193721900D01*
X212243740Y-193721900D02*
X212100882Y-193793328D01*
X212100882Y-193793328D02*
X211743740Y-193793328D01*
X211743740Y-193793328D02*
X211600882Y-193721900D01*
X211600882Y-193721900D02*
X211529454Y-193650471D01*
X213029453Y-193221900D02*
X214172311Y-193221900D01*
X215172311Y-192293328D02*
X215315168Y-192293328D01*
X215315168Y-192293328D02*
X215458025Y-192364757D01*
X215458025Y-192364757D02*
X215529454Y-192436185D01*
X215529454Y-192436185D02*
X215600882Y-192579042D01*
X215600882Y-192579042D02*
X215672311Y-192864757D01*
X215672311Y-192864757D02*
X215672311Y-193221900D01*
X215672311Y-193221900D02*
X215600882Y-193507614D01*
X215600882Y-193507614D02*
X215529454Y-193650471D01*
X215529454Y-193650471D02*
X215458025Y-193721900D01*
X215458025Y-193721900D02*
X215315168Y-193793328D01*
X215315168Y-193793328D02*
X215172311Y-193793328D01*
X215172311Y-193793328D02*
X215029454Y-193721900D01*
X215029454Y-193721900D02*
X214958025Y-193650471D01*
X214958025Y-193650471D02*
X214886596Y-193507614D01*
X214886596Y-193507614D02*
X214815168Y-193221900D01*
X214815168Y-193221900D02*
X214815168Y-192864757D01*
X214815168Y-192864757D02*
X214886596Y-192579042D01*
X214886596Y-192579042D02*
X214958025Y-192436185D01*
X214958025Y-192436185D02*
X215029454Y-192364757D01*
X215029454Y-192364757D02*
X215172311Y-192293328D01*
X216958025Y-192293328D02*
X216672310Y-192293328D01*
X216672310Y-192293328D02*
X216529453Y-192364757D01*
X216529453Y-192364757D02*
X216458025Y-192436185D01*
X216458025Y-192436185D02*
X216315167Y-192650471D01*
X216315167Y-192650471D02*
X216243739Y-192936185D01*
X216243739Y-192936185D02*
X216243739Y-193507614D01*
X216243739Y-193507614D02*
X216315167Y-193650471D01*
X216315167Y-193650471D02*
X216386596Y-193721900D01*
X216386596Y-193721900D02*
X216529453Y-193793328D01*
X216529453Y-193793328D02*
X216815167Y-193793328D01*
X216815167Y-193793328D02*
X216958025Y-193721900D01*
X216958025Y-193721900D02*
X217029453Y-193650471D01*
X217029453Y-193650471D02*
X217100882Y-193507614D01*
X217100882Y-193507614D02*
X217100882Y-193150471D01*
X217100882Y-193150471D02*
X217029453Y-193007614D01*
X217029453Y-193007614D02*
X216958025Y-192936185D01*
X216958025Y-192936185D02*
X216815167Y-192864757D01*
X216815167Y-192864757D02*
X216529453Y-192864757D01*
X216529453Y-192864757D02*
X216386596Y-192936185D01*
X216386596Y-192936185D02*
X216315167Y-193007614D01*
X216315167Y-193007614D02*
X216243739Y-193150471D01*
X217743738Y-193221900D02*
X218886596Y-193221900D01*
X220386596Y-193793328D02*
X219529453Y-193793328D01*
X219958024Y-193793328D02*
X219958024Y-192293328D01*
X219958024Y-192293328D02*
X219815167Y-192507614D01*
X219815167Y-192507614D02*
X219672310Y-192650471D01*
X219672310Y-192650471D02*
X219529453Y-192721900D01*
X220958024Y-192436185D02*
X221029452Y-192364757D01*
X221029452Y-192364757D02*
X221172310Y-192293328D01*
X221172310Y-192293328D02*
X221529452Y-192293328D01*
X221529452Y-192293328D02*
X221672310Y-192364757D01*
X221672310Y-192364757D02*
X221743738Y-192436185D01*
X221743738Y-192436185D02*
X221815167Y-192579042D01*
X221815167Y-192579042D02*
X221815167Y-192721900D01*
X221815167Y-192721900D02*
X221743738Y-192936185D01*
X221743738Y-192936185D02*
X220886595Y-193793328D01*
X220886595Y-193793328D02*
X221815167Y-193793328D01*
D10*
D11*
X177002200Y-194507200D02*
X285002200Y-194507200D01*
D10*
D11*
X178458026Y-196593328D02*
X178458026Y-195093328D01*
X179315169Y-196593328D02*
X178672312Y-195736185D01*
X179315169Y-195093328D02*
X178458026Y-195950471D01*
X179958026Y-196593328D02*
X179958026Y-195593328D01*
X179958026Y-195093328D02*
X179886598Y-195164757D01*
X179886598Y-195164757D02*
X179958026Y-195236185D01*
X179958026Y-195236185D02*
X180029455Y-195164757D01*
X180029455Y-195164757D02*
X179958026Y-195093328D01*
X179958026Y-195093328D02*
X179958026Y-195236185D01*
X181529455Y-196450471D02*
X181458027Y-196521900D01*
X181458027Y-196521900D02*
X181243741Y-196593328D01*
X181243741Y-196593328D02*
X181100884Y-196593328D01*
X181100884Y-196593328D02*
X180886598Y-196521900D01*
X180886598Y-196521900D02*
X180743741Y-196379042D01*
X180743741Y-196379042D02*
X180672312Y-196236185D01*
X180672312Y-196236185D02*
X180600884Y-195950471D01*
X180600884Y-195950471D02*
X180600884Y-195736185D01*
X180600884Y-195736185D02*
X180672312Y-195450471D01*
X180672312Y-195450471D02*
X180743741Y-195307614D01*
X180743741Y-195307614D02*
X180886598Y-195164757D01*
X180886598Y-195164757D02*
X181100884Y-195093328D01*
X181100884Y-195093328D02*
X181243741Y-195093328D01*
X181243741Y-195093328D02*
X181458027Y-195164757D01*
X181458027Y-195164757D02*
X181529455Y-195236185D01*
X182815170Y-196593328D02*
X182815170Y-195807614D01*
X182815170Y-195807614D02*
X182743741Y-195664757D01*
X182743741Y-195664757D02*
X182600884Y-195593328D01*
X182600884Y-195593328D02*
X182315170Y-195593328D01*
X182315170Y-195593328D02*
X182172312Y-195664757D01*
X182815170Y-196521900D02*
X182672312Y-196593328D01*
X182672312Y-196593328D02*
X182315170Y-196593328D01*
X182315170Y-196593328D02*
X182172312Y-196521900D01*
X182172312Y-196521900D02*
X182100884Y-196379042D01*
X182100884Y-196379042D02*
X182100884Y-196236185D01*
X182100884Y-196236185D02*
X182172312Y-196093328D01*
X182172312Y-196093328D02*
X182315170Y-196021900D01*
X182315170Y-196021900D02*
X182672312Y-196021900D01*
X182672312Y-196021900D02*
X182815170Y-195950471D01*
X184172313Y-196593328D02*
X184172313Y-195093328D01*
X184172313Y-196521900D02*
X184029455Y-196593328D01*
X184029455Y-196593328D02*
X183743741Y-196593328D01*
X183743741Y-196593328D02*
X183600884Y-196521900D01*
X183600884Y-196521900D02*
X183529455Y-196450471D01*
X183529455Y-196450471D02*
X183458027Y-196307614D01*
X183458027Y-196307614D02*
X183458027Y-195879042D01*
X183458027Y-195879042D02*
X183529455Y-195736185D01*
X183529455Y-195736185D02*
X183600884Y-195664757D01*
X183600884Y-195664757D02*
X183743741Y-195593328D01*
X183743741Y-195593328D02*
X184029455Y-195593328D01*
X184029455Y-195593328D02*
X184172313Y-195664757D01*
X186029455Y-195807614D02*
X186529455Y-195807614D01*
X186743741Y-196593328D02*
X186029455Y-196593328D01*
X186029455Y-196593328D02*
X186029455Y-195093328D01*
X186029455Y-195093328D02*
X186743741Y-195093328D01*
X187386598Y-196450471D02*
X187458027Y-196521900D01*
X187458027Y-196521900D02*
X187386598Y-196593328D01*
X187386598Y-196593328D02*
X187315170Y-196521900D01*
X187315170Y-196521900D02*
X187386598Y-196450471D01*
X187386598Y-196450471D02*
X187386598Y-196593328D01*
X188100884Y-196593328D02*
X188100884Y-195093328D01*
X188100884Y-195093328D02*
X188458027Y-195093328D01*
X188458027Y-195093328D02*
X188672313Y-195164757D01*
X188672313Y-195164757D02*
X188815170Y-195307614D01*
X188815170Y-195307614D02*
X188886599Y-195450471D01*
X188886599Y-195450471D02*
X188958027Y-195736185D01*
X188958027Y-195736185D02*
X188958027Y-195950471D01*
X188958027Y-195950471D02*
X188886599Y-196236185D01*
X188886599Y-196236185D02*
X188815170Y-196379042D01*
X188815170Y-196379042D02*
X188672313Y-196521900D01*
X188672313Y-196521900D02*
X188458027Y-196593328D01*
X188458027Y-196593328D02*
X188100884Y-196593328D01*
X189600884Y-196450471D02*
X189672313Y-196521900D01*
X189672313Y-196521900D02*
X189600884Y-196593328D01*
X189600884Y-196593328D02*
X189529456Y-196521900D01*
X189529456Y-196521900D02*
X189600884Y-196450471D01*
X189600884Y-196450471D02*
X189600884Y-196593328D01*
X190243742Y-196164757D02*
X190958028Y-196164757D01*
X190100885Y-196593328D02*
X190600885Y-195093328D01*
X190600885Y-195093328D02*
X191100885Y-196593328D01*
X191600884Y-196450471D02*
X191672313Y-196521900D01*
X191672313Y-196521900D02*
X191600884Y-196593328D01*
X191600884Y-196593328D02*
X191529456Y-196521900D01*
X191529456Y-196521900D02*
X191600884Y-196450471D01*
X191600884Y-196450471D02*
X191600884Y-196593328D01*
X193529456Y-196593328D02*
X193815170Y-196593328D01*
X193815170Y-196593328D02*
X193958027Y-196521900D01*
X193958027Y-196521900D02*
X194029456Y-196450471D01*
X194029456Y-196450471D02*
X194172313Y-196236185D01*
X194172313Y-196236185D02*
X194243742Y-195950471D01*
X194243742Y-195950471D02*
X194243742Y-195379042D01*
X194243742Y-195379042D02*
X194172313Y-195236185D01*
X194172313Y-195236185D02*
X194100885Y-195164757D01*
X194100885Y-195164757D02*
X193958027Y-195093328D01*
X193958027Y-195093328D02*
X193672313Y-195093328D01*
X193672313Y-195093328D02*
X193529456Y-195164757D01*
X193529456Y-195164757D02*
X193458027Y-195236185D01*
X193458027Y-195236185D02*
X193386599Y-195379042D01*
X193386599Y-195379042D02*
X193386599Y-195736185D01*
X193386599Y-195736185D02*
X193458027Y-195879042D01*
X193458027Y-195879042D02*
X193529456Y-195950471D01*
X193529456Y-195950471D02*
X193672313Y-196021900D01*
X193672313Y-196021900D02*
X193958027Y-196021900D01*
X193958027Y-196021900D02*
X194100885Y-195950471D01*
X194100885Y-195950471D02*
X194172313Y-195879042D01*
X194172313Y-195879042D02*
X194243742Y-195736185D01*
X194886598Y-196450471D02*
X194958027Y-196521900D01*
X194958027Y-196521900D02*
X194886598Y-196593328D01*
X194886598Y-196593328D02*
X194815170Y-196521900D01*
X194815170Y-196521900D02*
X194886598Y-196450471D01*
X194886598Y-196450471D02*
X194886598Y-196593328D01*
X195886599Y-195093328D02*
X196029456Y-195093328D01*
X196029456Y-195093328D02*
X196172313Y-195164757D01*
X196172313Y-195164757D02*
X196243742Y-195236185D01*
X196243742Y-195236185D02*
X196315170Y-195379042D01*
X196315170Y-195379042D02*
X196386599Y-195664757D01*
X196386599Y-195664757D02*
X196386599Y-196021900D01*
X196386599Y-196021900D02*
X196315170Y-196307614D01*
X196315170Y-196307614D02*
X196243742Y-196450471D01*
X196243742Y-196450471D02*
X196172313Y-196521900D01*
X196172313Y-196521900D02*
X196029456Y-196593328D01*
X196029456Y-196593328D02*
X195886599Y-196593328D01*
X195886599Y-196593328D02*
X195743742Y-196521900D01*
X195743742Y-196521900D02*
X195672313Y-196450471D01*
X195672313Y-196450471D02*
X195600884Y-196307614D01*
X195600884Y-196307614D02*
X195529456Y-196021900D01*
X195529456Y-196021900D02*
X195529456Y-195664757D01*
X195529456Y-195664757D02*
X195600884Y-195379042D01*
X195600884Y-195379042D02*
X195672313Y-195236185D01*
X195672313Y-195236185D02*
X195743742Y-195164757D01*
X195743742Y-195164757D02*
X195886599Y-195093328D01*
X197029455Y-196450471D02*
X197100884Y-196521900D01*
X197100884Y-196521900D02*
X197029455Y-196593328D01*
X197029455Y-196593328D02*
X196958027Y-196521900D01*
X196958027Y-196521900D02*
X197029455Y-196450471D01*
X197029455Y-196450471D02*
X197029455Y-196593328D01*
X198529456Y-196593328D02*
X197672313Y-196593328D01*
X198100884Y-196593328D02*
X198100884Y-195093328D01*
X198100884Y-195093328D02*
X197958027Y-195307614D01*
X197958027Y-195307614D02*
X197815170Y-195450471D01*
X197815170Y-195450471D02*
X197672313Y-195521900D01*
D10*
D11*
X177002200Y-191507200D02*
X285002200Y-191507200D01*
D10*
D12*
X264413853Y-193785528D02*
X263913853Y-193071242D01*
X263556710Y-193785528D02*
X263556710Y-192285528D01*
X263556710Y-192285528D02*
X264128139Y-192285528D01*
X264128139Y-192285528D02*
X264270996Y-192356957D01*
X264270996Y-192356957D02*
X264342425Y-192428385D01*
X264342425Y-192428385D02*
X264413853Y-192571242D01*
X264413853Y-192571242D02*
X264413853Y-192785528D01*
X264413853Y-192785528D02*
X264342425Y-192928385D01*
X264342425Y-192928385D02*
X264270996Y-192999814D01*
X264270996Y-192999814D02*
X264128139Y-193071242D01*
X264128139Y-193071242D02*
X263556710Y-193071242D01*
X265628139Y-193714100D02*
X265485282Y-193785528D01*
X265485282Y-193785528D02*
X265199568Y-193785528D01*
X265199568Y-193785528D02*
X265056710Y-193714100D01*
X265056710Y-193714100D02*
X264985282Y-193571242D01*
X264985282Y-193571242D02*
X264985282Y-192999814D01*
X264985282Y-192999814D02*
X265056710Y-192856957D01*
X265056710Y-192856957D02*
X265199568Y-192785528D01*
X265199568Y-192785528D02*
X265485282Y-192785528D01*
X265485282Y-192785528D02*
X265628139Y-192856957D01*
X265628139Y-192856957D02*
X265699568Y-192999814D01*
X265699568Y-192999814D02*
X265699568Y-193142671D01*
X265699568Y-193142671D02*
X264985282Y-193285528D01*
X266199567Y-192785528D02*
X266556710Y-193785528D01*
X266556710Y-193785528D02*
X266913853Y-192785528D01*
X267485281Y-193642671D02*
X267556710Y-193714100D01*
X267556710Y-193714100D02*
X267485281Y-193785528D01*
X267485281Y-193785528D02*
X267413853Y-193714100D01*
X267413853Y-193714100D02*
X267485281Y-193642671D01*
X267485281Y-193642671D02*
X267485281Y-193785528D01*
X267485281Y-192856957D02*
X267556710Y-192928385D01*
X267556710Y-192928385D02*
X267485281Y-192999814D01*
X267485281Y-192999814D02*
X267413853Y-192928385D01*
X267413853Y-192928385D02*
X267485281Y-192856957D01*
X267485281Y-192856957D02*
X267485281Y-192999814D01*
X269270996Y-193356957D02*
X269985282Y-193356957D01*
X269128139Y-193785528D02*
X269628139Y-192285528D01*
X269628139Y-192285528D02*
X270128139Y-193785528D01*
D10*
D11*
X178386598Y-193721900D02*
X178600884Y-193793328D01*
X178600884Y-193793328D02*
X178958026Y-193793328D01*
X178958026Y-193793328D02*
X179100884Y-193721900D01*
X179100884Y-193721900D02*
X179172312Y-193650471D01*
X179172312Y-193650471D02*
X179243741Y-193507614D01*
X179243741Y-193507614D02*
X179243741Y-193364757D01*
X179243741Y-193364757D02*
X179172312Y-193221900D01*
X179172312Y-193221900D02*
X179100884Y-193150471D01*
X179100884Y-193150471D02*
X178958026Y-193079042D01*
X178958026Y-193079042D02*
X178672312Y-193007614D01*
X178672312Y-193007614D02*
X178529455Y-192936185D01*
X178529455Y-192936185D02*
X178458026Y-192864757D01*
X178458026Y-192864757D02*
X178386598Y-192721900D01*
X178386598Y-192721900D02*
X178386598Y-192579042D01*
X178386598Y-192579042D02*
X178458026Y-192436185D01*
X178458026Y-192436185D02*
X178529455Y-192364757D01*
X178529455Y-192364757D02*
X178672312Y-192293328D01*
X178672312Y-192293328D02*
X179029455Y-192293328D01*
X179029455Y-192293328D02*
X179243741Y-192364757D01*
X179886597Y-193793328D02*
X179886597Y-192793328D01*
X179886597Y-192293328D02*
X179815169Y-192364757D01*
X179815169Y-192364757D02*
X179886597Y-192436185D01*
X179886597Y-192436185D02*
X179958026Y-192364757D01*
X179958026Y-192364757D02*
X179886597Y-192293328D01*
X179886597Y-192293328D02*
X179886597Y-192436185D01*
X180458026Y-192793328D02*
X181243741Y-192793328D01*
X181243741Y-192793328D02*
X180458026Y-193793328D01*
X180458026Y-193793328D02*
X181243741Y-193793328D01*
X182386598Y-193721900D02*
X182243741Y-193793328D01*
X182243741Y-193793328D02*
X181958027Y-193793328D01*
X181958027Y-193793328D02*
X181815169Y-193721900D01*
X181815169Y-193721900D02*
X181743741Y-193579042D01*
X181743741Y-193579042D02*
X181743741Y-193007614D01*
X181743741Y-193007614D02*
X181815169Y-192864757D01*
X181815169Y-192864757D02*
X181958027Y-192793328D01*
X181958027Y-192793328D02*
X182243741Y-192793328D01*
X182243741Y-192793328D02*
X182386598Y-192864757D01*
X182386598Y-192864757D02*
X182458027Y-193007614D01*
X182458027Y-193007614D02*
X182458027Y-193150471D01*
X182458027Y-193150471D02*
X181743741Y-193293328D01*
X183100883Y-193650471D02*
X183172312Y-193721900D01*
X183172312Y-193721900D02*
X183100883Y-193793328D01*
X183100883Y-193793328D02*
X183029455Y-193721900D01*
X183029455Y-193721900D02*
X183100883Y-193650471D01*
X183100883Y-193650471D02*
X183100883Y-193793328D01*
X183100883Y-192864757D02*
X183172312Y-192936185D01*
X183172312Y-192936185D02*
X183100883Y-193007614D01*
X183100883Y-193007614D02*
X183029455Y-192936185D01*
X183029455Y-192936185D02*
X183100883Y-192864757D01*
X183100883Y-192864757D02*
X183100883Y-193007614D01*
X184886598Y-193364757D02*
X185600884Y-193364757D01*
X184743741Y-193793328D02*
X185243741Y-192293328D01*
X185243741Y-192293328D02*
X185743741Y-193793328D01*
X186886598Y-192793328D02*
X186886598Y-193793328D01*
X186529455Y-192221900D02*
X186172312Y-193293328D01*
X186172312Y-193293328D02*
X187100883Y-193293328D01*
D10*
D11*
X263458026Y-196593328D02*
X263458026Y-195093328D01*
X264815170Y-196593328D02*
X264815170Y-195093328D01*
X264815170Y-196521900D02*
X264672312Y-196593328D01*
X264672312Y-196593328D02*
X264386598Y-196593328D01*
X264386598Y-196593328D02*
X264243741Y-196521900D01*
X264243741Y-196521900D02*
X264172312Y-196450471D01*
X264172312Y-196450471D02*
X264100884Y-196307614D01*
X264100884Y-196307614D02*
X264100884Y-195879042D01*
X264100884Y-195879042D02*
X264172312Y-195736185D01*
X264172312Y-195736185D02*
X264243741Y-195664757D01*
X264243741Y-195664757D02*
X264386598Y-195593328D01*
X264386598Y-195593328D02*
X264672312Y-195593328D01*
X264672312Y-195593328D02*
X264815170Y-195664757D01*
X265529455Y-196450471D02*
X265600884Y-196521900D01*
X265600884Y-196521900D02*
X265529455Y-196593328D01*
X265529455Y-196593328D02*
X265458027Y-196521900D01*
X265458027Y-196521900D02*
X265529455Y-196450471D01*
X265529455Y-196450471D02*
X265529455Y-196593328D01*
X265529455Y-195664757D02*
X265600884Y-195736185D01*
X265600884Y-195736185D02*
X265529455Y-195807614D01*
X265529455Y-195807614D02*
X265458027Y-195736185D01*
X265458027Y-195736185D02*
X265529455Y-195664757D01*
X265529455Y-195664757D02*
X265529455Y-195807614D01*
X268029456Y-195093328D02*
X267743741Y-195093328D01*
X267743741Y-195093328D02*
X267600884Y-195164757D01*
X267600884Y-195164757D02*
X267529456Y-195236185D01*
X267529456Y-195236185D02*
X267386598Y-195450471D01*
X267386598Y-195450471D02*
X267315170Y-195736185D01*
X267315170Y-195736185D02*
X267315170Y-196307614D01*
X267315170Y-196307614D02*
X267386598Y-196450471D01*
X267386598Y-196450471D02*
X267458027Y-196521900D01*
X267458027Y-196521900D02*
X267600884Y-196593328D01*
X267600884Y-196593328D02*
X267886598Y-196593328D01*
X267886598Y-196593328D02*
X268029456Y-196521900D01*
X268029456Y-196521900D02*
X268100884Y-196450471D01*
X268100884Y-196450471D02*
X268172313Y-196307614D01*
X268172313Y-196307614D02*
X268172313Y-195950471D01*
X268172313Y-195950471D02*
X268100884Y-195807614D01*
X268100884Y-195807614D02*
X268029456Y-195736185D01*
X268029456Y-195736185D02*
X267886598Y-195664757D01*
X267886598Y-195664757D02*
X267600884Y-195664757D01*
X267600884Y-195664757D02*
X267458027Y-195736185D01*
X267458027Y-195736185D02*
X267386598Y-195807614D01*
X267386598Y-195807614D02*
X267315170Y-195950471D01*
X269886598Y-195021900D02*
X268600884Y-196950471D01*
X270600884Y-195736185D02*
X270458027Y-195664757D01*
X270458027Y-195664757D02*
X270386598Y-195593328D01*
X270386598Y-195593328D02*
X270315170Y-195450471D01*
X270315170Y-195450471D02*
X270315170Y-195379042D01*
X270315170Y-195379042D02*
X270386598Y-195236185D01*
X270386598Y-195236185D02*
X270458027Y-195164757D01*
X270458027Y-195164757D02*
X270600884Y-195093328D01*
X270600884Y-195093328D02*
X270886598Y-195093328D01*
X270886598Y-195093328D02*
X271029456Y-195164757D01*
X271029456Y-195164757D02*
X271100884Y-195236185D01*
X271100884Y-195236185D02*
X271172313Y-195379042D01*
X271172313Y-195379042D02*
X271172313Y-195450471D01*
X271172313Y-195450471D02*
X271100884Y-195593328D01*
X271100884Y-195593328D02*
X271029456Y-195664757D01*
X271029456Y-195664757D02*
X270886598Y-195736185D01*
X270886598Y-195736185D02*
X270600884Y-195736185D01*
X270600884Y-195736185D02*
X270458027Y-195807614D01*
X270458027Y-195807614D02*
X270386598Y-195879042D01*
X270386598Y-195879042D02*
X270315170Y-196021900D01*
X270315170Y-196021900D02*
X270315170Y-196307614D01*
X270315170Y-196307614D02*
X270386598Y-196450471D01*
X270386598Y-196450471D02*
X270458027Y-196521900D01*
X270458027Y-196521900D02*
X270600884Y-196593328D01*
X270600884Y-196593328D02*
X270886598Y-196593328D01*
X270886598Y-196593328D02*
X271029456Y-196521900D01*
X271029456Y-196521900D02*
X271100884Y-196450471D01*
X271100884Y-196450471D02*
X271172313Y-196307614D01*
X271172313Y-196307614D02*
X271172313Y-196021900D01*
X271172313Y-196021900D02*
X271100884Y-195879042D01*
X271100884Y-195879042D02*
X271029456Y-195807614D01*
X271029456Y-195807614D02*
X270886598Y-195736185D01*
D10*
D11*
X177002200Y-187507200D02*
X285002200Y-187507200D01*
D10*
D13*
X178693928Y-188211638D02*
X179836785Y-188211638D01*
X179015357Y-190211638D02*
X179265357Y-188211638D01*
X180253452Y-190211638D02*
X180420119Y-188878304D01*
X180503452Y-188211638D02*
X180396309Y-188306876D01*
X180396309Y-188306876D02*
X180479643Y-188402114D01*
X180479643Y-188402114D02*
X180586786Y-188306876D01*
X180586786Y-188306876D02*
X180503452Y-188211638D01*
X180503452Y-188211638D02*
X180479643Y-188402114D01*
X181086786Y-188878304D02*
X181848690Y-188878304D01*
X181455833Y-188211638D02*
X181241548Y-189925923D01*
X181241548Y-189925923D02*
X181312976Y-190116400D01*
X181312976Y-190116400D02*
X181491548Y-190211638D01*
X181491548Y-190211638D02*
X181682024Y-190211638D01*
X182634405Y-190211638D02*
X182455833Y-190116400D01*
X182455833Y-190116400D02*
X182384405Y-189925923D01*
X182384405Y-189925923D02*
X182598690Y-188211638D01*
X184170119Y-190116400D02*
X183967738Y-190211638D01*
X183967738Y-190211638D02*
X183586785Y-190211638D01*
X183586785Y-190211638D02*
X183408214Y-190116400D01*
X183408214Y-190116400D02*
X183336785Y-189925923D01*
X183336785Y-189925923D02*
X183432024Y-189164019D01*
X183432024Y-189164019D02*
X183551071Y-188973542D01*
X183551071Y-188973542D02*
X183753452Y-188878304D01*
X183753452Y-188878304D02*
X184134404Y-188878304D01*
X184134404Y-188878304D02*
X184312976Y-188973542D01*
X184312976Y-188973542D02*
X184384404Y-189164019D01*
X184384404Y-189164019D02*
X184360595Y-189354495D01*
X184360595Y-189354495D02*
X183384404Y-189544971D01*
X185134405Y-190021161D02*
X185217738Y-190116400D01*
X185217738Y-190116400D02*
X185110595Y-190211638D01*
X185110595Y-190211638D02*
X185027262Y-190116400D01*
X185027262Y-190116400D02*
X185134405Y-190021161D01*
X185134405Y-190021161D02*
X185110595Y-190211638D01*
X185265357Y-188973542D02*
X185348690Y-189068780D01*
X185348690Y-189068780D02*
X185241548Y-189164019D01*
X185241548Y-189164019D02*
X185158214Y-189068780D01*
X185158214Y-189068780D02*
X185265357Y-188973542D01*
X185265357Y-188973542D02*
X185241548Y-189164019D01*
X188753453Y-190021161D02*
X188646310Y-190116400D01*
X188646310Y-190116400D02*
X188348691Y-190211638D01*
X188348691Y-190211638D02*
X188158215Y-190211638D01*
X188158215Y-190211638D02*
X187884405Y-190116400D01*
X187884405Y-190116400D02*
X187717739Y-189925923D01*
X187717739Y-189925923D02*
X187646310Y-189735447D01*
X187646310Y-189735447D02*
X187598691Y-189354495D01*
X187598691Y-189354495D02*
X187634405Y-189068780D01*
X187634405Y-189068780D02*
X187777262Y-188687828D01*
X187777262Y-188687828D02*
X187896310Y-188497352D01*
X187896310Y-188497352D02*
X188110596Y-188306876D01*
X188110596Y-188306876D02*
X188408215Y-188211638D01*
X188408215Y-188211638D02*
X188598691Y-188211638D01*
X188598691Y-188211638D02*
X188872501Y-188306876D01*
X188872501Y-188306876D02*
X188955834Y-188402114D01*
X189586786Y-190211638D02*
X189753453Y-188878304D01*
X189705834Y-189259257D02*
X189824881Y-189068780D01*
X189824881Y-189068780D02*
X189932024Y-188973542D01*
X189932024Y-188973542D02*
X190134405Y-188878304D01*
X190134405Y-188878304D02*
X190324881Y-188878304D01*
X191682024Y-190211638D02*
X191812976Y-189164019D01*
X191812976Y-189164019D02*
X191741548Y-188973542D01*
X191741548Y-188973542D02*
X191562976Y-188878304D01*
X191562976Y-188878304D02*
X191182024Y-188878304D01*
X191182024Y-188878304D02*
X190979643Y-188973542D01*
X191693929Y-190116400D02*
X191491548Y-190211638D01*
X191491548Y-190211638D02*
X191015357Y-190211638D01*
X191015357Y-190211638D02*
X190836786Y-190116400D01*
X190836786Y-190116400D02*
X190765357Y-189925923D01*
X190765357Y-189925923D02*
X190789167Y-189735447D01*
X190789167Y-189735447D02*
X190908215Y-189544971D01*
X190908215Y-189544971D02*
X191110596Y-189449733D01*
X191110596Y-189449733D02*
X191586786Y-189449733D01*
X191586786Y-189449733D02*
X191789167Y-189354495D01*
X192610596Y-188878304D02*
X193658215Y-188878304D01*
X193658215Y-188878304D02*
X192443929Y-190211638D01*
X192443929Y-190211638D02*
X193491548Y-190211638D01*
X194229644Y-188878304D02*
X194539168Y-190211638D01*
X195182025Y-188878304D02*
X194539168Y-190211638D01*
X194539168Y-190211638D02*
X194289168Y-190687828D01*
X194289168Y-190687828D02*
X194182025Y-190783066D01*
X194182025Y-190783066D02*
X193979644Y-190878304D01*
X195658216Y-188878304D02*
X196420120Y-188878304D01*
X195777263Y-190211638D02*
X195991549Y-188497352D01*
X195991549Y-188497352D02*
X196110597Y-188306876D01*
X196110597Y-188306876D02*
X196312978Y-188211638D01*
X196312978Y-188211638D02*
X196503454Y-188211638D01*
X197205835Y-190211638D02*
X197027263Y-190116400D01*
X197027263Y-190116400D02*
X196955835Y-189925923D01*
X196955835Y-189925923D02*
X197170120Y-188211638D01*
X197967739Y-190211638D02*
X198134406Y-188878304D01*
X198217739Y-188211638D02*
X198110596Y-188306876D01*
X198110596Y-188306876D02*
X198193930Y-188402114D01*
X198193930Y-188402114D02*
X198301073Y-188306876D01*
X198301073Y-188306876D02*
X198217739Y-188211638D01*
X198217739Y-188211638D02*
X198193930Y-188402114D01*
X199693930Y-190116400D02*
X199491549Y-190211638D01*
X199491549Y-190211638D02*
X199110596Y-190211638D01*
X199110596Y-190211638D02*
X198932025Y-190116400D01*
X198932025Y-190116400D02*
X198860596Y-189925923D01*
X198860596Y-189925923D02*
X198955835Y-189164019D01*
X198955835Y-189164019D02*
X199074882Y-188973542D01*
X199074882Y-188973542D02*
X199277263Y-188878304D01*
X199277263Y-188878304D02*
X199658215Y-188878304D01*
X199658215Y-188878304D02*
X199836787Y-188973542D01*
X199836787Y-188973542D02*
X199908215Y-189164019D01*
X199908215Y-189164019D02*
X199884406Y-189354495D01*
X199884406Y-189354495D02*
X198908215Y-189544971D01*
X202289169Y-188402114D02*
X202396311Y-188306876D01*
X202396311Y-188306876D02*
X202598692Y-188211638D01*
X202598692Y-188211638D02*
X203074883Y-188211638D01*
X203074883Y-188211638D02*
X203253454Y-188306876D01*
X203253454Y-188306876D02*
X203336788Y-188402114D01*
X203336788Y-188402114D02*
X203408216Y-188592590D01*
X203408216Y-188592590D02*
X203384407Y-188783066D01*
X203384407Y-188783066D02*
X203253454Y-189068780D01*
X203253454Y-189068780D02*
X201967740Y-190211638D01*
X201967740Y-190211638D02*
X203205835Y-190211638D01*
X204086788Y-190021161D02*
X204170121Y-190116400D01*
X204170121Y-190116400D02*
X204062978Y-190211638D01*
X204062978Y-190211638D02*
X203979645Y-190116400D01*
X203979645Y-190116400D02*
X204086788Y-190021161D01*
X204086788Y-190021161D02*
X204062978Y-190211638D01*
X205646312Y-188211638D02*
X205836788Y-188211638D01*
X205836788Y-188211638D02*
X206015359Y-188306876D01*
X206015359Y-188306876D02*
X206098693Y-188402114D01*
X206098693Y-188402114D02*
X206170121Y-188592590D01*
X206170121Y-188592590D02*
X206217740Y-188973542D01*
X206217740Y-188973542D02*
X206158216Y-189449733D01*
X206158216Y-189449733D02*
X206015359Y-189830685D01*
X206015359Y-189830685D02*
X205896312Y-190021161D01*
X205896312Y-190021161D02*
X205789169Y-190116400D01*
X205789169Y-190116400D02*
X205586788Y-190211638D01*
X205586788Y-190211638D02*
X205396312Y-190211638D01*
X205396312Y-190211638D02*
X205217740Y-190116400D01*
X205217740Y-190116400D02*
X205134407Y-190021161D01*
X205134407Y-190021161D02*
X205062978Y-189830685D01*
X205062978Y-189830685D02*
X205015359Y-189449733D01*
X205015359Y-189449733D02*
X205074883Y-188973542D01*
X205074883Y-188973542D02*
X205217740Y-188592590D01*
X205217740Y-188592590D02*
X205336788Y-188402114D01*
X205336788Y-188402114D02*
X205443931Y-188306876D01*
X205443931Y-188306876D02*
X205646312Y-188211638D01*
X209312979Y-190116400D02*
X209110598Y-190211638D01*
X209110598Y-190211638D02*
X208729646Y-190211638D01*
X208729646Y-190211638D02*
X208551074Y-190116400D01*
X208551074Y-190116400D02*
X208467741Y-190021161D01*
X208467741Y-190021161D02*
X208396312Y-189830685D01*
X208396312Y-189830685D02*
X208467741Y-189259257D01*
X208467741Y-189259257D02*
X208586788Y-189068780D01*
X208586788Y-189068780D02*
X208693931Y-188973542D01*
X208693931Y-188973542D02*
X208896312Y-188878304D01*
X208896312Y-188878304D02*
X209277265Y-188878304D01*
X209277265Y-188878304D02*
X209455836Y-188973542D01*
X211182027Y-188878304D02*
X211015360Y-190211638D01*
X210324884Y-188878304D02*
X210193932Y-189925923D01*
X210193932Y-189925923D02*
X210265360Y-190116400D01*
X210265360Y-190116400D02*
X210443932Y-190211638D01*
X210443932Y-190211638D02*
X210729646Y-190211638D01*
X210729646Y-190211638D02*
X210932027Y-190116400D01*
X210932027Y-190116400D02*
X211039170Y-190021161D01*
X211884408Y-190116400D02*
X212062979Y-190211638D01*
X212062979Y-190211638D02*
X212443932Y-190211638D01*
X212443932Y-190211638D02*
X212646313Y-190116400D01*
X212646313Y-190116400D02*
X212765360Y-189925923D01*
X212765360Y-189925923D02*
X212777265Y-189830685D01*
X212777265Y-189830685D02*
X212705836Y-189640209D01*
X212705836Y-189640209D02*
X212527265Y-189544971D01*
X212527265Y-189544971D02*
X212241551Y-189544971D01*
X212241551Y-189544971D02*
X212062979Y-189449733D01*
X212062979Y-189449733D02*
X211991551Y-189259257D01*
X211991551Y-189259257D02*
X212003456Y-189164019D01*
X212003456Y-189164019D02*
X212122503Y-188973542D01*
X212122503Y-188973542D02*
X212324884Y-188878304D01*
X212324884Y-188878304D02*
X212610598Y-188878304D01*
X212610598Y-188878304D02*
X212789170Y-188973542D01*
X213467742Y-188878304D02*
X214229646Y-188878304D01*
X213836789Y-188211638D02*
X213622504Y-189925923D01*
X213622504Y-189925923D02*
X213693932Y-190116400D01*
X213693932Y-190116400D02*
X213872504Y-190211638D01*
X213872504Y-190211638D02*
X214062980Y-190211638D01*
X215015361Y-190211638D02*
X214836789Y-190116400D01*
X214836789Y-190116400D02*
X214753456Y-190021161D01*
X214753456Y-190021161D02*
X214682027Y-189830685D01*
X214682027Y-189830685D02*
X214753456Y-189259257D01*
X214753456Y-189259257D02*
X214872503Y-189068780D01*
X214872503Y-189068780D02*
X214979646Y-188973542D01*
X214979646Y-188973542D02*
X215182027Y-188878304D01*
X215182027Y-188878304D02*
X215467741Y-188878304D01*
X215467741Y-188878304D02*
X215646313Y-188973542D01*
X215646313Y-188973542D02*
X215729646Y-189068780D01*
X215729646Y-189068780D02*
X215801075Y-189259257D01*
X215801075Y-189259257D02*
X215729646Y-189830685D01*
X215729646Y-189830685D02*
X215610599Y-190021161D01*
X215610599Y-190021161D02*
X215503456Y-190116400D01*
X215503456Y-190116400D02*
X215301075Y-190211638D01*
X215301075Y-190211638D02*
X215015361Y-190211638D01*
X216539170Y-190211638D02*
X216705837Y-188878304D01*
X216682027Y-189068780D02*
X216789170Y-188973542D01*
X216789170Y-188973542D02*
X216991551Y-188878304D01*
X216991551Y-188878304D02*
X217277265Y-188878304D01*
X217277265Y-188878304D02*
X217455837Y-188973542D01*
X217455837Y-188973542D02*
X217527265Y-189164019D01*
X217527265Y-189164019D02*
X217396313Y-190211638D01*
X217527265Y-189164019D02*
X217646313Y-188973542D01*
X217646313Y-188973542D02*
X217848694Y-188878304D01*
X217848694Y-188878304D02*
X218134408Y-188878304D01*
X218134408Y-188878304D02*
X218312980Y-188973542D01*
X218312980Y-188973542D02*
X218384408Y-189164019D01*
X218384408Y-189164019D02*
X218253456Y-190211638D01*
X221753457Y-188878304D02*
X221503457Y-190878304D01*
X221598695Y-190116400D02*
X221396314Y-190211638D01*
X221396314Y-190211638D02*
X221015362Y-190211638D01*
X221015362Y-190211638D02*
X220836790Y-190116400D01*
X220836790Y-190116400D02*
X220753457Y-190021161D01*
X220753457Y-190021161D02*
X220682028Y-189830685D01*
X220682028Y-189830685D02*
X220753457Y-189259257D01*
X220753457Y-189259257D02*
X220872504Y-189068780D01*
X220872504Y-189068780D02*
X220979647Y-188973542D01*
X220979647Y-188973542D02*
X221182028Y-188878304D01*
X221182028Y-188878304D02*
X221562981Y-188878304D01*
X221562981Y-188878304D02*
X221741552Y-188973542D01*
X222539171Y-190211638D02*
X222705838Y-188878304D01*
X222789171Y-188211638D02*
X222682028Y-188306876D01*
X222682028Y-188306876D02*
X222765362Y-188402114D01*
X222765362Y-188402114D02*
X222872505Y-188306876D01*
X222872505Y-188306876D02*
X222789171Y-188211638D01*
X222789171Y-188211638D02*
X222765362Y-188402114D01*
X225884410Y-190116400D02*
X225682029Y-190211638D01*
X225682029Y-190211638D02*
X225301077Y-190211638D01*
X225301077Y-190211638D02*
X225122505Y-190116400D01*
X225122505Y-190116400D02*
X225039172Y-190021161D01*
X225039172Y-190021161D02*
X224967743Y-189830685D01*
X224967743Y-189830685D02*
X225039172Y-189259257D01*
X225039172Y-189259257D02*
X225158219Y-189068780D01*
X225158219Y-189068780D02*
X225265362Y-188973542D01*
X225265362Y-188973542D02*
X225467743Y-188878304D01*
X225467743Y-188878304D02*
X225848696Y-188878304D01*
X225848696Y-188878304D02*
X226027267Y-188973542D01*
X226729648Y-190211638D02*
X226979648Y-188211638D01*
X227586791Y-190211638D02*
X227717743Y-189164019D01*
X227717743Y-189164019D02*
X227646315Y-188973542D01*
X227646315Y-188973542D02*
X227467743Y-188878304D01*
X227467743Y-188878304D02*
X227182029Y-188878304D01*
X227182029Y-188878304D02*
X226979648Y-188973542D01*
X226979648Y-188973542D02*
X226872505Y-189068780D01*
X229396315Y-190211638D02*
X229527267Y-189164019D01*
X229527267Y-189164019D02*
X229455839Y-188973542D01*
X229455839Y-188973542D02*
X229277267Y-188878304D01*
X229277267Y-188878304D02*
X228896315Y-188878304D01*
X228896315Y-188878304D02*
X228693934Y-188973542D01*
X229408220Y-190116400D02*
X229205839Y-190211638D01*
X229205839Y-190211638D02*
X228729648Y-190211638D01*
X228729648Y-190211638D02*
X228551077Y-190116400D01*
X228551077Y-190116400D02*
X228479648Y-189925923D01*
X228479648Y-189925923D02*
X228503458Y-189735447D01*
X228503458Y-189735447D02*
X228622506Y-189544971D01*
X228622506Y-189544971D02*
X228824887Y-189449733D01*
X228824887Y-189449733D02*
X229301077Y-189449733D01*
X229301077Y-189449733D02*
X229503458Y-189354495D01*
X230348696Y-190211638D02*
X230515363Y-188878304D01*
X230467744Y-189259257D02*
X230586791Y-189068780D01*
X230586791Y-189068780D02*
X230693934Y-188973542D01*
X230693934Y-188973542D02*
X230896315Y-188878304D01*
X230896315Y-188878304D02*
X231086791Y-188878304D01*
X232610601Y-188878304D02*
X232408220Y-190497352D01*
X232408220Y-190497352D02*
X232289172Y-190687828D01*
X232289172Y-190687828D02*
X232182029Y-190783066D01*
X232182029Y-190783066D02*
X231979648Y-190878304D01*
X231979648Y-190878304D02*
X231693934Y-190878304D01*
X231693934Y-190878304D02*
X231515363Y-190783066D01*
X232455839Y-190116400D02*
X232253458Y-190211638D01*
X232253458Y-190211638D02*
X231872506Y-190211638D01*
X231872506Y-190211638D02*
X231693934Y-190116400D01*
X231693934Y-190116400D02*
X231610601Y-190021161D01*
X231610601Y-190021161D02*
X231539172Y-189830685D01*
X231539172Y-189830685D02*
X231610601Y-189259257D01*
X231610601Y-189259257D02*
X231729648Y-189068780D01*
X231729648Y-189068780D02*
X231836791Y-188973542D01*
X231836791Y-188973542D02*
X232039172Y-188878304D01*
X232039172Y-188878304D02*
X232420125Y-188878304D01*
X232420125Y-188878304D02*
X232598696Y-188973542D01*
X233396315Y-190211638D02*
X233562982Y-188878304D01*
X233646315Y-188211638D02*
X233539172Y-188306876D01*
X233539172Y-188306876D02*
X233622506Y-188402114D01*
X233622506Y-188402114D02*
X233729649Y-188306876D01*
X233729649Y-188306876D02*
X233646315Y-188211638D01*
X233646315Y-188211638D02*
X233622506Y-188402114D01*
X234515363Y-188878304D02*
X234348696Y-190211638D01*
X234491553Y-189068780D02*
X234598696Y-188973542D01*
X234598696Y-188973542D02*
X234801077Y-188878304D01*
X234801077Y-188878304D02*
X235086791Y-188878304D01*
X235086791Y-188878304D02*
X235265363Y-188973542D01*
X235265363Y-188973542D02*
X235336791Y-189164019D01*
X235336791Y-189164019D02*
X235205839Y-190211638D01*
X237182030Y-188878304D02*
X236979649Y-190497352D01*
X236979649Y-190497352D02*
X236860601Y-190687828D01*
X236860601Y-190687828D02*
X236753458Y-190783066D01*
X236753458Y-190783066D02*
X236551077Y-190878304D01*
X236551077Y-190878304D02*
X236265363Y-190878304D01*
X236265363Y-190878304D02*
X236086792Y-190783066D01*
X237027268Y-190116400D02*
X236824887Y-190211638D01*
X236824887Y-190211638D02*
X236443935Y-190211638D01*
X236443935Y-190211638D02*
X236265363Y-190116400D01*
X236265363Y-190116400D02*
X236182030Y-190021161D01*
X236182030Y-190021161D02*
X236110601Y-189830685D01*
X236110601Y-189830685D02*
X236182030Y-189259257D01*
X236182030Y-189259257D02*
X236301077Y-189068780D01*
X236301077Y-189068780D02*
X236408220Y-188973542D01*
X236408220Y-188973542D02*
X236610601Y-188878304D01*
X236610601Y-188878304D02*
X236991554Y-188878304D01*
X236991554Y-188878304D02*
X237170125Y-188973542D01*
X240348697Y-190211638D02*
X240598697Y-188211638D01*
X240360602Y-190116400D02*
X240158221Y-190211638D01*
X240158221Y-190211638D02*
X239777269Y-190211638D01*
X239777269Y-190211638D02*
X239598697Y-190116400D01*
X239598697Y-190116400D02*
X239515364Y-190021161D01*
X239515364Y-190021161D02*
X239443935Y-189830685D01*
X239443935Y-189830685D02*
X239515364Y-189259257D01*
X239515364Y-189259257D02*
X239634411Y-189068780D01*
X239634411Y-189068780D02*
X239741554Y-188973542D01*
X239741554Y-188973542D02*
X239943935Y-188878304D01*
X239943935Y-188878304D02*
X240324888Y-188878304D01*
X240324888Y-188878304D02*
X240503459Y-188973542D01*
X242074888Y-190116400D02*
X241872507Y-190211638D01*
X241872507Y-190211638D02*
X241491554Y-190211638D01*
X241491554Y-190211638D02*
X241312983Y-190116400D01*
X241312983Y-190116400D02*
X241241554Y-189925923D01*
X241241554Y-189925923D02*
X241336793Y-189164019D01*
X241336793Y-189164019D02*
X241455840Y-188973542D01*
X241455840Y-188973542D02*
X241658221Y-188878304D01*
X241658221Y-188878304D02*
X242039173Y-188878304D01*
X242039173Y-188878304D02*
X242217745Y-188973542D01*
X242217745Y-188973542D02*
X242289173Y-189164019D01*
X242289173Y-189164019D02*
X242265364Y-189354495D01*
X242265364Y-189354495D02*
X241289173Y-189544971D01*
X243884412Y-190116400D02*
X243682031Y-190211638D01*
X243682031Y-190211638D02*
X243301079Y-190211638D01*
X243301079Y-190211638D02*
X243122507Y-190116400D01*
X243122507Y-190116400D02*
X243039174Y-190021161D01*
X243039174Y-190021161D02*
X242967745Y-189830685D01*
X242967745Y-189830685D02*
X243039174Y-189259257D01*
X243039174Y-189259257D02*
X243158221Y-189068780D01*
X243158221Y-189068780D02*
X243265364Y-188973542D01*
X243265364Y-188973542D02*
X243467745Y-188878304D01*
X243467745Y-188878304D02*
X243848698Y-188878304D01*
X243848698Y-188878304D02*
X244027269Y-188973542D01*
X244729650Y-190211638D02*
X244979650Y-188211638D01*
X245015365Y-189449733D02*
X245491555Y-190211638D01*
X245658222Y-188878304D02*
X244801079Y-189640209D01*
D10*
D11*
X178958026Y-185607614D02*
X178458026Y-185607614D01*
X178458026Y-186393328D02*
X178458026Y-184893328D01*
X178458026Y-184893328D02*
X179172312Y-184893328D01*
X179743740Y-186393328D02*
X179743740Y-185393328D01*
X179743740Y-184893328D02*
X179672312Y-184964757D01*
X179672312Y-184964757D02*
X179743740Y-185036185D01*
X179743740Y-185036185D02*
X179815169Y-184964757D01*
X179815169Y-184964757D02*
X179743740Y-184893328D01*
X179743740Y-184893328D02*
X179743740Y-185036185D01*
X180672312Y-186393328D02*
X180529455Y-186321900D01*
X180529455Y-186321900D02*
X180458026Y-186179042D01*
X180458026Y-186179042D02*
X180458026Y-184893328D01*
X181815169Y-186321900D02*
X181672312Y-186393328D01*
X181672312Y-186393328D02*
X181386598Y-186393328D01*
X181386598Y-186393328D02*
X181243740Y-186321900D01*
X181243740Y-186321900D02*
X181172312Y-186179042D01*
X181172312Y-186179042D02*
X181172312Y-185607614D01*
X181172312Y-185607614D02*
X181243740Y-185464757D01*
X181243740Y-185464757D02*
X181386598Y-185393328D01*
X181386598Y-185393328D02*
X181672312Y-185393328D01*
X181672312Y-185393328D02*
X181815169Y-185464757D01*
X181815169Y-185464757D02*
X181886598Y-185607614D01*
X181886598Y-185607614D02*
X181886598Y-185750471D01*
X181886598Y-185750471D02*
X181172312Y-185893328D01*
X182529454Y-186250471D02*
X182600883Y-186321900D01*
X182600883Y-186321900D02*
X182529454Y-186393328D01*
X182529454Y-186393328D02*
X182458026Y-186321900D01*
X182458026Y-186321900D02*
X182529454Y-186250471D01*
X182529454Y-186250471D02*
X182529454Y-186393328D01*
X182529454Y-185464757D02*
X182600883Y-185536185D01*
X182600883Y-185536185D02*
X182529454Y-185607614D01*
X182529454Y-185607614D02*
X182458026Y-185536185D01*
X182458026Y-185536185D02*
X182529454Y-185464757D01*
X182529454Y-185464757D02*
X182529454Y-185607614D01*
X185029455Y-186321900D02*
X184886597Y-186393328D01*
X184886597Y-186393328D02*
X184600883Y-186393328D01*
X184600883Y-186393328D02*
X184458026Y-186321900D01*
X184458026Y-186321900D02*
X184386597Y-186250471D01*
X184386597Y-186250471D02*
X184315169Y-186107614D01*
X184315169Y-186107614D02*
X184315169Y-185679042D01*
X184315169Y-185679042D02*
X184386597Y-185536185D01*
X184386597Y-185536185D02*
X184458026Y-185464757D01*
X184458026Y-185464757D02*
X184600883Y-185393328D01*
X184600883Y-185393328D02*
X184886597Y-185393328D01*
X184886597Y-185393328D02*
X185029455Y-185464757D01*
X185672311Y-186393328D02*
X185672311Y-185393328D01*
X185672311Y-185679042D02*
X185743740Y-185536185D01*
X185743740Y-185536185D02*
X185815169Y-185464757D01*
X185815169Y-185464757D02*
X185958026Y-185393328D01*
X185958026Y-185393328D02*
X186100883Y-185393328D01*
X187243740Y-186393328D02*
X187243740Y-185607614D01*
X187243740Y-185607614D02*
X187172311Y-185464757D01*
X187172311Y-185464757D02*
X187029454Y-185393328D01*
X187029454Y-185393328D02*
X186743740Y-185393328D01*
X186743740Y-185393328D02*
X186600882Y-185464757D01*
X187243740Y-186321900D02*
X187100882Y-186393328D01*
X187100882Y-186393328D02*
X186743740Y-186393328D01*
X186743740Y-186393328D02*
X186600882Y-186321900D01*
X186600882Y-186321900D02*
X186529454Y-186179042D01*
X186529454Y-186179042D02*
X186529454Y-186036185D01*
X186529454Y-186036185D02*
X186600882Y-185893328D01*
X186600882Y-185893328D02*
X186743740Y-185821900D01*
X186743740Y-185821900D02*
X187100882Y-185821900D01*
X187100882Y-185821900D02*
X187243740Y-185750471D01*
X187815168Y-185393328D02*
X188600883Y-185393328D01*
X188600883Y-185393328D02*
X187815168Y-186393328D01*
X187815168Y-186393328D02*
X188600883Y-186393328D01*
X189029454Y-185393328D02*
X189386597Y-186393328D01*
X189743740Y-185393328D02*
X189386597Y-186393328D01*
X189386597Y-186393328D02*
X189243740Y-186750471D01*
X189243740Y-186750471D02*
X189172311Y-186821900D01*
X189172311Y-186821900D02*
X189029454Y-186893328D01*
X190100883Y-185393328D02*
X190672311Y-185393328D01*
X190315168Y-186393328D02*
X190315168Y-185107614D01*
X190315168Y-185107614D02*
X190386597Y-184964757D01*
X190386597Y-184964757D02*
X190529454Y-184893328D01*
X190529454Y-184893328D02*
X190672311Y-184893328D01*
X191386597Y-186393328D02*
X191243740Y-186321900D01*
X191243740Y-186321900D02*
X191172311Y-186179042D01*
X191172311Y-186179042D02*
X191172311Y-184893328D01*
X191958025Y-186393328D02*
X191958025Y-185393328D01*
X191958025Y-184893328D02*
X191886597Y-184964757D01*
X191886597Y-184964757D02*
X191958025Y-185036185D01*
X191958025Y-185036185D02*
X192029454Y-184964757D01*
X192029454Y-184964757D02*
X191958025Y-184893328D01*
X191958025Y-184893328D02*
X191958025Y-185036185D01*
X193243740Y-186321900D02*
X193100883Y-186393328D01*
X193100883Y-186393328D02*
X192815169Y-186393328D01*
X192815169Y-186393328D02*
X192672311Y-186321900D01*
X192672311Y-186321900D02*
X192600883Y-186179042D01*
X192600883Y-186179042D02*
X192600883Y-185607614D01*
X192600883Y-185607614D02*
X192672311Y-185464757D01*
X192672311Y-185464757D02*
X192815169Y-185393328D01*
X192815169Y-185393328D02*
X193100883Y-185393328D01*
X193100883Y-185393328D02*
X193243740Y-185464757D01*
X193243740Y-185464757D02*
X193315169Y-185607614D01*
X193315169Y-185607614D02*
X193315169Y-185750471D01*
X193315169Y-185750471D02*
X192600883Y-185893328D01*
X193886597Y-185036185D02*
X193958025Y-184964757D01*
X193958025Y-184964757D02*
X194100883Y-184893328D01*
X194100883Y-184893328D02*
X194458025Y-184893328D01*
X194458025Y-184893328D02*
X194600883Y-184964757D01*
X194600883Y-184964757D02*
X194672311Y-185036185D01*
X194672311Y-185036185D02*
X194743740Y-185179042D01*
X194743740Y-185179042D02*
X194743740Y-185321900D01*
X194743740Y-185321900D02*
X194672311Y-185536185D01*
X194672311Y-185536185D02*
X193815168Y-186393328D01*
X193815168Y-186393328D02*
X194743740Y-186393328D01*
X195386596Y-185821900D02*
X196529454Y-185821900D01*
X197815168Y-186321900D02*
X197672311Y-186393328D01*
X197672311Y-186393328D02*
X197386597Y-186393328D01*
X197386597Y-186393328D02*
X197243739Y-186321900D01*
X197243739Y-186321900D02*
X197172311Y-186179042D01*
X197172311Y-186179042D02*
X197172311Y-185607614D01*
X197172311Y-185607614D02*
X197243739Y-185464757D01*
X197243739Y-185464757D02*
X197386597Y-185393328D01*
X197386597Y-185393328D02*
X197672311Y-185393328D01*
X197672311Y-185393328D02*
X197815168Y-185464757D01*
X197815168Y-185464757D02*
X197886597Y-185607614D01*
X197886597Y-185607614D02*
X197886597Y-185750471D01*
X197886597Y-185750471D02*
X197172311Y-185893328D01*
X198386596Y-186393328D02*
X199172311Y-185393328D01*
X198386596Y-185393328D02*
X199172311Y-186393328D01*
X199743739Y-185393328D02*
X199743739Y-186893328D01*
X199743739Y-185464757D02*
X199886597Y-185393328D01*
X199886597Y-185393328D02*
X200172311Y-185393328D01*
X200172311Y-185393328D02*
X200315168Y-185464757D01*
X200315168Y-185464757D02*
X200386597Y-185536185D01*
X200386597Y-185536185D02*
X200458025Y-185679042D01*
X200458025Y-185679042D02*
X200458025Y-186107614D01*
X200458025Y-186107614D02*
X200386597Y-186250471D01*
X200386597Y-186250471D02*
X200315168Y-186321900D01*
X200315168Y-186321900D02*
X200172311Y-186393328D01*
X200172311Y-186393328D02*
X199886597Y-186393328D01*
X199886597Y-186393328D02*
X199743739Y-186321900D01*
X201100882Y-185821900D02*
X202243740Y-185821900D01*
X203600883Y-186321900D02*
X203458025Y-186393328D01*
X203458025Y-186393328D02*
X203172311Y-186393328D01*
X203172311Y-186393328D02*
X203029454Y-186321900D01*
X203029454Y-186321900D02*
X202958025Y-186250471D01*
X202958025Y-186250471D02*
X202886597Y-186107614D01*
X202886597Y-186107614D02*
X202886597Y-185679042D01*
X202886597Y-185679042D02*
X202958025Y-185536185D01*
X202958025Y-185536185D02*
X203029454Y-185464757D01*
X203029454Y-185464757D02*
X203172311Y-185393328D01*
X203172311Y-185393328D02*
X203458025Y-185393328D01*
X203458025Y-185393328D02*
X203600883Y-185464757D01*
X204886597Y-185393328D02*
X204886597Y-186393328D01*
X204243739Y-185393328D02*
X204243739Y-186179042D01*
X204243739Y-186179042D02*
X204315168Y-186321900D01*
X204315168Y-186321900D02*
X204458025Y-186393328D01*
X204458025Y-186393328D02*
X204672311Y-186393328D01*
X204672311Y-186393328D02*
X204815168Y-186321900D01*
X204815168Y-186321900D02*
X204886597Y-186250471D01*
X205529454Y-186321900D02*
X205672311Y-186393328D01*
X205672311Y-186393328D02*
X205958025Y-186393328D01*
X205958025Y-186393328D02*
X206100882Y-186321900D01*
X206100882Y-186321900D02*
X206172311Y-186179042D01*
X206172311Y-186179042D02*
X206172311Y-186107614D01*
X206172311Y-186107614D02*
X206100882Y-185964757D01*
X206100882Y-185964757D02*
X205958025Y-185893328D01*
X205958025Y-185893328D02*
X205743740Y-185893328D01*
X205743740Y-185893328D02*
X205600882Y-185821900D01*
X205600882Y-185821900D02*
X205529454Y-185679042D01*
X205529454Y-185679042D02*
X205529454Y-185607614D01*
X205529454Y-185607614D02*
X205600882Y-185464757D01*
X205600882Y-185464757D02*
X205743740Y-185393328D01*
X205743740Y-185393328D02*
X205958025Y-185393328D01*
X205958025Y-185393328D02*
X206100882Y-185464757D01*
X206600883Y-185393328D02*
X207172311Y-185393328D01*
X206815168Y-184893328D02*
X206815168Y-186179042D01*
X206815168Y-186179042D02*
X206886597Y-186321900D01*
X206886597Y-186321900D02*
X207029454Y-186393328D01*
X207029454Y-186393328D02*
X207172311Y-186393328D01*
X207886597Y-186393328D02*
X207743740Y-186321900D01*
X207743740Y-186321900D02*
X207672311Y-186250471D01*
X207672311Y-186250471D02*
X207600883Y-186107614D01*
X207600883Y-186107614D02*
X207600883Y-185679042D01*
X207600883Y-185679042D02*
X207672311Y-185536185D01*
X207672311Y-185536185D02*
X207743740Y-185464757D01*
X207743740Y-185464757D02*
X207886597Y-185393328D01*
X207886597Y-185393328D02*
X208100883Y-185393328D01*
X208100883Y-185393328D02*
X208243740Y-185464757D01*
X208243740Y-185464757D02*
X208315169Y-185536185D01*
X208315169Y-185536185D02*
X208386597Y-185679042D01*
X208386597Y-185679042D02*
X208386597Y-186107614D01*
X208386597Y-186107614D02*
X208315169Y-186250471D01*
X208315169Y-186250471D02*
X208243740Y-186321900D01*
X208243740Y-186321900D02*
X208100883Y-186393328D01*
X208100883Y-186393328D02*
X207886597Y-186393328D01*
X209029454Y-186393328D02*
X209029454Y-185393328D01*
X209029454Y-185536185D02*
X209100883Y-185464757D01*
X209100883Y-185464757D02*
X209243740Y-185393328D01*
X209243740Y-185393328D02*
X209458026Y-185393328D01*
X209458026Y-185393328D02*
X209600883Y-185464757D01*
X209600883Y-185464757D02*
X209672312Y-185607614D01*
X209672312Y-185607614D02*
X209672312Y-186393328D01*
X209672312Y-185607614D02*
X209743740Y-185464757D01*
X209743740Y-185464757D02*
X209886597Y-185393328D01*
X209886597Y-185393328D02*
X210100883Y-185393328D01*
X210100883Y-185393328D02*
X210243740Y-185464757D01*
X210243740Y-185464757D02*
X210315169Y-185607614D01*
X210315169Y-185607614D02*
X210315169Y-186393328D01*
X211029454Y-185821900D02*
X212172312Y-185821900D01*
X213529455Y-185393328D02*
X213529455Y-186893328D01*
X213529455Y-186321900D02*
X213386597Y-186393328D01*
X213386597Y-186393328D02*
X213100883Y-186393328D01*
X213100883Y-186393328D02*
X212958026Y-186321900D01*
X212958026Y-186321900D02*
X212886597Y-186250471D01*
X212886597Y-186250471D02*
X212815169Y-186107614D01*
X212815169Y-186107614D02*
X212815169Y-185679042D01*
X212815169Y-185679042D02*
X212886597Y-185536185D01*
X212886597Y-185536185D02*
X212958026Y-185464757D01*
X212958026Y-185464757D02*
X213100883Y-185393328D01*
X213100883Y-185393328D02*
X213386597Y-185393328D01*
X213386597Y-185393328D02*
X213529455Y-185464757D01*
X214243740Y-186393328D02*
X214243740Y-185393328D01*
X214243740Y-184893328D02*
X214172312Y-184964757D01*
X214172312Y-184964757D02*
X214243740Y-185036185D01*
X214243740Y-185036185D02*
X214315169Y-184964757D01*
X214315169Y-184964757D02*
X214243740Y-184893328D01*
X214243740Y-184893328D02*
X214243740Y-185036185D01*
X214958026Y-185821900D02*
X216100884Y-185821900D01*
X217458027Y-186393328D02*
X217458027Y-184893328D01*
X217458027Y-186321900D02*
X217315169Y-186393328D01*
X217315169Y-186393328D02*
X217029455Y-186393328D01*
X217029455Y-186393328D02*
X216886598Y-186321900D01*
X216886598Y-186321900D02*
X216815169Y-186250471D01*
X216815169Y-186250471D02*
X216743741Y-186107614D01*
X216743741Y-186107614D02*
X216743741Y-185679042D01*
X216743741Y-185679042D02*
X216815169Y-185536185D01*
X216815169Y-185536185D02*
X216886598Y-185464757D01*
X216886598Y-185464757D02*
X217029455Y-185393328D01*
X217029455Y-185393328D02*
X217315169Y-185393328D01*
X217315169Y-185393328D02*
X217458027Y-185464757D01*
X218743741Y-186321900D02*
X218600884Y-186393328D01*
X218600884Y-186393328D02*
X218315170Y-186393328D01*
X218315170Y-186393328D02*
X218172312Y-186321900D01*
X218172312Y-186321900D02*
X218100884Y-186179042D01*
X218100884Y-186179042D02*
X218100884Y-185607614D01*
X218100884Y-185607614D02*
X218172312Y-185464757D01*
X218172312Y-185464757D02*
X218315170Y-185393328D01*
X218315170Y-185393328D02*
X218600884Y-185393328D01*
X218600884Y-185393328D02*
X218743741Y-185464757D01*
X218743741Y-185464757D02*
X218815170Y-185607614D01*
X218815170Y-185607614D02*
X218815170Y-185750471D01*
X218815170Y-185750471D02*
X218100884Y-185893328D01*
X220100884Y-186321900D02*
X219958026Y-186393328D01*
X219958026Y-186393328D02*
X219672312Y-186393328D01*
X219672312Y-186393328D02*
X219529455Y-186321900D01*
X219529455Y-186321900D02*
X219458026Y-186250471D01*
X219458026Y-186250471D02*
X219386598Y-186107614D01*
X219386598Y-186107614D02*
X219386598Y-185679042D01*
X219386598Y-185679042D02*
X219458026Y-185536185D01*
X219458026Y-185536185D02*
X219529455Y-185464757D01*
X219529455Y-185464757D02*
X219672312Y-185393328D01*
X219672312Y-185393328D02*
X219958026Y-185393328D01*
X219958026Y-185393328D02*
X220100884Y-185464757D01*
X220743740Y-186393328D02*
X220743740Y-184893328D01*
X220886598Y-185821900D02*
X221315169Y-186393328D01*
X221315169Y-185393328D02*
X220743740Y-185964757D01*
X221958026Y-185821900D02*
X223100884Y-185821900D01*
X224029455Y-186393328D02*
X223886598Y-186321900D01*
X223886598Y-186321900D02*
X223815169Y-186250471D01*
X223815169Y-186250471D02*
X223743741Y-186107614D01*
X223743741Y-186107614D02*
X223743741Y-185679042D01*
X223743741Y-185679042D02*
X223815169Y-185536185D01*
X223815169Y-185536185D02*
X223886598Y-185464757D01*
X223886598Y-185464757D02*
X224029455Y-185393328D01*
X224029455Y-185393328D02*
X224243741Y-185393328D01*
X224243741Y-185393328D02*
X224386598Y-185464757D01*
X224386598Y-185464757D02*
X224458027Y-185536185D01*
X224458027Y-185536185D02*
X224529455Y-185679042D01*
X224529455Y-185679042D02*
X224529455Y-186107614D01*
X224529455Y-186107614D02*
X224458027Y-186250471D01*
X224458027Y-186250471D02*
X224386598Y-186321900D01*
X224386598Y-186321900D02*
X224243741Y-186393328D01*
X224243741Y-186393328D02*
X224029455Y-186393328D01*
X225172312Y-186393328D02*
X225172312Y-184893328D01*
X225815170Y-186393328D02*
X225815170Y-185607614D01*
X225815170Y-185607614D02*
X225743741Y-185464757D01*
X225743741Y-185464757D02*
X225600884Y-185393328D01*
X225600884Y-185393328D02*
X225386598Y-185393328D01*
X225386598Y-185393328D02*
X225243741Y-185464757D01*
X225243741Y-185464757D02*
X225172312Y-185536185D01*
X226529455Y-185393328D02*
X226529455Y-186393328D01*
X226529455Y-185536185D02*
X226600884Y-185464757D01*
X226600884Y-185464757D02*
X226743741Y-185393328D01*
X226743741Y-185393328D02*
X226958027Y-185393328D01*
X226958027Y-185393328D02*
X227100884Y-185464757D01*
X227100884Y-185464757D02*
X227172313Y-185607614D01*
X227172313Y-185607614D02*
X227172313Y-186393328D01*
X228458027Y-186321900D02*
X228315170Y-186393328D01*
X228315170Y-186393328D02*
X228029456Y-186393328D01*
X228029456Y-186393328D02*
X227886598Y-186321900D01*
X227886598Y-186321900D02*
X227815170Y-186179042D01*
X227815170Y-186179042D02*
X227815170Y-185607614D01*
X227815170Y-185607614D02*
X227886598Y-185464757D01*
X227886598Y-185464757D02*
X228029456Y-185393328D01*
X228029456Y-185393328D02*
X228315170Y-185393328D01*
X228315170Y-185393328D02*
X228458027Y-185464757D01*
X228458027Y-185464757D02*
X228529456Y-185607614D01*
X228529456Y-185607614D02*
X228529456Y-185750471D01*
X228529456Y-185750471D02*
X227815170Y-185893328D01*
X229172312Y-185821900D02*
X230315170Y-185821900D01*
X230958027Y-186321900D02*
X231172313Y-186393328D01*
X231172313Y-186393328D02*
X231529455Y-186393328D01*
X231529455Y-186393328D02*
X231672313Y-186321900D01*
X231672313Y-186321900D02*
X231743741Y-186250471D01*
X231743741Y-186250471D02*
X231815170Y-186107614D01*
X231815170Y-186107614D02*
X231815170Y-185964757D01*
X231815170Y-185964757D02*
X231743741Y-185821900D01*
X231743741Y-185821900D02*
X231672313Y-185750471D01*
X231672313Y-185750471D02*
X231529455Y-185679042D01*
X231529455Y-185679042D02*
X231243741Y-185607614D01*
X231243741Y-185607614D02*
X231100884Y-185536185D01*
X231100884Y-185536185D02*
X231029455Y-185464757D01*
X231029455Y-185464757D02*
X230958027Y-185321900D01*
X230958027Y-185321900D02*
X230958027Y-185179042D01*
X230958027Y-185179042D02*
X231029455Y-185036185D01*
X231029455Y-185036185D02*
X231100884Y-184964757D01*
X231100884Y-184964757D02*
X231243741Y-184893328D01*
X231243741Y-184893328D02*
X231600884Y-184893328D01*
X231600884Y-184893328D02*
X231815170Y-184964757D01*
X233100884Y-186321900D02*
X232958026Y-186393328D01*
X232958026Y-186393328D02*
X232672312Y-186393328D01*
X232672312Y-186393328D02*
X232529455Y-186321900D01*
X232529455Y-186321900D02*
X232458026Y-186250471D01*
X232458026Y-186250471D02*
X232386598Y-186107614D01*
X232386598Y-186107614D02*
X232386598Y-185679042D01*
X232386598Y-185679042D02*
X232458026Y-185536185D01*
X232458026Y-185536185D02*
X232529455Y-185464757D01*
X232529455Y-185464757D02*
X232672312Y-185393328D01*
X232672312Y-185393328D02*
X232958026Y-185393328D01*
X232958026Y-185393328D02*
X233100884Y-185464757D01*
X233743740Y-186393328D02*
X233743740Y-184893328D01*
X234386598Y-186393328D02*
X234386598Y-185607614D01*
X234386598Y-185607614D02*
X234315169Y-185464757D01*
X234315169Y-185464757D02*
X234172312Y-185393328D01*
X234172312Y-185393328D02*
X233958026Y-185393328D01*
X233958026Y-185393328D02*
X233815169Y-185464757D01*
X233815169Y-185464757D02*
X233743740Y-185536185D01*
X235315169Y-186393328D02*
X235172312Y-186321900D01*
X235172312Y-186321900D02*
X235100883Y-186250471D01*
X235100883Y-186250471D02*
X235029455Y-186107614D01*
X235029455Y-186107614D02*
X235029455Y-185679042D01*
X235029455Y-185679042D02*
X235100883Y-185536185D01*
X235100883Y-185536185D02*
X235172312Y-185464757D01*
X235172312Y-185464757D02*
X235315169Y-185393328D01*
X235315169Y-185393328D02*
X235529455Y-185393328D01*
X235529455Y-185393328D02*
X235672312Y-185464757D01*
X235672312Y-185464757D02*
X235743741Y-185536185D01*
X235743741Y-185536185D02*
X235815169Y-185679042D01*
X235815169Y-185679042D02*
X235815169Y-186107614D01*
X235815169Y-186107614D02*
X235743741Y-186250471D01*
X235743741Y-186250471D02*
X235672312Y-186321900D01*
X235672312Y-186321900D02*
X235529455Y-186393328D01*
X235529455Y-186393328D02*
X235315169Y-186393328D01*
X236243741Y-185393328D02*
X236815169Y-185393328D01*
X236458026Y-184893328D02*
X236458026Y-186179042D01*
X236458026Y-186179042D02*
X236529455Y-186321900D01*
X236529455Y-186321900D02*
X236672312Y-186393328D01*
X236672312Y-186393328D02*
X236815169Y-186393328D01*
X237100884Y-185393328D02*
X237672312Y-185393328D01*
X237315169Y-184893328D02*
X237315169Y-186179042D01*
X237315169Y-186179042D02*
X237386598Y-186321900D01*
X237386598Y-186321900D02*
X237529455Y-186393328D01*
X237529455Y-186393328D02*
X237672312Y-186393328D01*
X238172312Y-186393328D02*
X238172312Y-184893328D01*
X238315170Y-185821900D02*
X238743741Y-186393328D01*
X238743741Y-185393328D02*
X238172312Y-185964757D01*
X239243741Y-185393328D02*
X239600884Y-186393328D01*
X239958027Y-185393328D02*
X239600884Y-186393328D01*
X239600884Y-186393328D02*
X239458027Y-186750471D01*
X239458027Y-186750471D02*
X239386598Y-186821900D01*
X239386598Y-186821900D02*
X239243741Y-186893328D01*
X240529455Y-186250471D02*
X240600884Y-186321900D01*
X240600884Y-186321900D02*
X240529455Y-186393328D01*
X240529455Y-186393328D02*
X240458027Y-186321900D01*
X240458027Y-186321900D02*
X240529455Y-186250471D01*
X240529455Y-186250471D02*
X240529455Y-186393328D01*
X241243741Y-186393328D02*
X241243741Y-184893328D01*
X241386599Y-185821900D02*
X241815170Y-186393328D01*
X241815170Y-185393328D02*
X241243741Y-185964757D01*
X242458027Y-186393328D02*
X242458027Y-185393328D01*
X242458027Y-184893328D02*
X242386599Y-184964757D01*
X242386599Y-184964757D02*
X242458027Y-185036185D01*
X242458027Y-185036185D02*
X242529456Y-184964757D01*
X242529456Y-184964757D02*
X242458027Y-184893328D01*
X242458027Y-184893328D02*
X242458027Y-185036185D01*
X243815171Y-186321900D02*
X243672313Y-186393328D01*
X243672313Y-186393328D02*
X243386599Y-186393328D01*
X243386599Y-186393328D02*
X243243742Y-186321900D01*
X243243742Y-186321900D02*
X243172313Y-186250471D01*
X243172313Y-186250471D02*
X243100885Y-186107614D01*
X243100885Y-186107614D02*
X243100885Y-185679042D01*
X243100885Y-185679042D02*
X243172313Y-185536185D01*
X243172313Y-185536185D02*
X243243742Y-185464757D01*
X243243742Y-185464757D02*
X243386599Y-185393328D01*
X243386599Y-185393328D02*
X243672313Y-185393328D01*
X243672313Y-185393328D02*
X243815171Y-185464757D01*
X245100885Y-186393328D02*
X245100885Y-185607614D01*
X245100885Y-185607614D02*
X245029456Y-185464757D01*
X245029456Y-185464757D02*
X244886599Y-185393328D01*
X244886599Y-185393328D02*
X244600885Y-185393328D01*
X244600885Y-185393328D02*
X244458027Y-185464757D01*
X245100885Y-186321900D02*
X244958027Y-186393328D01*
X244958027Y-186393328D02*
X244600885Y-186393328D01*
X244600885Y-186393328D02*
X244458027Y-186321900D01*
X244458027Y-186321900D02*
X244386599Y-186179042D01*
X244386599Y-186179042D02*
X244386599Y-186036185D01*
X244386599Y-186036185D02*
X244458027Y-185893328D01*
X244458027Y-185893328D02*
X244600885Y-185821900D01*
X244600885Y-185821900D02*
X244958027Y-185821900D01*
X244958027Y-185821900D02*
X245100885Y-185750471D01*
X246458028Y-186393328D02*
X246458028Y-184893328D01*
X246458028Y-186321900D02*
X246315170Y-186393328D01*
X246315170Y-186393328D02*
X246029456Y-186393328D01*
X246029456Y-186393328D02*
X245886599Y-186321900D01*
X245886599Y-186321900D02*
X245815170Y-186250471D01*
X245815170Y-186250471D02*
X245743742Y-186107614D01*
X245743742Y-186107614D02*
X245743742Y-185679042D01*
X245743742Y-185679042D02*
X245815170Y-185536185D01*
X245815170Y-185536185D02*
X245886599Y-185464757D01*
X245886599Y-185464757D02*
X246029456Y-185393328D01*
X246029456Y-185393328D02*
X246315170Y-185393328D01*
X246315170Y-185393328D02*
X246458028Y-185464757D01*
X246815171Y-186536185D02*
X247958028Y-186536185D01*
X248315170Y-185393328D02*
X248315170Y-186893328D01*
X248315170Y-185464757D02*
X248458028Y-185393328D01*
X248458028Y-185393328D02*
X248743742Y-185393328D01*
X248743742Y-185393328D02*
X248886599Y-185464757D01*
X248886599Y-185464757D02*
X248958028Y-185536185D01*
X248958028Y-185536185D02*
X249029456Y-185679042D01*
X249029456Y-185679042D02*
X249029456Y-186107614D01*
X249029456Y-186107614D02*
X248958028Y-186250471D01*
X248958028Y-186250471D02*
X248886599Y-186321900D01*
X248886599Y-186321900D02*
X248743742Y-186393328D01*
X248743742Y-186393328D02*
X248458028Y-186393328D01*
X248458028Y-186393328D02*
X248315170Y-186321900D01*
X250315171Y-186321900D02*
X250172313Y-186393328D01*
X250172313Y-186393328D02*
X249886599Y-186393328D01*
X249886599Y-186393328D02*
X249743742Y-186321900D01*
X249743742Y-186321900D02*
X249672313Y-186250471D01*
X249672313Y-186250471D02*
X249600885Y-186107614D01*
X249600885Y-186107614D02*
X249600885Y-185679042D01*
X249600885Y-185679042D02*
X249672313Y-185536185D01*
X249672313Y-185536185D02*
X249743742Y-185464757D01*
X249743742Y-185464757D02*
X249886599Y-185393328D01*
X249886599Y-185393328D02*
X250172313Y-185393328D01*
X250172313Y-185393328D02*
X250315171Y-185464757D01*
X250958027Y-186393328D02*
X250958027Y-184893328D01*
X250958027Y-185464757D02*
X251100885Y-185393328D01*
X251100885Y-185393328D02*
X251386599Y-185393328D01*
X251386599Y-185393328D02*
X251529456Y-185464757D01*
X251529456Y-185464757D02*
X251600885Y-185536185D01*
X251600885Y-185536185D02*
X251672313Y-185679042D01*
X251672313Y-185679042D02*
X251672313Y-186107614D01*
X251672313Y-186107614D02*
X251600885Y-186250471D01*
X251600885Y-186250471D02*
X251529456Y-186321900D01*
X251529456Y-186321900D02*
X251386599Y-186393328D01*
X251386599Y-186393328D02*
X251100885Y-186393328D01*
X251100885Y-186393328D02*
X250958027Y-186321900D01*
D10*
D11*
X177002200Y-181507200D02*
X285002200Y-181507200D01*
D10*
D11*
X178386598Y-183621900D02*
X178600884Y-183693328D01*
X178600884Y-183693328D02*
X178958026Y-183693328D01*
X178958026Y-183693328D02*
X179100884Y-183621900D01*
X179100884Y-183621900D02*
X179172312Y-183550471D01*
X179172312Y-183550471D02*
X179243741Y-183407614D01*
X179243741Y-183407614D02*
X179243741Y-183264757D01*
X179243741Y-183264757D02*
X179172312Y-183121900D01*
X179172312Y-183121900D02*
X179100884Y-183050471D01*
X179100884Y-183050471D02*
X178958026Y-182979042D01*
X178958026Y-182979042D02*
X178672312Y-182907614D01*
X178672312Y-182907614D02*
X178529455Y-182836185D01*
X178529455Y-182836185D02*
X178458026Y-182764757D01*
X178458026Y-182764757D02*
X178386598Y-182621900D01*
X178386598Y-182621900D02*
X178386598Y-182479042D01*
X178386598Y-182479042D02*
X178458026Y-182336185D01*
X178458026Y-182336185D02*
X178529455Y-182264757D01*
X178529455Y-182264757D02*
X178672312Y-182193328D01*
X178672312Y-182193328D02*
X179029455Y-182193328D01*
X179029455Y-182193328D02*
X179243741Y-182264757D01*
X179886597Y-183693328D02*
X179886597Y-182193328D01*
X180529455Y-183693328D02*
X180529455Y-182907614D01*
X180529455Y-182907614D02*
X180458026Y-182764757D01*
X180458026Y-182764757D02*
X180315169Y-182693328D01*
X180315169Y-182693328D02*
X180100883Y-182693328D01*
X180100883Y-182693328D02*
X179958026Y-182764757D01*
X179958026Y-182764757D02*
X179886597Y-182836185D01*
X181815169Y-183621900D02*
X181672312Y-183693328D01*
X181672312Y-183693328D02*
X181386598Y-183693328D01*
X181386598Y-183693328D02*
X181243740Y-183621900D01*
X181243740Y-183621900D02*
X181172312Y-183479042D01*
X181172312Y-183479042D02*
X181172312Y-182907614D01*
X181172312Y-182907614D02*
X181243740Y-182764757D01*
X181243740Y-182764757D02*
X181386598Y-182693328D01*
X181386598Y-182693328D02*
X181672312Y-182693328D01*
X181672312Y-182693328D02*
X181815169Y-182764757D01*
X181815169Y-182764757D02*
X181886598Y-182907614D01*
X181886598Y-182907614D02*
X181886598Y-183050471D01*
X181886598Y-183050471D02*
X181172312Y-183193328D01*
X183100883Y-183621900D02*
X182958026Y-183693328D01*
X182958026Y-183693328D02*
X182672312Y-183693328D01*
X182672312Y-183693328D02*
X182529454Y-183621900D01*
X182529454Y-183621900D02*
X182458026Y-183479042D01*
X182458026Y-183479042D02*
X182458026Y-182907614D01*
X182458026Y-182907614D02*
X182529454Y-182764757D01*
X182529454Y-182764757D02*
X182672312Y-182693328D01*
X182672312Y-182693328D02*
X182958026Y-182693328D01*
X182958026Y-182693328D02*
X183100883Y-182764757D01*
X183100883Y-182764757D02*
X183172312Y-182907614D01*
X183172312Y-182907614D02*
X183172312Y-183050471D01*
X183172312Y-183050471D02*
X182458026Y-183193328D01*
X183600883Y-182693328D02*
X184172311Y-182693328D01*
X183815168Y-182193328D02*
X183815168Y-183479042D01*
X183815168Y-183479042D02*
X183886597Y-183621900D01*
X183886597Y-183621900D02*
X184029454Y-183693328D01*
X184029454Y-183693328D02*
X184172311Y-183693328D01*
X184672311Y-183550471D02*
X184743740Y-183621900D01*
X184743740Y-183621900D02*
X184672311Y-183693328D01*
X184672311Y-183693328D02*
X184600883Y-183621900D01*
X184600883Y-183621900D02*
X184672311Y-183550471D01*
X184672311Y-183550471D02*
X184672311Y-183693328D01*
X184672311Y-182764757D02*
X184743740Y-182836185D01*
X184743740Y-182836185D02*
X184672311Y-182907614D01*
X184672311Y-182907614D02*
X184600883Y-182836185D01*
X184600883Y-182836185D02*
X184672311Y-182764757D01*
X184672311Y-182764757D02*
X184672311Y-182907614D01*
D10*
D12*
X178556710Y-179185528D02*
X178556710Y-180399814D01*
X178556710Y-180399814D02*
X178628139Y-180542671D01*
X178628139Y-180542671D02*
X178699568Y-180614100D01*
X178699568Y-180614100D02*
X178842425Y-180685528D01*
X178842425Y-180685528D02*
X179128139Y-180685528D01*
X179128139Y-180685528D02*
X179270996Y-180614100D01*
X179270996Y-180614100D02*
X179342425Y-180542671D01*
X179342425Y-180542671D02*
X179413853Y-180399814D01*
X179413853Y-180399814D02*
X179413853Y-179185528D01*
X180128139Y-179685528D02*
X180128139Y-180685528D01*
X180128139Y-179828385D02*
X180199568Y-179756957D01*
X180199568Y-179756957D02*
X180342425Y-179685528D01*
X180342425Y-179685528D02*
X180556711Y-179685528D01*
X180556711Y-179685528D02*
X180699568Y-179756957D01*
X180699568Y-179756957D02*
X180770997Y-179899814D01*
X180770997Y-179899814D02*
X180770997Y-180685528D01*
X181485282Y-180685528D02*
X181485282Y-179685528D01*
X181485282Y-179185528D02*
X181413854Y-179256957D01*
X181413854Y-179256957D02*
X181485282Y-179328385D01*
X181485282Y-179328385D02*
X181556711Y-179256957D01*
X181556711Y-179256957D02*
X181485282Y-179185528D01*
X181485282Y-179185528D02*
X181485282Y-179328385D01*
X182056711Y-179685528D02*
X182413854Y-180685528D01*
X182413854Y-180685528D02*
X182770997Y-179685528D01*
X183913854Y-180614100D02*
X183770997Y-180685528D01*
X183770997Y-180685528D02*
X183485283Y-180685528D01*
X183485283Y-180685528D02*
X183342425Y-180614100D01*
X183342425Y-180614100D02*
X183270997Y-180471242D01*
X183270997Y-180471242D02*
X183270997Y-179899814D01*
X183270997Y-179899814D02*
X183342425Y-179756957D01*
X183342425Y-179756957D02*
X183485283Y-179685528D01*
X183485283Y-179685528D02*
X183770997Y-179685528D01*
X183770997Y-179685528D02*
X183913854Y-179756957D01*
X183913854Y-179756957D02*
X183985283Y-179899814D01*
X183985283Y-179899814D02*
X183985283Y-180042671D01*
X183985283Y-180042671D02*
X183270997Y-180185528D01*
X184628139Y-180685528D02*
X184628139Y-179685528D01*
X184628139Y-179971242D02*
X184699568Y-179828385D01*
X184699568Y-179828385D02*
X184770997Y-179756957D01*
X184770997Y-179756957D02*
X184913854Y-179685528D01*
X184913854Y-179685528D02*
X185056711Y-179685528D01*
X185485282Y-180614100D02*
X185628139Y-180685528D01*
X185628139Y-180685528D02*
X185913853Y-180685528D01*
X185913853Y-180685528D02*
X186056710Y-180614100D01*
X186056710Y-180614100D02*
X186128139Y-180471242D01*
X186128139Y-180471242D02*
X186128139Y-180399814D01*
X186128139Y-180399814D02*
X186056710Y-180256957D01*
X186056710Y-180256957D02*
X185913853Y-180185528D01*
X185913853Y-180185528D02*
X185699568Y-180185528D01*
X185699568Y-180185528D02*
X185556710Y-180114100D01*
X185556710Y-180114100D02*
X185485282Y-179971242D01*
X185485282Y-179971242D02*
X185485282Y-179899814D01*
X185485282Y-179899814D02*
X185556710Y-179756957D01*
X185556710Y-179756957D02*
X185699568Y-179685528D01*
X185699568Y-179685528D02*
X185913853Y-179685528D01*
X185913853Y-179685528D02*
X186056710Y-179756957D01*
X186770996Y-180685528D02*
X186770996Y-179685528D01*
X186770996Y-179185528D02*
X186699568Y-179256957D01*
X186699568Y-179256957D02*
X186770996Y-179328385D01*
X186770996Y-179328385D02*
X186842425Y-179256957D01*
X186842425Y-179256957D02*
X186770996Y-179185528D01*
X186770996Y-179185528D02*
X186770996Y-179328385D01*
X187270997Y-179685528D02*
X187842425Y-179685528D01*
X187485282Y-179185528D02*
X187485282Y-180471242D01*
X187485282Y-180471242D02*
X187556711Y-180614100D01*
X187556711Y-180614100D02*
X187699568Y-180685528D01*
X187699568Y-180685528D02*
X187842425Y-180685528D01*
X188985283Y-180685528D02*
X188985283Y-179899814D01*
X188985283Y-179899814D02*
X188913854Y-179756957D01*
X188913854Y-179756957D02*
X188770997Y-179685528D01*
X188770997Y-179685528D02*
X188485283Y-179685528D01*
X188485283Y-179685528D02*
X188342425Y-179756957D01*
X188985283Y-180614100D02*
X188842425Y-180685528D01*
X188842425Y-180685528D02*
X188485283Y-180685528D01*
X188485283Y-180685528D02*
X188342425Y-180614100D01*
X188342425Y-180614100D02*
X188270997Y-180471242D01*
X188270997Y-180471242D02*
X188270997Y-180328385D01*
X188270997Y-180328385D02*
X188342425Y-180185528D01*
X188342425Y-180185528D02*
X188485283Y-180114100D01*
X188485283Y-180114100D02*
X188842425Y-180114100D01*
X188842425Y-180114100D02*
X188985283Y-180042671D01*
X188342425Y-179185528D02*
X188413854Y-179256957D01*
X188413854Y-179256957D02*
X188342425Y-179328385D01*
X188342425Y-179328385D02*
X188270997Y-179256957D01*
X188270997Y-179256957D02*
X188342425Y-179185528D01*
X188342425Y-179185528D02*
X188342425Y-179328385D01*
X188913854Y-179185528D02*
X188985283Y-179256957D01*
X188985283Y-179256957D02*
X188913854Y-179328385D01*
X188913854Y-179328385D02*
X188842425Y-179256957D01*
X188842425Y-179256957D02*
X188913854Y-179185528D01*
X188913854Y-179185528D02*
X188913854Y-179328385D01*
X189485283Y-179685528D02*
X190056711Y-179685528D01*
X189699568Y-179185528D02*
X189699568Y-180471242D01*
X189699568Y-180471242D02*
X189770997Y-180614100D01*
X189770997Y-180614100D02*
X189913854Y-180685528D01*
X189913854Y-180685528D02*
X190056711Y-180685528D01*
X191699568Y-180685528D02*
X191699568Y-179185528D01*
X192556711Y-180685528D02*
X191913854Y-179828385D01*
X192556711Y-179185528D02*
X191699568Y-180042671D01*
X193413854Y-180685528D02*
X193270997Y-180614100D01*
X193270997Y-180614100D02*
X193199568Y-180542671D01*
X193199568Y-180542671D02*
X193128140Y-180399814D01*
X193128140Y-180399814D02*
X193128140Y-179971242D01*
X193128140Y-179971242D02*
X193199568Y-179828385D01*
X193199568Y-179828385D02*
X193270997Y-179756957D01*
X193270997Y-179756957D02*
X193413854Y-179685528D01*
X193413854Y-179685528D02*
X193628140Y-179685528D01*
X193628140Y-179685528D02*
X193770997Y-179756957D01*
X193770997Y-179756957D02*
X193842426Y-179828385D01*
X193842426Y-179828385D02*
X193913854Y-179971242D01*
X193913854Y-179971242D02*
X193913854Y-180399814D01*
X193913854Y-180399814D02*
X193842426Y-180542671D01*
X193842426Y-180542671D02*
X193770997Y-180614100D01*
X193770997Y-180614100D02*
X193628140Y-180685528D01*
X193628140Y-180685528D02*
X193413854Y-180685528D01*
X194556711Y-180685528D02*
X194556711Y-179185528D01*
X194556711Y-179756957D02*
X194699569Y-179685528D01*
X194699569Y-179685528D02*
X194985283Y-179685528D01*
X194985283Y-179685528D02*
X195128140Y-179756957D01*
X195128140Y-179756957D02*
X195199569Y-179828385D01*
X195199569Y-179828385D02*
X195270997Y-179971242D01*
X195270997Y-179971242D02*
X195270997Y-180399814D01*
X195270997Y-180399814D02*
X195199569Y-180542671D01*
X195199569Y-180542671D02*
X195128140Y-180614100D01*
X195128140Y-180614100D02*
X194985283Y-180685528D01*
X194985283Y-180685528D02*
X194699569Y-180685528D01*
X194699569Y-180685528D02*
X194556711Y-180614100D01*
X196128140Y-180685528D02*
X195985283Y-180614100D01*
X195985283Y-180614100D02*
X195913854Y-180471242D01*
X195913854Y-180471242D02*
X195913854Y-179185528D01*
X197270997Y-180614100D02*
X197128140Y-180685528D01*
X197128140Y-180685528D02*
X196842426Y-180685528D01*
X196842426Y-180685528D02*
X196699568Y-180614100D01*
X196699568Y-180614100D02*
X196628140Y-180471242D01*
X196628140Y-180471242D02*
X196628140Y-179899814D01*
X196628140Y-179899814D02*
X196699568Y-179756957D01*
X196699568Y-179756957D02*
X196842426Y-179685528D01*
X196842426Y-179685528D02*
X197128140Y-179685528D01*
X197128140Y-179685528D02*
X197270997Y-179756957D01*
X197270997Y-179756957D02*
X197342426Y-179899814D01*
X197342426Y-179899814D02*
X197342426Y-180042671D01*
X197342426Y-180042671D02*
X196628140Y-180185528D01*
X197985282Y-179685528D02*
X197985282Y-180685528D01*
X197985282Y-179828385D02*
X198056711Y-179756957D01*
X198056711Y-179756957D02*
X198199568Y-179685528D01*
X198199568Y-179685528D02*
X198413854Y-179685528D01*
X198413854Y-179685528D02*
X198556711Y-179756957D01*
X198556711Y-179756957D02*
X198628140Y-179899814D01*
X198628140Y-179899814D02*
X198628140Y-180685528D01*
X199199568Y-179685528D02*
X199985283Y-179685528D01*
X199985283Y-179685528D02*
X199199568Y-180685528D01*
X199199568Y-180685528D02*
X199985283Y-180685528D01*
D10*
D11*
X179172312Y-177693328D02*
X178458026Y-177693328D01*
X178458026Y-177693328D02*
X178458026Y-176193328D01*
X179672312Y-177693328D02*
X179672312Y-176693328D01*
X179672312Y-176193328D02*
X179600884Y-176264757D01*
X179600884Y-176264757D02*
X179672312Y-176336185D01*
X179672312Y-176336185D02*
X179743741Y-176264757D01*
X179743741Y-176264757D02*
X179672312Y-176193328D01*
X179672312Y-176193328D02*
X179672312Y-176336185D01*
X181029456Y-177621900D02*
X180886598Y-177693328D01*
X180886598Y-177693328D02*
X180600884Y-177693328D01*
X180600884Y-177693328D02*
X180458027Y-177621900D01*
X180458027Y-177621900D02*
X180386598Y-177550471D01*
X180386598Y-177550471D02*
X180315170Y-177407614D01*
X180315170Y-177407614D02*
X180315170Y-176979042D01*
X180315170Y-176979042D02*
X180386598Y-176836185D01*
X180386598Y-176836185D02*
X180458027Y-176764757D01*
X180458027Y-176764757D02*
X180600884Y-176693328D01*
X180600884Y-176693328D02*
X180886598Y-176693328D01*
X180886598Y-176693328D02*
X181029456Y-176764757D01*
X182243741Y-177621900D02*
X182100884Y-177693328D01*
X182100884Y-177693328D02*
X181815170Y-177693328D01*
X181815170Y-177693328D02*
X181672312Y-177621900D01*
X181672312Y-177621900D02*
X181600884Y-177479042D01*
X181600884Y-177479042D02*
X181600884Y-176907614D01*
X181600884Y-176907614D02*
X181672312Y-176764757D01*
X181672312Y-176764757D02*
X181815170Y-176693328D01*
X181815170Y-176693328D02*
X182100884Y-176693328D01*
X182100884Y-176693328D02*
X182243741Y-176764757D01*
X182243741Y-176764757D02*
X182315170Y-176907614D01*
X182315170Y-176907614D02*
X182315170Y-177050471D01*
X182315170Y-177050471D02*
X181600884Y-177193328D01*
X182958026Y-176693328D02*
X182958026Y-177693328D01*
X182958026Y-176836185D02*
X183029455Y-176764757D01*
X183029455Y-176764757D02*
X183172312Y-176693328D01*
X183172312Y-176693328D02*
X183386598Y-176693328D01*
X183386598Y-176693328D02*
X183529455Y-176764757D01*
X183529455Y-176764757D02*
X183600884Y-176907614D01*
X183600884Y-176907614D02*
X183600884Y-177693328D01*
X184243741Y-177621900D02*
X184386598Y-177693328D01*
X184386598Y-177693328D02*
X184672312Y-177693328D01*
X184672312Y-177693328D02*
X184815169Y-177621900D01*
X184815169Y-177621900D02*
X184886598Y-177479042D01*
X184886598Y-177479042D02*
X184886598Y-177407614D01*
X184886598Y-177407614D02*
X184815169Y-177264757D01*
X184815169Y-177264757D02*
X184672312Y-177193328D01*
X184672312Y-177193328D02*
X184458027Y-177193328D01*
X184458027Y-177193328D02*
X184315169Y-177121900D01*
X184315169Y-177121900D02*
X184243741Y-176979042D01*
X184243741Y-176979042D02*
X184243741Y-176907614D01*
X184243741Y-176907614D02*
X184315169Y-176764757D01*
X184315169Y-176764757D02*
X184458027Y-176693328D01*
X184458027Y-176693328D02*
X184672312Y-176693328D01*
X184672312Y-176693328D02*
X184815169Y-176764757D01*
X186100884Y-177621900D02*
X185958027Y-177693328D01*
X185958027Y-177693328D02*
X185672313Y-177693328D01*
X185672313Y-177693328D02*
X185529455Y-177621900D01*
X185529455Y-177621900D02*
X185458027Y-177479042D01*
X185458027Y-177479042D02*
X185458027Y-176907614D01*
X185458027Y-176907614D02*
X185529455Y-176764757D01*
X185529455Y-176764757D02*
X185672313Y-176693328D01*
X185672313Y-176693328D02*
X185958027Y-176693328D01*
X185958027Y-176693328D02*
X186100884Y-176764757D01*
X186100884Y-176764757D02*
X186172313Y-176907614D01*
X186172313Y-176907614D02*
X186172313Y-177050471D01*
X186172313Y-177050471D02*
X185458027Y-177193328D01*
X187458027Y-177693328D02*
X187458027Y-176193328D01*
X187458027Y-177621900D02*
X187315169Y-177693328D01*
X187315169Y-177693328D02*
X187029455Y-177693328D01*
X187029455Y-177693328D02*
X186886598Y-177621900D01*
X186886598Y-177621900D02*
X186815169Y-177550471D01*
X186815169Y-177550471D02*
X186743741Y-177407614D01*
X186743741Y-177407614D02*
X186743741Y-176979042D01*
X186743741Y-176979042D02*
X186815169Y-176836185D01*
X186815169Y-176836185D02*
X186886598Y-176764757D01*
X186886598Y-176764757D02*
X187029455Y-176693328D01*
X187029455Y-176693328D02*
X187315169Y-176693328D01*
X187315169Y-176693328D02*
X187458027Y-176764757D01*
X189958027Y-176693328D02*
X189958027Y-177693328D01*
X189315169Y-176693328D02*
X189315169Y-177479042D01*
X189315169Y-177479042D02*
X189386598Y-177621900D01*
X189386598Y-177621900D02*
X189529455Y-177693328D01*
X189529455Y-177693328D02*
X189743741Y-177693328D01*
X189743741Y-177693328D02*
X189886598Y-177621900D01*
X189886598Y-177621900D02*
X189958027Y-177550471D01*
X190672312Y-176693328D02*
X190672312Y-177693328D01*
X190672312Y-176836185D02*
X190743741Y-176764757D01*
X190743741Y-176764757D02*
X190886598Y-176693328D01*
X190886598Y-176693328D02*
X191100884Y-176693328D01*
X191100884Y-176693328D02*
X191243741Y-176764757D01*
X191243741Y-176764757D02*
X191315170Y-176907614D01*
X191315170Y-176907614D02*
X191315170Y-177693328D01*
X192672313Y-177693328D02*
X192672313Y-176193328D01*
X192672313Y-177621900D02*
X192529455Y-177693328D01*
X192529455Y-177693328D02*
X192243741Y-177693328D01*
X192243741Y-177693328D02*
X192100884Y-177621900D01*
X192100884Y-177621900D02*
X192029455Y-177550471D01*
X192029455Y-177550471D02*
X191958027Y-177407614D01*
X191958027Y-177407614D02*
X191958027Y-176979042D01*
X191958027Y-176979042D02*
X192029455Y-176836185D01*
X192029455Y-176836185D02*
X192100884Y-176764757D01*
X192100884Y-176764757D02*
X192243741Y-176693328D01*
X192243741Y-176693328D02*
X192529455Y-176693328D01*
X192529455Y-176693328D02*
X192672313Y-176764757D01*
X193958027Y-177621900D02*
X193815170Y-177693328D01*
X193815170Y-177693328D02*
X193529456Y-177693328D01*
X193529456Y-177693328D02*
X193386598Y-177621900D01*
X193386598Y-177621900D02*
X193315170Y-177479042D01*
X193315170Y-177479042D02*
X193315170Y-176907614D01*
X193315170Y-176907614D02*
X193386598Y-176764757D01*
X193386598Y-176764757D02*
X193529456Y-176693328D01*
X193529456Y-176693328D02*
X193815170Y-176693328D01*
X193815170Y-176693328D02*
X193958027Y-176764757D01*
X193958027Y-176764757D02*
X194029456Y-176907614D01*
X194029456Y-176907614D02*
X194029456Y-177050471D01*
X194029456Y-177050471D02*
X193315170Y-177193328D01*
X194672312Y-177693328D02*
X194672312Y-176693328D01*
X194672312Y-176979042D02*
X194743741Y-176836185D01*
X194743741Y-176836185D02*
X194815170Y-176764757D01*
X194815170Y-176764757D02*
X194958027Y-176693328D01*
X194958027Y-176693328D02*
X195100884Y-176693328D01*
X197600883Y-177550471D02*
X197529455Y-177621900D01*
X197529455Y-177621900D02*
X197315169Y-177693328D01*
X197315169Y-177693328D02*
X197172312Y-177693328D01*
X197172312Y-177693328D02*
X196958026Y-177621900D01*
X196958026Y-177621900D02*
X196815169Y-177479042D01*
X196815169Y-177479042D02*
X196743740Y-177336185D01*
X196743740Y-177336185D02*
X196672312Y-177050471D01*
X196672312Y-177050471D02*
X196672312Y-176836185D01*
X196672312Y-176836185D02*
X196743740Y-176550471D01*
X196743740Y-176550471D02*
X196815169Y-176407614D01*
X196815169Y-176407614D02*
X196958026Y-176264757D01*
X196958026Y-176264757D02*
X197172312Y-176193328D01*
X197172312Y-176193328D02*
X197315169Y-176193328D01*
X197315169Y-176193328D02*
X197529455Y-176264757D01*
X197529455Y-176264757D02*
X197600883Y-176336185D01*
X199100883Y-177550471D02*
X199029455Y-177621900D01*
X199029455Y-177621900D02*
X198815169Y-177693328D01*
X198815169Y-177693328D02*
X198672312Y-177693328D01*
X198672312Y-177693328D02*
X198458026Y-177621900D01*
X198458026Y-177621900D02*
X198315169Y-177479042D01*
X198315169Y-177479042D02*
X198243740Y-177336185D01*
X198243740Y-177336185D02*
X198172312Y-177050471D01*
X198172312Y-177050471D02*
X198172312Y-176836185D01*
X198172312Y-176836185D02*
X198243740Y-176550471D01*
X198243740Y-176550471D02*
X198315169Y-176407614D01*
X198315169Y-176407614D02*
X198458026Y-176264757D01*
X198458026Y-176264757D02*
X198672312Y-176193328D01*
X198672312Y-176193328D02*
X198815169Y-176193328D01*
X198815169Y-176193328D02*
X199029455Y-176264757D01*
X199029455Y-176264757D02*
X199100883Y-176336185D01*
X199743740Y-177121900D02*
X200886598Y-177121900D01*
X202100883Y-176907614D02*
X202315169Y-176979042D01*
X202315169Y-176979042D02*
X202386598Y-177050471D01*
X202386598Y-177050471D02*
X202458026Y-177193328D01*
X202458026Y-177193328D02*
X202458026Y-177407614D01*
X202458026Y-177407614D02*
X202386598Y-177550471D01*
X202386598Y-177550471D02*
X202315169Y-177621900D01*
X202315169Y-177621900D02*
X202172312Y-177693328D01*
X202172312Y-177693328D02*
X201600883Y-177693328D01*
X201600883Y-177693328D02*
X201600883Y-176193328D01*
X201600883Y-176193328D02*
X202100883Y-176193328D01*
X202100883Y-176193328D02*
X202243741Y-176264757D01*
X202243741Y-176264757D02*
X202315169Y-176336185D01*
X202315169Y-176336185D02*
X202386598Y-176479042D01*
X202386598Y-176479042D02*
X202386598Y-176621900D01*
X202386598Y-176621900D02*
X202315169Y-176764757D01*
X202315169Y-176764757D02*
X202243741Y-176836185D01*
X202243741Y-176836185D02*
X202100883Y-176907614D01*
X202100883Y-176907614D02*
X201600883Y-176907614D01*
X203386598Y-176979042D02*
X203386598Y-177693328D01*
X202886598Y-176193328D02*
X203386598Y-176979042D01*
X203386598Y-176979042D02*
X203886598Y-176193328D01*
X206172312Y-176693328D02*
X206172312Y-177693328D01*
X205815169Y-176121900D02*
X205458026Y-177193328D01*
X205458026Y-177193328D02*
X206386597Y-177193328D01*
X206958025Y-177550471D02*
X207029454Y-177621900D01*
X207029454Y-177621900D02*
X206958025Y-177693328D01*
X206958025Y-177693328D02*
X206886597Y-177621900D01*
X206886597Y-177621900D02*
X206958025Y-177550471D01*
X206958025Y-177550471D02*
X206958025Y-177693328D01*
X207958026Y-176193328D02*
X208100883Y-176193328D01*
X208100883Y-176193328D02*
X208243740Y-176264757D01*
X208243740Y-176264757D02*
X208315169Y-176336185D01*
X208315169Y-176336185D02*
X208386597Y-176479042D01*
X208386597Y-176479042D02*
X208458026Y-176764757D01*
X208458026Y-176764757D02*
X208458026Y-177121900D01*
X208458026Y-177121900D02*
X208386597Y-177407614D01*
X208386597Y-177407614D02*
X208315169Y-177550471D01*
X208315169Y-177550471D02*
X208243740Y-177621900D01*
X208243740Y-177621900D02*
X208100883Y-177693328D01*
X208100883Y-177693328D02*
X207958026Y-177693328D01*
X207958026Y-177693328D02*
X207815169Y-177621900D01*
X207815169Y-177621900D02*
X207743740Y-177550471D01*
X207743740Y-177550471D02*
X207672311Y-177407614D01*
X207672311Y-177407614D02*
X207600883Y-177121900D01*
X207600883Y-177121900D02*
X207600883Y-176764757D01*
X207600883Y-176764757D02*
X207672311Y-176479042D01*
X207672311Y-176479042D02*
X207743740Y-176336185D01*
X207743740Y-176336185D02*
X207815169Y-176264757D01*
X207815169Y-176264757D02*
X207958026Y-176193328D01*
X210743739Y-176907614D02*
X210958025Y-176979042D01*
X210958025Y-176979042D02*
X211029454Y-177050471D01*
X211029454Y-177050471D02*
X211100882Y-177193328D01*
X211100882Y-177193328D02*
X211100882Y-177407614D01*
X211100882Y-177407614D02*
X211029454Y-177550471D01*
X211029454Y-177550471D02*
X210958025Y-177621900D01*
X210958025Y-177621900D02*
X210815168Y-177693328D01*
X210815168Y-177693328D02*
X210243739Y-177693328D01*
X210243739Y-177693328D02*
X210243739Y-176193328D01*
X210243739Y-176193328D02*
X210743739Y-176193328D01*
X210743739Y-176193328D02*
X210886597Y-176264757D01*
X210886597Y-176264757D02*
X210958025Y-176336185D01*
X210958025Y-176336185D02*
X211029454Y-176479042D01*
X211029454Y-176479042D02*
X211029454Y-176621900D01*
X211029454Y-176621900D02*
X210958025Y-176764757D01*
X210958025Y-176764757D02*
X210886597Y-176836185D01*
X210886597Y-176836185D02*
X210743739Y-176907614D01*
X210743739Y-176907614D02*
X210243739Y-176907614D01*
X211743739Y-177693328D02*
X211743739Y-176693328D01*
X211743739Y-176193328D02*
X211672311Y-176264757D01*
X211672311Y-176264757D02*
X211743739Y-176336185D01*
X211743739Y-176336185D02*
X211815168Y-176264757D01*
X211815168Y-176264757D02*
X211743739Y-176193328D01*
X211743739Y-176193328D02*
X211743739Y-176336185D01*
X212243740Y-176693328D02*
X212815168Y-176693328D01*
X212458025Y-176193328D02*
X212458025Y-177479042D01*
X212458025Y-177479042D02*
X212529454Y-177621900D01*
X212529454Y-177621900D02*
X212672311Y-177693328D01*
X212672311Y-177693328D02*
X212815168Y-177693328D01*
X213958026Y-177621900D02*
X213815168Y-177693328D01*
X213815168Y-177693328D02*
X213529454Y-177693328D01*
X213529454Y-177693328D02*
X213386597Y-177621900D01*
X213386597Y-177621900D02*
X213315168Y-177550471D01*
X213315168Y-177550471D02*
X213243740Y-177407614D01*
X213243740Y-177407614D02*
X213243740Y-176979042D01*
X213243740Y-176979042D02*
X213315168Y-176836185D01*
X213315168Y-176836185D02*
X213386597Y-176764757D01*
X213386597Y-176764757D02*
X213529454Y-176693328D01*
X213529454Y-176693328D02*
X213815168Y-176693328D01*
X213815168Y-176693328D02*
X213958026Y-176764757D01*
X214600882Y-177693328D02*
X214600882Y-176693328D01*
X214600882Y-176979042D02*
X214672311Y-176836185D01*
X214672311Y-176836185D02*
X214743740Y-176764757D01*
X214743740Y-176764757D02*
X214886597Y-176693328D01*
X214886597Y-176693328D02*
X215029454Y-176693328D01*
X216172311Y-177693328D02*
X216172311Y-176907614D01*
X216172311Y-176907614D02*
X216100882Y-176764757D01*
X216100882Y-176764757D02*
X215958025Y-176693328D01*
X215958025Y-176693328D02*
X215672311Y-176693328D01*
X215672311Y-176693328D02*
X215529453Y-176764757D01*
X216172311Y-177621900D02*
X216029453Y-177693328D01*
X216029453Y-177693328D02*
X215672311Y-177693328D01*
X215672311Y-177693328D02*
X215529453Y-177621900D01*
X215529453Y-177621900D02*
X215458025Y-177479042D01*
X215458025Y-177479042D02*
X215458025Y-177336185D01*
X215458025Y-177336185D02*
X215529453Y-177193328D01*
X215529453Y-177193328D02*
X215672311Y-177121900D01*
X215672311Y-177121900D02*
X216029453Y-177121900D01*
X216029453Y-177121900D02*
X216172311Y-177050471D01*
X216743739Y-176693328D02*
X217529454Y-176693328D01*
X217529454Y-176693328D02*
X216743739Y-177693328D01*
X216743739Y-177693328D02*
X217529454Y-177693328D01*
X218672311Y-177621900D02*
X218529454Y-177693328D01*
X218529454Y-177693328D02*
X218243740Y-177693328D01*
X218243740Y-177693328D02*
X218100882Y-177621900D01*
X218100882Y-177621900D02*
X218029454Y-177479042D01*
X218029454Y-177479042D02*
X218029454Y-176907614D01*
X218029454Y-176907614D02*
X218100882Y-176764757D01*
X218100882Y-176764757D02*
X218243740Y-176693328D01*
X218243740Y-176693328D02*
X218529454Y-176693328D01*
X218529454Y-176693328D02*
X218672311Y-176764757D01*
X218672311Y-176764757D02*
X218743740Y-176907614D01*
X218743740Y-176907614D02*
X218743740Y-177050471D01*
X218743740Y-177050471D02*
X218029454Y-177193328D01*
X220458025Y-177264757D02*
X221172311Y-177264757D01*
X220315168Y-177693328D02*
X220815168Y-176193328D01*
X220815168Y-176193328D02*
X221315168Y-177693328D01*
X222315167Y-176907614D02*
X222529453Y-176979042D01*
X222529453Y-176979042D02*
X222600882Y-177050471D01*
X222600882Y-177050471D02*
X222672310Y-177193328D01*
X222672310Y-177193328D02*
X222672310Y-177407614D01*
X222672310Y-177407614D02*
X222600882Y-177550471D01*
X222600882Y-177550471D02*
X222529453Y-177621900D01*
X222529453Y-177621900D02*
X222386596Y-177693328D01*
X222386596Y-177693328D02*
X221815167Y-177693328D01*
X221815167Y-177693328D02*
X221815167Y-176193328D01*
X221815167Y-176193328D02*
X222315167Y-176193328D01*
X222315167Y-176193328D02*
X222458025Y-176264757D01*
X222458025Y-176264757D02*
X222529453Y-176336185D01*
X222529453Y-176336185D02*
X222600882Y-176479042D01*
X222600882Y-176479042D02*
X222600882Y-176621900D01*
X222600882Y-176621900D02*
X222529453Y-176764757D01*
X222529453Y-176764757D02*
X222458025Y-176836185D01*
X222458025Y-176836185D02*
X222315167Y-176907614D01*
X222315167Y-176907614D02*
X221815167Y-176907614D01*
D10*
D11*
X179172312Y-174693328D02*
X178458026Y-174693328D01*
X178458026Y-174693328D02*
X178458026Y-173193328D01*
X180243741Y-174621900D02*
X180100884Y-174693328D01*
X180100884Y-174693328D02*
X179815170Y-174693328D01*
X179815170Y-174693328D02*
X179672312Y-174621900D01*
X179672312Y-174621900D02*
X179600884Y-174479042D01*
X179600884Y-174479042D02*
X179600884Y-173907614D01*
X179600884Y-173907614D02*
X179672312Y-173764757D01*
X179672312Y-173764757D02*
X179815170Y-173693328D01*
X179815170Y-173693328D02*
X180100884Y-173693328D01*
X180100884Y-173693328D02*
X180243741Y-173764757D01*
X180243741Y-173764757D02*
X180315170Y-173907614D01*
X180315170Y-173907614D02*
X180315170Y-174050471D01*
X180315170Y-174050471D02*
X179600884Y-174193328D01*
X181172312Y-174693328D02*
X181029455Y-174621900D01*
X181029455Y-174621900D02*
X180958026Y-174550471D01*
X180958026Y-174550471D02*
X180886598Y-174407614D01*
X180886598Y-174407614D02*
X180886598Y-173979042D01*
X180886598Y-173979042D02*
X180958026Y-173836185D01*
X180958026Y-173836185D02*
X181029455Y-173764757D01*
X181029455Y-173764757D02*
X181172312Y-173693328D01*
X181172312Y-173693328D02*
X181386598Y-173693328D01*
X181386598Y-173693328D02*
X181529455Y-173764757D01*
X181529455Y-173764757D02*
X181600884Y-173836185D01*
X181600884Y-173836185D02*
X181672312Y-173979042D01*
X181672312Y-173979042D02*
X181672312Y-174407614D01*
X181672312Y-174407614D02*
X181600884Y-174550471D01*
X181600884Y-174550471D02*
X181529455Y-174621900D01*
X181529455Y-174621900D02*
X181386598Y-174693328D01*
X181386598Y-174693328D02*
X181172312Y-174693328D01*
X182315169Y-173693328D02*
X182315169Y-174693328D01*
X182315169Y-173836185D02*
X182386598Y-173764757D01*
X182386598Y-173764757D02*
X182529455Y-173693328D01*
X182529455Y-173693328D02*
X182743741Y-173693328D01*
X182743741Y-173693328D02*
X182886598Y-173764757D01*
X182886598Y-173764757D02*
X182958027Y-173907614D01*
X182958027Y-173907614D02*
X182958027Y-174693328D01*
X184315170Y-174693328D02*
X184315170Y-173907614D01*
X184315170Y-173907614D02*
X184243741Y-173764757D01*
X184243741Y-173764757D02*
X184100884Y-173693328D01*
X184100884Y-173693328D02*
X183815170Y-173693328D01*
X183815170Y-173693328D02*
X183672312Y-173764757D01*
X184315170Y-174621900D02*
X184172312Y-174693328D01*
X184172312Y-174693328D02*
X183815170Y-174693328D01*
X183815170Y-174693328D02*
X183672312Y-174621900D01*
X183672312Y-174621900D02*
X183600884Y-174479042D01*
X183600884Y-174479042D02*
X183600884Y-174336185D01*
X183600884Y-174336185D02*
X183672312Y-174193328D01*
X183672312Y-174193328D02*
X183815170Y-174121900D01*
X183815170Y-174121900D02*
X184172312Y-174121900D01*
X184172312Y-174121900D02*
X184315170Y-174050471D01*
X185029455Y-174693328D02*
X185029455Y-173693328D01*
X185029455Y-173979042D02*
X185100884Y-173836185D01*
X185100884Y-173836185D02*
X185172313Y-173764757D01*
X185172313Y-173764757D02*
X185315170Y-173693328D01*
X185315170Y-173693328D02*
X185458027Y-173693328D01*
X186600884Y-174693328D02*
X186600884Y-173193328D01*
X186600884Y-174621900D02*
X186458026Y-174693328D01*
X186458026Y-174693328D02*
X186172312Y-174693328D01*
X186172312Y-174693328D02*
X186029455Y-174621900D01*
X186029455Y-174621900D02*
X185958026Y-174550471D01*
X185958026Y-174550471D02*
X185886598Y-174407614D01*
X185886598Y-174407614D02*
X185886598Y-173979042D01*
X185886598Y-173979042D02*
X185958026Y-173836185D01*
X185958026Y-173836185D02*
X186029455Y-173764757D01*
X186029455Y-173764757D02*
X186172312Y-173693328D01*
X186172312Y-173693328D02*
X186458026Y-173693328D01*
X186458026Y-173693328D02*
X186600884Y-173764757D01*
X188386598Y-174621900D02*
X188600884Y-174693328D01*
X188600884Y-174693328D02*
X188958026Y-174693328D01*
X188958026Y-174693328D02*
X189100884Y-174621900D01*
X189100884Y-174621900D02*
X189172312Y-174550471D01*
X189172312Y-174550471D02*
X189243741Y-174407614D01*
X189243741Y-174407614D02*
X189243741Y-174264757D01*
X189243741Y-174264757D02*
X189172312Y-174121900D01*
X189172312Y-174121900D02*
X189100884Y-174050471D01*
X189100884Y-174050471D02*
X188958026Y-173979042D01*
X188958026Y-173979042D02*
X188672312Y-173907614D01*
X188672312Y-173907614D02*
X188529455Y-173836185D01*
X188529455Y-173836185D02*
X188458026Y-173764757D01*
X188458026Y-173764757D02*
X188386598Y-173621900D01*
X188386598Y-173621900D02*
X188386598Y-173479042D01*
X188386598Y-173479042D02*
X188458026Y-173336185D01*
X188458026Y-173336185D02*
X188529455Y-173264757D01*
X188529455Y-173264757D02*
X188672312Y-173193328D01*
X188672312Y-173193328D02*
X189029455Y-173193328D01*
X189029455Y-173193328D02*
X189243741Y-173264757D01*
X190529455Y-174621900D02*
X190386597Y-174693328D01*
X190386597Y-174693328D02*
X190100883Y-174693328D01*
X190100883Y-174693328D02*
X189958026Y-174621900D01*
X189958026Y-174621900D02*
X189886597Y-174550471D01*
X189886597Y-174550471D02*
X189815169Y-174407614D01*
X189815169Y-174407614D02*
X189815169Y-173979042D01*
X189815169Y-173979042D02*
X189886597Y-173836185D01*
X189886597Y-173836185D02*
X189958026Y-173764757D01*
X189958026Y-173764757D02*
X190100883Y-173693328D01*
X190100883Y-173693328D02*
X190386597Y-173693328D01*
X190386597Y-173693328D02*
X190529455Y-173764757D01*
X191172311Y-174693328D02*
X191172311Y-173193328D01*
X191815169Y-174693328D02*
X191815169Y-173907614D01*
X191815169Y-173907614D02*
X191743740Y-173764757D01*
X191743740Y-173764757D02*
X191600883Y-173693328D01*
X191600883Y-173693328D02*
X191386597Y-173693328D01*
X191386597Y-173693328D02*
X191243740Y-173764757D01*
X191243740Y-173764757D02*
X191172311Y-173836185D01*
X192529454Y-174693328D02*
X192529454Y-173693328D01*
X192529454Y-173836185D02*
X192600883Y-173764757D01*
X192600883Y-173764757D02*
X192743740Y-173693328D01*
X192743740Y-173693328D02*
X192958026Y-173693328D01*
X192958026Y-173693328D02*
X193100883Y-173764757D01*
X193100883Y-173764757D02*
X193172312Y-173907614D01*
X193172312Y-173907614D02*
X193172312Y-174693328D01*
X193172312Y-173907614D02*
X193243740Y-173764757D01*
X193243740Y-173764757D02*
X193386597Y-173693328D01*
X193386597Y-173693328D02*
X193600883Y-173693328D01*
X193600883Y-173693328D02*
X193743740Y-173764757D01*
X193743740Y-173764757D02*
X193815169Y-173907614D01*
X193815169Y-173907614D02*
X193815169Y-174693328D01*
X194529454Y-174693328D02*
X194529454Y-173693328D01*
X194529454Y-173193328D02*
X194458026Y-173264757D01*
X194458026Y-173264757D02*
X194529454Y-173336185D01*
X194529454Y-173336185D02*
X194600883Y-173264757D01*
X194600883Y-173264757D02*
X194529454Y-173193328D01*
X194529454Y-173193328D02*
X194529454Y-173336185D01*
X195815169Y-174621900D02*
X195672312Y-174693328D01*
X195672312Y-174693328D02*
X195386598Y-174693328D01*
X195386598Y-174693328D02*
X195243740Y-174621900D01*
X195243740Y-174621900D02*
X195172312Y-174479042D01*
X195172312Y-174479042D02*
X195172312Y-173907614D01*
X195172312Y-173907614D02*
X195243740Y-173764757D01*
X195243740Y-173764757D02*
X195386598Y-173693328D01*
X195386598Y-173693328D02*
X195672312Y-173693328D01*
X195672312Y-173693328D02*
X195815169Y-173764757D01*
X195815169Y-173764757D02*
X195886598Y-173907614D01*
X195886598Y-173907614D02*
X195886598Y-174050471D01*
X195886598Y-174050471D02*
X195172312Y-174193328D01*
X197172312Y-174693328D02*
X197172312Y-173193328D01*
X197172312Y-174621900D02*
X197029454Y-174693328D01*
X197029454Y-174693328D02*
X196743740Y-174693328D01*
X196743740Y-174693328D02*
X196600883Y-174621900D01*
X196600883Y-174621900D02*
X196529454Y-174550471D01*
X196529454Y-174550471D02*
X196458026Y-174407614D01*
X196458026Y-174407614D02*
X196458026Y-173979042D01*
X196458026Y-173979042D02*
X196529454Y-173836185D01*
X196529454Y-173836185D02*
X196600883Y-173764757D01*
X196600883Y-173764757D02*
X196743740Y-173693328D01*
X196743740Y-173693328D02*
X197029454Y-173693328D01*
X197029454Y-173693328D02*
X197172312Y-173764757D01*
D10*
D11*
X178958026Y-170907614D02*
X179172312Y-170979042D01*
X179172312Y-170979042D02*
X179243741Y-171050471D01*
X179243741Y-171050471D02*
X179315169Y-171193328D01*
X179315169Y-171193328D02*
X179315169Y-171407614D01*
X179315169Y-171407614D02*
X179243741Y-171550471D01*
X179243741Y-171550471D02*
X179172312Y-171621900D01*
X179172312Y-171621900D02*
X179029455Y-171693328D01*
X179029455Y-171693328D02*
X178458026Y-171693328D01*
X178458026Y-171693328D02*
X178458026Y-170193328D01*
X178458026Y-170193328D02*
X178958026Y-170193328D01*
X178958026Y-170193328D02*
X179100884Y-170264757D01*
X179100884Y-170264757D02*
X179172312Y-170336185D01*
X179172312Y-170336185D02*
X179243741Y-170479042D01*
X179243741Y-170479042D02*
X179243741Y-170621900D01*
X179243741Y-170621900D02*
X179172312Y-170764757D01*
X179172312Y-170764757D02*
X179100884Y-170836185D01*
X179100884Y-170836185D02*
X178958026Y-170907614D01*
X178958026Y-170907614D02*
X178458026Y-170907614D01*
X180600884Y-171693328D02*
X180600884Y-170907614D01*
X180600884Y-170907614D02*
X180529455Y-170764757D01*
X180529455Y-170764757D02*
X180386598Y-170693328D01*
X180386598Y-170693328D02*
X180100884Y-170693328D01*
X180100884Y-170693328D02*
X179958026Y-170764757D01*
X180600884Y-171621900D02*
X180458026Y-171693328D01*
X180458026Y-171693328D02*
X180100884Y-171693328D01*
X180100884Y-171693328D02*
X179958026Y-171621900D01*
X179958026Y-171621900D02*
X179886598Y-171479042D01*
X179886598Y-171479042D02*
X179886598Y-171336185D01*
X179886598Y-171336185D02*
X179958026Y-171193328D01*
X179958026Y-171193328D02*
X180100884Y-171121900D01*
X180100884Y-171121900D02*
X180458026Y-171121900D01*
X180458026Y-171121900D02*
X180600884Y-171050471D01*
X181958027Y-171621900D02*
X181815169Y-171693328D01*
X181815169Y-171693328D02*
X181529455Y-171693328D01*
X181529455Y-171693328D02*
X181386598Y-171621900D01*
X181386598Y-171621900D02*
X181315169Y-171550471D01*
X181315169Y-171550471D02*
X181243741Y-171407614D01*
X181243741Y-171407614D02*
X181243741Y-170979042D01*
X181243741Y-170979042D02*
X181315169Y-170836185D01*
X181315169Y-170836185D02*
X181386598Y-170764757D01*
X181386598Y-170764757D02*
X181529455Y-170693328D01*
X181529455Y-170693328D02*
X181815169Y-170693328D01*
X181815169Y-170693328D02*
X181958027Y-170764757D01*
X182600883Y-171693328D02*
X182600883Y-170193328D01*
X183243741Y-171693328D02*
X183243741Y-170907614D01*
X183243741Y-170907614D02*
X183172312Y-170764757D01*
X183172312Y-170764757D02*
X183029455Y-170693328D01*
X183029455Y-170693328D02*
X182815169Y-170693328D01*
X182815169Y-170693328D02*
X182672312Y-170764757D01*
X182672312Y-170764757D02*
X182600883Y-170836185D01*
X184529455Y-171621900D02*
X184386598Y-171693328D01*
X184386598Y-171693328D02*
X184100884Y-171693328D01*
X184100884Y-171693328D02*
X183958026Y-171621900D01*
X183958026Y-171621900D02*
X183886598Y-171479042D01*
X183886598Y-171479042D02*
X183886598Y-170907614D01*
X183886598Y-170907614D02*
X183958026Y-170764757D01*
X183958026Y-170764757D02*
X184100884Y-170693328D01*
X184100884Y-170693328D02*
X184386598Y-170693328D01*
X184386598Y-170693328D02*
X184529455Y-170764757D01*
X184529455Y-170764757D02*
X184600884Y-170907614D01*
X184600884Y-170907614D02*
X184600884Y-171050471D01*
X184600884Y-171050471D02*
X183886598Y-171193328D01*
X185458026Y-171693328D02*
X185315169Y-171621900D01*
X185315169Y-171621900D02*
X185243740Y-171479042D01*
X185243740Y-171479042D02*
X185243740Y-170193328D01*
X186243740Y-171693328D02*
X186100883Y-171621900D01*
X186100883Y-171621900D02*
X186029454Y-171550471D01*
X186029454Y-171550471D02*
X185958026Y-171407614D01*
X185958026Y-171407614D02*
X185958026Y-170979042D01*
X185958026Y-170979042D02*
X186029454Y-170836185D01*
X186029454Y-170836185D02*
X186100883Y-170764757D01*
X186100883Y-170764757D02*
X186243740Y-170693328D01*
X186243740Y-170693328D02*
X186458026Y-170693328D01*
X186458026Y-170693328D02*
X186600883Y-170764757D01*
X186600883Y-170764757D02*
X186672312Y-170836185D01*
X186672312Y-170836185D02*
X186743740Y-170979042D01*
X186743740Y-170979042D02*
X186743740Y-171407614D01*
X186743740Y-171407614D02*
X186672312Y-171550471D01*
X186672312Y-171550471D02*
X186600883Y-171621900D01*
X186600883Y-171621900D02*
X186458026Y-171693328D01*
X186458026Y-171693328D02*
X186243740Y-171693328D01*
X187386597Y-171693328D02*
X187386597Y-170693328D01*
X187386597Y-170979042D02*
X187458026Y-170836185D01*
X187458026Y-170836185D02*
X187529455Y-170764757D01*
X187529455Y-170764757D02*
X187672312Y-170693328D01*
X187672312Y-170693328D02*
X187815169Y-170693328D01*
X188958026Y-171693328D02*
X188958026Y-170907614D01*
X188958026Y-170907614D02*
X188886597Y-170764757D01*
X188886597Y-170764757D02*
X188743740Y-170693328D01*
X188743740Y-170693328D02*
X188458026Y-170693328D01*
X188458026Y-170693328D02*
X188315168Y-170764757D01*
X188958026Y-171621900D02*
X188815168Y-171693328D01*
X188815168Y-171693328D02*
X188458026Y-171693328D01*
X188458026Y-171693328D02*
X188315168Y-171621900D01*
X188315168Y-171621900D02*
X188243740Y-171479042D01*
X188243740Y-171479042D02*
X188243740Y-171336185D01*
X188243740Y-171336185D02*
X188315168Y-171193328D01*
X188315168Y-171193328D02*
X188458026Y-171121900D01*
X188458026Y-171121900D02*
X188815168Y-171121900D01*
X188815168Y-171121900D02*
X188958026Y-171050471D01*
X189672311Y-171693328D02*
X189672311Y-170693328D01*
X189672311Y-170979042D02*
X189743740Y-170836185D01*
X189743740Y-170836185D02*
X189815169Y-170764757D01*
X189815169Y-170764757D02*
X189958026Y-170693328D01*
X189958026Y-170693328D02*
X190100883Y-170693328D01*
X190600882Y-171693328D02*
X190600882Y-170193328D01*
X190600882Y-170764757D02*
X190743740Y-170693328D01*
X190743740Y-170693328D02*
X191029454Y-170693328D01*
X191029454Y-170693328D02*
X191172311Y-170764757D01*
X191172311Y-170764757D02*
X191243740Y-170836185D01*
X191243740Y-170836185D02*
X191315168Y-170979042D01*
X191315168Y-170979042D02*
X191315168Y-171407614D01*
X191315168Y-171407614D02*
X191243740Y-171550471D01*
X191243740Y-171550471D02*
X191172311Y-171621900D01*
X191172311Y-171621900D02*
X191029454Y-171693328D01*
X191029454Y-171693328D02*
X190743740Y-171693328D01*
X190743740Y-171693328D02*
X190600882Y-171621900D01*
X192529454Y-171621900D02*
X192386597Y-171693328D01*
X192386597Y-171693328D02*
X192100883Y-171693328D01*
X192100883Y-171693328D02*
X191958025Y-171621900D01*
X191958025Y-171621900D02*
X191886597Y-171479042D01*
X191886597Y-171479042D02*
X191886597Y-170907614D01*
X191886597Y-170907614D02*
X191958025Y-170764757D01*
X191958025Y-170764757D02*
X192100883Y-170693328D01*
X192100883Y-170693328D02*
X192386597Y-170693328D01*
X192386597Y-170693328D02*
X192529454Y-170764757D01*
X192529454Y-170764757D02*
X192600883Y-170907614D01*
X192600883Y-170907614D02*
X192600883Y-171050471D01*
X192600883Y-171050471D02*
X191886597Y-171193328D01*
X193243739Y-171693328D02*
X193243739Y-170693328D01*
X193243739Y-170193328D02*
X193172311Y-170264757D01*
X193172311Y-170264757D02*
X193243739Y-170336185D01*
X193243739Y-170336185D02*
X193315168Y-170264757D01*
X193315168Y-170264757D02*
X193243739Y-170193328D01*
X193243739Y-170193328D02*
X193243739Y-170336185D01*
X193743740Y-170693328D02*
X194315168Y-170693328D01*
X193958025Y-170193328D02*
X193958025Y-171479042D01*
X193958025Y-171479042D02*
X194029454Y-171621900D01*
X194029454Y-171621900D02*
X194172311Y-171693328D01*
X194172311Y-171693328D02*
X194315168Y-171693328D01*
D10*
D11*
X197002200Y-191507200D02*
X197002200Y-194507200D01*
D10*
D11*
X261002200Y-191507200D02*
X261002200Y-198007200D01*
D14*
%TO.C,U1*%
G36*
X131803588Y-95989801D02*
G01*
X131861119Y-96047332D01*
X131882000Y-96125262D01*
X131882000Y-96618920D01*
X132651658Y-96618920D01*
X132729588Y-96639801D01*
X132787119Y-96697332D01*
X132808000Y-96775262D01*
X132808000Y-96876578D01*
X132787119Y-96954508D01*
X132729588Y-97012039D01*
X132651658Y-97032920D01*
X132283000Y-97032920D01*
X132283000Y-97168920D01*
X132653658Y-97168920D01*
X132730588Y-97189533D01*
X132787387Y-97246332D01*
X132808000Y-97323262D01*
X132808000Y-97427578D01*
X132787253Y-97505008D01*
X132730088Y-97562173D01*
X132652658Y-97582920D01*
X131883000Y-97582920D01*
X131883000Y-98076578D01*
X131862119Y-98154508D01*
X131804588Y-98212039D01*
X131726658Y-98232920D01*
X128774342Y-98232920D01*
X128697412Y-98212307D01*
X128640613Y-98155508D01*
X128620000Y-98078578D01*
X128620000Y-97582920D01*
X127849342Y-97582920D01*
X127772412Y-97562307D01*
X127715613Y-97505508D01*
X127695000Y-97428578D01*
X127695000Y-97322262D01*
X127715479Y-97245832D01*
X127771912Y-97189399D01*
X127848342Y-97168920D01*
X128219000Y-97168920D01*
X128219000Y-97032920D01*
X127849342Y-97032920D01*
X127772412Y-97012307D01*
X127715613Y-96955508D01*
X127695000Y-96878578D01*
X127695000Y-96771262D01*
X127715345Y-96695332D01*
X127771412Y-96639265D01*
X127847342Y-96618920D01*
X128619000Y-96618920D01*
X128619000Y-96125262D01*
X128639881Y-96047332D01*
X128697412Y-95989801D01*
X128775342Y-95968920D01*
X131725658Y-95968920D01*
X131803588Y-95989801D01*
G37*
%TD*%
D15*
%TO.C,P1*%
X148001000Y-87600920D03*
D16*
X148001000Y-86000920D03*
X146001000Y-86000920D03*
D15*
X146001000Y-84400920D03*
X144001000Y-87600920D03*
D16*
X144001000Y-86000920D03*
X142001000Y-86000920D03*
D15*
X142001000Y-84400920D03*
X140001000Y-87600920D03*
D16*
X140001000Y-86000920D03*
X138001000Y-86000920D03*
D15*
X138001000Y-84400920D03*
X136001000Y-87600920D03*
D16*
X136001000Y-86000920D03*
X134001000Y-86000920D03*
D15*
X134001000Y-84400920D03*
X132001000Y-87600920D03*
D16*
X132001000Y-86000920D03*
X130001000Y-86000920D03*
D15*
X130001000Y-84400920D03*
%TD*%
%TO.C,P2*%
X148001000Y-109600920D03*
D16*
X148001000Y-108000920D03*
X146001000Y-108000920D03*
D15*
X146001000Y-106400920D03*
X144001000Y-109600920D03*
D16*
X144001000Y-108000920D03*
X142001000Y-108000920D03*
D15*
X142001000Y-106400920D03*
X140001000Y-109600920D03*
D16*
X140001000Y-108000920D03*
X138001000Y-108000920D03*
D15*
X138001000Y-106400920D03*
X136001000Y-109600920D03*
D16*
X136001000Y-108000920D03*
X134001000Y-108000920D03*
D15*
X134001000Y-106400920D03*
X132001000Y-109600920D03*
D16*
X132001000Y-108000920D03*
X130001000Y-108000920D03*
D15*
X130001000Y-106400920D03*
%TD*%
D17*
%TO.C,R3*%
X123813500Y-97075920D03*
X125813500Y-97075920D03*
%TD*%
D18*
%TO.C,C11*%
X137214500Y-89838420D03*
X137214500Y-91913420D03*
%TD*%
D19*
%TO.C,IC1*%
X147613500Y-103925920D03*
X147613500Y-105825920D03*
X149713500Y-104875920D03*
%TD*%
D18*
%TO.C,C2*%
X131713500Y-101275920D03*
X131713500Y-103350920D03*
%TD*%
%TO.C,C15*%
X137713500Y-101800920D03*
X137713500Y-103875920D03*
%TD*%
%TO.C,C10*%
X139339500Y-89838420D03*
X139339500Y-91913420D03*
%TD*%
%TO.C,C1*%
X129613500Y-101275920D03*
X129613500Y-103350920D03*
%TD*%
D20*
%TO.C,R7*%
X127288500Y-102925920D03*
X127288500Y-100925920D03*
%TD*%
D18*
%TO.C,C13*%
X141922500Y-101790920D03*
X141922500Y-103865920D03*
%TD*%
D21*
%TO.C,C12*%
X141414500Y-91913420D03*
X141414500Y-89838420D03*
%TD*%
D22*
%TO.C,*%
X130251000Y-97100920D03*
%TD*%
D18*
%TO.C,C6*%
X128460500Y-90530920D03*
X128460500Y-92605920D03*
%TD*%
D23*
%TO.C,C5*%
X127317500Y-108691920D03*
X125242500Y-108691920D03*
%TD*%
D18*
%TO.C,C7*%
X132524500Y-90530920D03*
X132524500Y-92605920D03*
%TD*%
%TO.C,C9*%
X139813500Y-101775920D03*
X139813500Y-103850920D03*
%TD*%
D24*
%TO.C,R4*%
X151613500Y-101475920D03*
X151613500Y-103475920D03*
%TD*%
D25*
%TO.C,U1*%
X132401000Y-96350920D03*
D26*
X132001000Y-95450920D03*
X131501000Y-95450920D03*
X131001000Y-95450920D03*
X130501000Y-95450920D03*
X130001000Y-95450920D03*
X129501000Y-95450920D03*
X129001000Y-95450920D03*
X128501000Y-95450920D03*
D25*
X128101000Y-96350920D03*
X128101000Y-97850920D03*
D26*
X128501000Y-98750920D03*
X129001000Y-98750920D03*
X129501000Y-98750920D03*
X130001000Y-98750920D03*
X130501000Y-98750920D03*
X131001000Y-98750920D03*
X131501000Y-98750920D03*
X132001000Y-98750920D03*
D25*
X132401000Y-97850920D03*
D27*
X131526000Y-97100920D03*
X130776000Y-96600920D03*
X130776000Y-97600920D03*
X129726000Y-96600920D03*
X129726000Y-97600920D03*
X128976000Y-97100920D03*
%TD*%
D23*
%TO.C,C4*%
X127317500Y-105897920D03*
X125242500Y-105897920D03*
%TD*%
D21*
%TO.C,C16*%
X153479500Y-98150920D03*
X153479500Y-96075920D03*
%TD*%
D18*
%TO.C,C3*%
X133813500Y-101275920D03*
X133813500Y-103350920D03*
%TD*%
%TO.C,C8*%
X130492500Y-90530920D03*
X130492500Y-92605920D03*
%TD*%
D28*
%TO.C,D2*%
X153813500Y-101475920D03*
X153813500Y-103525920D03*
%TD*%
D21*
%TO.C,C14*%
X151379500Y-98150920D03*
X151379500Y-96075920D03*
%TD*%
D29*
%TO.C,TP1*%
X148399500Y-95864920D03*
X148399500Y-98404920D03*
%TD*%
D24*
%TO.C,R2*%
X125158500Y-99801920D03*
X125158500Y-101801920D03*
%TD*%
D30*
%TO.C,R1*%
X125763500Y-95150920D03*
X123763500Y-95150920D03*
%TD*%
M02*
