%TF.GenerationSoftware,KiCad,Pcbnew,9.0.1*%
%TF.CreationDate,2025-07-31T18:48:44+02:00*%
%TF.ProjectId,crazyflie2-exp-custom-qi-deck-ohne-Schottky,6372617a-7966-46c6-9965-322d6578702d,A*%
%TF.SameCoordinates,Original*%
%TF.FileFunction,Copper,L2,Bot*%
%TF.FilePolarity,Positive*%
%FSLAX46Y46*%
G04 Gerber Fmt 4.6, Leading zero omitted, Abs format (unit mm)*
G04 Created by KiCad (PCBNEW 9.0.1) date 2025-07-31 18:48:44*
%MOMM*%
%LPD*%
G01*
G04 APERTURE LIST*
%ADD10C,0.100000*%
%ADD11C,0.150000*%
%ADD12C,0.300000*%
%ADD13C,0.400000*%
%TA.AperFunction,ComponentPad*%
%ADD14R,1.050000X1.050000*%
%TD*%
%TA.AperFunction,ComponentPad*%
%ADD15C,1.050000*%
%TD*%
%TA.AperFunction,ComponentPad*%
%ADD16C,0.500000*%
%TD*%
%TA.AperFunction,ComponentPad*%
%ADD17C,1.400000*%
%TD*%
%TA.AperFunction,ViaPad*%
%ADD18C,0.635000*%
%TD*%
%TA.AperFunction,Conductor*%
%ADD19C,0.508000*%
%TD*%
%TA.AperFunction,Conductor*%
%ADD20C,0.203200*%
%TD*%
G04 APERTURE END LIST*
D10*
D11*
X177002200Y-166007200D02*
X285002200Y-166007200D01*
X285002200Y-198007200D01*
X177002200Y-198007200D01*
X177002200Y-166007200D01*
D10*
D11*
X10000000Y-10000000D02*
X287002200Y-10000000D01*
X287002200Y-200007200D01*
X10000000Y-200007200D01*
X10000000Y-10000000D01*
D10*
D11*
X12000000Y-12000000D02*
X285002200Y-12000000D01*
X285002200Y-198007200D01*
X12000000Y-198007200D01*
X12000000Y-12000000D01*
D10*
D11*
X60000000Y-12000000D02*
X60000000Y-10000000D01*
D10*
D11*
X110000000Y-12000000D02*
X110000000Y-10000000D01*
D10*
D11*
X160000000Y-12000000D02*
X160000000Y-10000000D01*
D10*
D11*
X210000000Y-12000000D02*
X210000000Y-10000000D01*
D10*
D11*
X260000000Y-12000000D02*
X260000000Y-10000000D01*
D10*
D11*
X36089160Y-11593604D02*
X35346303Y-11593604D01*
X35717731Y-11593604D02*
X35717731Y-10293604D01*
X35717731Y-10293604D02*
X35593922Y-10479319D01*
X35593922Y-10479319D02*
X35470112Y-10603128D01*
X35470112Y-10603128D02*
X35346303Y-10665033D01*
D10*
D11*
X85346303Y-10417414D02*
X85408207Y-10355509D01*
X85408207Y-10355509D02*
X85532017Y-10293604D01*
X85532017Y-10293604D02*
X85841541Y-10293604D01*
X85841541Y-10293604D02*
X85965350Y-10355509D01*
X85965350Y-10355509D02*
X86027255Y-10417414D01*
X86027255Y-10417414D02*
X86089160Y-10541223D01*
X86089160Y-10541223D02*
X86089160Y-10665033D01*
X86089160Y-10665033D02*
X86027255Y-10850747D01*
X86027255Y-10850747D02*
X85284398Y-11593604D01*
X85284398Y-11593604D02*
X86089160Y-11593604D01*
D10*
D11*
X135284398Y-10293604D02*
X136089160Y-10293604D01*
X136089160Y-10293604D02*
X135655826Y-10788842D01*
X135655826Y-10788842D02*
X135841541Y-10788842D01*
X135841541Y-10788842D02*
X135965350Y-10850747D01*
X135965350Y-10850747D02*
X136027255Y-10912652D01*
X136027255Y-10912652D02*
X136089160Y-11036461D01*
X136089160Y-11036461D02*
X136089160Y-11345985D01*
X136089160Y-11345985D02*
X136027255Y-11469795D01*
X136027255Y-11469795D02*
X135965350Y-11531700D01*
X135965350Y-11531700D02*
X135841541Y-11593604D01*
X135841541Y-11593604D02*
X135470112Y-11593604D01*
X135470112Y-11593604D02*
X135346303Y-11531700D01*
X135346303Y-11531700D02*
X135284398Y-11469795D01*
D10*
D11*
X185965350Y-10726938D02*
X185965350Y-11593604D01*
X185655826Y-10231700D02*
X185346303Y-11160271D01*
X185346303Y-11160271D02*
X186151064Y-11160271D01*
D10*
D11*
X236027255Y-10293604D02*
X235408207Y-10293604D01*
X235408207Y-10293604D02*
X235346303Y-10912652D01*
X235346303Y-10912652D02*
X235408207Y-10850747D01*
X235408207Y-10850747D02*
X235532017Y-10788842D01*
X235532017Y-10788842D02*
X235841541Y-10788842D01*
X235841541Y-10788842D02*
X235965350Y-10850747D01*
X235965350Y-10850747D02*
X236027255Y-10912652D01*
X236027255Y-10912652D02*
X236089160Y-11036461D01*
X236089160Y-11036461D02*
X236089160Y-11345985D01*
X236089160Y-11345985D02*
X236027255Y-11469795D01*
X236027255Y-11469795D02*
X235965350Y-11531700D01*
X235965350Y-11531700D02*
X235841541Y-11593604D01*
X235841541Y-11593604D02*
X235532017Y-11593604D01*
X235532017Y-11593604D02*
X235408207Y-11531700D01*
X235408207Y-11531700D02*
X235346303Y-11469795D01*
D10*
D11*
X285965350Y-10293604D02*
X285717731Y-10293604D01*
X285717731Y-10293604D02*
X285593922Y-10355509D01*
X285593922Y-10355509D02*
X285532017Y-10417414D01*
X285532017Y-10417414D02*
X285408207Y-10603128D01*
X285408207Y-10603128D02*
X285346303Y-10850747D01*
X285346303Y-10850747D02*
X285346303Y-11345985D01*
X285346303Y-11345985D02*
X285408207Y-11469795D01*
X285408207Y-11469795D02*
X285470112Y-11531700D01*
X285470112Y-11531700D02*
X285593922Y-11593604D01*
X285593922Y-11593604D02*
X285841541Y-11593604D01*
X285841541Y-11593604D02*
X285965350Y-11531700D01*
X285965350Y-11531700D02*
X286027255Y-11469795D01*
X286027255Y-11469795D02*
X286089160Y-11345985D01*
X286089160Y-11345985D02*
X286089160Y-11036461D01*
X286089160Y-11036461D02*
X286027255Y-10912652D01*
X286027255Y-10912652D02*
X285965350Y-10850747D01*
X285965350Y-10850747D02*
X285841541Y-10788842D01*
X285841541Y-10788842D02*
X285593922Y-10788842D01*
X285593922Y-10788842D02*
X285470112Y-10850747D01*
X285470112Y-10850747D02*
X285408207Y-10912652D01*
X285408207Y-10912652D02*
X285346303Y-11036461D01*
D10*
D11*
X60000000Y-198007200D02*
X60000000Y-200007200D01*
D10*
D11*
X110000000Y-198007200D02*
X110000000Y-200007200D01*
D10*
D11*
X160000000Y-198007200D02*
X160000000Y-200007200D01*
D10*
D11*
X210000000Y-198007200D02*
X210000000Y-200007200D01*
D10*
D11*
X260000000Y-198007200D02*
X260000000Y-200007200D01*
D10*
D11*
X36089160Y-199600804D02*
X35346303Y-199600804D01*
X35717731Y-199600804D02*
X35717731Y-198300804D01*
X35717731Y-198300804D02*
X35593922Y-198486519D01*
X35593922Y-198486519D02*
X35470112Y-198610328D01*
X35470112Y-198610328D02*
X35346303Y-198672233D01*
D10*
D11*
X85346303Y-198424614D02*
X85408207Y-198362709D01*
X85408207Y-198362709D02*
X85532017Y-198300804D01*
X85532017Y-198300804D02*
X85841541Y-198300804D01*
X85841541Y-198300804D02*
X85965350Y-198362709D01*
X85965350Y-198362709D02*
X86027255Y-198424614D01*
X86027255Y-198424614D02*
X86089160Y-198548423D01*
X86089160Y-198548423D02*
X86089160Y-198672233D01*
X86089160Y-198672233D02*
X86027255Y-198857947D01*
X86027255Y-198857947D02*
X85284398Y-199600804D01*
X85284398Y-199600804D02*
X86089160Y-199600804D01*
D10*
D11*
X135284398Y-198300804D02*
X136089160Y-198300804D01*
X136089160Y-198300804D02*
X135655826Y-198796042D01*
X135655826Y-198796042D02*
X135841541Y-198796042D01*
X135841541Y-198796042D02*
X135965350Y-198857947D01*
X135965350Y-198857947D02*
X136027255Y-198919852D01*
X136027255Y-198919852D02*
X136089160Y-199043661D01*
X136089160Y-199043661D02*
X136089160Y-199353185D01*
X136089160Y-199353185D02*
X136027255Y-199476995D01*
X136027255Y-199476995D02*
X135965350Y-199538900D01*
X135965350Y-199538900D02*
X135841541Y-199600804D01*
X135841541Y-199600804D02*
X135470112Y-199600804D01*
X135470112Y-199600804D02*
X135346303Y-199538900D01*
X135346303Y-199538900D02*
X135284398Y-199476995D01*
D10*
D11*
X185965350Y-198734138D02*
X185965350Y-199600804D01*
X185655826Y-198238900D02*
X185346303Y-199167471D01*
X185346303Y-199167471D02*
X186151064Y-199167471D01*
D10*
D11*
X236027255Y-198300804D02*
X235408207Y-198300804D01*
X235408207Y-198300804D02*
X235346303Y-198919852D01*
X235346303Y-198919852D02*
X235408207Y-198857947D01*
X235408207Y-198857947D02*
X235532017Y-198796042D01*
X235532017Y-198796042D02*
X235841541Y-198796042D01*
X235841541Y-198796042D02*
X235965350Y-198857947D01*
X235965350Y-198857947D02*
X236027255Y-198919852D01*
X236027255Y-198919852D02*
X236089160Y-199043661D01*
X236089160Y-199043661D02*
X236089160Y-199353185D01*
X236089160Y-199353185D02*
X236027255Y-199476995D01*
X236027255Y-199476995D02*
X235965350Y-199538900D01*
X235965350Y-199538900D02*
X235841541Y-199600804D01*
X235841541Y-199600804D02*
X235532017Y-199600804D01*
X235532017Y-199600804D02*
X235408207Y-199538900D01*
X235408207Y-199538900D02*
X235346303Y-199476995D01*
D10*
D11*
X285965350Y-198300804D02*
X285717731Y-198300804D01*
X285717731Y-198300804D02*
X285593922Y-198362709D01*
X285593922Y-198362709D02*
X285532017Y-198424614D01*
X285532017Y-198424614D02*
X285408207Y-198610328D01*
X285408207Y-198610328D02*
X285346303Y-198857947D01*
X285346303Y-198857947D02*
X285346303Y-199353185D01*
X285346303Y-199353185D02*
X285408207Y-199476995D01*
X285408207Y-199476995D02*
X285470112Y-199538900D01*
X285470112Y-199538900D02*
X285593922Y-199600804D01*
X285593922Y-199600804D02*
X285841541Y-199600804D01*
X285841541Y-199600804D02*
X285965350Y-199538900D01*
X285965350Y-199538900D02*
X286027255Y-199476995D01*
X286027255Y-199476995D02*
X286089160Y-199353185D01*
X286089160Y-199353185D02*
X286089160Y-199043661D01*
X286089160Y-199043661D02*
X286027255Y-198919852D01*
X286027255Y-198919852D02*
X285965350Y-198857947D01*
X285965350Y-198857947D02*
X285841541Y-198796042D01*
X285841541Y-198796042D02*
X285593922Y-198796042D01*
X285593922Y-198796042D02*
X285470112Y-198857947D01*
X285470112Y-198857947D02*
X285408207Y-198919852D01*
X285408207Y-198919852D02*
X285346303Y-199043661D01*
D10*
D11*
X10000000Y-60000000D02*
X12000000Y-60000000D01*
D10*
D11*
X10000000Y-110000000D02*
X12000000Y-110000000D01*
D10*
D11*
X10000000Y-160000000D02*
X12000000Y-160000000D01*
D10*
D11*
X10690476Y-35222176D02*
X11309523Y-35222176D01*
X10566666Y-35593604D02*
X10999999Y-34293604D01*
X10999999Y-34293604D02*
X11433333Y-35593604D01*
D10*
D11*
X11092857Y-84912652D02*
X11278571Y-84974557D01*
X11278571Y-84974557D02*
X11340476Y-85036461D01*
X11340476Y-85036461D02*
X11402380Y-85160271D01*
X11402380Y-85160271D02*
X11402380Y-85345985D01*
X11402380Y-85345985D02*
X11340476Y-85469795D01*
X11340476Y-85469795D02*
X11278571Y-85531700D01*
X11278571Y-85531700D02*
X11154761Y-85593604D01*
X11154761Y-85593604D02*
X10659523Y-85593604D01*
X10659523Y-85593604D02*
X10659523Y-84293604D01*
X10659523Y-84293604D02*
X11092857Y-84293604D01*
X11092857Y-84293604D02*
X11216666Y-84355509D01*
X11216666Y-84355509D02*
X11278571Y-84417414D01*
X11278571Y-84417414D02*
X11340476Y-84541223D01*
X11340476Y-84541223D02*
X11340476Y-84665033D01*
X11340476Y-84665033D02*
X11278571Y-84788842D01*
X11278571Y-84788842D02*
X11216666Y-84850747D01*
X11216666Y-84850747D02*
X11092857Y-84912652D01*
X11092857Y-84912652D02*
X10659523Y-84912652D01*
D10*
D11*
X11402380Y-135469795D02*
X11340476Y-135531700D01*
X11340476Y-135531700D02*
X11154761Y-135593604D01*
X11154761Y-135593604D02*
X11030952Y-135593604D01*
X11030952Y-135593604D02*
X10845238Y-135531700D01*
X10845238Y-135531700D02*
X10721428Y-135407890D01*
X10721428Y-135407890D02*
X10659523Y-135284080D01*
X10659523Y-135284080D02*
X10597619Y-135036461D01*
X10597619Y-135036461D02*
X10597619Y-134850747D01*
X10597619Y-134850747D02*
X10659523Y-134603128D01*
X10659523Y-134603128D02*
X10721428Y-134479319D01*
X10721428Y-134479319D02*
X10845238Y-134355509D01*
X10845238Y-134355509D02*
X11030952Y-134293604D01*
X11030952Y-134293604D02*
X11154761Y-134293604D01*
X11154761Y-134293604D02*
X11340476Y-134355509D01*
X11340476Y-134355509D02*
X11402380Y-134417414D01*
D10*
D11*
X10659523Y-185593604D02*
X10659523Y-184293604D01*
X10659523Y-184293604D02*
X10969047Y-184293604D01*
X10969047Y-184293604D02*
X11154761Y-184355509D01*
X11154761Y-184355509D02*
X11278571Y-184479319D01*
X11278571Y-184479319D02*
X11340476Y-184603128D01*
X11340476Y-184603128D02*
X11402380Y-184850747D01*
X11402380Y-184850747D02*
X11402380Y-185036461D01*
X11402380Y-185036461D02*
X11340476Y-185284080D01*
X11340476Y-185284080D02*
X11278571Y-185407890D01*
X11278571Y-185407890D02*
X11154761Y-185531700D01*
X11154761Y-185531700D02*
X10969047Y-185593604D01*
X10969047Y-185593604D02*
X10659523Y-185593604D01*
D10*
D11*
X287002200Y-60000000D02*
X285002200Y-60000000D01*
D10*
D11*
X287002200Y-110000000D02*
X285002200Y-110000000D01*
D10*
D11*
X287002200Y-160000000D02*
X285002200Y-160000000D01*
D10*
D11*
X285692676Y-35222176D02*
X286311723Y-35222176D01*
X285568866Y-35593604D02*
X286002199Y-34293604D01*
X286002199Y-34293604D02*
X286435533Y-35593604D01*
D10*
D11*
X286095057Y-84912652D02*
X286280771Y-84974557D01*
X286280771Y-84974557D02*
X286342676Y-85036461D01*
X286342676Y-85036461D02*
X286404580Y-85160271D01*
X286404580Y-85160271D02*
X286404580Y-85345985D01*
X286404580Y-85345985D02*
X286342676Y-85469795D01*
X286342676Y-85469795D02*
X286280771Y-85531700D01*
X286280771Y-85531700D02*
X286156961Y-85593604D01*
X286156961Y-85593604D02*
X285661723Y-85593604D01*
X285661723Y-85593604D02*
X285661723Y-84293604D01*
X285661723Y-84293604D02*
X286095057Y-84293604D01*
X286095057Y-84293604D02*
X286218866Y-84355509D01*
X286218866Y-84355509D02*
X286280771Y-84417414D01*
X286280771Y-84417414D02*
X286342676Y-84541223D01*
X286342676Y-84541223D02*
X286342676Y-84665033D01*
X286342676Y-84665033D02*
X286280771Y-84788842D01*
X286280771Y-84788842D02*
X286218866Y-84850747D01*
X286218866Y-84850747D02*
X286095057Y-84912652D01*
X286095057Y-84912652D02*
X285661723Y-84912652D01*
D10*
D11*
X286404580Y-135469795D02*
X286342676Y-135531700D01*
X286342676Y-135531700D02*
X286156961Y-135593604D01*
X286156961Y-135593604D02*
X286033152Y-135593604D01*
X286033152Y-135593604D02*
X285847438Y-135531700D01*
X285847438Y-135531700D02*
X285723628Y-135407890D01*
X285723628Y-135407890D02*
X285661723Y-135284080D01*
X285661723Y-135284080D02*
X285599819Y-135036461D01*
X285599819Y-135036461D02*
X285599819Y-134850747D01*
X285599819Y-134850747D02*
X285661723Y-134603128D01*
X285661723Y-134603128D02*
X285723628Y-134479319D01*
X285723628Y-134479319D02*
X285847438Y-134355509D01*
X285847438Y-134355509D02*
X286033152Y-134293604D01*
X286033152Y-134293604D02*
X286156961Y-134293604D01*
X286156961Y-134293604D02*
X286342676Y-134355509D01*
X286342676Y-134355509D02*
X286404580Y-134417414D01*
D10*
D11*
X285661723Y-185593604D02*
X285661723Y-184293604D01*
X285661723Y-184293604D02*
X285971247Y-184293604D01*
X285971247Y-184293604D02*
X286156961Y-184355509D01*
X286156961Y-184355509D02*
X286280771Y-184479319D01*
X286280771Y-184479319D02*
X286342676Y-184603128D01*
X286342676Y-184603128D02*
X286404580Y-184850747D01*
X286404580Y-184850747D02*
X286404580Y-185036461D01*
X286404580Y-185036461D02*
X286342676Y-185284080D01*
X286342676Y-185284080D02*
X286280771Y-185407890D01*
X286280771Y-185407890D02*
X286156961Y-185531700D01*
X286156961Y-185531700D02*
X285971247Y-185593604D01*
X285971247Y-185593604D02*
X285661723Y-185593604D01*
D10*
D11*
X200458026Y-193793328D02*
X200458026Y-192293328D01*
X200458026Y-192293328D02*
X200815169Y-192293328D01*
X200815169Y-192293328D02*
X201029455Y-192364757D01*
X201029455Y-192364757D02*
X201172312Y-192507614D01*
X201172312Y-192507614D02*
X201243741Y-192650471D01*
X201243741Y-192650471D02*
X201315169Y-192936185D01*
X201315169Y-192936185D02*
X201315169Y-193150471D01*
X201315169Y-193150471D02*
X201243741Y-193436185D01*
X201243741Y-193436185D02*
X201172312Y-193579042D01*
X201172312Y-193579042D02*
X201029455Y-193721900D01*
X201029455Y-193721900D02*
X200815169Y-193793328D01*
X200815169Y-193793328D02*
X200458026Y-193793328D01*
X202600884Y-193793328D02*
X202600884Y-193007614D01*
X202600884Y-193007614D02*
X202529455Y-192864757D01*
X202529455Y-192864757D02*
X202386598Y-192793328D01*
X202386598Y-192793328D02*
X202100884Y-192793328D01*
X202100884Y-192793328D02*
X201958026Y-192864757D01*
X202600884Y-193721900D02*
X202458026Y-193793328D01*
X202458026Y-193793328D02*
X202100884Y-193793328D01*
X202100884Y-193793328D02*
X201958026Y-193721900D01*
X201958026Y-193721900D02*
X201886598Y-193579042D01*
X201886598Y-193579042D02*
X201886598Y-193436185D01*
X201886598Y-193436185D02*
X201958026Y-193293328D01*
X201958026Y-193293328D02*
X202100884Y-193221900D01*
X202100884Y-193221900D02*
X202458026Y-193221900D01*
X202458026Y-193221900D02*
X202600884Y-193150471D01*
X203100884Y-192793328D02*
X203672312Y-192793328D01*
X203315169Y-192293328D02*
X203315169Y-193579042D01*
X203315169Y-193579042D02*
X203386598Y-193721900D01*
X203386598Y-193721900D02*
X203529455Y-193793328D01*
X203529455Y-193793328D02*
X203672312Y-193793328D01*
X204743741Y-193721900D02*
X204600884Y-193793328D01*
X204600884Y-193793328D02*
X204315170Y-193793328D01*
X204315170Y-193793328D02*
X204172312Y-193721900D01*
X204172312Y-193721900D02*
X204100884Y-193579042D01*
X204100884Y-193579042D02*
X204100884Y-193007614D01*
X204100884Y-193007614D02*
X204172312Y-192864757D01*
X204172312Y-192864757D02*
X204315170Y-192793328D01*
X204315170Y-192793328D02*
X204600884Y-192793328D01*
X204600884Y-192793328D02*
X204743741Y-192864757D01*
X204743741Y-192864757D02*
X204815170Y-193007614D01*
X204815170Y-193007614D02*
X204815170Y-193150471D01*
X204815170Y-193150471D02*
X204100884Y-193293328D01*
X205458026Y-193650471D02*
X205529455Y-193721900D01*
X205529455Y-193721900D02*
X205458026Y-193793328D01*
X205458026Y-193793328D02*
X205386598Y-193721900D01*
X205386598Y-193721900D02*
X205458026Y-193650471D01*
X205458026Y-193650471D02*
X205458026Y-193793328D01*
X205458026Y-192864757D02*
X205529455Y-192936185D01*
X205529455Y-192936185D02*
X205458026Y-193007614D01*
X205458026Y-193007614D02*
X205386598Y-192936185D01*
X205386598Y-192936185D02*
X205458026Y-192864757D01*
X205458026Y-192864757D02*
X205458026Y-193007614D01*
X207243741Y-192436185D02*
X207315169Y-192364757D01*
X207315169Y-192364757D02*
X207458027Y-192293328D01*
X207458027Y-192293328D02*
X207815169Y-192293328D01*
X207815169Y-192293328D02*
X207958027Y-192364757D01*
X207958027Y-192364757D02*
X208029455Y-192436185D01*
X208029455Y-192436185D02*
X208100884Y-192579042D01*
X208100884Y-192579042D02*
X208100884Y-192721900D01*
X208100884Y-192721900D02*
X208029455Y-192936185D01*
X208029455Y-192936185D02*
X207172312Y-193793328D01*
X207172312Y-193793328D02*
X208100884Y-193793328D01*
X209029455Y-192293328D02*
X209172312Y-192293328D01*
X209172312Y-192293328D02*
X209315169Y-192364757D01*
X209315169Y-192364757D02*
X209386598Y-192436185D01*
X209386598Y-192436185D02*
X209458026Y-192579042D01*
X209458026Y-192579042D02*
X209529455Y-192864757D01*
X209529455Y-192864757D02*
X209529455Y-193221900D01*
X209529455Y-193221900D02*
X209458026Y-193507614D01*
X209458026Y-193507614D02*
X209386598Y-193650471D01*
X209386598Y-193650471D02*
X209315169Y-193721900D01*
X209315169Y-193721900D02*
X209172312Y-193793328D01*
X209172312Y-193793328D02*
X209029455Y-193793328D01*
X209029455Y-193793328D02*
X208886598Y-193721900D01*
X208886598Y-193721900D02*
X208815169Y-193650471D01*
X208815169Y-193650471D02*
X208743740Y-193507614D01*
X208743740Y-193507614D02*
X208672312Y-193221900D01*
X208672312Y-193221900D02*
X208672312Y-192864757D01*
X208672312Y-192864757D02*
X208743740Y-192579042D01*
X208743740Y-192579042D02*
X208815169Y-192436185D01*
X208815169Y-192436185D02*
X208886598Y-192364757D01*
X208886598Y-192364757D02*
X209029455Y-192293328D01*
X210100883Y-192436185D02*
X210172311Y-192364757D01*
X210172311Y-192364757D02*
X210315169Y-192293328D01*
X210315169Y-192293328D02*
X210672311Y-192293328D01*
X210672311Y-192293328D02*
X210815169Y-192364757D01*
X210815169Y-192364757D02*
X210886597Y-192436185D01*
X210886597Y-192436185D02*
X210958026Y-192579042D01*
X210958026Y-192579042D02*
X210958026Y-192721900D01*
X210958026Y-192721900D02*
X210886597Y-192936185D01*
X210886597Y-192936185D02*
X210029454Y-193793328D01*
X210029454Y-193793328D02*
X210958026Y-193793328D01*
X212315168Y-192293328D02*
X211600882Y-192293328D01*
X211600882Y-192293328D02*
X211529454Y-193007614D01*
X211529454Y-193007614D02*
X211600882Y-192936185D01*
X211600882Y-192936185D02*
X211743740Y-192864757D01*
X211743740Y-192864757D02*
X212100882Y-192864757D01*
X212100882Y-192864757D02*
X212243740Y-192936185D01*
X212243740Y-192936185D02*
X212315168Y-193007614D01*
X212315168Y-193007614D02*
X212386597Y-193150471D01*
X212386597Y-193150471D02*
X212386597Y-193507614D01*
X212386597Y-193507614D02*
X212315168Y-193650471D01*
X212315168Y-193650471D02*
X212243740Y-193721900D01*
X212243740Y-193721900D02*
X212100882Y-193793328D01*
X212100882Y-193793328D02*
X211743740Y-193793328D01*
X211743740Y-193793328D02*
X211600882Y-193721900D01*
X211600882Y-193721900D02*
X211529454Y-193650471D01*
X213029453Y-193221900D02*
X214172311Y-193221900D01*
X215172311Y-192293328D02*
X215315168Y-192293328D01*
X215315168Y-192293328D02*
X215458025Y-192364757D01*
X215458025Y-192364757D02*
X215529454Y-192436185D01*
X215529454Y-192436185D02*
X215600882Y-192579042D01*
X215600882Y-192579042D02*
X215672311Y-192864757D01*
X215672311Y-192864757D02*
X215672311Y-193221900D01*
X215672311Y-193221900D02*
X215600882Y-193507614D01*
X215600882Y-193507614D02*
X215529454Y-193650471D01*
X215529454Y-193650471D02*
X215458025Y-193721900D01*
X215458025Y-193721900D02*
X215315168Y-193793328D01*
X215315168Y-193793328D02*
X215172311Y-193793328D01*
X215172311Y-193793328D02*
X215029454Y-193721900D01*
X215029454Y-193721900D02*
X214958025Y-193650471D01*
X214958025Y-193650471D02*
X214886596Y-193507614D01*
X214886596Y-193507614D02*
X214815168Y-193221900D01*
X214815168Y-193221900D02*
X214815168Y-192864757D01*
X214815168Y-192864757D02*
X214886596Y-192579042D01*
X214886596Y-192579042D02*
X214958025Y-192436185D01*
X214958025Y-192436185D02*
X215029454Y-192364757D01*
X215029454Y-192364757D02*
X215172311Y-192293328D01*
X216958025Y-192293328D02*
X216672310Y-192293328D01*
X216672310Y-192293328D02*
X216529453Y-192364757D01*
X216529453Y-192364757D02*
X216458025Y-192436185D01*
X216458025Y-192436185D02*
X216315167Y-192650471D01*
X216315167Y-192650471D02*
X216243739Y-192936185D01*
X216243739Y-192936185D02*
X216243739Y-193507614D01*
X216243739Y-193507614D02*
X216315167Y-193650471D01*
X216315167Y-193650471D02*
X216386596Y-193721900D01*
X216386596Y-193721900D02*
X216529453Y-193793328D01*
X216529453Y-193793328D02*
X216815167Y-193793328D01*
X216815167Y-193793328D02*
X216958025Y-193721900D01*
X216958025Y-193721900D02*
X217029453Y-193650471D01*
X217029453Y-193650471D02*
X217100882Y-193507614D01*
X217100882Y-193507614D02*
X217100882Y-193150471D01*
X217100882Y-193150471D02*
X217029453Y-193007614D01*
X217029453Y-193007614D02*
X216958025Y-192936185D01*
X216958025Y-192936185D02*
X216815167Y-192864757D01*
X216815167Y-192864757D02*
X216529453Y-192864757D01*
X216529453Y-192864757D02*
X216386596Y-192936185D01*
X216386596Y-192936185D02*
X216315167Y-193007614D01*
X216315167Y-193007614D02*
X216243739Y-193150471D01*
X217743738Y-193221900D02*
X218886596Y-193221900D01*
X220386596Y-193793328D02*
X219529453Y-193793328D01*
X219958024Y-193793328D02*
X219958024Y-192293328D01*
X219958024Y-192293328D02*
X219815167Y-192507614D01*
X219815167Y-192507614D02*
X219672310Y-192650471D01*
X219672310Y-192650471D02*
X219529453Y-192721900D01*
X220958024Y-192436185D02*
X221029452Y-192364757D01*
X221029452Y-192364757D02*
X221172310Y-192293328D01*
X221172310Y-192293328D02*
X221529452Y-192293328D01*
X221529452Y-192293328D02*
X221672310Y-192364757D01*
X221672310Y-192364757D02*
X221743738Y-192436185D01*
X221743738Y-192436185D02*
X221815167Y-192579042D01*
X221815167Y-192579042D02*
X221815167Y-192721900D01*
X221815167Y-192721900D02*
X221743738Y-192936185D01*
X221743738Y-192936185D02*
X220886595Y-193793328D01*
X220886595Y-193793328D02*
X221815167Y-193793328D01*
D10*
D11*
X177002200Y-194507200D02*
X285002200Y-194507200D01*
D10*
D11*
X178458026Y-196593328D02*
X178458026Y-195093328D01*
X179315169Y-196593328D02*
X178672312Y-195736185D01*
X179315169Y-195093328D02*
X178458026Y-195950471D01*
X179958026Y-196593328D02*
X179958026Y-195593328D01*
X179958026Y-195093328D02*
X179886598Y-195164757D01*
X179886598Y-195164757D02*
X179958026Y-195236185D01*
X179958026Y-195236185D02*
X180029455Y-195164757D01*
X180029455Y-195164757D02*
X179958026Y-195093328D01*
X179958026Y-195093328D02*
X179958026Y-195236185D01*
X181529455Y-196450471D02*
X181458027Y-196521900D01*
X181458027Y-196521900D02*
X181243741Y-196593328D01*
X181243741Y-196593328D02*
X181100884Y-196593328D01*
X181100884Y-196593328D02*
X180886598Y-196521900D01*
X180886598Y-196521900D02*
X180743741Y-196379042D01*
X180743741Y-196379042D02*
X180672312Y-196236185D01*
X180672312Y-196236185D02*
X180600884Y-195950471D01*
X180600884Y-195950471D02*
X180600884Y-195736185D01*
X180600884Y-195736185D02*
X180672312Y-195450471D01*
X180672312Y-195450471D02*
X180743741Y-195307614D01*
X180743741Y-195307614D02*
X180886598Y-195164757D01*
X180886598Y-195164757D02*
X181100884Y-195093328D01*
X181100884Y-195093328D02*
X181243741Y-195093328D01*
X181243741Y-195093328D02*
X181458027Y-195164757D01*
X181458027Y-195164757D02*
X181529455Y-195236185D01*
X182815170Y-196593328D02*
X182815170Y-195807614D01*
X182815170Y-195807614D02*
X182743741Y-195664757D01*
X182743741Y-195664757D02*
X182600884Y-195593328D01*
X182600884Y-195593328D02*
X182315170Y-195593328D01*
X182315170Y-195593328D02*
X182172312Y-195664757D01*
X182815170Y-196521900D02*
X182672312Y-196593328D01*
X182672312Y-196593328D02*
X182315170Y-196593328D01*
X182315170Y-196593328D02*
X182172312Y-196521900D01*
X182172312Y-196521900D02*
X182100884Y-196379042D01*
X182100884Y-196379042D02*
X182100884Y-196236185D01*
X182100884Y-196236185D02*
X182172312Y-196093328D01*
X182172312Y-196093328D02*
X182315170Y-196021900D01*
X182315170Y-196021900D02*
X182672312Y-196021900D01*
X182672312Y-196021900D02*
X182815170Y-195950471D01*
X184172313Y-196593328D02*
X184172313Y-195093328D01*
X184172313Y-196521900D02*
X184029455Y-196593328D01*
X184029455Y-196593328D02*
X183743741Y-196593328D01*
X183743741Y-196593328D02*
X183600884Y-196521900D01*
X183600884Y-196521900D02*
X183529455Y-196450471D01*
X183529455Y-196450471D02*
X183458027Y-196307614D01*
X183458027Y-196307614D02*
X183458027Y-195879042D01*
X183458027Y-195879042D02*
X183529455Y-195736185D01*
X183529455Y-195736185D02*
X183600884Y-195664757D01*
X183600884Y-195664757D02*
X183743741Y-195593328D01*
X183743741Y-195593328D02*
X184029455Y-195593328D01*
X184029455Y-195593328D02*
X184172313Y-195664757D01*
X186029455Y-195807614D02*
X186529455Y-195807614D01*
X186743741Y-196593328D02*
X186029455Y-196593328D01*
X186029455Y-196593328D02*
X186029455Y-195093328D01*
X186029455Y-195093328D02*
X186743741Y-195093328D01*
X187386598Y-196450471D02*
X187458027Y-196521900D01*
X187458027Y-196521900D02*
X187386598Y-196593328D01*
X187386598Y-196593328D02*
X187315170Y-196521900D01*
X187315170Y-196521900D02*
X187386598Y-196450471D01*
X187386598Y-196450471D02*
X187386598Y-196593328D01*
X188100884Y-196593328D02*
X188100884Y-195093328D01*
X188100884Y-195093328D02*
X188458027Y-195093328D01*
X188458027Y-195093328D02*
X188672313Y-195164757D01*
X188672313Y-195164757D02*
X188815170Y-195307614D01*
X188815170Y-195307614D02*
X188886599Y-195450471D01*
X188886599Y-195450471D02*
X188958027Y-195736185D01*
X188958027Y-195736185D02*
X188958027Y-195950471D01*
X188958027Y-195950471D02*
X188886599Y-196236185D01*
X188886599Y-196236185D02*
X188815170Y-196379042D01*
X188815170Y-196379042D02*
X188672313Y-196521900D01*
X188672313Y-196521900D02*
X188458027Y-196593328D01*
X188458027Y-196593328D02*
X188100884Y-196593328D01*
X189600884Y-196450471D02*
X189672313Y-196521900D01*
X189672313Y-196521900D02*
X189600884Y-196593328D01*
X189600884Y-196593328D02*
X189529456Y-196521900D01*
X189529456Y-196521900D02*
X189600884Y-196450471D01*
X189600884Y-196450471D02*
X189600884Y-196593328D01*
X190243742Y-196164757D02*
X190958028Y-196164757D01*
X190100885Y-196593328D02*
X190600885Y-195093328D01*
X190600885Y-195093328D02*
X191100885Y-196593328D01*
X191600884Y-196450471D02*
X191672313Y-196521900D01*
X191672313Y-196521900D02*
X191600884Y-196593328D01*
X191600884Y-196593328D02*
X191529456Y-196521900D01*
X191529456Y-196521900D02*
X191600884Y-196450471D01*
X191600884Y-196450471D02*
X191600884Y-196593328D01*
X193529456Y-196593328D02*
X193815170Y-196593328D01*
X193815170Y-196593328D02*
X193958027Y-196521900D01*
X193958027Y-196521900D02*
X194029456Y-196450471D01*
X194029456Y-196450471D02*
X194172313Y-196236185D01*
X194172313Y-196236185D02*
X194243742Y-195950471D01*
X194243742Y-195950471D02*
X194243742Y-195379042D01*
X194243742Y-195379042D02*
X194172313Y-195236185D01*
X194172313Y-195236185D02*
X194100885Y-195164757D01*
X194100885Y-195164757D02*
X193958027Y-195093328D01*
X193958027Y-195093328D02*
X193672313Y-195093328D01*
X193672313Y-195093328D02*
X193529456Y-195164757D01*
X193529456Y-195164757D02*
X193458027Y-195236185D01*
X193458027Y-195236185D02*
X193386599Y-195379042D01*
X193386599Y-195379042D02*
X193386599Y-195736185D01*
X193386599Y-195736185D02*
X193458027Y-195879042D01*
X193458027Y-195879042D02*
X193529456Y-195950471D01*
X193529456Y-195950471D02*
X193672313Y-196021900D01*
X193672313Y-196021900D02*
X193958027Y-196021900D01*
X193958027Y-196021900D02*
X194100885Y-195950471D01*
X194100885Y-195950471D02*
X194172313Y-195879042D01*
X194172313Y-195879042D02*
X194243742Y-195736185D01*
X194886598Y-196450471D02*
X194958027Y-196521900D01*
X194958027Y-196521900D02*
X194886598Y-196593328D01*
X194886598Y-196593328D02*
X194815170Y-196521900D01*
X194815170Y-196521900D02*
X194886598Y-196450471D01*
X194886598Y-196450471D02*
X194886598Y-196593328D01*
X195886599Y-195093328D02*
X196029456Y-195093328D01*
X196029456Y-195093328D02*
X196172313Y-195164757D01*
X196172313Y-195164757D02*
X196243742Y-195236185D01*
X196243742Y-195236185D02*
X196315170Y-195379042D01*
X196315170Y-195379042D02*
X196386599Y-195664757D01*
X196386599Y-195664757D02*
X196386599Y-196021900D01*
X196386599Y-196021900D02*
X196315170Y-196307614D01*
X196315170Y-196307614D02*
X196243742Y-196450471D01*
X196243742Y-196450471D02*
X196172313Y-196521900D01*
X196172313Y-196521900D02*
X196029456Y-196593328D01*
X196029456Y-196593328D02*
X195886599Y-196593328D01*
X195886599Y-196593328D02*
X195743742Y-196521900D01*
X195743742Y-196521900D02*
X195672313Y-196450471D01*
X195672313Y-196450471D02*
X195600884Y-196307614D01*
X195600884Y-196307614D02*
X195529456Y-196021900D01*
X195529456Y-196021900D02*
X195529456Y-195664757D01*
X195529456Y-195664757D02*
X195600884Y-195379042D01*
X195600884Y-195379042D02*
X195672313Y-195236185D01*
X195672313Y-195236185D02*
X195743742Y-195164757D01*
X195743742Y-195164757D02*
X195886599Y-195093328D01*
X197029455Y-196450471D02*
X197100884Y-196521900D01*
X197100884Y-196521900D02*
X197029455Y-196593328D01*
X197029455Y-196593328D02*
X196958027Y-196521900D01*
X196958027Y-196521900D02*
X197029455Y-196450471D01*
X197029455Y-196450471D02*
X197029455Y-196593328D01*
X198529456Y-196593328D02*
X197672313Y-196593328D01*
X198100884Y-196593328D02*
X198100884Y-195093328D01*
X198100884Y-195093328D02*
X197958027Y-195307614D01*
X197958027Y-195307614D02*
X197815170Y-195450471D01*
X197815170Y-195450471D02*
X197672313Y-195521900D01*
D10*
D11*
X177002200Y-191507200D02*
X285002200Y-191507200D01*
D10*
D12*
X264413853Y-193785528D02*
X263913853Y-193071242D01*
X263556710Y-193785528D02*
X263556710Y-192285528D01*
X263556710Y-192285528D02*
X264128139Y-192285528D01*
X264128139Y-192285528D02*
X264270996Y-192356957D01*
X264270996Y-192356957D02*
X264342425Y-192428385D01*
X264342425Y-192428385D02*
X264413853Y-192571242D01*
X264413853Y-192571242D02*
X264413853Y-192785528D01*
X264413853Y-192785528D02*
X264342425Y-192928385D01*
X264342425Y-192928385D02*
X264270996Y-192999814D01*
X264270996Y-192999814D02*
X264128139Y-193071242D01*
X264128139Y-193071242D02*
X263556710Y-193071242D01*
X265628139Y-193714100D02*
X265485282Y-193785528D01*
X265485282Y-193785528D02*
X265199568Y-193785528D01*
X265199568Y-193785528D02*
X265056710Y-193714100D01*
X265056710Y-193714100D02*
X264985282Y-193571242D01*
X264985282Y-193571242D02*
X264985282Y-192999814D01*
X264985282Y-192999814D02*
X265056710Y-192856957D01*
X265056710Y-192856957D02*
X265199568Y-192785528D01*
X265199568Y-192785528D02*
X265485282Y-192785528D01*
X265485282Y-192785528D02*
X265628139Y-192856957D01*
X265628139Y-192856957D02*
X265699568Y-192999814D01*
X265699568Y-192999814D02*
X265699568Y-193142671D01*
X265699568Y-193142671D02*
X264985282Y-193285528D01*
X266199567Y-192785528D02*
X266556710Y-193785528D01*
X266556710Y-193785528D02*
X266913853Y-192785528D01*
X267485281Y-193642671D02*
X267556710Y-193714100D01*
X267556710Y-193714100D02*
X267485281Y-193785528D01*
X267485281Y-193785528D02*
X267413853Y-193714100D01*
X267413853Y-193714100D02*
X267485281Y-193642671D01*
X267485281Y-193642671D02*
X267485281Y-193785528D01*
X267485281Y-192856957D02*
X267556710Y-192928385D01*
X267556710Y-192928385D02*
X267485281Y-192999814D01*
X267485281Y-192999814D02*
X267413853Y-192928385D01*
X267413853Y-192928385D02*
X267485281Y-192856957D01*
X267485281Y-192856957D02*
X267485281Y-192999814D01*
X269270996Y-193356957D02*
X269985282Y-193356957D01*
X269128139Y-193785528D02*
X269628139Y-192285528D01*
X269628139Y-192285528D02*
X270128139Y-193785528D01*
D10*
D11*
X178386598Y-193721900D02*
X178600884Y-193793328D01*
X178600884Y-193793328D02*
X178958026Y-193793328D01*
X178958026Y-193793328D02*
X179100884Y-193721900D01*
X179100884Y-193721900D02*
X179172312Y-193650471D01*
X179172312Y-193650471D02*
X179243741Y-193507614D01*
X179243741Y-193507614D02*
X179243741Y-193364757D01*
X179243741Y-193364757D02*
X179172312Y-193221900D01*
X179172312Y-193221900D02*
X179100884Y-193150471D01*
X179100884Y-193150471D02*
X178958026Y-193079042D01*
X178958026Y-193079042D02*
X178672312Y-193007614D01*
X178672312Y-193007614D02*
X178529455Y-192936185D01*
X178529455Y-192936185D02*
X178458026Y-192864757D01*
X178458026Y-192864757D02*
X178386598Y-192721900D01*
X178386598Y-192721900D02*
X178386598Y-192579042D01*
X178386598Y-192579042D02*
X178458026Y-192436185D01*
X178458026Y-192436185D02*
X178529455Y-192364757D01*
X178529455Y-192364757D02*
X178672312Y-192293328D01*
X178672312Y-192293328D02*
X179029455Y-192293328D01*
X179029455Y-192293328D02*
X179243741Y-192364757D01*
X179886597Y-193793328D02*
X179886597Y-192793328D01*
X179886597Y-192293328D02*
X179815169Y-192364757D01*
X179815169Y-192364757D02*
X179886597Y-192436185D01*
X179886597Y-192436185D02*
X179958026Y-192364757D01*
X179958026Y-192364757D02*
X179886597Y-192293328D01*
X179886597Y-192293328D02*
X179886597Y-192436185D01*
X180458026Y-192793328D02*
X181243741Y-192793328D01*
X181243741Y-192793328D02*
X180458026Y-193793328D01*
X180458026Y-193793328D02*
X181243741Y-193793328D01*
X182386598Y-193721900D02*
X182243741Y-193793328D01*
X182243741Y-193793328D02*
X181958027Y-193793328D01*
X181958027Y-193793328D02*
X181815169Y-193721900D01*
X181815169Y-193721900D02*
X181743741Y-193579042D01*
X181743741Y-193579042D02*
X181743741Y-193007614D01*
X181743741Y-193007614D02*
X181815169Y-192864757D01*
X181815169Y-192864757D02*
X181958027Y-192793328D01*
X181958027Y-192793328D02*
X182243741Y-192793328D01*
X182243741Y-192793328D02*
X182386598Y-192864757D01*
X182386598Y-192864757D02*
X182458027Y-193007614D01*
X182458027Y-193007614D02*
X182458027Y-193150471D01*
X182458027Y-193150471D02*
X181743741Y-193293328D01*
X183100883Y-193650471D02*
X183172312Y-193721900D01*
X183172312Y-193721900D02*
X183100883Y-193793328D01*
X183100883Y-193793328D02*
X183029455Y-193721900D01*
X183029455Y-193721900D02*
X183100883Y-193650471D01*
X183100883Y-193650471D02*
X183100883Y-193793328D01*
X183100883Y-192864757D02*
X183172312Y-192936185D01*
X183172312Y-192936185D02*
X183100883Y-193007614D01*
X183100883Y-193007614D02*
X183029455Y-192936185D01*
X183029455Y-192936185D02*
X183100883Y-192864757D01*
X183100883Y-192864757D02*
X183100883Y-193007614D01*
X184886598Y-193364757D02*
X185600884Y-193364757D01*
X184743741Y-193793328D02*
X185243741Y-192293328D01*
X185243741Y-192293328D02*
X185743741Y-193793328D01*
X186886598Y-192793328D02*
X186886598Y-193793328D01*
X186529455Y-192221900D02*
X186172312Y-193293328D01*
X186172312Y-193293328D02*
X187100883Y-193293328D01*
D10*
D11*
X263458026Y-196593328D02*
X263458026Y-195093328D01*
X264815170Y-196593328D02*
X264815170Y-195093328D01*
X264815170Y-196521900D02*
X264672312Y-196593328D01*
X264672312Y-196593328D02*
X264386598Y-196593328D01*
X264386598Y-196593328D02*
X264243741Y-196521900D01*
X264243741Y-196521900D02*
X264172312Y-196450471D01*
X264172312Y-196450471D02*
X264100884Y-196307614D01*
X264100884Y-196307614D02*
X264100884Y-195879042D01*
X264100884Y-195879042D02*
X264172312Y-195736185D01*
X264172312Y-195736185D02*
X264243741Y-195664757D01*
X264243741Y-195664757D02*
X264386598Y-195593328D01*
X264386598Y-195593328D02*
X264672312Y-195593328D01*
X264672312Y-195593328D02*
X264815170Y-195664757D01*
X265529455Y-196450471D02*
X265600884Y-196521900D01*
X265600884Y-196521900D02*
X265529455Y-196593328D01*
X265529455Y-196593328D02*
X265458027Y-196521900D01*
X265458027Y-196521900D02*
X265529455Y-196450471D01*
X265529455Y-196450471D02*
X265529455Y-196593328D01*
X265529455Y-195664757D02*
X265600884Y-195736185D01*
X265600884Y-195736185D02*
X265529455Y-195807614D01*
X265529455Y-195807614D02*
X265458027Y-195736185D01*
X265458027Y-195736185D02*
X265529455Y-195664757D01*
X265529455Y-195664757D02*
X265529455Y-195807614D01*
X267315170Y-195236185D02*
X267386598Y-195164757D01*
X267386598Y-195164757D02*
X267529456Y-195093328D01*
X267529456Y-195093328D02*
X267886598Y-195093328D01*
X267886598Y-195093328D02*
X268029456Y-195164757D01*
X268029456Y-195164757D02*
X268100884Y-195236185D01*
X268100884Y-195236185D02*
X268172313Y-195379042D01*
X268172313Y-195379042D02*
X268172313Y-195521900D01*
X268172313Y-195521900D02*
X268100884Y-195736185D01*
X268100884Y-195736185D02*
X267243741Y-196593328D01*
X267243741Y-196593328D02*
X268172313Y-196593328D01*
X269886598Y-195021900D02*
X268600884Y-196950471D01*
X270600884Y-195736185D02*
X270458027Y-195664757D01*
X270458027Y-195664757D02*
X270386598Y-195593328D01*
X270386598Y-195593328D02*
X270315170Y-195450471D01*
X270315170Y-195450471D02*
X270315170Y-195379042D01*
X270315170Y-195379042D02*
X270386598Y-195236185D01*
X270386598Y-195236185D02*
X270458027Y-195164757D01*
X270458027Y-195164757D02*
X270600884Y-195093328D01*
X270600884Y-195093328D02*
X270886598Y-195093328D01*
X270886598Y-195093328D02*
X271029456Y-195164757D01*
X271029456Y-195164757D02*
X271100884Y-195236185D01*
X271100884Y-195236185D02*
X271172313Y-195379042D01*
X271172313Y-195379042D02*
X271172313Y-195450471D01*
X271172313Y-195450471D02*
X271100884Y-195593328D01*
X271100884Y-195593328D02*
X271029456Y-195664757D01*
X271029456Y-195664757D02*
X270886598Y-195736185D01*
X270886598Y-195736185D02*
X270600884Y-195736185D01*
X270600884Y-195736185D02*
X270458027Y-195807614D01*
X270458027Y-195807614D02*
X270386598Y-195879042D01*
X270386598Y-195879042D02*
X270315170Y-196021900D01*
X270315170Y-196021900D02*
X270315170Y-196307614D01*
X270315170Y-196307614D02*
X270386598Y-196450471D01*
X270386598Y-196450471D02*
X270458027Y-196521900D01*
X270458027Y-196521900D02*
X270600884Y-196593328D01*
X270600884Y-196593328D02*
X270886598Y-196593328D01*
X270886598Y-196593328D02*
X271029456Y-196521900D01*
X271029456Y-196521900D02*
X271100884Y-196450471D01*
X271100884Y-196450471D02*
X271172313Y-196307614D01*
X271172313Y-196307614D02*
X271172313Y-196021900D01*
X271172313Y-196021900D02*
X271100884Y-195879042D01*
X271100884Y-195879042D02*
X271029456Y-195807614D01*
X271029456Y-195807614D02*
X270886598Y-195736185D01*
D10*
D11*
X177002200Y-187507200D02*
X285002200Y-187507200D01*
D10*
D13*
X178693928Y-188211638D02*
X179836785Y-188211638D01*
X179015357Y-190211638D02*
X179265357Y-188211638D01*
X180253452Y-190211638D02*
X180420119Y-188878304D01*
X180503452Y-188211638D02*
X180396309Y-188306876D01*
X180396309Y-188306876D02*
X180479643Y-188402114D01*
X180479643Y-188402114D02*
X180586786Y-188306876D01*
X180586786Y-188306876D02*
X180503452Y-188211638D01*
X180503452Y-188211638D02*
X180479643Y-188402114D01*
X181086786Y-188878304D02*
X181848690Y-188878304D01*
X181455833Y-188211638D02*
X181241548Y-189925923D01*
X181241548Y-189925923D02*
X181312976Y-190116400D01*
X181312976Y-190116400D02*
X181491548Y-190211638D01*
X181491548Y-190211638D02*
X181682024Y-190211638D01*
X182634405Y-190211638D02*
X182455833Y-190116400D01*
X182455833Y-190116400D02*
X182384405Y-189925923D01*
X182384405Y-189925923D02*
X182598690Y-188211638D01*
X184170119Y-190116400D02*
X183967738Y-190211638D01*
X183967738Y-190211638D02*
X183586785Y-190211638D01*
X183586785Y-190211638D02*
X183408214Y-190116400D01*
X183408214Y-190116400D02*
X183336785Y-189925923D01*
X183336785Y-189925923D02*
X183432024Y-189164019D01*
X183432024Y-189164019D02*
X183551071Y-188973542D01*
X183551071Y-188973542D02*
X183753452Y-188878304D01*
X183753452Y-188878304D02*
X184134404Y-188878304D01*
X184134404Y-188878304D02*
X184312976Y-188973542D01*
X184312976Y-188973542D02*
X184384404Y-189164019D01*
X184384404Y-189164019D02*
X184360595Y-189354495D01*
X184360595Y-189354495D02*
X183384404Y-189544971D01*
X185134405Y-190021161D02*
X185217738Y-190116400D01*
X185217738Y-190116400D02*
X185110595Y-190211638D01*
X185110595Y-190211638D02*
X185027262Y-190116400D01*
X185027262Y-190116400D02*
X185134405Y-190021161D01*
X185134405Y-190021161D02*
X185110595Y-190211638D01*
X185265357Y-188973542D02*
X185348690Y-189068780D01*
X185348690Y-189068780D02*
X185241548Y-189164019D01*
X185241548Y-189164019D02*
X185158214Y-189068780D01*
X185158214Y-189068780D02*
X185265357Y-188973542D01*
X185265357Y-188973542D02*
X185241548Y-189164019D01*
X188753453Y-190021161D02*
X188646310Y-190116400D01*
X188646310Y-190116400D02*
X188348691Y-190211638D01*
X188348691Y-190211638D02*
X188158215Y-190211638D01*
X188158215Y-190211638D02*
X187884405Y-190116400D01*
X187884405Y-190116400D02*
X187717739Y-189925923D01*
X187717739Y-189925923D02*
X187646310Y-189735447D01*
X187646310Y-189735447D02*
X187598691Y-189354495D01*
X187598691Y-189354495D02*
X187634405Y-189068780D01*
X187634405Y-189068780D02*
X187777262Y-188687828D01*
X187777262Y-188687828D02*
X187896310Y-188497352D01*
X187896310Y-188497352D02*
X188110596Y-188306876D01*
X188110596Y-188306876D02*
X188408215Y-188211638D01*
X188408215Y-188211638D02*
X188598691Y-188211638D01*
X188598691Y-188211638D02*
X188872501Y-188306876D01*
X188872501Y-188306876D02*
X188955834Y-188402114D01*
X189586786Y-190211638D02*
X189753453Y-188878304D01*
X189705834Y-189259257D02*
X189824881Y-189068780D01*
X189824881Y-189068780D02*
X189932024Y-188973542D01*
X189932024Y-188973542D02*
X190134405Y-188878304D01*
X190134405Y-188878304D02*
X190324881Y-188878304D01*
X191682024Y-190211638D02*
X191812976Y-189164019D01*
X191812976Y-189164019D02*
X191741548Y-188973542D01*
X191741548Y-188973542D02*
X191562976Y-188878304D01*
X191562976Y-188878304D02*
X191182024Y-188878304D01*
X191182024Y-188878304D02*
X190979643Y-188973542D01*
X191693929Y-190116400D02*
X191491548Y-190211638D01*
X191491548Y-190211638D02*
X191015357Y-190211638D01*
X191015357Y-190211638D02*
X190836786Y-190116400D01*
X190836786Y-190116400D02*
X190765357Y-189925923D01*
X190765357Y-189925923D02*
X190789167Y-189735447D01*
X190789167Y-189735447D02*
X190908215Y-189544971D01*
X190908215Y-189544971D02*
X191110596Y-189449733D01*
X191110596Y-189449733D02*
X191586786Y-189449733D01*
X191586786Y-189449733D02*
X191789167Y-189354495D01*
X192610596Y-188878304D02*
X193658215Y-188878304D01*
X193658215Y-188878304D02*
X192443929Y-190211638D01*
X192443929Y-190211638D02*
X193491548Y-190211638D01*
X194229644Y-188878304D02*
X194539168Y-190211638D01*
X195182025Y-188878304D02*
X194539168Y-190211638D01*
X194539168Y-190211638D02*
X194289168Y-190687828D01*
X194289168Y-190687828D02*
X194182025Y-190783066D01*
X194182025Y-190783066D02*
X193979644Y-190878304D01*
X195658216Y-188878304D02*
X196420120Y-188878304D01*
X195777263Y-190211638D02*
X195991549Y-188497352D01*
X195991549Y-188497352D02*
X196110597Y-188306876D01*
X196110597Y-188306876D02*
X196312978Y-188211638D01*
X196312978Y-188211638D02*
X196503454Y-188211638D01*
X197205835Y-190211638D02*
X197027263Y-190116400D01*
X197027263Y-190116400D02*
X196955835Y-189925923D01*
X196955835Y-189925923D02*
X197170120Y-188211638D01*
X197967739Y-190211638D02*
X198134406Y-188878304D01*
X198217739Y-188211638D02*
X198110596Y-188306876D01*
X198110596Y-188306876D02*
X198193930Y-188402114D01*
X198193930Y-188402114D02*
X198301073Y-188306876D01*
X198301073Y-188306876D02*
X198217739Y-188211638D01*
X198217739Y-188211638D02*
X198193930Y-188402114D01*
X199693930Y-190116400D02*
X199491549Y-190211638D01*
X199491549Y-190211638D02*
X199110596Y-190211638D01*
X199110596Y-190211638D02*
X198932025Y-190116400D01*
X198932025Y-190116400D02*
X198860596Y-189925923D01*
X198860596Y-189925923D02*
X198955835Y-189164019D01*
X198955835Y-189164019D02*
X199074882Y-188973542D01*
X199074882Y-188973542D02*
X199277263Y-188878304D01*
X199277263Y-188878304D02*
X199658215Y-188878304D01*
X199658215Y-188878304D02*
X199836787Y-188973542D01*
X199836787Y-188973542D02*
X199908215Y-189164019D01*
X199908215Y-189164019D02*
X199884406Y-189354495D01*
X199884406Y-189354495D02*
X198908215Y-189544971D01*
X202289169Y-188402114D02*
X202396311Y-188306876D01*
X202396311Y-188306876D02*
X202598692Y-188211638D01*
X202598692Y-188211638D02*
X203074883Y-188211638D01*
X203074883Y-188211638D02*
X203253454Y-188306876D01*
X203253454Y-188306876D02*
X203336788Y-188402114D01*
X203336788Y-188402114D02*
X203408216Y-188592590D01*
X203408216Y-188592590D02*
X203384407Y-188783066D01*
X203384407Y-188783066D02*
X203253454Y-189068780D01*
X203253454Y-189068780D02*
X201967740Y-190211638D01*
X201967740Y-190211638D02*
X203205835Y-190211638D01*
X204086788Y-190021161D02*
X204170121Y-190116400D01*
X204170121Y-190116400D02*
X204062978Y-190211638D01*
X204062978Y-190211638D02*
X203979645Y-190116400D01*
X203979645Y-190116400D02*
X204086788Y-190021161D01*
X204086788Y-190021161D02*
X204062978Y-190211638D01*
X205646312Y-188211638D02*
X205836788Y-188211638D01*
X205836788Y-188211638D02*
X206015359Y-188306876D01*
X206015359Y-188306876D02*
X206098693Y-188402114D01*
X206098693Y-188402114D02*
X206170121Y-188592590D01*
X206170121Y-188592590D02*
X206217740Y-188973542D01*
X206217740Y-188973542D02*
X206158216Y-189449733D01*
X206158216Y-189449733D02*
X206015359Y-189830685D01*
X206015359Y-189830685D02*
X205896312Y-190021161D01*
X205896312Y-190021161D02*
X205789169Y-190116400D01*
X205789169Y-190116400D02*
X205586788Y-190211638D01*
X205586788Y-190211638D02*
X205396312Y-190211638D01*
X205396312Y-190211638D02*
X205217740Y-190116400D01*
X205217740Y-190116400D02*
X205134407Y-190021161D01*
X205134407Y-190021161D02*
X205062978Y-189830685D01*
X205062978Y-189830685D02*
X205015359Y-189449733D01*
X205015359Y-189449733D02*
X205074883Y-188973542D01*
X205074883Y-188973542D02*
X205217740Y-188592590D01*
X205217740Y-188592590D02*
X205336788Y-188402114D01*
X205336788Y-188402114D02*
X205443931Y-188306876D01*
X205443931Y-188306876D02*
X205646312Y-188211638D01*
X209312979Y-190116400D02*
X209110598Y-190211638D01*
X209110598Y-190211638D02*
X208729646Y-190211638D01*
X208729646Y-190211638D02*
X208551074Y-190116400D01*
X208551074Y-190116400D02*
X208467741Y-190021161D01*
X208467741Y-190021161D02*
X208396312Y-189830685D01*
X208396312Y-189830685D02*
X208467741Y-189259257D01*
X208467741Y-189259257D02*
X208586788Y-189068780D01*
X208586788Y-189068780D02*
X208693931Y-188973542D01*
X208693931Y-188973542D02*
X208896312Y-188878304D01*
X208896312Y-188878304D02*
X209277265Y-188878304D01*
X209277265Y-188878304D02*
X209455836Y-188973542D01*
X211182027Y-188878304D02*
X211015360Y-190211638D01*
X210324884Y-188878304D02*
X210193932Y-189925923D01*
X210193932Y-189925923D02*
X210265360Y-190116400D01*
X210265360Y-190116400D02*
X210443932Y-190211638D01*
X210443932Y-190211638D02*
X210729646Y-190211638D01*
X210729646Y-190211638D02*
X210932027Y-190116400D01*
X210932027Y-190116400D02*
X211039170Y-190021161D01*
X211884408Y-190116400D02*
X212062979Y-190211638D01*
X212062979Y-190211638D02*
X212443932Y-190211638D01*
X212443932Y-190211638D02*
X212646313Y-190116400D01*
X212646313Y-190116400D02*
X212765360Y-189925923D01*
X212765360Y-189925923D02*
X212777265Y-189830685D01*
X212777265Y-189830685D02*
X212705836Y-189640209D01*
X212705836Y-189640209D02*
X212527265Y-189544971D01*
X212527265Y-189544971D02*
X212241551Y-189544971D01*
X212241551Y-189544971D02*
X212062979Y-189449733D01*
X212062979Y-189449733D02*
X211991551Y-189259257D01*
X211991551Y-189259257D02*
X212003456Y-189164019D01*
X212003456Y-189164019D02*
X212122503Y-188973542D01*
X212122503Y-188973542D02*
X212324884Y-188878304D01*
X212324884Y-188878304D02*
X212610598Y-188878304D01*
X212610598Y-188878304D02*
X212789170Y-188973542D01*
X213467742Y-188878304D02*
X214229646Y-188878304D01*
X213836789Y-188211638D02*
X213622504Y-189925923D01*
X213622504Y-189925923D02*
X213693932Y-190116400D01*
X213693932Y-190116400D02*
X213872504Y-190211638D01*
X213872504Y-190211638D02*
X214062980Y-190211638D01*
X215015361Y-190211638D02*
X214836789Y-190116400D01*
X214836789Y-190116400D02*
X214753456Y-190021161D01*
X214753456Y-190021161D02*
X214682027Y-189830685D01*
X214682027Y-189830685D02*
X214753456Y-189259257D01*
X214753456Y-189259257D02*
X214872503Y-189068780D01*
X214872503Y-189068780D02*
X214979646Y-188973542D01*
X214979646Y-188973542D02*
X215182027Y-188878304D01*
X215182027Y-188878304D02*
X215467741Y-188878304D01*
X215467741Y-188878304D02*
X215646313Y-188973542D01*
X215646313Y-188973542D02*
X215729646Y-189068780D01*
X215729646Y-189068780D02*
X215801075Y-189259257D01*
X215801075Y-189259257D02*
X215729646Y-189830685D01*
X215729646Y-189830685D02*
X215610599Y-190021161D01*
X215610599Y-190021161D02*
X215503456Y-190116400D01*
X215503456Y-190116400D02*
X215301075Y-190211638D01*
X215301075Y-190211638D02*
X215015361Y-190211638D01*
X216539170Y-190211638D02*
X216705837Y-188878304D01*
X216682027Y-189068780D02*
X216789170Y-188973542D01*
X216789170Y-188973542D02*
X216991551Y-188878304D01*
X216991551Y-188878304D02*
X217277265Y-188878304D01*
X217277265Y-188878304D02*
X217455837Y-188973542D01*
X217455837Y-188973542D02*
X217527265Y-189164019D01*
X217527265Y-189164019D02*
X217396313Y-190211638D01*
X217527265Y-189164019D02*
X217646313Y-188973542D01*
X217646313Y-188973542D02*
X217848694Y-188878304D01*
X217848694Y-188878304D02*
X218134408Y-188878304D01*
X218134408Y-188878304D02*
X218312980Y-188973542D01*
X218312980Y-188973542D02*
X218384408Y-189164019D01*
X218384408Y-189164019D02*
X218253456Y-190211638D01*
X221753457Y-188878304D02*
X221503457Y-190878304D01*
X221598695Y-190116400D02*
X221396314Y-190211638D01*
X221396314Y-190211638D02*
X221015362Y-190211638D01*
X221015362Y-190211638D02*
X220836790Y-190116400D01*
X220836790Y-190116400D02*
X220753457Y-190021161D01*
X220753457Y-190021161D02*
X220682028Y-189830685D01*
X220682028Y-189830685D02*
X220753457Y-189259257D01*
X220753457Y-189259257D02*
X220872504Y-189068780D01*
X220872504Y-189068780D02*
X220979647Y-188973542D01*
X220979647Y-188973542D02*
X221182028Y-188878304D01*
X221182028Y-188878304D02*
X221562981Y-188878304D01*
X221562981Y-188878304D02*
X221741552Y-188973542D01*
X222539171Y-190211638D02*
X222705838Y-188878304D01*
X222789171Y-188211638D02*
X222682028Y-188306876D01*
X222682028Y-188306876D02*
X222765362Y-188402114D01*
X222765362Y-188402114D02*
X222872505Y-188306876D01*
X222872505Y-188306876D02*
X222789171Y-188211638D01*
X222789171Y-188211638D02*
X222765362Y-188402114D01*
X225884410Y-190116400D02*
X225682029Y-190211638D01*
X225682029Y-190211638D02*
X225301077Y-190211638D01*
X225301077Y-190211638D02*
X225122505Y-190116400D01*
X225122505Y-190116400D02*
X225039172Y-190021161D01*
X225039172Y-190021161D02*
X224967743Y-189830685D01*
X224967743Y-189830685D02*
X225039172Y-189259257D01*
X225039172Y-189259257D02*
X225158219Y-189068780D01*
X225158219Y-189068780D02*
X225265362Y-188973542D01*
X225265362Y-188973542D02*
X225467743Y-188878304D01*
X225467743Y-188878304D02*
X225848696Y-188878304D01*
X225848696Y-188878304D02*
X226027267Y-188973542D01*
X226729648Y-190211638D02*
X226979648Y-188211638D01*
X227586791Y-190211638D02*
X227717743Y-189164019D01*
X227717743Y-189164019D02*
X227646315Y-188973542D01*
X227646315Y-188973542D02*
X227467743Y-188878304D01*
X227467743Y-188878304D02*
X227182029Y-188878304D01*
X227182029Y-188878304D02*
X226979648Y-188973542D01*
X226979648Y-188973542D02*
X226872505Y-189068780D01*
X229396315Y-190211638D02*
X229527267Y-189164019D01*
X229527267Y-189164019D02*
X229455839Y-188973542D01*
X229455839Y-188973542D02*
X229277267Y-188878304D01*
X229277267Y-188878304D02*
X228896315Y-188878304D01*
X228896315Y-188878304D02*
X228693934Y-188973542D01*
X229408220Y-190116400D02*
X229205839Y-190211638D01*
X229205839Y-190211638D02*
X228729648Y-190211638D01*
X228729648Y-190211638D02*
X228551077Y-190116400D01*
X228551077Y-190116400D02*
X228479648Y-189925923D01*
X228479648Y-189925923D02*
X228503458Y-189735447D01*
X228503458Y-189735447D02*
X228622506Y-189544971D01*
X228622506Y-189544971D02*
X228824887Y-189449733D01*
X228824887Y-189449733D02*
X229301077Y-189449733D01*
X229301077Y-189449733D02*
X229503458Y-189354495D01*
X230348696Y-190211638D02*
X230515363Y-188878304D01*
X230467744Y-189259257D02*
X230586791Y-189068780D01*
X230586791Y-189068780D02*
X230693934Y-188973542D01*
X230693934Y-188973542D02*
X230896315Y-188878304D01*
X230896315Y-188878304D02*
X231086791Y-188878304D01*
X232610601Y-188878304D02*
X232408220Y-190497352D01*
X232408220Y-190497352D02*
X232289172Y-190687828D01*
X232289172Y-190687828D02*
X232182029Y-190783066D01*
X232182029Y-190783066D02*
X231979648Y-190878304D01*
X231979648Y-190878304D02*
X231693934Y-190878304D01*
X231693934Y-190878304D02*
X231515363Y-190783066D01*
X232455839Y-190116400D02*
X232253458Y-190211638D01*
X232253458Y-190211638D02*
X231872506Y-190211638D01*
X231872506Y-190211638D02*
X231693934Y-190116400D01*
X231693934Y-190116400D02*
X231610601Y-190021161D01*
X231610601Y-190021161D02*
X231539172Y-189830685D01*
X231539172Y-189830685D02*
X231610601Y-189259257D01*
X231610601Y-189259257D02*
X231729648Y-189068780D01*
X231729648Y-189068780D02*
X231836791Y-188973542D01*
X231836791Y-188973542D02*
X232039172Y-188878304D01*
X232039172Y-188878304D02*
X232420125Y-188878304D01*
X232420125Y-188878304D02*
X232598696Y-188973542D01*
X233396315Y-190211638D02*
X233562982Y-188878304D01*
X233646315Y-188211638D02*
X233539172Y-188306876D01*
X233539172Y-188306876D02*
X233622506Y-188402114D01*
X233622506Y-188402114D02*
X233729649Y-188306876D01*
X233729649Y-188306876D02*
X233646315Y-188211638D01*
X233646315Y-188211638D02*
X233622506Y-188402114D01*
X234515363Y-188878304D02*
X234348696Y-190211638D01*
X234491553Y-189068780D02*
X234598696Y-188973542D01*
X234598696Y-188973542D02*
X234801077Y-188878304D01*
X234801077Y-188878304D02*
X235086791Y-188878304D01*
X235086791Y-188878304D02*
X235265363Y-188973542D01*
X235265363Y-188973542D02*
X235336791Y-189164019D01*
X235336791Y-189164019D02*
X235205839Y-190211638D01*
X237182030Y-188878304D02*
X236979649Y-190497352D01*
X236979649Y-190497352D02*
X236860601Y-190687828D01*
X236860601Y-190687828D02*
X236753458Y-190783066D01*
X236753458Y-190783066D02*
X236551077Y-190878304D01*
X236551077Y-190878304D02*
X236265363Y-190878304D01*
X236265363Y-190878304D02*
X236086792Y-190783066D01*
X237027268Y-190116400D02*
X236824887Y-190211638D01*
X236824887Y-190211638D02*
X236443935Y-190211638D01*
X236443935Y-190211638D02*
X236265363Y-190116400D01*
X236265363Y-190116400D02*
X236182030Y-190021161D01*
X236182030Y-190021161D02*
X236110601Y-189830685D01*
X236110601Y-189830685D02*
X236182030Y-189259257D01*
X236182030Y-189259257D02*
X236301077Y-189068780D01*
X236301077Y-189068780D02*
X236408220Y-188973542D01*
X236408220Y-188973542D02*
X236610601Y-188878304D01*
X236610601Y-188878304D02*
X236991554Y-188878304D01*
X236991554Y-188878304D02*
X237170125Y-188973542D01*
X240348697Y-190211638D02*
X240598697Y-188211638D01*
X240360602Y-190116400D02*
X240158221Y-190211638D01*
X240158221Y-190211638D02*
X239777269Y-190211638D01*
X239777269Y-190211638D02*
X239598697Y-190116400D01*
X239598697Y-190116400D02*
X239515364Y-190021161D01*
X239515364Y-190021161D02*
X239443935Y-189830685D01*
X239443935Y-189830685D02*
X239515364Y-189259257D01*
X239515364Y-189259257D02*
X239634411Y-189068780D01*
X239634411Y-189068780D02*
X239741554Y-188973542D01*
X239741554Y-188973542D02*
X239943935Y-188878304D01*
X239943935Y-188878304D02*
X240324888Y-188878304D01*
X240324888Y-188878304D02*
X240503459Y-188973542D01*
X242074888Y-190116400D02*
X241872507Y-190211638D01*
X241872507Y-190211638D02*
X241491554Y-190211638D01*
X241491554Y-190211638D02*
X241312983Y-190116400D01*
X241312983Y-190116400D02*
X241241554Y-189925923D01*
X241241554Y-189925923D02*
X241336793Y-189164019D01*
X241336793Y-189164019D02*
X241455840Y-188973542D01*
X241455840Y-188973542D02*
X241658221Y-188878304D01*
X241658221Y-188878304D02*
X242039173Y-188878304D01*
X242039173Y-188878304D02*
X242217745Y-188973542D01*
X242217745Y-188973542D02*
X242289173Y-189164019D01*
X242289173Y-189164019D02*
X242265364Y-189354495D01*
X242265364Y-189354495D02*
X241289173Y-189544971D01*
X243884412Y-190116400D02*
X243682031Y-190211638D01*
X243682031Y-190211638D02*
X243301079Y-190211638D01*
X243301079Y-190211638D02*
X243122507Y-190116400D01*
X243122507Y-190116400D02*
X243039174Y-190021161D01*
X243039174Y-190021161D02*
X242967745Y-189830685D01*
X242967745Y-189830685D02*
X243039174Y-189259257D01*
X243039174Y-189259257D02*
X243158221Y-189068780D01*
X243158221Y-189068780D02*
X243265364Y-188973542D01*
X243265364Y-188973542D02*
X243467745Y-188878304D01*
X243467745Y-188878304D02*
X243848698Y-188878304D01*
X243848698Y-188878304D02*
X244027269Y-188973542D01*
X244729650Y-190211638D02*
X244979650Y-188211638D01*
X245015365Y-189449733D02*
X245491555Y-190211638D01*
X245658222Y-188878304D02*
X244801079Y-189640209D01*
D10*
D11*
X178958026Y-185607614D02*
X178458026Y-185607614D01*
X178458026Y-186393328D02*
X178458026Y-184893328D01*
X178458026Y-184893328D02*
X179172312Y-184893328D01*
X179743740Y-186393328D02*
X179743740Y-185393328D01*
X179743740Y-184893328D02*
X179672312Y-184964757D01*
X179672312Y-184964757D02*
X179743740Y-185036185D01*
X179743740Y-185036185D02*
X179815169Y-184964757D01*
X179815169Y-184964757D02*
X179743740Y-184893328D01*
X179743740Y-184893328D02*
X179743740Y-185036185D01*
X180672312Y-186393328D02*
X180529455Y-186321900D01*
X180529455Y-186321900D02*
X180458026Y-186179042D01*
X180458026Y-186179042D02*
X180458026Y-184893328D01*
X181815169Y-186321900D02*
X181672312Y-186393328D01*
X181672312Y-186393328D02*
X181386598Y-186393328D01*
X181386598Y-186393328D02*
X181243740Y-186321900D01*
X181243740Y-186321900D02*
X181172312Y-186179042D01*
X181172312Y-186179042D02*
X181172312Y-185607614D01*
X181172312Y-185607614D02*
X181243740Y-185464757D01*
X181243740Y-185464757D02*
X181386598Y-185393328D01*
X181386598Y-185393328D02*
X181672312Y-185393328D01*
X181672312Y-185393328D02*
X181815169Y-185464757D01*
X181815169Y-185464757D02*
X181886598Y-185607614D01*
X181886598Y-185607614D02*
X181886598Y-185750471D01*
X181886598Y-185750471D02*
X181172312Y-185893328D01*
X182529454Y-186250471D02*
X182600883Y-186321900D01*
X182600883Y-186321900D02*
X182529454Y-186393328D01*
X182529454Y-186393328D02*
X182458026Y-186321900D01*
X182458026Y-186321900D02*
X182529454Y-186250471D01*
X182529454Y-186250471D02*
X182529454Y-186393328D01*
X182529454Y-185464757D02*
X182600883Y-185536185D01*
X182600883Y-185536185D02*
X182529454Y-185607614D01*
X182529454Y-185607614D02*
X182458026Y-185536185D01*
X182458026Y-185536185D02*
X182529454Y-185464757D01*
X182529454Y-185464757D02*
X182529454Y-185607614D01*
X185029455Y-186321900D02*
X184886597Y-186393328D01*
X184886597Y-186393328D02*
X184600883Y-186393328D01*
X184600883Y-186393328D02*
X184458026Y-186321900D01*
X184458026Y-186321900D02*
X184386597Y-186250471D01*
X184386597Y-186250471D02*
X184315169Y-186107614D01*
X184315169Y-186107614D02*
X184315169Y-185679042D01*
X184315169Y-185679042D02*
X184386597Y-185536185D01*
X184386597Y-185536185D02*
X184458026Y-185464757D01*
X184458026Y-185464757D02*
X184600883Y-185393328D01*
X184600883Y-185393328D02*
X184886597Y-185393328D01*
X184886597Y-185393328D02*
X185029455Y-185464757D01*
X185672311Y-186393328D02*
X185672311Y-185393328D01*
X185672311Y-185679042D02*
X185743740Y-185536185D01*
X185743740Y-185536185D02*
X185815169Y-185464757D01*
X185815169Y-185464757D02*
X185958026Y-185393328D01*
X185958026Y-185393328D02*
X186100883Y-185393328D01*
X187243740Y-186393328D02*
X187243740Y-185607614D01*
X187243740Y-185607614D02*
X187172311Y-185464757D01*
X187172311Y-185464757D02*
X187029454Y-185393328D01*
X187029454Y-185393328D02*
X186743740Y-185393328D01*
X186743740Y-185393328D02*
X186600882Y-185464757D01*
X187243740Y-186321900D02*
X187100882Y-186393328D01*
X187100882Y-186393328D02*
X186743740Y-186393328D01*
X186743740Y-186393328D02*
X186600882Y-186321900D01*
X186600882Y-186321900D02*
X186529454Y-186179042D01*
X186529454Y-186179042D02*
X186529454Y-186036185D01*
X186529454Y-186036185D02*
X186600882Y-185893328D01*
X186600882Y-185893328D02*
X186743740Y-185821900D01*
X186743740Y-185821900D02*
X187100882Y-185821900D01*
X187100882Y-185821900D02*
X187243740Y-185750471D01*
X187815168Y-185393328D02*
X188600883Y-185393328D01*
X188600883Y-185393328D02*
X187815168Y-186393328D01*
X187815168Y-186393328D02*
X188600883Y-186393328D01*
X189029454Y-185393328D02*
X189386597Y-186393328D01*
X189743740Y-185393328D02*
X189386597Y-186393328D01*
X189386597Y-186393328D02*
X189243740Y-186750471D01*
X189243740Y-186750471D02*
X189172311Y-186821900D01*
X189172311Y-186821900D02*
X189029454Y-186893328D01*
X190100883Y-185393328D02*
X190672311Y-185393328D01*
X190315168Y-186393328D02*
X190315168Y-185107614D01*
X190315168Y-185107614D02*
X190386597Y-184964757D01*
X190386597Y-184964757D02*
X190529454Y-184893328D01*
X190529454Y-184893328D02*
X190672311Y-184893328D01*
X191386597Y-186393328D02*
X191243740Y-186321900D01*
X191243740Y-186321900D02*
X191172311Y-186179042D01*
X191172311Y-186179042D02*
X191172311Y-184893328D01*
X191958025Y-186393328D02*
X191958025Y-185393328D01*
X191958025Y-184893328D02*
X191886597Y-184964757D01*
X191886597Y-184964757D02*
X191958025Y-185036185D01*
X191958025Y-185036185D02*
X192029454Y-184964757D01*
X192029454Y-184964757D02*
X191958025Y-184893328D01*
X191958025Y-184893328D02*
X191958025Y-185036185D01*
X193243740Y-186321900D02*
X193100883Y-186393328D01*
X193100883Y-186393328D02*
X192815169Y-186393328D01*
X192815169Y-186393328D02*
X192672311Y-186321900D01*
X192672311Y-186321900D02*
X192600883Y-186179042D01*
X192600883Y-186179042D02*
X192600883Y-185607614D01*
X192600883Y-185607614D02*
X192672311Y-185464757D01*
X192672311Y-185464757D02*
X192815169Y-185393328D01*
X192815169Y-185393328D02*
X193100883Y-185393328D01*
X193100883Y-185393328D02*
X193243740Y-185464757D01*
X193243740Y-185464757D02*
X193315169Y-185607614D01*
X193315169Y-185607614D02*
X193315169Y-185750471D01*
X193315169Y-185750471D02*
X192600883Y-185893328D01*
X193886597Y-185036185D02*
X193958025Y-184964757D01*
X193958025Y-184964757D02*
X194100883Y-184893328D01*
X194100883Y-184893328D02*
X194458025Y-184893328D01*
X194458025Y-184893328D02*
X194600883Y-184964757D01*
X194600883Y-184964757D02*
X194672311Y-185036185D01*
X194672311Y-185036185D02*
X194743740Y-185179042D01*
X194743740Y-185179042D02*
X194743740Y-185321900D01*
X194743740Y-185321900D02*
X194672311Y-185536185D01*
X194672311Y-185536185D02*
X193815168Y-186393328D01*
X193815168Y-186393328D02*
X194743740Y-186393328D01*
X195386596Y-185821900D02*
X196529454Y-185821900D01*
X197815168Y-186321900D02*
X197672311Y-186393328D01*
X197672311Y-186393328D02*
X197386597Y-186393328D01*
X197386597Y-186393328D02*
X197243739Y-186321900D01*
X197243739Y-186321900D02*
X197172311Y-186179042D01*
X197172311Y-186179042D02*
X197172311Y-185607614D01*
X197172311Y-185607614D02*
X197243739Y-185464757D01*
X197243739Y-185464757D02*
X197386597Y-185393328D01*
X197386597Y-185393328D02*
X197672311Y-185393328D01*
X197672311Y-185393328D02*
X197815168Y-185464757D01*
X197815168Y-185464757D02*
X197886597Y-185607614D01*
X197886597Y-185607614D02*
X197886597Y-185750471D01*
X197886597Y-185750471D02*
X197172311Y-185893328D01*
X198386596Y-186393328D02*
X199172311Y-185393328D01*
X198386596Y-185393328D02*
X199172311Y-186393328D01*
X199743739Y-185393328D02*
X199743739Y-186893328D01*
X199743739Y-185464757D02*
X199886597Y-185393328D01*
X199886597Y-185393328D02*
X200172311Y-185393328D01*
X200172311Y-185393328D02*
X200315168Y-185464757D01*
X200315168Y-185464757D02*
X200386597Y-185536185D01*
X200386597Y-185536185D02*
X200458025Y-185679042D01*
X200458025Y-185679042D02*
X200458025Y-186107614D01*
X200458025Y-186107614D02*
X200386597Y-186250471D01*
X200386597Y-186250471D02*
X200315168Y-186321900D01*
X200315168Y-186321900D02*
X200172311Y-186393328D01*
X200172311Y-186393328D02*
X199886597Y-186393328D01*
X199886597Y-186393328D02*
X199743739Y-186321900D01*
X201100882Y-185821900D02*
X202243740Y-185821900D01*
X203600883Y-186321900D02*
X203458025Y-186393328D01*
X203458025Y-186393328D02*
X203172311Y-186393328D01*
X203172311Y-186393328D02*
X203029454Y-186321900D01*
X203029454Y-186321900D02*
X202958025Y-186250471D01*
X202958025Y-186250471D02*
X202886597Y-186107614D01*
X202886597Y-186107614D02*
X202886597Y-185679042D01*
X202886597Y-185679042D02*
X202958025Y-185536185D01*
X202958025Y-185536185D02*
X203029454Y-185464757D01*
X203029454Y-185464757D02*
X203172311Y-185393328D01*
X203172311Y-185393328D02*
X203458025Y-185393328D01*
X203458025Y-185393328D02*
X203600883Y-185464757D01*
X204886597Y-185393328D02*
X204886597Y-186393328D01*
X204243739Y-185393328D02*
X204243739Y-186179042D01*
X204243739Y-186179042D02*
X204315168Y-186321900D01*
X204315168Y-186321900D02*
X204458025Y-186393328D01*
X204458025Y-186393328D02*
X204672311Y-186393328D01*
X204672311Y-186393328D02*
X204815168Y-186321900D01*
X204815168Y-186321900D02*
X204886597Y-186250471D01*
X205529454Y-186321900D02*
X205672311Y-186393328D01*
X205672311Y-186393328D02*
X205958025Y-186393328D01*
X205958025Y-186393328D02*
X206100882Y-186321900D01*
X206100882Y-186321900D02*
X206172311Y-186179042D01*
X206172311Y-186179042D02*
X206172311Y-186107614D01*
X206172311Y-186107614D02*
X206100882Y-185964757D01*
X206100882Y-185964757D02*
X205958025Y-185893328D01*
X205958025Y-185893328D02*
X205743740Y-185893328D01*
X205743740Y-185893328D02*
X205600882Y-185821900D01*
X205600882Y-185821900D02*
X205529454Y-185679042D01*
X205529454Y-185679042D02*
X205529454Y-185607614D01*
X205529454Y-185607614D02*
X205600882Y-185464757D01*
X205600882Y-185464757D02*
X205743740Y-185393328D01*
X205743740Y-185393328D02*
X205958025Y-185393328D01*
X205958025Y-185393328D02*
X206100882Y-185464757D01*
X206600883Y-185393328D02*
X207172311Y-185393328D01*
X206815168Y-184893328D02*
X206815168Y-186179042D01*
X206815168Y-186179042D02*
X206886597Y-186321900D01*
X206886597Y-186321900D02*
X207029454Y-186393328D01*
X207029454Y-186393328D02*
X207172311Y-186393328D01*
X207886597Y-186393328D02*
X207743740Y-186321900D01*
X207743740Y-186321900D02*
X207672311Y-186250471D01*
X207672311Y-186250471D02*
X207600883Y-186107614D01*
X207600883Y-186107614D02*
X207600883Y-185679042D01*
X207600883Y-185679042D02*
X207672311Y-185536185D01*
X207672311Y-185536185D02*
X207743740Y-185464757D01*
X207743740Y-185464757D02*
X207886597Y-185393328D01*
X207886597Y-185393328D02*
X208100883Y-185393328D01*
X208100883Y-185393328D02*
X208243740Y-185464757D01*
X208243740Y-185464757D02*
X208315169Y-185536185D01*
X208315169Y-185536185D02*
X208386597Y-185679042D01*
X208386597Y-185679042D02*
X208386597Y-186107614D01*
X208386597Y-186107614D02*
X208315169Y-186250471D01*
X208315169Y-186250471D02*
X208243740Y-186321900D01*
X208243740Y-186321900D02*
X208100883Y-186393328D01*
X208100883Y-186393328D02*
X207886597Y-186393328D01*
X209029454Y-186393328D02*
X209029454Y-185393328D01*
X209029454Y-185536185D02*
X209100883Y-185464757D01*
X209100883Y-185464757D02*
X209243740Y-185393328D01*
X209243740Y-185393328D02*
X209458026Y-185393328D01*
X209458026Y-185393328D02*
X209600883Y-185464757D01*
X209600883Y-185464757D02*
X209672312Y-185607614D01*
X209672312Y-185607614D02*
X209672312Y-186393328D01*
X209672312Y-185607614D02*
X209743740Y-185464757D01*
X209743740Y-185464757D02*
X209886597Y-185393328D01*
X209886597Y-185393328D02*
X210100883Y-185393328D01*
X210100883Y-185393328D02*
X210243740Y-185464757D01*
X210243740Y-185464757D02*
X210315169Y-185607614D01*
X210315169Y-185607614D02*
X210315169Y-186393328D01*
X211029454Y-185821900D02*
X212172312Y-185821900D01*
X213529455Y-185393328D02*
X213529455Y-186893328D01*
X213529455Y-186321900D02*
X213386597Y-186393328D01*
X213386597Y-186393328D02*
X213100883Y-186393328D01*
X213100883Y-186393328D02*
X212958026Y-186321900D01*
X212958026Y-186321900D02*
X212886597Y-186250471D01*
X212886597Y-186250471D02*
X212815169Y-186107614D01*
X212815169Y-186107614D02*
X212815169Y-185679042D01*
X212815169Y-185679042D02*
X212886597Y-185536185D01*
X212886597Y-185536185D02*
X212958026Y-185464757D01*
X212958026Y-185464757D02*
X213100883Y-185393328D01*
X213100883Y-185393328D02*
X213386597Y-185393328D01*
X213386597Y-185393328D02*
X213529455Y-185464757D01*
X214243740Y-186393328D02*
X214243740Y-185393328D01*
X214243740Y-184893328D02*
X214172312Y-184964757D01*
X214172312Y-184964757D02*
X214243740Y-185036185D01*
X214243740Y-185036185D02*
X214315169Y-184964757D01*
X214315169Y-184964757D02*
X214243740Y-184893328D01*
X214243740Y-184893328D02*
X214243740Y-185036185D01*
X214958026Y-185821900D02*
X216100884Y-185821900D01*
X217458027Y-186393328D02*
X217458027Y-184893328D01*
X217458027Y-186321900D02*
X217315169Y-186393328D01*
X217315169Y-186393328D02*
X217029455Y-186393328D01*
X217029455Y-186393328D02*
X216886598Y-186321900D01*
X216886598Y-186321900D02*
X216815169Y-186250471D01*
X216815169Y-186250471D02*
X216743741Y-186107614D01*
X216743741Y-186107614D02*
X216743741Y-185679042D01*
X216743741Y-185679042D02*
X216815169Y-185536185D01*
X216815169Y-185536185D02*
X216886598Y-185464757D01*
X216886598Y-185464757D02*
X217029455Y-185393328D01*
X217029455Y-185393328D02*
X217315169Y-185393328D01*
X217315169Y-185393328D02*
X217458027Y-185464757D01*
X218743741Y-186321900D02*
X218600884Y-186393328D01*
X218600884Y-186393328D02*
X218315170Y-186393328D01*
X218315170Y-186393328D02*
X218172312Y-186321900D01*
X218172312Y-186321900D02*
X218100884Y-186179042D01*
X218100884Y-186179042D02*
X218100884Y-185607614D01*
X218100884Y-185607614D02*
X218172312Y-185464757D01*
X218172312Y-185464757D02*
X218315170Y-185393328D01*
X218315170Y-185393328D02*
X218600884Y-185393328D01*
X218600884Y-185393328D02*
X218743741Y-185464757D01*
X218743741Y-185464757D02*
X218815170Y-185607614D01*
X218815170Y-185607614D02*
X218815170Y-185750471D01*
X218815170Y-185750471D02*
X218100884Y-185893328D01*
X220100884Y-186321900D02*
X219958026Y-186393328D01*
X219958026Y-186393328D02*
X219672312Y-186393328D01*
X219672312Y-186393328D02*
X219529455Y-186321900D01*
X219529455Y-186321900D02*
X219458026Y-186250471D01*
X219458026Y-186250471D02*
X219386598Y-186107614D01*
X219386598Y-186107614D02*
X219386598Y-185679042D01*
X219386598Y-185679042D02*
X219458026Y-185536185D01*
X219458026Y-185536185D02*
X219529455Y-185464757D01*
X219529455Y-185464757D02*
X219672312Y-185393328D01*
X219672312Y-185393328D02*
X219958026Y-185393328D01*
X219958026Y-185393328D02*
X220100884Y-185464757D01*
X220743740Y-186393328D02*
X220743740Y-184893328D01*
X220886598Y-185821900D02*
X221315169Y-186393328D01*
X221315169Y-185393328D02*
X220743740Y-185964757D01*
X221958026Y-185821900D02*
X223100884Y-185821900D01*
X224029455Y-186393328D02*
X223886598Y-186321900D01*
X223886598Y-186321900D02*
X223815169Y-186250471D01*
X223815169Y-186250471D02*
X223743741Y-186107614D01*
X223743741Y-186107614D02*
X223743741Y-185679042D01*
X223743741Y-185679042D02*
X223815169Y-185536185D01*
X223815169Y-185536185D02*
X223886598Y-185464757D01*
X223886598Y-185464757D02*
X224029455Y-185393328D01*
X224029455Y-185393328D02*
X224243741Y-185393328D01*
X224243741Y-185393328D02*
X224386598Y-185464757D01*
X224386598Y-185464757D02*
X224458027Y-185536185D01*
X224458027Y-185536185D02*
X224529455Y-185679042D01*
X224529455Y-185679042D02*
X224529455Y-186107614D01*
X224529455Y-186107614D02*
X224458027Y-186250471D01*
X224458027Y-186250471D02*
X224386598Y-186321900D01*
X224386598Y-186321900D02*
X224243741Y-186393328D01*
X224243741Y-186393328D02*
X224029455Y-186393328D01*
X225172312Y-186393328D02*
X225172312Y-184893328D01*
X225815170Y-186393328D02*
X225815170Y-185607614D01*
X225815170Y-185607614D02*
X225743741Y-185464757D01*
X225743741Y-185464757D02*
X225600884Y-185393328D01*
X225600884Y-185393328D02*
X225386598Y-185393328D01*
X225386598Y-185393328D02*
X225243741Y-185464757D01*
X225243741Y-185464757D02*
X225172312Y-185536185D01*
X226529455Y-185393328D02*
X226529455Y-186393328D01*
X226529455Y-185536185D02*
X226600884Y-185464757D01*
X226600884Y-185464757D02*
X226743741Y-185393328D01*
X226743741Y-185393328D02*
X226958027Y-185393328D01*
X226958027Y-185393328D02*
X227100884Y-185464757D01*
X227100884Y-185464757D02*
X227172313Y-185607614D01*
X227172313Y-185607614D02*
X227172313Y-186393328D01*
X228458027Y-186321900D02*
X228315170Y-186393328D01*
X228315170Y-186393328D02*
X228029456Y-186393328D01*
X228029456Y-186393328D02*
X227886598Y-186321900D01*
X227886598Y-186321900D02*
X227815170Y-186179042D01*
X227815170Y-186179042D02*
X227815170Y-185607614D01*
X227815170Y-185607614D02*
X227886598Y-185464757D01*
X227886598Y-185464757D02*
X228029456Y-185393328D01*
X228029456Y-185393328D02*
X228315170Y-185393328D01*
X228315170Y-185393328D02*
X228458027Y-185464757D01*
X228458027Y-185464757D02*
X228529456Y-185607614D01*
X228529456Y-185607614D02*
X228529456Y-185750471D01*
X228529456Y-185750471D02*
X227815170Y-185893328D01*
X229172312Y-185821900D02*
X230315170Y-185821900D01*
X230958027Y-186321900D02*
X231172313Y-186393328D01*
X231172313Y-186393328D02*
X231529455Y-186393328D01*
X231529455Y-186393328D02*
X231672313Y-186321900D01*
X231672313Y-186321900D02*
X231743741Y-186250471D01*
X231743741Y-186250471D02*
X231815170Y-186107614D01*
X231815170Y-186107614D02*
X231815170Y-185964757D01*
X231815170Y-185964757D02*
X231743741Y-185821900D01*
X231743741Y-185821900D02*
X231672313Y-185750471D01*
X231672313Y-185750471D02*
X231529455Y-185679042D01*
X231529455Y-185679042D02*
X231243741Y-185607614D01*
X231243741Y-185607614D02*
X231100884Y-185536185D01*
X231100884Y-185536185D02*
X231029455Y-185464757D01*
X231029455Y-185464757D02*
X230958027Y-185321900D01*
X230958027Y-185321900D02*
X230958027Y-185179042D01*
X230958027Y-185179042D02*
X231029455Y-185036185D01*
X231029455Y-185036185D02*
X231100884Y-184964757D01*
X231100884Y-184964757D02*
X231243741Y-184893328D01*
X231243741Y-184893328D02*
X231600884Y-184893328D01*
X231600884Y-184893328D02*
X231815170Y-184964757D01*
X233100884Y-186321900D02*
X232958026Y-186393328D01*
X232958026Y-186393328D02*
X232672312Y-186393328D01*
X232672312Y-186393328D02*
X232529455Y-186321900D01*
X232529455Y-186321900D02*
X232458026Y-186250471D01*
X232458026Y-186250471D02*
X232386598Y-186107614D01*
X232386598Y-186107614D02*
X232386598Y-185679042D01*
X232386598Y-185679042D02*
X232458026Y-185536185D01*
X232458026Y-185536185D02*
X232529455Y-185464757D01*
X232529455Y-185464757D02*
X232672312Y-185393328D01*
X232672312Y-185393328D02*
X232958026Y-185393328D01*
X232958026Y-185393328D02*
X233100884Y-185464757D01*
X233743740Y-186393328D02*
X233743740Y-184893328D01*
X234386598Y-186393328D02*
X234386598Y-185607614D01*
X234386598Y-185607614D02*
X234315169Y-185464757D01*
X234315169Y-185464757D02*
X234172312Y-185393328D01*
X234172312Y-185393328D02*
X233958026Y-185393328D01*
X233958026Y-185393328D02*
X233815169Y-185464757D01*
X233815169Y-185464757D02*
X233743740Y-185536185D01*
X235315169Y-186393328D02*
X235172312Y-186321900D01*
X235172312Y-186321900D02*
X235100883Y-186250471D01*
X235100883Y-186250471D02*
X235029455Y-186107614D01*
X235029455Y-186107614D02*
X235029455Y-185679042D01*
X235029455Y-185679042D02*
X235100883Y-185536185D01*
X235100883Y-185536185D02*
X235172312Y-185464757D01*
X235172312Y-185464757D02*
X235315169Y-185393328D01*
X235315169Y-185393328D02*
X235529455Y-185393328D01*
X235529455Y-185393328D02*
X235672312Y-185464757D01*
X235672312Y-185464757D02*
X235743741Y-185536185D01*
X235743741Y-185536185D02*
X235815169Y-185679042D01*
X235815169Y-185679042D02*
X235815169Y-186107614D01*
X235815169Y-186107614D02*
X235743741Y-186250471D01*
X235743741Y-186250471D02*
X235672312Y-186321900D01*
X235672312Y-186321900D02*
X235529455Y-186393328D01*
X235529455Y-186393328D02*
X235315169Y-186393328D01*
X236243741Y-185393328D02*
X236815169Y-185393328D01*
X236458026Y-184893328D02*
X236458026Y-186179042D01*
X236458026Y-186179042D02*
X236529455Y-186321900D01*
X236529455Y-186321900D02*
X236672312Y-186393328D01*
X236672312Y-186393328D02*
X236815169Y-186393328D01*
X237100884Y-185393328D02*
X237672312Y-185393328D01*
X237315169Y-184893328D02*
X237315169Y-186179042D01*
X237315169Y-186179042D02*
X237386598Y-186321900D01*
X237386598Y-186321900D02*
X237529455Y-186393328D01*
X237529455Y-186393328D02*
X237672312Y-186393328D01*
X238172312Y-186393328D02*
X238172312Y-184893328D01*
X238315170Y-185821900D02*
X238743741Y-186393328D01*
X238743741Y-185393328D02*
X238172312Y-185964757D01*
X239243741Y-185393328D02*
X239600884Y-186393328D01*
X239958027Y-185393328D02*
X239600884Y-186393328D01*
X239600884Y-186393328D02*
X239458027Y-186750471D01*
X239458027Y-186750471D02*
X239386598Y-186821900D01*
X239386598Y-186821900D02*
X239243741Y-186893328D01*
X240529455Y-186250471D02*
X240600884Y-186321900D01*
X240600884Y-186321900D02*
X240529455Y-186393328D01*
X240529455Y-186393328D02*
X240458027Y-186321900D01*
X240458027Y-186321900D02*
X240529455Y-186250471D01*
X240529455Y-186250471D02*
X240529455Y-186393328D01*
X241243741Y-186393328D02*
X241243741Y-184893328D01*
X241386599Y-185821900D02*
X241815170Y-186393328D01*
X241815170Y-185393328D02*
X241243741Y-185964757D01*
X242458027Y-186393328D02*
X242458027Y-185393328D01*
X242458027Y-184893328D02*
X242386599Y-184964757D01*
X242386599Y-184964757D02*
X242458027Y-185036185D01*
X242458027Y-185036185D02*
X242529456Y-184964757D01*
X242529456Y-184964757D02*
X242458027Y-184893328D01*
X242458027Y-184893328D02*
X242458027Y-185036185D01*
X243815171Y-186321900D02*
X243672313Y-186393328D01*
X243672313Y-186393328D02*
X243386599Y-186393328D01*
X243386599Y-186393328D02*
X243243742Y-186321900D01*
X243243742Y-186321900D02*
X243172313Y-186250471D01*
X243172313Y-186250471D02*
X243100885Y-186107614D01*
X243100885Y-186107614D02*
X243100885Y-185679042D01*
X243100885Y-185679042D02*
X243172313Y-185536185D01*
X243172313Y-185536185D02*
X243243742Y-185464757D01*
X243243742Y-185464757D02*
X243386599Y-185393328D01*
X243386599Y-185393328D02*
X243672313Y-185393328D01*
X243672313Y-185393328D02*
X243815171Y-185464757D01*
X245100885Y-186393328D02*
X245100885Y-185607614D01*
X245100885Y-185607614D02*
X245029456Y-185464757D01*
X245029456Y-185464757D02*
X244886599Y-185393328D01*
X244886599Y-185393328D02*
X244600885Y-185393328D01*
X244600885Y-185393328D02*
X244458027Y-185464757D01*
X245100885Y-186321900D02*
X244958027Y-186393328D01*
X244958027Y-186393328D02*
X244600885Y-186393328D01*
X244600885Y-186393328D02*
X244458027Y-186321900D01*
X244458027Y-186321900D02*
X244386599Y-186179042D01*
X244386599Y-186179042D02*
X244386599Y-186036185D01*
X244386599Y-186036185D02*
X244458027Y-185893328D01*
X244458027Y-185893328D02*
X244600885Y-185821900D01*
X244600885Y-185821900D02*
X244958027Y-185821900D01*
X244958027Y-185821900D02*
X245100885Y-185750471D01*
X246458028Y-186393328D02*
X246458028Y-184893328D01*
X246458028Y-186321900D02*
X246315170Y-186393328D01*
X246315170Y-186393328D02*
X246029456Y-186393328D01*
X246029456Y-186393328D02*
X245886599Y-186321900D01*
X245886599Y-186321900D02*
X245815170Y-186250471D01*
X245815170Y-186250471D02*
X245743742Y-186107614D01*
X245743742Y-186107614D02*
X245743742Y-185679042D01*
X245743742Y-185679042D02*
X245815170Y-185536185D01*
X245815170Y-185536185D02*
X245886599Y-185464757D01*
X245886599Y-185464757D02*
X246029456Y-185393328D01*
X246029456Y-185393328D02*
X246315170Y-185393328D01*
X246315170Y-185393328D02*
X246458028Y-185464757D01*
X246815171Y-186536185D02*
X247958028Y-186536185D01*
X248315170Y-185393328D02*
X248315170Y-186893328D01*
X248315170Y-185464757D02*
X248458028Y-185393328D01*
X248458028Y-185393328D02*
X248743742Y-185393328D01*
X248743742Y-185393328D02*
X248886599Y-185464757D01*
X248886599Y-185464757D02*
X248958028Y-185536185D01*
X248958028Y-185536185D02*
X249029456Y-185679042D01*
X249029456Y-185679042D02*
X249029456Y-186107614D01*
X249029456Y-186107614D02*
X248958028Y-186250471D01*
X248958028Y-186250471D02*
X248886599Y-186321900D01*
X248886599Y-186321900D02*
X248743742Y-186393328D01*
X248743742Y-186393328D02*
X248458028Y-186393328D01*
X248458028Y-186393328D02*
X248315170Y-186321900D01*
X250315171Y-186321900D02*
X250172313Y-186393328D01*
X250172313Y-186393328D02*
X249886599Y-186393328D01*
X249886599Y-186393328D02*
X249743742Y-186321900D01*
X249743742Y-186321900D02*
X249672313Y-186250471D01*
X249672313Y-186250471D02*
X249600885Y-186107614D01*
X249600885Y-186107614D02*
X249600885Y-185679042D01*
X249600885Y-185679042D02*
X249672313Y-185536185D01*
X249672313Y-185536185D02*
X249743742Y-185464757D01*
X249743742Y-185464757D02*
X249886599Y-185393328D01*
X249886599Y-185393328D02*
X250172313Y-185393328D01*
X250172313Y-185393328D02*
X250315171Y-185464757D01*
X250958027Y-186393328D02*
X250958027Y-184893328D01*
X250958027Y-185464757D02*
X251100885Y-185393328D01*
X251100885Y-185393328D02*
X251386599Y-185393328D01*
X251386599Y-185393328D02*
X251529456Y-185464757D01*
X251529456Y-185464757D02*
X251600885Y-185536185D01*
X251600885Y-185536185D02*
X251672313Y-185679042D01*
X251672313Y-185679042D02*
X251672313Y-186107614D01*
X251672313Y-186107614D02*
X251600885Y-186250471D01*
X251600885Y-186250471D02*
X251529456Y-186321900D01*
X251529456Y-186321900D02*
X251386599Y-186393328D01*
X251386599Y-186393328D02*
X251100885Y-186393328D01*
X251100885Y-186393328D02*
X250958027Y-186321900D01*
D10*
D11*
X177002200Y-181507200D02*
X285002200Y-181507200D01*
D10*
D11*
X178386598Y-183621900D02*
X178600884Y-183693328D01*
X178600884Y-183693328D02*
X178958026Y-183693328D01*
X178958026Y-183693328D02*
X179100884Y-183621900D01*
X179100884Y-183621900D02*
X179172312Y-183550471D01*
X179172312Y-183550471D02*
X179243741Y-183407614D01*
X179243741Y-183407614D02*
X179243741Y-183264757D01*
X179243741Y-183264757D02*
X179172312Y-183121900D01*
X179172312Y-183121900D02*
X179100884Y-183050471D01*
X179100884Y-183050471D02*
X178958026Y-182979042D01*
X178958026Y-182979042D02*
X178672312Y-182907614D01*
X178672312Y-182907614D02*
X178529455Y-182836185D01*
X178529455Y-182836185D02*
X178458026Y-182764757D01*
X178458026Y-182764757D02*
X178386598Y-182621900D01*
X178386598Y-182621900D02*
X178386598Y-182479042D01*
X178386598Y-182479042D02*
X178458026Y-182336185D01*
X178458026Y-182336185D02*
X178529455Y-182264757D01*
X178529455Y-182264757D02*
X178672312Y-182193328D01*
X178672312Y-182193328D02*
X179029455Y-182193328D01*
X179029455Y-182193328D02*
X179243741Y-182264757D01*
X179886597Y-183693328D02*
X179886597Y-182193328D01*
X180529455Y-183693328D02*
X180529455Y-182907614D01*
X180529455Y-182907614D02*
X180458026Y-182764757D01*
X180458026Y-182764757D02*
X180315169Y-182693328D01*
X180315169Y-182693328D02*
X180100883Y-182693328D01*
X180100883Y-182693328D02*
X179958026Y-182764757D01*
X179958026Y-182764757D02*
X179886597Y-182836185D01*
X181815169Y-183621900D02*
X181672312Y-183693328D01*
X181672312Y-183693328D02*
X181386598Y-183693328D01*
X181386598Y-183693328D02*
X181243740Y-183621900D01*
X181243740Y-183621900D02*
X181172312Y-183479042D01*
X181172312Y-183479042D02*
X181172312Y-182907614D01*
X181172312Y-182907614D02*
X181243740Y-182764757D01*
X181243740Y-182764757D02*
X181386598Y-182693328D01*
X181386598Y-182693328D02*
X181672312Y-182693328D01*
X181672312Y-182693328D02*
X181815169Y-182764757D01*
X181815169Y-182764757D02*
X181886598Y-182907614D01*
X181886598Y-182907614D02*
X181886598Y-183050471D01*
X181886598Y-183050471D02*
X181172312Y-183193328D01*
X183100883Y-183621900D02*
X182958026Y-183693328D01*
X182958026Y-183693328D02*
X182672312Y-183693328D01*
X182672312Y-183693328D02*
X182529454Y-183621900D01*
X182529454Y-183621900D02*
X182458026Y-183479042D01*
X182458026Y-183479042D02*
X182458026Y-182907614D01*
X182458026Y-182907614D02*
X182529454Y-182764757D01*
X182529454Y-182764757D02*
X182672312Y-182693328D01*
X182672312Y-182693328D02*
X182958026Y-182693328D01*
X182958026Y-182693328D02*
X183100883Y-182764757D01*
X183100883Y-182764757D02*
X183172312Y-182907614D01*
X183172312Y-182907614D02*
X183172312Y-183050471D01*
X183172312Y-183050471D02*
X182458026Y-183193328D01*
X183600883Y-182693328D02*
X184172311Y-182693328D01*
X183815168Y-182193328D02*
X183815168Y-183479042D01*
X183815168Y-183479042D02*
X183886597Y-183621900D01*
X183886597Y-183621900D02*
X184029454Y-183693328D01*
X184029454Y-183693328D02*
X184172311Y-183693328D01*
X184672311Y-183550471D02*
X184743740Y-183621900D01*
X184743740Y-183621900D02*
X184672311Y-183693328D01*
X184672311Y-183693328D02*
X184600883Y-183621900D01*
X184600883Y-183621900D02*
X184672311Y-183550471D01*
X184672311Y-183550471D02*
X184672311Y-183693328D01*
X184672311Y-182764757D02*
X184743740Y-182836185D01*
X184743740Y-182836185D02*
X184672311Y-182907614D01*
X184672311Y-182907614D02*
X184600883Y-182836185D01*
X184600883Y-182836185D02*
X184672311Y-182764757D01*
X184672311Y-182764757D02*
X184672311Y-182907614D01*
D10*
D12*
X178556710Y-179185528D02*
X178556710Y-180399814D01*
X178556710Y-180399814D02*
X178628139Y-180542671D01*
X178628139Y-180542671D02*
X178699568Y-180614100D01*
X178699568Y-180614100D02*
X178842425Y-180685528D01*
X178842425Y-180685528D02*
X179128139Y-180685528D01*
X179128139Y-180685528D02*
X179270996Y-180614100D01*
X179270996Y-180614100D02*
X179342425Y-180542671D01*
X179342425Y-180542671D02*
X179413853Y-180399814D01*
X179413853Y-180399814D02*
X179413853Y-179185528D01*
X180128139Y-179685528D02*
X180128139Y-180685528D01*
X180128139Y-179828385D02*
X180199568Y-179756957D01*
X180199568Y-179756957D02*
X180342425Y-179685528D01*
X180342425Y-179685528D02*
X180556711Y-179685528D01*
X180556711Y-179685528D02*
X180699568Y-179756957D01*
X180699568Y-179756957D02*
X180770997Y-179899814D01*
X180770997Y-179899814D02*
X180770997Y-180685528D01*
X181485282Y-180685528D02*
X181485282Y-179685528D01*
X181485282Y-179185528D02*
X181413854Y-179256957D01*
X181413854Y-179256957D02*
X181485282Y-179328385D01*
X181485282Y-179328385D02*
X181556711Y-179256957D01*
X181556711Y-179256957D02*
X181485282Y-179185528D01*
X181485282Y-179185528D02*
X181485282Y-179328385D01*
X182056711Y-179685528D02*
X182413854Y-180685528D01*
X182413854Y-180685528D02*
X182770997Y-179685528D01*
X183913854Y-180614100D02*
X183770997Y-180685528D01*
X183770997Y-180685528D02*
X183485283Y-180685528D01*
X183485283Y-180685528D02*
X183342425Y-180614100D01*
X183342425Y-180614100D02*
X183270997Y-180471242D01*
X183270997Y-180471242D02*
X183270997Y-179899814D01*
X183270997Y-179899814D02*
X183342425Y-179756957D01*
X183342425Y-179756957D02*
X183485283Y-179685528D01*
X183485283Y-179685528D02*
X183770997Y-179685528D01*
X183770997Y-179685528D02*
X183913854Y-179756957D01*
X183913854Y-179756957D02*
X183985283Y-179899814D01*
X183985283Y-179899814D02*
X183985283Y-180042671D01*
X183985283Y-180042671D02*
X183270997Y-180185528D01*
X184628139Y-180685528D02*
X184628139Y-179685528D01*
X184628139Y-179971242D02*
X184699568Y-179828385D01*
X184699568Y-179828385D02*
X184770997Y-179756957D01*
X184770997Y-179756957D02*
X184913854Y-179685528D01*
X184913854Y-179685528D02*
X185056711Y-179685528D01*
X185485282Y-180614100D02*
X185628139Y-180685528D01*
X185628139Y-180685528D02*
X185913853Y-180685528D01*
X185913853Y-180685528D02*
X186056710Y-180614100D01*
X186056710Y-180614100D02*
X186128139Y-180471242D01*
X186128139Y-180471242D02*
X186128139Y-180399814D01*
X186128139Y-180399814D02*
X186056710Y-180256957D01*
X186056710Y-180256957D02*
X185913853Y-180185528D01*
X185913853Y-180185528D02*
X185699568Y-180185528D01*
X185699568Y-180185528D02*
X185556710Y-180114100D01*
X185556710Y-180114100D02*
X185485282Y-179971242D01*
X185485282Y-179971242D02*
X185485282Y-179899814D01*
X185485282Y-179899814D02*
X185556710Y-179756957D01*
X185556710Y-179756957D02*
X185699568Y-179685528D01*
X185699568Y-179685528D02*
X185913853Y-179685528D01*
X185913853Y-179685528D02*
X186056710Y-179756957D01*
X186770996Y-180685528D02*
X186770996Y-179685528D01*
X186770996Y-179185528D02*
X186699568Y-179256957D01*
X186699568Y-179256957D02*
X186770996Y-179328385D01*
X186770996Y-179328385D02*
X186842425Y-179256957D01*
X186842425Y-179256957D02*
X186770996Y-179185528D01*
X186770996Y-179185528D02*
X186770996Y-179328385D01*
X187270997Y-179685528D02*
X187842425Y-179685528D01*
X187485282Y-179185528D02*
X187485282Y-180471242D01*
X187485282Y-180471242D02*
X187556711Y-180614100D01*
X187556711Y-180614100D02*
X187699568Y-180685528D01*
X187699568Y-180685528D02*
X187842425Y-180685528D01*
X188985283Y-180685528D02*
X188985283Y-179899814D01*
X188985283Y-179899814D02*
X188913854Y-179756957D01*
X188913854Y-179756957D02*
X188770997Y-179685528D01*
X188770997Y-179685528D02*
X188485283Y-179685528D01*
X188485283Y-179685528D02*
X188342425Y-179756957D01*
X188985283Y-180614100D02*
X188842425Y-180685528D01*
X188842425Y-180685528D02*
X188485283Y-180685528D01*
X188485283Y-180685528D02*
X188342425Y-180614100D01*
X188342425Y-180614100D02*
X188270997Y-180471242D01*
X188270997Y-180471242D02*
X188270997Y-180328385D01*
X188270997Y-180328385D02*
X188342425Y-180185528D01*
X188342425Y-180185528D02*
X188485283Y-180114100D01*
X188485283Y-180114100D02*
X188842425Y-180114100D01*
X188842425Y-180114100D02*
X188985283Y-180042671D01*
X188342425Y-179185528D02*
X188413854Y-179256957D01*
X188413854Y-179256957D02*
X188342425Y-179328385D01*
X188342425Y-179328385D02*
X188270997Y-179256957D01*
X188270997Y-179256957D02*
X188342425Y-179185528D01*
X188342425Y-179185528D02*
X188342425Y-179328385D01*
X188913854Y-179185528D02*
X188985283Y-179256957D01*
X188985283Y-179256957D02*
X188913854Y-179328385D01*
X188913854Y-179328385D02*
X188842425Y-179256957D01*
X188842425Y-179256957D02*
X188913854Y-179185528D01*
X188913854Y-179185528D02*
X188913854Y-179328385D01*
X189485283Y-179685528D02*
X190056711Y-179685528D01*
X189699568Y-179185528D02*
X189699568Y-180471242D01*
X189699568Y-180471242D02*
X189770997Y-180614100D01*
X189770997Y-180614100D02*
X189913854Y-180685528D01*
X189913854Y-180685528D02*
X190056711Y-180685528D01*
X191699568Y-180685528D02*
X191699568Y-179185528D01*
X192556711Y-180685528D02*
X191913854Y-179828385D01*
X192556711Y-179185528D02*
X191699568Y-180042671D01*
X193413854Y-180685528D02*
X193270997Y-180614100D01*
X193270997Y-180614100D02*
X193199568Y-180542671D01*
X193199568Y-180542671D02*
X193128140Y-180399814D01*
X193128140Y-180399814D02*
X193128140Y-179971242D01*
X193128140Y-179971242D02*
X193199568Y-179828385D01*
X193199568Y-179828385D02*
X193270997Y-179756957D01*
X193270997Y-179756957D02*
X193413854Y-179685528D01*
X193413854Y-179685528D02*
X193628140Y-179685528D01*
X193628140Y-179685528D02*
X193770997Y-179756957D01*
X193770997Y-179756957D02*
X193842426Y-179828385D01*
X193842426Y-179828385D02*
X193913854Y-179971242D01*
X193913854Y-179971242D02*
X193913854Y-180399814D01*
X193913854Y-180399814D02*
X193842426Y-180542671D01*
X193842426Y-180542671D02*
X193770997Y-180614100D01*
X193770997Y-180614100D02*
X193628140Y-180685528D01*
X193628140Y-180685528D02*
X193413854Y-180685528D01*
X194556711Y-180685528D02*
X194556711Y-179185528D01*
X194556711Y-179756957D02*
X194699569Y-179685528D01*
X194699569Y-179685528D02*
X194985283Y-179685528D01*
X194985283Y-179685528D02*
X195128140Y-179756957D01*
X195128140Y-179756957D02*
X195199569Y-179828385D01*
X195199569Y-179828385D02*
X195270997Y-179971242D01*
X195270997Y-179971242D02*
X195270997Y-180399814D01*
X195270997Y-180399814D02*
X195199569Y-180542671D01*
X195199569Y-180542671D02*
X195128140Y-180614100D01*
X195128140Y-180614100D02*
X194985283Y-180685528D01*
X194985283Y-180685528D02*
X194699569Y-180685528D01*
X194699569Y-180685528D02*
X194556711Y-180614100D01*
X196128140Y-180685528D02*
X195985283Y-180614100D01*
X195985283Y-180614100D02*
X195913854Y-180471242D01*
X195913854Y-180471242D02*
X195913854Y-179185528D01*
X197270997Y-180614100D02*
X197128140Y-180685528D01*
X197128140Y-180685528D02*
X196842426Y-180685528D01*
X196842426Y-180685528D02*
X196699568Y-180614100D01*
X196699568Y-180614100D02*
X196628140Y-180471242D01*
X196628140Y-180471242D02*
X196628140Y-179899814D01*
X196628140Y-179899814D02*
X196699568Y-179756957D01*
X196699568Y-179756957D02*
X196842426Y-179685528D01*
X196842426Y-179685528D02*
X197128140Y-179685528D01*
X197128140Y-179685528D02*
X197270997Y-179756957D01*
X197270997Y-179756957D02*
X197342426Y-179899814D01*
X197342426Y-179899814D02*
X197342426Y-180042671D01*
X197342426Y-180042671D02*
X196628140Y-180185528D01*
X197985282Y-179685528D02*
X197985282Y-180685528D01*
X197985282Y-179828385D02*
X198056711Y-179756957D01*
X198056711Y-179756957D02*
X198199568Y-179685528D01*
X198199568Y-179685528D02*
X198413854Y-179685528D01*
X198413854Y-179685528D02*
X198556711Y-179756957D01*
X198556711Y-179756957D02*
X198628140Y-179899814D01*
X198628140Y-179899814D02*
X198628140Y-180685528D01*
X199199568Y-179685528D02*
X199985283Y-179685528D01*
X199985283Y-179685528D02*
X199199568Y-180685528D01*
X199199568Y-180685528D02*
X199985283Y-180685528D01*
D10*
D11*
X179172312Y-177693328D02*
X178458026Y-177693328D01*
X178458026Y-177693328D02*
X178458026Y-176193328D01*
X179672312Y-177693328D02*
X179672312Y-176693328D01*
X179672312Y-176193328D02*
X179600884Y-176264757D01*
X179600884Y-176264757D02*
X179672312Y-176336185D01*
X179672312Y-176336185D02*
X179743741Y-176264757D01*
X179743741Y-176264757D02*
X179672312Y-176193328D01*
X179672312Y-176193328D02*
X179672312Y-176336185D01*
X181029456Y-177621900D02*
X180886598Y-177693328D01*
X180886598Y-177693328D02*
X180600884Y-177693328D01*
X180600884Y-177693328D02*
X180458027Y-177621900D01*
X180458027Y-177621900D02*
X180386598Y-177550471D01*
X180386598Y-177550471D02*
X180315170Y-177407614D01*
X180315170Y-177407614D02*
X180315170Y-176979042D01*
X180315170Y-176979042D02*
X180386598Y-176836185D01*
X180386598Y-176836185D02*
X180458027Y-176764757D01*
X180458027Y-176764757D02*
X180600884Y-176693328D01*
X180600884Y-176693328D02*
X180886598Y-176693328D01*
X180886598Y-176693328D02*
X181029456Y-176764757D01*
X182243741Y-177621900D02*
X182100884Y-177693328D01*
X182100884Y-177693328D02*
X181815170Y-177693328D01*
X181815170Y-177693328D02*
X181672312Y-177621900D01*
X181672312Y-177621900D02*
X181600884Y-177479042D01*
X181600884Y-177479042D02*
X181600884Y-176907614D01*
X181600884Y-176907614D02*
X181672312Y-176764757D01*
X181672312Y-176764757D02*
X181815170Y-176693328D01*
X181815170Y-176693328D02*
X182100884Y-176693328D01*
X182100884Y-176693328D02*
X182243741Y-176764757D01*
X182243741Y-176764757D02*
X182315170Y-176907614D01*
X182315170Y-176907614D02*
X182315170Y-177050471D01*
X182315170Y-177050471D02*
X181600884Y-177193328D01*
X182958026Y-176693328D02*
X182958026Y-177693328D01*
X182958026Y-176836185D02*
X183029455Y-176764757D01*
X183029455Y-176764757D02*
X183172312Y-176693328D01*
X183172312Y-176693328D02*
X183386598Y-176693328D01*
X183386598Y-176693328D02*
X183529455Y-176764757D01*
X183529455Y-176764757D02*
X183600884Y-176907614D01*
X183600884Y-176907614D02*
X183600884Y-177693328D01*
X184243741Y-177621900D02*
X184386598Y-177693328D01*
X184386598Y-177693328D02*
X184672312Y-177693328D01*
X184672312Y-177693328D02*
X184815169Y-177621900D01*
X184815169Y-177621900D02*
X184886598Y-177479042D01*
X184886598Y-177479042D02*
X184886598Y-177407614D01*
X184886598Y-177407614D02*
X184815169Y-177264757D01*
X184815169Y-177264757D02*
X184672312Y-177193328D01*
X184672312Y-177193328D02*
X184458027Y-177193328D01*
X184458027Y-177193328D02*
X184315169Y-177121900D01*
X184315169Y-177121900D02*
X184243741Y-176979042D01*
X184243741Y-176979042D02*
X184243741Y-176907614D01*
X184243741Y-176907614D02*
X184315169Y-176764757D01*
X184315169Y-176764757D02*
X184458027Y-176693328D01*
X184458027Y-176693328D02*
X184672312Y-176693328D01*
X184672312Y-176693328D02*
X184815169Y-176764757D01*
X186100884Y-177621900D02*
X185958027Y-177693328D01*
X185958027Y-177693328D02*
X185672313Y-177693328D01*
X185672313Y-177693328D02*
X185529455Y-177621900D01*
X185529455Y-177621900D02*
X185458027Y-177479042D01*
X185458027Y-177479042D02*
X185458027Y-176907614D01*
X185458027Y-176907614D02*
X185529455Y-176764757D01*
X185529455Y-176764757D02*
X185672313Y-176693328D01*
X185672313Y-176693328D02*
X185958027Y-176693328D01*
X185958027Y-176693328D02*
X186100884Y-176764757D01*
X186100884Y-176764757D02*
X186172313Y-176907614D01*
X186172313Y-176907614D02*
X186172313Y-177050471D01*
X186172313Y-177050471D02*
X185458027Y-177193328D01*
X187458027Y-177693328D02*
X187458027Y-176193328D01*
X187458027Y-177621900D02*
X187315169Y-177693328D01*
X187315169Y-177693328D02*
X187029455Y-177693328D01*
X187029455Y-177693328D02*
X186886598Y-177621900D01*
X186886598Y-177621900D02*
X186815169Y-177550471D01*
X186815169Y-177550471D02*
X186743741Y-177407614D01*
X186743741Y-177407614D02*
X186743741Y-176979042D01*
X186743741Y-176979042D02*
X186815169Y-176836185D01*
X186815169Y-176836185D02*
X186886598Y-176764757D01*
X186886598Y-176764757D02*
X187029455Y-176693328D01*
X187029455Y-176693328D02*
X187315169Y-176693328D01*
X187315169Y-176693328D02*
X187458027Y-176764757D01*
X189958027Y-176693328D02*
X189958027Y-177693328D01*
X189315169Y-176693328D02*
X189315169Y-177479042D01*
X189315169Y-177479042D02*
X189386598Y-177621900D01*
X189386598Y-177621900D02*
X189529455Y-177693328D01*
X189529455Y-177693328D02*
X189743741Y-177693328D01*
X189743741Y-177693328D02*
X189886598Y-177621900D01*
X189886598Y-177621900D02*
X189958027Y-177550471D01*
X190672312Y-176693328D02*
X190672312Y-177693328D01*
X190672312Y-176836185D02*
X190743741Y-176764757D01*
X190743741Y-176764757D02*
X190886598Y-176693328D01*
X190886598Y-176693328D02*
X191100884Y-176693328D01*
X191100884Y-176693328D02*
X191243741Y-176764757D01*
X191243741Y-176764757D02*
X191315170Y-176907614D01*
X191315170Y-176907614D02*
X191315170Y-177693328D01*
X192672313Y-177693328D02*
X192672313Y-176193328D01*
X192672313Y-177621900D02*
X192529455Y-177693328D01*
X192529455Y-177693328D02*
X192243741Y-177693328D01*
X192243741Y-177693328D02*
X192100884Y-177621900D01*
X192100884Y-177621900D02*
X192029455Y-177550471D01*
X192029455Y-177550471D02*
X191958027Y-177407614D01*
X191958027Y-177407614D02*
X191958027Y-176979042D01*
X191958027Y-176979042D02*
X192029455Y-176836185D01*
X192029455Y-176836185D02*
X192100884Y-176764757D01*
X192100884Y-176764757D02*
X192243741Y-176693328D01*
X192243741Y-176693328D02*
X192529455Y-176693328D01*
X192529455Y-176693328D02*
X192672313Y-176764757D01*
X193958027Y-177621900D02*
X193815170Y-177693328D01*
X193815170Y-177693328D02*
X193529456Y-177693328D01*
X193529456Y-177693328D02*
X193386598Y-177621900D01*
X193386598Y-177621900D02*
X193315170Y-177479042D01*
X193315170Y-177479042D02*
X193315170Y-176907614D01*
X193315170Y-176907614D02*
X193386598Y-176764757D01*
X193386598Y-176764757D02*
X193529456Y-176693328D01*
X193529456Y-176693328D02*
X193815170Y-176693328D01*
X193815170Y-176693328D02*
X193958027Y-176764757D01*
X193958027Y-176764757D02*
X194029456Y-176907614D01*
X194029456Y-176907614D02*
X194029456Y-177050471D01*
X194029456Y-177050471D02*
X193315170Y-177193328D01*
X194672312Y-177693328D02*
X194672312Y-176693328D01*
X194672312Y-176979042D02*
X194743741Y-176836185D01*
X194743741Y-176836185D02*
X194815170Y-176764757D01*
X194815170Y-176764757D02*
X194958027Y-176693328D01*
X194958027Y-176693328D02*
X195100884Y-176693328D01*
X197600883Y-177550471D02*
X197529455Y-177621900D01*
X197529455Y-177621900D02*
X197315169Y-177693328D01*
X197315169Y-177693328D02*
X197172312Y-177693328D01*
X197172312Y-177693328D02*
X196958026Y-177621900D01*
X196958026Y-177621900D02*
X196815169Y-177479042D01*
X196815169Y-177479042D02*
X196743740Y-177336185D01*
X196743740Y-177336185D02*
X196672312Y-177050471D01*
X196672312Y-177050471D02*
X196672312Y-176836185D01*
X196672312Y-176836185D02*
X196743740Y-176550471D01*
X196743740Y-176550471D02*
X196815169Y-176407614D01*
X196815169Y-176407614D02*
X196958026Y-176264757D01*
X196958026Y-176264757D02*
X197172312Y-176193328D01*
X197172312Y-176193328D02*
X197315169Y-176193328D01*
X197315169Y-176193328D02*
X197529455Y-176264757D01*
X197529455Y-176264757D02*
X197600883Y-176336185D01*
X199100883Y-177550471D02*
X199029455Y-177621900D01*
X199029455Y-177621900D02*
X198815169Y-177693328D01*
X198815169Y-177693328D02*
X198672312Y-177693328D01*
X198672312Y-177693328D02*
X198458026Y-177621900D01*
X198458026Y-177621900D02*
X198315169Y-177479042D01*
X198315169Y-177479042D02*
X198243740Y-177336185D01*
X198243740Y-177336185D02*
X198172312Y-177050471D01*
X198172312Y-177050471D02*
X198172312Y-176836185D01*
X198172312Y-176836185D02*
X198243740Y-176550471D01*
X198243740Y-176550471D02*
X198315169Y-176407614D01*
X198315169Y-176407614D02*
X198458026Y-176264757D01*
X198458026Y-176264757D02*
X198672312Y-176193328D01*
X198672312Y-176193328D02*
X198815169Y-176193328D01*
X198815169Y-176193328D02*
X199029455Y-176264757D01*
X199029455Y-176264757D02*
X199100883Y-176336185D01*
X199743740Y-177121900D02*
X200886598Y-177121900D01*
X202100883Y-176907614D02*
X202315169Y-176979042D01*
X202315169Y-176979042D02*
X202386598Y-177050471D01*
X202386598Y-177050471D02*
X202458026Y-177193328D01*
X202458026Y-177193328D02*
X202458026Y-177407614D01*
X202458026Y-177407614D02*
X202386598Y-177550471D01*
X202386598Y-177550471D02*
X202315169Y-177621900D01*
X202315169Y-177621900D02*
X202172312Y-177693328D01*
X202172312Y-177693328D02*
X201600883Y-177693328D01*
X201600883Y-177693328D02*
X201600883Y-176193328D01*
X201600883Y-176193328D02*
X202100883Y-176193328D01*
X202100883Y-176193328D02*
X202243741Y-176264757D01*
X202243741Y-176264757D02*
X202315169Y-176336185D01*
X202315169Y-176336185D02*
X202386598Y-176479042D01*
X202386598Y-176479042D02*
X202386598Y-176621900D01*
X202386598Y-176621900D02*
X202315169Y-176764757D01*
X202315169Y-176764757D02*
X202243741Y-176836185D01*
X202243741Y-176836185D02*
X202100883Y-176907614D01*
X202100883Y-176907614D02*
X201600883Y-176907614D01*
X203386598Y-176979042D02*
X203386598Y-177693328D01*
X202886598Y-176193328D02*
X203386598Y-176979042D01*
X203386598Y-176979042D02*
X203886598Y-176193328D01*
X206172312Y-176693328D02*
X206172312Y-177693328D01*
X205815169Y-176121900D02*
X205458026Y-177193328D01*
X205458026Y-177193328D02*
X206386597Y-177193328D01*
X206958025Y-177550471D02*
X207029454Y-177621900D01*
X207029454Y-177621900D02*
X206958025Y-177693328D01*
X206958025Y-177693328D02*
X206886597Y-177621900D01*
X206886597Y-177621900D02*
X206958025Y-177550471D01*
X206958025Y-177550471D02*
X206958025Y-177693328D01*
X207958026Y-176193328D02*
X208100883Y-176193328D01*
X208100883Y-176193328D02*
X208243740Y-176264757D01*
X208243740Y-176264757D02*
X208315169Y-176336185D01*
X208315169Y-176336185D02*
X208386597Y-176479042D01*
X208386597Y-176479042D02*
X208458026Y-176764757D01*
X208458026Y-176764757D02*
X208458026Y-177121900D01*
X208458026Y-177121900D02*
X208386597Y-177407614D01*
X208386597Y-177407614D02*
X208315169Y-177550471D01*
X208315169Y-177550471D02*
X208243740Y-177621900D01*
X208243740Y-177621900D02*
X208100883Y-177693328D01*
X208100883Y-177693328D02*
X207958026Y-177693328D01*
X207958026Y-177693328D02*
X207815169Y-177621900D01*
X207815169Y-177621900D02*
X207743740Y-177550471D01*
X207743740Y-177550471D02*
X207672311Y-177407614D01*
X207672311Y-177407614D02*
X207600883Y-177121900D01*
X207600883Y-177121900D02*
X207600883Y-176764757D01*
X207600883Y-176764757D02*
X207672311Y-176479042D01*
X207672311Y-176479042D02*
X207743740Y-176336185D01*
X207743740Y-176336185D02*
X207815169Y-176264757D01*
X207815169Y-176264757D02*
X207958026Y-176193328D01*
X210743739Y-176907614D02*
X210958025Y-176979042D01*
X210958025Y-176979042D02*
X211029454Y-177050471D01*
X211029454Y-177050471D02*
X211100882Y-177193328D01*
X211100882Y-177193328D02*
X211100882Y-177407614D01*
X211100882Y-177407614D02*
X211029454Y-177550471D01*
X211029454Y-177550471D02*
X210958025Y-177621900D01*
X210958025Y-177621900D02*
X210815168Y-177693328D01*
X210815168Y-177693328D02*
X210243739Y-177693328D01*
X210243739Y-177693328D02*
X210243739Y-176193328D01*
X210243739Y-176193328D02*
X210743739Y-176193328D01*
X210743739Y-176193328D02*
X210886597Y-176264757D01*
X210886597Y-176264757D02*
X210958025Y-176336185D01*
X210958025Y-176336185D02*
X211029454Y-176479042D01*
X211029454Y-176479042D02*
X211029454Y-176621900D01*
X211029454Y-176621900D02*
X210958025Y-176764757D01*
X210958025Y-176764757D02*
X210886597Y-176836185D01*
X210886597Y-176836185D02*
X210743739Y-176907614D01*
X210743739Y-176907614D02*
X210243739Y-176907614D01*
X211743739Y-177693328D02*
X211743739Y-176693328D01*
X211743739Y-176193328D02*
X211672311Y-176264757D01*
X211672311Y-176264757D02*
X211743739Y-176336185D01*
X211743739Y-176336185D02*
X211815168Y-176264757D01*
X211815168Y-176264757D02*
X211743739Y-176193328D01*
X211743739Y-176193328D02*
X211743739Y-176336185D01*
X212243740Y-176693328D02*
X212815168Y-176693328D01*
X212458025Y-176193328D02*
X212458025Y-177479042D01*
X212458025Y-177479042D02*
X212529454Y-177621900D01*
X212529454Y-177621900D02*
X212672311Y-177693328D01*
X212672311Y-177693328D02*
X212815168Y-177693328D01*
X213958026Y-177621900D02*
X213815168Y-177693328D01*
X213815168Y-177693328D02*
X213529454Y-177693328D01*
X213529454Y-177693328D02*
X213386597Y-177621900D01*
X213386597Y-177621900D02*
X213315168Y-177550471D01*
X213315168Y-177550471D02*
X213243740Y-177407614D01*
X213243740Y-177407614D02*
X213243740Y-176979042D01*
X213243740Y-176979042D02*
X213315168Y-176836185D01*
X213315168Y-176836185D02*
X213386597Y-176764757D01*
X213386597Y-176764757D02*
X213529454Y-176693328D01*
X213529454Y-176693328D02*
X213815168Y-176693328D01*
X213815168Y-176693328D02*
X213958026Y-176764757D01*
X214600882Y-177693328D02*
X214600882Y-176693328D01*
X214600882Y-176979042D02*
X214672311Y-176836185D01*
X214672311Y-176836185D02*
X214743740Y-176764757D01*
X214743740Y-176764757D02*
X214886597Y-176693328D01*
X214886597Y-176693328D02*
X215029454Y-176693328D01*
X216172311Y-177693328D02*
X216172311Y-176907614D01*
X216172311Y-176907614D02*
X216100882Y-176764757D01*
X216100882Y-176764757D02*
X215958025Y-176693328D01*
X215958025Y-176693328D02*
X215672311Y-176693328D01*
X215672311Y-176693328D02*
X215529453Y-176764757D01*
X216172311Y-177621900D02*
X216029453Y-177693328D01*
X216029453Y-177693328D02*
X215672311Y-177693328D01*
X215672311Y-177693328D02*
X215529453Y-177621900D01*
X215529453Y-177621900D02*
X215458025Y-177479042D01*
X215458025Y-177479042D02*
X215458025Y-177336185D01*
X215458025Y-177336185D02*
X215529453Y-177193328D01*
X215529453Y-177193328D02*
X215672311Y-177121900D01*
X215672311Y-177121900D02*
X216029453Y-177121900D01*
X216029453Y-177121900D02*
X216172311Y-177050471D01*
X216743739Y-176693328D02*
X217529454Y-176693328D01*
X217529454Y-176693328D02*
X216743739Y-177693328D01*
X216743739Y-177693328D02*
X217529454Y-177693328D01*
X218672311Y-177621900D02*
X218529454Y-177693328D01*
X218529454Y-177693328D02*
X218243740Y-177693328D01*
X218243740Y-177693328D02*
X218100882Y-177621900D01*
X218100882Y-177621900D02*
X218029454Y-177479042D01*
X218029454Y-177479042D02*
X218029454Y-176907614D01*
X218029454Y-176907614D02*
X218100882Y-176764757D01*
X218100882Y-176764757D02*
X218243740Y-176693328D01*
X218243740Y-176693328D02*
X218529454Y-176693328D01*
X218529454Y-176693328D02*
X218672311Y-176764757D01*
X218672311Y-176764757D02*
X218743740Y-176907614D01*
X218743740Y-176907614D02*
X218743740Y-177050471D01*
X218743740Y-177050471D02*
X218029454Y-177193328D01*
X220458025Y-177264757D02*
X221172311Y-177264757D01*
X220315168Y-177693328D02*
X220815168Y-176193328D01*
X220815168Y-176193328D02*
X221315168Y-177693328D01*
X222315167Y-176907614D02*
X222529453Y-176979042D01*
X222529453Y-176979042D02*
X222600882Y-177050471D01*
X222600882Y-177050471D02*
X222672310Y-177193328D01*
X222672310Y-177193328D02*
X222672310Y-177407614D01*
X222672310Y-177407614D02*
X222600882Y-177550471D01*
X222600882Y-177550471D02*
X222529453Y-177621900D01*
X222529453Y-177621900D02*
X222386596Y-177693328D01*
X222386596Y-177693328D02*
X221815167Y-177693328D01*
X221815167Y-177693328D02*
X221815167Y-176193328D01*
X221815167Y-176193328D02*
X222315167Y-176193328D01*
X222315167Y-176193328D02*
X222458025Y-176264757D01*
X222458025Y-176264757D02*
X222529453Y-176336185D01*
X222529453Y-176336185D02*
X222600882Y-176479042D01*
X222600882Y-176479042D02*
X222600882Y-176621900D01*
X222600882Y-176621900D02*
X222529453Y-176764757D01*
X222529453Y-176764757D02*
X222458025Y-176836185D01*
X222458025Y-176836185D02*
X222315167Y-176907614D01*
X222315167Y-176907614D02*
X221815167Y-176907614D01*
D10*
D11*
X179172312Y-174693328D02*
X178458026Y-174693328D01*
X178458026Y-174693328D02*
X178458026Y-173193328D01*
X180243741Y-174621900D02*
X180100884Y-174693328D01*
X180100884Y-174693328D02*
X179815170Y-174693328D01*
X179815170Y-174693328D02*
X179672312Y-174621900D01*
X179672312Y-174621900D02*
X179600884Y-174479042D01*
X179600884Y-174479042D02*
X179600884Y-173907614D01*
X179600884Y-173907614D02*
X179672312Y-173764757D01*
X179672312Y-173764757D02*
X179815170Y-173693328D01*
X179815170Y-173693328D02*
X180100884Y-173693328D01*
X180100884Y-173693328D02*
X180243741Y-173764757D01*
X180243741Y-173764757D02*
X180315170Y-173907614D01*
X180315170Y-173907614D02*
X180315170Y-174050471D01*
X180315170Y-174050471D02*
X179600884Y-174193328D01*
X181172312Y-174693328D02*
X181029455Y-174621900D01*
X181029455Y-174621900D02*
X180958026Y-174550471D01*
X180958026Y-174550471D02*
X180886598Y-174407614D01*
X180886598Y-174407614D02*
X180886598Y-173979042D01*
X180886598Y-173979042D02*
X180958026Y-173836185D01*
X180958026Y-173836185D02*
X181029455Y-173764757D01*
X181029455Y-173764757D02*
X181172312Y-173693328D01*
X181172312Y-173693328D02*
X181386598Y-173693328D01*
X181386598Y-173693328D02*
X181529455Y-173764757D01*
X181529455Y-173764757D02*
X181600884Y-173836185D01*
X181600884Y-173836185D02*
X181672312Y-173979042D01*
X181672312Y-173979042D02*
X181672312Y-174407614D01*
X181672312Y-174407614D02*
X181600884Y-174550471D01*
X181600884Y-174550471D02*
X181529455Y-174621900D01*
X181529455Y-174621900D02*
X181386598Y-174693328D01*
X181386598Y-174693328D02*
X181172312Y-174693328D01*
X182315169Y-173693328D02*
X182315169Y-174693328D01*
X182315169Y-173836185D02*
X182386598Y-173764757D01*
X182386598Y-173764757D02*
X182529455Y-173693328D01*
X182529455Y-173693328D02*
X182743741Y-173693328D01*
X182743741Y-173693328D02*
X182886598Y-173764757D01*
X182886598Y-173764757D02*
X182958027Y-173907614D01*
X182958027Y-173907614D02*
X182958027Y-174693328D01*
X184315170Y-174693328D02*
X184315170Y-173907614D01*
X184315170Y-173907614D02*
X184243741Y-173764757D01*
X184243741Y-173764757D02*
X184100884Y-173693328D01*
X184100884Y-173693328D02*
X183815170Y-173693328D01*
X183815170Y-173693328D02*
X183672312Y-173764757D01*
X184315170Y-174621900D02*
X184172312Y-174693328D01*
X184172312Y-174693328D02*
X183815170Y-174693328D01*
X183815170Y-174693328D02*
X183672312Y-174621900D01*
X183672312Y-174621900D02*
X183600884Y-174479042D01*
X183600884Y-174479042D02*
X183600884Y-174336185D01*
X183600884Y-174336185D02*
X183672312Y-174193328D01*
X183672312Y-174193328D02*
X183815170Y-174121900D01*
X183815170Y-174121900D02*
X184172312Y-174121900D01*
X184172312Y-174121900D02*
X184315170Y-174050471D01*
X185029455Y-174693328D02*
X185029455Y-173693328D01*
X185029455Y-173979042D02*
X185100884Y-173836185D01*
X185100884Y-173836185D02*
X185172313Y-173764757D01*
X185172313Y-173764757D02*
X185315170Y-173693328D01*
X185315170Y-173693328D02*
X185458027Y-173693328D01*
X186600884Y-174693328D02*
X186600884Y-173193328D01*
X186600884Y-174621900D02*
X186458026Y-174693328D01*
X186458026Y-174693328D02*
X186172312Y-174693328D01*
X186172312Y-174693328D02*
X186029455Y-174621900D01*
X186029455Y-174621900D02*
X185958026Y-174550471D01*
X185958026Y-174550471D02*
X185886598Y-174407614D01*
X185886598Y-174407614D02*
X185886598Y-173979042D01*
X185886598Y-173979042D02*
X185958026Y-173836185D01*
X185958026Y-173836185D02*
X186029455Y-173764757D01*
X186029455Y-173764757D02*
X186172312Y-173693328D01*
X186172312Y-173693328D02*
X186458026Y-173693328D01*
X186458026Y-173693328D02*
X186600884Y-173764757D01*
X188386598Y-174621900D02*
X188600884Y-174693328D01*
X188600884Y-174693328D02*
X188958026Y-174693328D01*
X188958026Y-174693328D02*
X189100884Y-174621900D01*
X189100884Y-174621900D02*
X189172312Y-174550471D01*
X189172312Y-174550471D02*
X189243741Y-174407614D01*
X189243741Y-174407614D02*
X189243741Y-174264757D01*
X189243741Y-174264757D02*
X189172312Y-174121900D01*
X189172312Y-174121900D02*
X189100884Y-174050471D01*
X189100884Y-174050471D02*
X188958026Y-173979042D01*
X188958026Y-173979042D02*
X188672312Y-173907614D01*
X188672312Y-173907614D02*
X188529455Y-173836185D01*
X188529455Y-173836185D02*
X188458026Y-173764757D01*
X188458026Y-173764757D02*
X188386598Y-173621900D01*
X188386598Y-173621900D02*
X188386598Y-173479042D01*
X188386598Y-173479042D02*
X188458026Y-173336185D01*
X188458026Y-173336185D02*
X188529455Y-173264757D01*
X188529455Y-173264757D02*
X188672312Y-173193328D01*
X188672312Y-173193328D02*
X189029455Y-173193328D01*
X189029455Y-173193328D02*
X189243741Y-173264757D01*
X190529455Y-174621900D02*
X190386597Y-174693328D01*
X190386597Y-174693328D02*
X190100883Y-174693328D01*
X190100883Y-174693328D02*
X189958026Y-174621900D01*
X189958026Y-174621900D02*
X189886597Y-174550471D01*
X189886597Y-174550471D02*
X189815169Y-174407614D01*
X189815169Y-174407614D02*
X189815169Y-173979042D01*
X189815169Y-173979042D02*
X189886597Y-173836185D01*
X189886597Y-173836185D02*
X189958026Y-173764757D01*
X189958026Y-173764757D02*
X190100883Y-173693328D01*
X190100883Y-173693328D02*
X190386597Y-173693328D01*
X190386597Y-173693328D02*
X190529455Y-173764757D01*
X191172311Y-174693328D02*
X191172311Y-173193328D01*
X191815169Y-174693328D02*
X191815169Y-173907614D01*
X191815169Y-173907614D02*
X191743740Y-173764757D01*
X191743740Y-173764757D02*
X191600883Y-173693328D01*
X191600883Y-173693328D02*
X191386597Y-173693328D01*
X191386597Y-173693328D02*
X191243740Y-173764757D01*
X191243740Y-173764757D02*
X191172311Y-173836185D01*
X192529454Y-174693328D02*
X192529454Y-173693328D01*
X192529454Y-173836185D02*
X192600883Y-173764757D01*
X192600883Y-173764757D02*
X192743740Y-173693328D01*
X192743740Y-173693328D02*
X192958026Y-173693328D01*
X192958026Y-173693328D02*
X193100883Y-173764757D01*
X193100883Y-173764757D02*
X193172312Y-173907614D01*
X193172312Y-173907614D02*
X193172312Y-174693328D01*
X193172312Y-173907614D02*
X193243740Y-173764757D01*
X193243740Y-173764757D02*
X193386597Y-173693328D01*
X193386597Y-173693328D02*
X193600883Y-173693328D01*
X193600883Y-173693328D02*
X193743740Y-173764757D01*
X193743740Y-173764757D02*
X193815169Y-173907614D01*
X193815169Y-173907614D02*
X193815169Y-174693328D01*
X194529454Y-174693328D02*
X194529454Y-173693328D01*
X194529454Y-173193328D02*
X194458026Y-173264757D01*
X194458026Y-173264757D02*
X194529454Y-173336185D01*
X194529454Y-173336185D02*
X194600883Y-173264757D01*
X194600883Y-173264757D02*
X194529454Y-173193328D01*
X194529454Y-173193328D02*
X194529454Y-173336185D01*
X195815169Y-174621900D02*
X195672312Y-174693328D01*
X195672312Y-174693328D02*
X195386598Y-174693328D01*
X195386598Y-174693328D02*
X195243740Y-174621900D01*
X195243740Y-174621900D02*
X195172312Y-174479042D01*
X195172312Y-174479042D02*
X195172312Y-173907614D01*
X195172312Y-173907614D02*
X195243740Y-173764757D01*
X195243740Y-173764757D02*
X195386598Y-173693328D01*
X195386598Y-173693328D02*
X195672312Y-173693328D01*
X195672312Y-173693328D02*
X195815169Y-173764757D01*
X195815169Y-173764757D02*
X195886598Y-173907614D01*
X195886598Y-173907614D02*
X195886598Y-174050471D01*
X195886598Y-174050471D02*
X195172312Y-174193328D01*
X197172312Y-174693328D02*
X197172312Y-173193328D01*
X197172312Y-174621900D02*
X197029454Y-174693328D01*
X197029454Y-174693328D02*
X196743740Y-174693328D01*
X196743740Y-174693328D02*
X196600883Y-174621900D01*
X196600883Y-174621900D02*
X196529454Y-174550471D01*
X196529454Y-174550471D02*
X196458026Y-174407614D01*
X196458026Y-174407614D02*
X196458026Y-173979042D01*
X196458026Y-173979042D02*
X196529454Y-173836185D01*
X196529454Y-173836185D02*
X196600883Y-173764757D01*
X196600883Y-173764757D02*
X196743740Y-173693328D01*
X196743740Y-173693328D02*
X197029454Y-173693328D01*
X197029454Y-173693328D02*
X197172312Y-173764757D01*
D10*
D11*
X178958026Y-170907614D02*
X179172312Y-170979042D01*
X179172312Y-170979042D02*
X179243741Y-171050471D01*
X179243741Y-171050471D02*
X179315169Y-171193328D01*
X179315169Y-171193328D02*
X179315169Y-171407614D01*
X179315169Y-171407614D02*
X179243741Y-171550471D01*
X179243741Y-171550471D02*
X179172312Y-171621900D01*
X179172312Y-171621900D02*
X179029455Y-171693328D01*
X179029455Y-171693328D02*
X178458026Y-171693328D01*
X178458026Y-171693328D02*
X178458026Y-170193328D01*
X178458026Y-170193328D02*
X178958026Y-170193328D01*
X178958026Y-170193328D02*
X179100884Y-170264757D01*
X179100884Y-170264757D02*
X179172312Y-170336185D01*
X179172312Y-170336185D02*
X179243741Y-170479042D01*
X179243741Y-170479042D02*
X179243741Y-170621900D01*
X179243741Y-170621900D02*
X179172312Y-170764757D01*
X179172312Y-170764757D02*
X179100884Y-170836185D01*
X179100884Y-170836185D02*
X178958026Y-170907614D01*
X178958026Y-170907614D02*
X178458026Y-170907614D01*
X180600884Y-171693328D02*
X180600884Y-170907614D01*
X180600884Y-170907614D02*
X180529455Y-170764757D01*
X180529455Y-170764757D02*
X180386598Y-170693328D01*
X180386598Y-170693328D02*
X180100884Y-170693328D01*
X180100884Y-170693328D02*
X179958026Y-170764757D01*
X180600884Y-171621900D02*
X180458026Y-171693328D01*
X180458026Y-171693328D02*
X180100884Y-171693328D01*
X180100884Y-171693328D02*
X179958026Y-171621900D01*
X179958026Y-171621900D02*
X179886598Y-171479042D01*
X179886598Y-171479042D02*
X179886598Y-171336185D01*
X179886598Y-171336185D02*
X179958026Y-171193328D01*
X179958026Y-171193328D02*
X180100884Y-171121900D01*
X180100884Y-171121900D02*
X180458026Y-171121900D01*
X180458026Y-171121900D02*
X180600884Y-171050471D01*
X181958027Y-171621900D02*
X181815169Y-171693328D01*
X181815169Y-171693328D02*
X181529455Y-171693328D01*
X181529455Y-171693328D02*
X181386598Y-171621900D01*
X181386598Y-171621900D02*
X181315169Y-171550471D01*
X181315169Y-171550471D02*
X181243741Y-171407614D01*
X181243741Y-171407614D02*
X181243741Y-170979042D01*
X181243741Y-170979042D02*
X181315169Y-170836185D01*
X181315169Y-170836185D02*
X181386598Y-170764757D01*
X181386598Y-170764757D02*
X181529455Y-170693328D01*
X181529455Y-170693328D02*
X181815169Y-170693328D01*
X181815169Y-170693328D02*
X181958027Y-170764757D01*
X182600883Y-171693328D02*
X182600883Y-170193328D01*
X183243741Y-171693328D02*
X183243741Y-170907614D01*
X183243741Y-170907614D02*
X183172312Y-170764757D01*
X183172312Y-170764757D02*
X183029455Y-170693328D01*
X183029455Y-170693328D02*
X182815169Y-170693328D01*
X182815169Y-170693328D02*
X182672312Y-170764757D01*
X182672312Y-170764757D02*
X182600883Y-170836185D01*
X184529455Y-171621900D02*
X184386598Y-171693328D01*
X184386598Y-171693328D02*
X184100884Y-171693328D01*
X184100884Y-171693328D02*
X183958026Y-171621900D01*
X183958026Y-171621900D02*
X183886598Y-171479042D01*
X183886598Y-171479042D02*
X183886598Y-170907614D01*
X183886598Y-170907614D02*
X183958026Y-170764757D01*
X183958026Y-170764757D02*
X184100884Y-170693328D01*
X184100884Y-170693328D02*
X184386598Y-170693328D01*
X184386598Y-170693328D02*
X184529455Y-170764757D01*
X184529455Y-170764757D02*
X184600884Y-170907614D01*
X184600884Y-170907614D02*
X184600884Y-171050471D01*
X184600884Y-171050471D02*
X183886598Y-171193328D01*
X185458026Y-171693328D02*
X185315169Y-171621900D01*
X185315169Y-171621900D02*
X185243740Y-171479042D01*
X185243740Y-171479042D02*
X185243740Y-170193328D01*
X186243740Y-171693328D02*
X186100883Y-171621900D01*
X186100883Y-171621900D02*
X186029454Y-171550471D01*
X186029454Y-171550471D02*
X185958026Y-171407614D01*
X185958026Y-171407614D02*
X185958026Y-170979042D01*
X185958026Y-170979042D02*
X186029454Y-170836185D01*
X186029454Y-170836185D02*
X186100883Y-170764757D01*
X186100883Y-170764757D02*
X186243740Y-170693328D01*
X186243740Y-170693328D02*
X186458026Y-170693328D01*
X186458026Y-170693328D02*
X186600883Y-170764757D01*
X186600883Y-170764757D02*
X186672312Y-170836185D01*
X186672312Y-170836185D02*
X186743740Y-170979042D01*
X186743740Y-170979042D02*
X186743740Y-171407614D01*
X186743740Y-171407614D02*
X186672312Y-171550471D01*
X186672312Y-171550471D02*
X186600883Y-171621900D01*
X186600883Y-171621900D02*
X186458026Y-171693328D01*
X186458026Y-171693328D02*
X186243740Y-171693328D01*
X187386597Y-171693328D02*
X187386597Y-170693328D01*
X187386597Y-170979042D02*
X187458026Y-170836185D01*
X187458026Y-170836185D02*
X187529455Y-170764757D01*
X187529455Y-170764757D02*
X187672312Y-170693328D01*
X187672312Y-170693328D02*
X187815169Y-170693328D01*
X188958026Y-171693328D02*
X188958026Y-170907614D01*
X188958026Y-170907614D02*
X188886597Y-170764757D01*
X188886597Y-170764757D02*
X188743740Y-170693328D01*
X188743740Y-170693328D02*
X188458026Y-170693328D01*
X188458026Y-170693328D02*
X188315168Y-170764757D01*
X188958026Y-171621900D02*
X188815168Y-171693328D01*
X188815168Y-171693328D02*
X188458026Y-171693328D01*
X188458026Y-171693328D02*
X188315168Y-171621900D01*
X188315168Y-171621900D02*
X188243740Y-171479042D01*
X188243740Y-171479042D02*
X188243740Y-171336185D01*
X188243740Y-171336185D02*
X188315168Y-171193328D01*
X188315168Y-171193328D02*
X188458026Y-171121900D01*
X188458026Y-171121900D02*
X188815168Y-171121900D01*
X188815168Y-171121900D02*
X188958026Y-171050471D01*
X189672311Y-171693328D02*
X189672311Y-170693328D01*
X189672311Y-170979042D02*
X189743740Y-170836185D01*
X189743740Y-170836185D02*
X189815169Y-170764757D01*
X189815169Y-170764757D02*
X189958026Y-170693328D01*
X189958026Y-170693328D02*
X190100883Y-170693328D01*
X190600882Y-171693328D02*
X190600882Y-170193328D01*
X190600882Y-170764757D02*
X190743740Y-170693328D01*
X190743740Y-170693328D02*
X191029454Y-170693328D01*
X191029454Y-170693328D02*
X191172311Y-170764757D01*
X191172311Y-170764757D02*
X191243740Y-170836185D01*
X191243740Y-170836185D02*
X191315168Y-170979042D01*
X191315168Y-170979042D02*
X191315168Y-171407614D01*
X191315168Y-171407614D02*
X191243740Y-171550471D01*
X191243740Y-171550471D02*
X191172311Y-171621900D01*
X191172311Y-171621900D02*
X191029454Y-171693328D01*
X191029454Y-171693328D02*
X190743740Y-171693328D01*
X190743740Y-171693328D02*
X190600882Y-171621900D01*
X192529454Y-171621900D02*
X192386597Y-171693328D01*
X192386597Y-171693328D02*
X192100883Y-171693328D01*
X192100883Y-171693328D02*
X191958025Y-171621900D01*
X191958025Y-171621900D02*
X191886597Y-171479042D01*
X191886597Y-171479042D02*
X191886597Y-170907614D01*
X191886597Y-170907614D02*
X191958025Y-170764757D01*
X191958025Y-170764757D02*
X192100883Y-170693328D01*
X192100883Y-170693328D02*
X192386597Y-170693328D01*
X192386597Y-170693328D02*
X192529454Y-170764757D01*
X192529454Y-170764757D02*
X192600883Y-170907614D01*
X192600883Y-170907614D02*
X192600883Y-171050471D01*
X192600883Y-171050471D02*
X191886597Y-171193328D01*
X193243739Y-171693328D02*
X193243739Y-170693328D01*
X193243739Y-170193328D02*
X193172311Y-170264757D01*
X193172311Y-170264757D02*
X193243739Y-170336185D01*
X193243739Y-170336185D02*
X193315168Y-170264757D01*
X193315168Y-170264757D02*
X193243739Y-170193328D01*
X193243739Y-170193328D02*
X193243739Y-170336185D01*
X193743740Y-170693328D02*
X194315168Y-170693328D01*
X193958025Y-170193328D02*
X193958025Y-171479042D01*
X193958025Y-171479042D02*
X194029454Y-171621900D01*
X194029454Y-171621900D02*
X194172311Y-171693328D01*
X194172311Y-171693328D02*
X194315168Y-171693328D01*
D10*
D11*
X197002200Y-191507200D02*
X197002200Y-194507200D01*
D10*
D11*
X261002200Y-191507200D02*
X261002200Y-198007200D01*
D14*
%TO.P,P1,1,VCC*%
%TO.N,unconnected-(P1-VCC-Pad1)*%
X148001000Y-86000920D03*
D15*
%TO.P,P1,2,RX1*%
%TO.N,unconnected-(P1-RX1-Pad2)_2*%
X146001000Y-86000920D03*
%TO.P,P1,3,TX1*%
%TO.N,unconnected-(P1-TX1-Pad3)_1*%
X144001000Y-86000920D03*
%TO.P,P1,4,SDA*%
%TO.N,unconnected-(P1-SDA-Pad4)_2*%
X142001000Y-86000920D03*
%TO.P,P1,5,SCL*%
%TO.N,unconnected-(P1-SCL-Pad5)*%
X140001000Y-86000920D03*
%TO.P,P1,6,IO_1*%
%TO.N,unconnected-(P1-IO_1-Pad6)_2*%
X138001000Y-86000920D03*
%TO.P,P1,7,IO_2*%
%TO.N,unconnected-(P1-IO_2-Pad7)_2*%
X136001000Y-86000920D03*
%TO.P,P1,8,IO_3*%
%TO.N,unconnected-(P1-IO_3-Pad8)_2*%
X134001000Y-86000920D03*
%TO.P,P1,9,IO_4*%
%TO.N,unconnected-(P1-IO_4-Pad9)*%
X132001000Y-86000920D03*
%TO.P,P1,10,GND*%
%TO.N,GND*%
X130001000Y-86000920D03*
%TD*%
D14*
%TO.P,P2,1,TX2*%
%TO.N,unconnected-(P2-TX2-Pad1)_1*%
X148001000Y-108000920D03*
D15*
%TO.P,P2,2,RX2*%
%TO.N,unconnected-(P2-RX2-Pad2)_2*%
X146001000Y-108000920D03*
%TO.P,P2,3,SCK*%
%TO.N,unconnected-(P2-SCK-Pad3)*%
X144001000Y-108000920D03*
%TO.P,P2,4,MISO*%
%TO.N,unconnected-(P2-MISO-Pad4)*%
X142001000Y-108000920D03*
%TO.P,P2,5,MOSI*%
%TO.N,unconnected-(P2-MOSI-Pad5)_1*%
X140001000Y-108000920D03*
%TO.P,P2,6,N_IO_1*%
%TO.N,Net-(P2-N_IO_1)*%
X138001000Y-108000920D03*
%TO.P,P2,7,WKUP*%
%TO.N,unconnected-(P2-WKUP-Pad7)_1*%
X136001000Y-108000920D03*
%TO.P,P2,8,OW*%
%TO.N,Net-(IC1-IO)*%
X134001000Y-108000920D03*
%TO.P,P2,9,VCOM*%
%TO.N,unconnected-(P2-VCOM-Pad9)_2*%
X132001000Y-108000920D03*
%TO.P,P2,10,VUSB*%
%TO.N,Net-(D2-A)*%
X130001000Y-108000920D03*
%TD*%
D16*
%TO.P,U1,22,EXP*%
%TO.N,GND*%
X131526000Y-97100920D03*
%TO.P,U1,23,EXP*%
X130776000Y-96600920D03*
%TO.P,U1,25,EXP*%
X130776000Y-97600920D03*
%TO.P,U1,26,EXP*%
X129726000Y-96600920D03*
%TO.P,U1,28,EXP*%
X129726000Y-97600920D03*
%TO.P,U1,29,EXP*%
X128976000Y-97100920D03*
%TD*%
D17*
%TO.P,TP1,1,1*%
%TO.N,/DC1*%
X148399500Y-95864920D03*
%TO.P,TP1,2,2*%
%TO.N,/DC2*%
X148399500Y-98404920D03*
%TD*%
D18*
%TO.N,GND*%
X133913500Y-110275920D03*
X134313500Y-95875920D03*
X126913500Y-95875920D03*
X149913500Y-106275920D03*
%TO.N,Net-(U1-BOOT2)*%
X131613500Y-99975920D03*
X135813500Y-100575920D03*
%TO.N,Net-(U1-COMM2)*%
X129417612Y-99980032D03*
X135913500Y-102775920D03*
%TO.N,Net-(U1-CLAMP2)*%
X135813500Y-101675920D03*
X130565081Y-99991173D03*
%TO.N,Net-(P2-N_IO_1)*%
X129013500Y-94275920D03*
%TO.N,Net-(D2-A)*%
X131313500Y-94075920D03*
X153313500Y-106075920D03*
X122237500Y-101579920D03*
%TD*%
D19*
%TO.N,GND*%
X129476000Y-97600920D02*
X128976000Y-97100920D01*
D20*
X148613500Y-110275920D02*
X133913500Y-110275920D01*
D19*
X130776000Y-97600920D02*
X129726000Y-97600920D01*
X129476000Y-96600920D02*
X128976000Y-97100920D01*
D20*
X149913500Y-108975920D02*
X148613500Y-110275920D01*
D19*
X129726000Y-96600920D02*
X129476000Y-96600920D01*
X131026000Y-96600920D02*
X131526000Y-97100920D01*
D20*
X149913500Y-106275920D02*
X149913500Y-108975920D01*
D19*
X129726000Y-96600920D02*
X130776000Y-96600920D01*
X130776000Y-96600920D02*
X131026000Y-96600920D01*
X131026000Y-97600920D02*
X131526000Y-97100920D01*
X130776000Y-97600920D02*
X131026000Y-97600920D01*
X129726000Y-97600920D02*
X129476000Y-97600920D01*
D20*
%TO.N,Net-(U1-BOOT2)*%
X131613500Y-99975920D02*
X132213500Y-100575920D01*
X132213500Y-100575920D02*
X135813500Y-100575920D01*
%TO.N,Net-(U1-COMM2)*%
X135913500Y-102775920D02*
X132213500Y-102775920D01*
X132213500Y-102775920D02*
X129417612Y-99980032D01*
%TO.N,Net-(U1-CLAMP2)*%
X132249828Y-101675920D02*
X130565081Y-99991173D01*
X135813500Y-101675920D02*
X132249828Y-101675920D01*
%TO.N,Net-(P2-N_IO_1)*%
X137221000Y-107220920D02*
X138001000Y-108000920D01*
X129013500Y-94275920D02*
X127513500Y-95775920D01*
X127513500Y-98885558D02*
X135848862Y-107220920D01*
X127513500Y-95775920D02*
X127513500Y-98885558D01*
X135848862Y-107220920D02*
X137221000Y-107220920D01*
%TO.N,Net-(D2-A)*%
X130941000Y-93703420D02*
X131313500Y-94075920D01*
X147178600Y-93427356D02*
X147074564Y-93323320D01*
X153313500Y-106075920D02*
X153313500Y-105375920D01*
X127986000Y-93703420D02*
X130941000Y-93703420D01*
X147074564Y-93323320D02*
X132066100Y-93323320D01*
X132066100Y-93323320D02*
X131313500Y-94075920D01*
X123013500Y-98675920D02*
X127986000Y-93703420D01*
X147178600Y-99241020D02*
X147178600Y-93427356D01*
X122237500Y-101579920D02*
X123013500Y-100803920D01*
X123013500Y-100803920D02*
X123013500Y-98675920D01*
X153313500Y-105375920D02*
X147178600Y-99241020D01*
%TD*%
%TA.AperFunction,Conductor*%
%TO.N,GND*%
G36*
X136368539Y-93699105D02*
G01*
X136414294Y-93751909D01*
X136425500Y-93803420D01*
X136425500Y-100079628D01*
X136405815Y-100146667D01*
X136353011Y-100192422D01*
X136283853Y-100202366D01*
X136220297Y-100173341D01*
X136213819Y-100167309D01*
X136164718Y-100118208D01*
X136164716Y-100118206D01*
X136097897Y-100079628D01*
X136034287Y-100042902D01*
X136034288Y-100042902D01*
X136017099Y-100038296D01*
X135888805Y-100003920D01*
X135738195Y-100003920D01*
X135609900Y-100038296D01*
X135592712Y-100042902D01*
X135462287Y-100118204D01*
X135462281Y-100118208D01*
X135396989Y-100183501D01*
X135335666Y-100216986D01*
X135309308Y-100219820D01*
X132412364Y-100219820D01*
X132382923Y-100211175D01*
X132352937Y-100204652D01*
X132347921Y-100200897D01*
X132345325Y-100200135D01*
X132324683Y-100183501D01*
X132221819Y-100080637D01*
X132188334Y-100019314D01*
X132185500Y-99992956D01*
X132185500Y-99900617D01*
X132185500Y-99900615D01*
X132146519Y-99755136D01*
X132071214Y-99624704D01*
X131964716Y-99518206D01*
X131918498Y-99491522D01*
X131834287Y-99442902D01*
X131834288Y-99442902D01*
X131817099Y-99438296D01*
X131688805Y-99403920D01*
X131538195Y-99403920D01*
X131409900Y-99438296D01*
X131392712Y-99442902D01*
X131262287Y-99518204D01*
X131262281Y-99518208D01*
X131169345Y-99611145D01*
X131108022Y-99644630D01*
X131038330Y-99639646D01*
X130993983Y-99611145D01*
X130916299Y-99533461D01*
X130916297Y-99533459D01*
X130877380Y-99510990D01*
X130785868Y-99458155D01*
X130785869Y-99458155D01*
X130744286Y-99447013D01*
X130640386Y-99419173D01*
X130489776Y-99419173D01*
X130385876Y-99447013D01*
X130344293Y-99458155D01*
X130213868Y-99533457D01*
X130213862Y-99533461D01*
X130107369Y-99639954D01*
X130107365Y-99639960D01*
X130101947Y-99649344D01*
X130051378Y-99697558D01*
X129982771Y-99710778D01*
X129917907Y-99684808D01*
X129887176Y-99649342D01*
X129875326Y-99628816D01*
X129768828Y-99522318D01*
X129715488Y-99491522D01*
X129638399Y-99447014D01*
X129638400Y-99447014D01*
X129621211Y-99442408D01*
X129492917Y-99408032D01*
X129342307Y-99408032D01*
X129214012Y-99442408D01*
X129196824Y-99447014D01*
X129066399Y-99522316D01*
X129066397Y-99522317D01*
X128959891Y-99628822D01*
X128959334Y-99629549D01*
X128958707Y-99630006D01*
X128954151Y-99634563D01*
X128953440Y-99633852D01*
X128902904Y-99670749D01*
X128833158Y-99674899D01*
X128773282Y-99641738D01*
X127905919Y-98774375D01*
X127872434Y-98713052D01*
X127869600Y-98686694D01*
X127869600Y-97980920D01*
X129077890Y-97980920D01*
X129143433Y-98079012D01*
X129143439Y-98079020D01*
X129247899Y-98183480D01*
X129247907Y-98183486D01*
X129370739Y-98265560D01*
X129370743Y-98265562D01*
X129475999Y-98309160D01*
X129476000Y-98309160D01*
X129976000Y-98309160D01*
X130081256Y-98265562D01*
X130081259Y-98265560D01*
X130182110Y-98198175D01*
X130248787Y-98177297D01*
X130316167Y-98195782D01*
X130319890Y-98198175D01*
X130420740Y-98265560D01*
X130420743Y-98265562D01*
X130525999Y-98309160D01*
X130526000Y-98309160D01*
X131026000Y-98309160D01*
X131131256Y-98265562D01*
X131131260Y-98265560D01*
X131254092Y-98183486D01*
X131254100Y-98183480D01*
X131358560Y-98079020D01*
X131358566Y-98079012D01*
X131424110Y-97980920D01*
X131400000Y-97980920D01*
X131332961Y-97961235D01*
X131287206Y-97908431D01*
X131276000Y-97856920D01*
X131276000Y-97809160D01*
X131776000Y-97809160D01*
X131881256Y-97765562D01*
X131881260Y-97765560D01*
X132004092Y-97683486D01*
X132004100Y-97683480D01*
X132108560Y-97579020D01*
X132108563Y-97579016D01*
X132190637Y-97456184D01*
X132190642Y-97456174D01*
X132234241Y-97350920D01*
X131776000Y-97350920D01*
X131776000Y-97809160D01*
X131276000Y-97809160D01*
X131276000Y-97071083D01*
X131376000Y-97071083D01*
X131376000Y-97130757D01*
X131398836Y-97185888D01*
X131441032Y-97228084D01*
X131496163Y-97250920D01*
X131555837Y-97250920D01*
X131610968Y-97228084D01*
X131653164Y-97185888D01*
X131676000Y-97130757D01*
X131676000Y-97071083D01*
X131653164Y-97015952D01*
X131610968Y-96973756D01*
X131555837Y-96950920D01*
X131496163Y-96950920D01*
X131441032Y-96973756D01*
X131398836Y-97015952D01*
X131376000Y-97071083D01*
X131276000Y-97071083D01*
X131276000Y-96850920D01*
X131776000Y-96850920D01*
X132234241Y-96850920D01*
X132234240Y-96850919D01*
X132190642Y-96745665D01*
X132190637Y-96745655D01*
X132108563Y-96622823D01*
X132108560Y-96622819D01*
X132004100Y-96518359D01*
X132004096Y-96518356D01*
X131881264Y-96436282D01*
X131881254Y-96436277D01*
X131776000Y-96392679D01*
X131776000Y-96850920D01*
X131276000Y-96850920D01*
X131276000Y-96344920D01*
X131295685Y-96277881D01*
X131348489Y-96232126D01*
X131379104Y-96222693D01*
X131420558Y-96215605D01*
X131358566Y-96122827D01*
X131358560Y-96122819D01*
X131254100Y-96018359D01*
X131254096Y-96018356D01*
X131131264Y-95936282D01*
X131131254Y-95936277D01*
X131026000Y-95892679D01*
X131026000Y-98309160D01*
X130526000Y-98309160D01*
X130526000Y-97850920D01*
X129976000Y-97850920D01*
X129976000Y-98309160D01*
X129476000Y-98309160D01*
X129476000Y-97571083D01*
X129576000Y-97571083D01*
X129576000Y-97630757D01*
X129598836Y-97685888D01*
X129641032Y-97728084D01*
X129696163Y-97750920D01*
X129755837Y-97750920D01*
X129810968Y-97728084D01*
X129853164Y-97685888D01*
X129876000Y-97630757D01*
X129876000Y-97571083D01*
X130626000Y-97571083D01*
X130626000Y-97630757D01*
X130648836Y-97685888D01*
X130691032Y-97728084D01*
X130746163Y-97750920D01*
X130805837Y-97750920D01*
X130860968Y-97728084D01*
X130903164Y-97685888D01*
X130926000Y-97630757D01*
X130926000Y-97571083D01*
X130903164Y-97515952D01*
X130860968Y-97473756D01*
X130805837Y-97450920D01*
X130746163Y-97450920D01*
X130691032Y-97473756D01*
X130648836Y-97515952D01*
X130626000Y-97571083D01*
X129876000Y-97571083D01*
X129853164Y-97515952D01*
X129810968Y-97473756D01*
X129755837Y-97450920D01*
X129696163Y-97450920D01*
X129641032Y-97473756D01*
X129598836Y-97515952D01*
X129576000Y-97571083D01*
X129476000Y-97571083D01*
X129476000Y-97350920D01*
X129976000Y-97350920D01*
X130526000Y-97350920D01*
X130526000Y-96850920D01*
X129976000Y-96850920D01*
X129976000Y-97350920D01*
X129476000Y-97350920D01*
X129476000Y-96571083D01*
X129576000Y-96571083D01*
X129576000Y-96630757D01*
X129598836Y-96685888D01*
X129641032Y-96728084D01*
X129696163Y-96750920D01*
X129755837Y-96750920D01*
X129810968Y-96728084D01*
X129853164Y-96685888D01*
X129876000Y-96630757D01*
X129876000Y-96571083D01*
X130626000Y-96571083D01*
X130626000Y-96630757D01*
X130648836Y-96685888D01*
X130691032Y-96728084D01*
X130746163Y-96750920D01*
X130805837Y-96750920D01*
X130860968Y-96728084D01*
X130903164Y-96685888D01*
X130926000Y-96630757D01*
X130926000Y-96571083D01*
X130903164Y-96515952D01*
X130860968Y-96473756D01*
X130805837Y-96450920D01*
X130746163Y-96450920D01*
X130691032Y-96473756D01*
X130648836Y-96515952D01*
X130626000Y-96571083D01*
X129876000Y-96571083D01*
X129853164Y-96515952D01*
X129810968Y-96473756D01*
X129755837Y-96450920D01*
X129696163Y-96450920D01*
X129641032Y-96473756D01*
X129598836Y-96515952D01*
X129576000Y-96571083D01*
X129476000Y-96571083D01*
X129476000Y-95892679D01*
X129976000Y-95892679D01*
X129976000Y-96350920D01*
X130526000Y-96350920D01*
X130526000Y-95892679D01*
X130525999Y-95892679D01*
X130420745Y-95936277D01*
X130420737Y-95936281D01*
X130319890Y-96003665D01*
X130253213Y-96024542D01*
X130185833Y-96006057D01*
X130182110Y-96003665D01*
X130081262Y-95936281D01*
X130081254Y-95936277D01*
X129976000Y-95892679D01*
X129476000Y-95892679D01*
X129475999Y-95892679D01*
X129370745Y-95936277D01*
X129370735Y-95936282D01*
X129247903Y-96018356D01*
X129247899Y-96018359D01*
X129143439Y-96122819D01*
X129143433Y-96122827D01*
X129100691Y-96186795D01*
X129178141Y-96247050D01*
X129218967Y-96303752D01*
X129226000Y-96344920D01*
X129226000Y-97856920D01*
X129206315Y-97923959D01*
X129153511Y-97969714D01*
X129102000Y-97980920D01*
X129077890Y-97980920D01*
X127869600Y-97980920D01*
X127869600Y-97350920D01*
X128267759Y-97350920D01*
X128311357Y-97456174D01*
X128311362Y-97456184D01*
X128393436Y-97579016D01*
X128393439Y-97579020D01*
X128497899Y-97683480D01*
X128497907Y-97683486D01*
X128620739Y-97765560D01*
X128620743Y-97765562D01*
X128725999Y-97809160D01*
X128726000Y-97809160D01*
X128726000Y-97350920D01*
X128267759Y-97350920D01*
X127869600Y-97350920D01*
X127869600Y-97071083D01*
X128826000Y-97071083D01*
X128826000Y-97130757D01*
X128848836Y-97185888D01*
X128891032Y-97228084D01*
X128946163Y-97250920D01*
X129005837Y-97250920D01*
X129060968Y-97228084D01*
X129103164Y-97185888D01*
X129126000Y-97130757D01*
X129126000Y-97071083D01*
X129103164Y-97015952D01*
X129060968Y-96973756D01*
X129005837Y-96950920D01*
X128946163Y-96950920D01*
X128891032Y-96973756D01*
X128848836Y-97015952D01*
X128826000Y-97071083D01*
X127869600Y-97071083D01*
X127869600Y-96850919D01*
X128267759Y-96850919D01*
X128267759Y-96850920D01*
X128726000Y-96850920D01*
X128726000Y-96392679D01*
X128725999Y-96392679D01*
X128620745Y-96436277D01*
X128620735Y-96436282D01*
X128497903Y-96518356D01*
X128497899Y-96518359D01*
X128393439Y-96622819D01*
X128393436Y-96622823D01*
X128311362Y-96745655D01*
X128311357Y-96745665D01*
X128267759Y-96850919D01*
X127869600Y-96850919D01*
X127869600Y-95974783D01*
X127889285Y-95907744D01*
X127905919Y-95887102D01*
X128908782Y-94884239D01*
X128970105Y-94850754D01*
X128996463Y-94847920D01*
X129088802Y-94847920D01*
X129088805Y-94847920D01*
X129234284Y-94808939D01*
X129364716Y-94733634D01*
X129471214Y-94627136D01*
X129546519Y-94496704D01*
X129585500Y-94351225D01*
X129585500Y-94200615D01*
X129585498Y-94200609D01*
X129585380Y-94199710D01*
X129585500Y-94198940D01*
X129585500Y-94192488D01*
X129586506Y-94192488D01*
X129596144Y-94130674D01*
X129642522Y-94078417D01*
X129708319Y-94059520D01*
X130621780Y-94059520D01*
X130688819Y-94079205D01*
X130734574Y-94132009D01*
X130741551Y-94151417D01*
X130780481Y-94296704D01*
X130780482Y-94296706D01*
X130780482Y-94296707D01*
X130828939Y-94380636D01*
X130855786Y-94427136D01*
X130962284Y-94533634D01*
X131053964Y-94586565D01*
X131092712Y-94608937D01*
X131092713Y-94608937D01*
X131092716Y-94608939D01*
X131238195Y-94647920D01*
X131238197Y-94647920D01*
X131388802Y-94647920D01*
X131388805Y-94647920D01*
X131534284Y-94608939D01*
X131664716Y-94533634D01*
X131771214Y-94427136D01*
X131846519Y-94296704D01*
X131885500Y-94151225D01*
X131885500Y-94058884D01*
X131905185Y-93991845D01*
X131921819Y-93971203D01*
X132177283Y-93715739D01*
X132238606Y-93682254D01*
X132264964Y-93679420D01*
X136301500Y-93679420D01*
X136368539Y-93699105D01*
G37*
%TD.AperFunction*%
%TA.AperFunction,Conductor*%
G36*
X148090711Y-82351498D02*
G01*
X148578073Y-82368905D01*
X148586866Y-82369533D01*
X149069580Y-82421430D01*
X149078296Y-82422683D01*
X149556076Y-82508885D01*
X149564684Y-82510758D01*
X150035073Y-82630818D01*
X150043553Y-82633308D01*
X150504096Y-82786592D01*
X150504153Y-82786611D01*
X150512445Y-82789703D01*
X150960955Y-82975482D01*
X150968994Y-82979154D01*
X151403092Y-83196448D01*
X151410857Y-83200687D01*
X151828361Y-83448405D01*
X151835807Y-83453191D01*
X152234559Y-83730050D01*
X152241645Y-83735355D01*
X152619621Y-84039948D01*
X152626311Y-84045744D01*
X152981612Y-84376542D01*
X152987871Y-84382801D01*
X153318661Y-84738095D01*
X153324458Y-84744785D01*
X153629063Y-85122779D01*
X153634367Y-85129865D01*
X153805691Y-85376619D01*
X153902040Y-85515389D01*
X153911223Y-85528614D01*
X153916002Y-85536050D01*
X154014432Y-85701945D01*
X154163718Y-85953555D01*
X154167960Y-85961324D01*
X154385253Y-86395422D01*
X154388930Y-86403474D01*
X154574695Y-86851954D01*
X154577789Y-86860247D01*
X154731098Y-87320871D01*
X154733591Y-87329364D01*
X154853641Y-87799717D01*
X154855523Y-87808367D01*
X154941713Y-88286098D01*
X154942973Y-88294859D01*
X154994866Y-88777535D01*
X154995497Y-88786365D01*
X155012921Y-89274266D01*
X155013000Y-89278691D01*
X155013000Y-104623705D01*
X155012921Y-104628131D01*
X154995513Y-105115488D01*
X154994881Y-105124317D01*
X154942990Y-105606962D01*
X154941731Y-105615724D01*
X154855535Y-106093473D01*
X154853653Y-106102122D01*
X154733600Y-106572480D01*
X154731106Y-106580973D01*
X154577802Y-107041574D01*
X154574709Y-107049868D01*
X154388937Y-107498359D01*
X154385260Y-107506411D01*
X154167965Y-107940508D01*
X154163723Y-107948277D01*
X153916008Y-108365776D01*
X153911222Y-108373222D01*
X153634363Y-108771974D01*
X153629058Y-108779060D01*
X153324466Y-109157034D01*
X153318670Y-109163724D01*
X152987871Y-109519026D01*
X152981612Y-109525285D01*
X152626318Y-109856075D01*
X152619628Y-109861872D01*
X152241635Y-110166477D01*
X152234549Y-110171781D01*
X151835800Y-110448637D01*
X151828353Y-110453423D01*
X151410860Y-110701132D01*
X151403091Y-110705374D01*
X150968998Y-110922665D01*
X150960947Y-110926342D01*
X150512445Y-111112117D01*
X150504151Y-111115210D01*
X150043558Y-111268510D01*
X150035065Y-111271004D01*
X149564703Y-111391057D01*
X149556054Y-111392939D01*
X149078318Y-111479132D01*
X149069556Y-111480392D01*
X148586883Y-111532284D01*
X148578054Y-111532915D01*
X148090148Y-111550341D01*
X148085722Y-111550420D01*
X127715714Y-111550420D01*
X127711288Y-111550341D01*
X127223943Y-111532935D01*
X127215114Y-111532304D01*
X126732440Y-111480412D01*
X126723678Y-111479152D01*
X126245941Y-111392959D01*
X126237292Y-111391077D01*
X125766929Y-111271023D01*
X125758436Y-111268529D01*
X125297841Y-111115229D01*
X125289547Y-111112136D01*
X124841043Y-110926360D01*
X124832992Y-110922683D01*
X124398898Y-110705392D01*
X124391129Y-110701150D01*
X123973635Y-110453440D01*
X123966188Y-110448654D01*
X123956012Y-110441589D01*
X123847185Y-110366029D01*
X123567438Y-110171797D01*
X123560352Y-110166493D01*
X123182358Y-109861887D01*
X123175668Y-109856090D01*
X123123723Y-109807728D01*
X123028778Y-109719331D01*
X122820373Y-109525299D01*
X122814114Y-109519040D01*
X122483314Y-109163737D01*
X122477518Y-109157047D01*
X122172925Y-108779072D01*
X122167620Y-108771986D01*
X121890760Y-108373233D01*
X121885974Y-108365787D01*
X121638259Y-107948286D01*
X121634017Y-107940518D01*
X121625819Y-107924141D01*
X129221500Y-107924141D01*
X129221500Y-108077698D01*
X129251453Y-108228285D01*
X129251455Y-108228292D01*
X129310214Y-108370149D01*
X129395522Y-108497821D01*
X129395525Y-108497825D01*
X129504094Y-108606394D01*
X129504098Y-108606397D01*
X129631768Y-108691704D01*
X129773628Y-108750465D01*
X129900034Y-108775608D01*
X129924221Y-108780419D01*
X129924225Y-108780420D01*
X129924226Y-108780420D01*
X130077775Y-108780420D01*
X130077776Y-108780419D01*
X130228372Y-108750465D01*
X130370232Y-108691704D01*
X130497902Y-108606397D01*
X130606477Y-108497822D01*
X130691784Y-108370152D01*
X130750545Y-108228292D01*
X130780500Y-108077694D01*
X130780500Y-107924146D01*
X130780499Y-107924141D01*
X131221500Y-107924141D01*
X131221500Y-108077698D01*
X131251453Y-108228285D01*
X131251455Y-108228292D01*
X131310214Y-108370149D01*
X131395522Y-108497821D01*
X131395525Y-108497825D01*
X131504094Y-108606394D01*
X131504098Y-108606397D01*
X131631768Y-108691704D01*
X131773628Y-108750465D01*
X131900034Y-108775608D01*
X131924221Y-108780419D01*
X131924225Y-108780420D01*
X131924226Y-108780420D01*
X132077775Y-108780420D01*
X132077776Y-108780419D01*
X132228372Y-108750465D01*
X132370232Y-108691704D01*
X132497902Y-108606397D01*
X132606477Y-108497822D01*
X132691784Y-108370152D01*
X132750545Y-108228292D01*
X132780500Y-108077694D01*
X132780500Y-107924146D01*
X132780499Y-107924141D01*
X133221500Y-107924141D01*
X133221500Y-108077698D01*
X133251453Y-108228285D01*
X133251455Y-108228292D01*
X133310214Y-108370149D01*
X133395522Y-108497821D01*
X133395525Y-108497825D01*
X133504094Y-108606394D01*
X133504098Y-108606397D01*
X133631768Y-108691704D01*
X133773628Y-108750465D01*
X133900034Y-108775608D01*
X133924221Y-108780419D01*
X133924225Y-108780420D01*
X133924226Y-108780420D01*
X134077775Y-108780420D01*
X134077776Y-108780419D01*
X134228372Y-108750465D01*
X134370232Y-108691704D01*
X134497902Y-108606397D01*
X134606477Y-108497822D01*
X134691784Y-108370152D01*
X134750545Y-108228292D01*
X134780500Y-108077694D01*
X134780500Y-107924146D01*
X134750545Y-107773548D01*
X134691784Y-107631688D01*
X134606477Y-107504018D01*
X134606475Y-107504016D01*
X134606474Y-107504014D01*
X134497905Y-107395445D01*
X134497901Y-107395442D01*
X134370229Y-107310134D01*
X134228372Y-107251375D01*
X134228365Y-107251373D01*
X134077778Y-107221420D01*
X134077774Y-107221420D01*
X133924226Y-107221420D01*
X133924221Y-107221420D01*
X133773634Y-107251373D01*
X133773627Y-107251375D01*
X133631770Y-107310134D01*
X133504098Y-107395442D01*
X133504094Y-107395445D01*
X133395525Y-107504014D01*
X133395522Y-107504018D01*
X133310214Y-107631690D01*
X133251455Y-107773547D01*
X133251453Y-107773554D01*
X133221500Y-107924141D01*
X132780499Y-107924141D01*
X132750545Y-107773548D01*
X132691784Y-107631688D01*
X132606477Y-107504018D01*
X132606475Y-107504016D01*
X132606474Y-107504014D01*
X132497905Y-107395445D01*
X132497901Y-107395442D01*
X132370229Y-107310134D01*
X132228372Y-107251375D01*
X132228365Y-107251373D01*
X132077778Y-107221420D01*
X132077774Y-107221420D01*
X131924226Y-107221420D01*
X131924221Y-107221420D01*
X131773634Y-107251373D01*
X131773627Y-107251375D01*
X131631770Y-107310134D01*
X131504098Y-107395442D01*
X131504094Y-107395445D01*
X131395525Y-107504014D01*
X131395522Y-107504018D01*
X131310214Y-107631690D01*
X131251455Y-107773547D01*
X131251453Y-107773554D01*
X131221500Y-107924141D01*
X130780499Y-107924141D01*
X130750545Y-107773548D01*
X130691784Y-107631688D01*
X130606477Y-107504018D01*
X130606475Y-107504016D01*
X130606474Y-107504014D01*
X130497905Y-107395445D01*
X130497901Y-107395442D01*
X130370229Y-107310134D01*
X130228372Y-107251375D01*
X130228365Y-107251373D01*
X130077778Y-107221420D01*
X130077774Y-107221420D01*
X129924226Y-107221420D01*
X129924221Y-107221420D01*
X129773634Y-107251373D01*
X129773627Y-107251375D01*
X129631770Y-107310134D01*
X129504098Y-107395442D01*
X129504094Y-107395445D01*
X129395525Y-107504014D01*
X129395522Y-107504018D01*
X129310214Y-107631690D01*
X129251455Y-107773547D01*
X129251453Y-107773554D01*
X129221500Y-107924141D01*
X121625819Y-107924141D01*
X121416713Y-107506402D01*
X121413052Y-107498386D01*
X121227269Y-107049868D01*
X121224177Y-107041577D01*
X121173423Y-106889087D01*
X121070872Y-106580973D01*
X121068381Y-106572489D01*
X121018448Y-106376854D01*
X120948322Y-106102106D01*
X120946449Y-106093498D01*
X120860246Y-105615718D01*
X120858989Y-105606965D01*
X120858034Y-105598086D01*
X120807097Y-105124314D01*
X120806466Y-105115489D01*
X120789079Y-104628690D01*
X120789000Y-104624264D01*
X120789000Y-101504615D01*
X121665500Y-101504615D01*
X121665500Y-101655225D01*
X121704481Y-101800704D01*
X121704482Y-101800707D01*
X121757412Y-101892384D01*
X121779786Y-101931136D01*
X121886284Y-102037634D01*
X121939467Y-102068339D01*
X122016712Y-102112937D01*
X122016713Y-102112937D01*
X122016716Y-102112939D01*
X122162195Y-102151920D01*
X122162197Y-102151920D01*
X122312802Y-102151920D01*
X122312805Y-102151920D01*
X122458284Y-102112939D01*
X122588716Y-102037634D01*
X122695214Y-101931136D01*
X122770519Y-101800704D01*
X122809500Y-101655225D01*
X122809500Y-101562884D01*
X122829185Y-101495845D01*
X122845819Y-101475203D01*
X123037521Y-101283501D01*
X123298451Y-101022571D01*
X123316913Y-100990594D01*
X123345333Y-100941370D01*
X123350461Y-100922230D01*
X123369601Y-100850801D01*
X123369601Y-100757039D01*
X123369601Y-100749444D01*
X123369600Y-100749426D01*
X123369600Y-98874784D01*
X123389285Y-98807745D01*
X123405919Y-98787103D01*
X128097183Y-94095839D01*
X128124110Y-94081135D01*
X128149929Y-94064543D01*
X128156129Y-94063651D01*
X128158506Y-94062354D01*
X128184864Y-94059520D01*
X128318681Y-94059520D01*
X128385720Y-94079205D01*
X128431475Y-94132009D01*
X128440538Y-94192488D01*
X128441500Y-94192488D01*
X128441500Y-94198909D01*
X128441620Y-94199710D01*
X128441501Y-94200609D01*
X128441500Y-94200615D01*
X128441500Y-94200621D01*
X128441500Y-94292955D01*
X128421815Y-94359994D01*
X128405181Y-94380636D01*
X127228552Y-95557265D01*
X127228549Y-95557269D01*
X127181665Y-95638472D01*
X127157400Y-95729035D01*
X127157400Y-98932442D01*
X127181665Y-99023005D01*
X127181667Y-99023008D01*
X127228549Y-99104209D01*
X127228551Y-99104211D01*
X135424259Y-107299919D01*
X135457744Y-107361242D01*
X135452760Y-107430934D01*
X135424259Y-107475281D01*
X135395525Y-107504014D01*
X135395522Y-107504018D01*
X135310214Y-107631690D01*
X135251455Y-107773547D01*
X135251453Y-107773554D01*
X135221500Y-107924141D01*
X135221500Y-108077698D01*
X135251453Y-108228285D01*
X135251455Y-108228292D01*
X135310214Y-108370149D01*
X135395522Y-108497821D01*
X135395525Y-108497825D01*
X135504094Y-108606394D01*
X135504098Y-108606397D01*
X135631768Y-108691704D01*
X135773628Y-108750465D01*
X135900034Y-108775608D01*
X135924221Y-108780419D01*
X135924225Y-108780420D01*
X135924226Y-108780420D01*
X136077775Y-108780420D01*
X136077776Y-108780419D01*
X136228372Y-108750465D01*
X136370232Y-108691704D01*
X136497902Y-108606397D01*
X136606477Y-108497822D01*
X136691784Y-108370152D01*
X136750545Y-108228292D01*
X136780500Y-108077694D01*
X136780500Y-107924146D01*
X136750545Y-107773548D01*
X136740157Y-107748471D01*
X136736649Y-107715840D01*
X136731981Y-107683373D01*
X136732934Y-107681285D01*
X136732689Y-107679005D01*
X136747374Y-107649666D01*
X136761006Y-107619817D01*
X136762936Y-107618576D01*
X136763963Y-107616525D01*
X136792180Y-107599782D01*
X136819784Y-107582043D01*
X136822812Y-107581607D01*
X136824052Y-107580872D01*
X136854719Y-107577020D01*
X137022136Y-107577020D01*
X137089175Y-107596705D01*
X137109817Y-107613339D01*
X137207669Y-107711191D01*
X137241154Y-107772514D01*
X137241606Y-107823062D01*
X137221500Y-107924147D01*
X137221500Y-108077698D01*
X137251453Y-108228285D01*
X137251455Y-108228292D01*
X137310214Y-108370149D01*
X137395522Y-108497821D01*
X137395525Y-108497825D01*
X137504094Y-108606394D01*
X137504098Y-108606397D01*
X137631768Y-108691704D01*
X137773628Y-108750465D01*
X137900034Y-108775608D01*
X137924221Y-108780419D01*
X137924225Y-108780420D01*
X137924226Y-108780420D01*
X138077775Y-108780420D01*
X138077776Y-108780419D01*
X138228372Y-108750465D01*
X138370232Y-108691704D01*
X138497902Y-108606397D01*
X138606477Y-108497822D01*
X138691784Y-108370152D01*
X138750545Y-108228292D01*
X138780500Y-108077694D01*
X138780500Y-107924146D01*
X138780499Y-107924141D01*
X139221500Y-107924141D01*
X139221500Y-108077698D01*
X139251453Y-108228285D01*
X139251455Y-108228292D01*
X139310214Y-108370149D01*
X139395522Y-108497821D01*
X139395525Y-108497825D01*
X139504094Y-108606394D01*
X139504098Y-108606397D01*
X139631768Y-108691704D01*
X139773628Y-108750465D01*
X139900034Y-108775608D01*
X139924221Y-108780419D01*
X139924225Y-108780420D01*
X139924226Y-108780420D01*
X140077775Y-108780420D01*
X140077776Y-108780419D01*
X140228372Y-108750465D01*
X140370232Y-108691704D01*
X140497902Y-108606397D01*
X140606477Y-108497822D01*
X140691784Y-108370152D01*
X140750545Y-108228292D01*
X140780500Y-108077694D01*
X140780500Y-107924146D01*
X140780499Y-107924141D01*
X141221500Y-107924141D01*
X141221500Y-108077698D01*
X141251453Y-108228285D01*
X141251455Y-108228292D01*
X141310214Y-108370149D01*
X141395522Y-108497821D01*
X141395525Y-108497825D01*
X141504094Y-108606394D01*
X141504098Y-108606397D01*
X141631768Y-108691704D01*
X141773628Y-108750465D01*
X141900034Y-108775608D01*
X141924221Y-108780419D01*
X141924225Y-108780420D01*
X141924226Y-108780420D01*
X142077775Y-108780420D01*
X142077776Y-108780419D01*
X142228372Y-108750465D01*
X142370232Y-108691704D01*
X142497902Y-108606397D01*
X142606477Y-108497822D01*
X142691784Y-108370152D01*
X142750545Y-108228292D01*
X142780500Y-108077694D01*
X142780500Y-107924146D01*
X142780499Y-107924141D01*
X143221500Y-107924141D01*
X143221500Y-108077698D01*
X143251453Y-108228285D01*
X143251455Y-108228292D01*
X143310214Y-108370149D01*
X143395522Y-108497821D01*
X143395525Y-108497825D01*
X143504094Y-108606394D01*
X143504098Y-108606397D01*
X143631768Y-108691704D01*
X143773628Y-108750465D01*
X143900034Y-108775608D01*
X143924221Y-108780419D01*
X143924225Y-108780420D01*
X143924226Y-108780420D01*
X144077775Y-108780420D01*
X144077776Y-108780419D01*
X144228372Y-108750465D01*
X144370232Y-108691704D01*
X144497902Y-108606397D01*
X144606477Y-108497822D01*
X144691784Y-108370152D01*
X144750545Y-108228292D01*
X144780500Y-108077694D01*
X144780500Y-107924146D01*
X144780499Y-107924141D01*
X145221500Y-107924141D01*
X145221500Y-108077698D01*
X145251453Y-108228285D01*
X145251455Y-108228292D01*
X145310214Y-108370149D01*
X145395522Y-108497821D01*
X145395525Y-108497825D01*
X145504094Y-108606394D01*
X145504098Y-108606397D01*
X145631768Y-108691704D01*
X145773628Y-108750465D01*
X145900034Y-108775608D01*
X145924221Y-108780419D01*
X145924225Y-108780420D01*
X145924226Y-108780420D01*
X146077775Y-108780420D01*
X146077776Y-108780419D01*
X146228372Y-108750465D01*
X146370232Y-108691704D01*
X146497902Y-108606397D01*
X146606477Y-108497822D01*
X146691784Y-108370152D01*
X146750545Y-108228292D01*
X146780500Y-108077694D01*
X146780500Y-107924146D01*
X146750545Y-107773548D01*
X146691784Y-107631688D01*
X146681652Y-107616525D01*
X146612918Y-107513656D01*
X146612916Y-107513654D01*
X146606476Y-107504016D01*
X146553308Y-107450848D01*
X147221500Y-107450848D01*
X147221500Y-108550983D01*
X147236266Y-108625221D01*
X147292515Y-108709404D01*
X147326234Y-108731934D01*
X147376699Y-108765654D01*
X147376702Y-108765654D01*
X147376703Y-108765655D01*
X147401666Y-108770620D01*
X147450933Y-108780420D01*
X148551066Y-108780419D01*
X148625301Y-108765654D01*
X148709484Y-108709404D01*
X148765734Y-108625221D01*
X148780500Y-108550987D01*
X148780499Y-107450854D01*
X148765734Y-107376619D01*
X148721310Y-107310134D01*
X148709484Y-107292435D01*
X148656173Y-107256814D01*
X148625301Y-107236186D01*
X148625299Y-107236185D01*
X148625296Y-107236184D01*
X148551069Y-107221420D01*
X147450936Y-107221420D01*
X147376698Y-107236186D01*
X147292515Y-107292435D01*
X147236266Y-107376619D01*
X147236264Y-107376623D01*
X147221500Y-107450848D01*
X146553308Y-107450848D01*
X146497905Y-107395445D01*
X146497901Y-107395442D01*
X146370229Y-107310134D01*
X146228372Y-107251375D01*
X146228365Y-107251373D01*
X146077778Y-107221420D01*
X146077774Y-107221420D01*
X145924226Y-107221420D01*
X145924221Y-107221420D01*
X145773634Y-107251373D01*
X145773627Y-107251375D01*
X145631770Y-107310134D01*
X145504098Y-107395442D01*
X145504094Y-107395445D01*
X145395525Y-107504014D01*
X145395522Y-107504018D01*
X145310214Y-107631690D01*
X145251455Y-107773547D01*
X145251453Y-107773554D01*
X145221500Y-107924141D01*
X144780499Y-107924141D01*
X144750545Y-107773548D01*
X144691784Y-107631688D01*
X144606477Y-107504018D01*
X144606475Y-107504016D01*
X144606474Y-107504014D01*
X144497905Y-107395445D01*
X144497901Y-107395442D01*
X144370229Y-107310134D01*
X144228372Y-107251375D01*
X144228365Y-107251373D01*
X144077778Y-107221420D01*
X144077774Y-107221420D01*
X143924226Y-107221420D01*
X143924221Y-107221420D01*
X143773634Y-107251373D01*
X143773627Y-107251375D01*
X143631770Y-107310134D01*
X143504098Y-107395442D01*
X143504094Y-107395445D01*
X143395525Y-107504014D01*
X143395522Y-107504018D01*
X143310214Y-107631690D01*
X143251455Y-107773547D01*
X143251453Y-107773554D01*
X143221500Y-107924141D01*
X142780499Y-107924141D01*
X142750545Y-107773548D01*
X142691784Y-107631688D01*
X142606477Y-107504018D01*
X142606475Y-107504016D01*
X142606474Y-107504014D01*
X142497905Y-107395445D01*
X142497901Y-107395442D01*
X142370229Y-107310134D01*
X142228372Y-107251375D01*
X142228365Y-107251373D01*
X142077778Y-107221420D01*
X142077774Y-107221420D01*
X141924226Y-107221420D01*
X141924221Y-107221420D01*
X141773634Y-107251373D01*
X141773627Y-107251375D01*
X141631770Y-107310134D01*
X141504098Y-107395442D01*
X141504094Y-107395445D01*
X141395525Y-107504014D01*
X141395522Y-107504018D01*
X141310214Y-107631690D01*
X141251455Y-107773547D01*
X141251453Y-107773554D01*
X141221500Y-107924141D01*
X140780499Y-107924141D01*
X140750545Y-107773548D01*
X140691784Y-107631688D01*
X140606477Y-107504018D01*
X140606475Y-107504016D01*
X140606474Y-107504014D01*
X140497905Y-107395445D01*
X140497901Y-107395442D01*
X140370229Y-107310134D01*
X140228372Y-107251375D01*
X140228365Y-107251373D01*
X140077778Y-107221420D01*
X140077774Y-107221420D01*
X139924226Y-107221420D01*
X139924221Y-107221420D01*
X139773634Y-107251373D01*
X139773627Y-107251375D01*
X139631770Y-107310134D01*
X139504098Y-107395442D01*
X139504094Y-107395445D01*
X139395525Y-107504014D01*
X139395522Y-107504018D01*
X139310214Y-107631690D01*
X139251455Y-107773547D01*
X139251453Y-107773554D01*
X139221500Y-107924141D01*
X138780499Y-107924141D01*
X138750545Y-107773548D01*
X138691784Y-107631688D01*
X138606477Y-107504018D01*
X138606475Y-107504016D01*
X138606474Y-107504014D01*
X138497905Y-107395445D01*
X138497901Y-107395442D01*
X138370229Y-107310134D01*
X138228372Y-107251375D01*
X138228365Y-107251373D01*
X138077778Y-107221420D01*
X138077774Y-107221420D01*
X137924226Y-107221420D01*
X137885300Y-107229162D01*
X137823142Y-107241526D01*
X137753550Y-107235297D01*
X137711271Y-107207589D01*
X137439653Y-106935971D01*
X137439651Y-106935969D01*
X137358450Y-106889087D01*
X137358447Y-106889085D01*
X137267884Y-106864820D01*
X137267881Y-106864820D01*
X136047726Y-106864820D01*
X135980687Y-106845135D01*
X135960045Y-106828501D01*
X132475245Y-103343701D01*
X132441760Y-103282378D01*
X132446744Y-103212686D01*
X132488616Y-103156753D01*
X132554080Y-103132336D01*
X132562926Y-103132020D01*
X135409308Y-103132020D01*
X135476347Y-103151705D01*
X135496989Y-103168339D01*
X135562284Y-103233634D01*
X135646711Y-103282378D01*
X135692712Y-103308937D01*
X135692713Y-103308937D01*
X135692716Y-103308939D01*
X135838195Y-103347920D01*
X135838197Y-103347920D01*
X135988802Y-103347920D01*
X135988805Y-103347920D01*
X136134284Y-103308939D01*
X136264716Y-103233634D01*
X136371214Y-103127136D01*
X136446519Y-102996704D01*
X136485500Y-102851225D01*
X136485500Y-102700615D01*
X136446519Y-102555136D01*
X136371214Y-102424704D01*
X136264716Y-102318206D01*
X136224252Y-102294844D01*
X136176038Y-102244279D01*
X136162814Y-102175672D01*
X136188782Y-102110807D01*
X136198556Y-102099793D01*
X136271214Y-102027136D01*
X136346519Y-101896704D01*
X136385500Y-101751225D01*
X136385500Y-101600615D01*
X136346519Y-101455136D01*
X136271214Y-101324704D01*
X136164716Y-101218206D01*
X136160111Y-101213601D01*
X136126626Y-101152278D01*
X136131610Y-101082586D01*
X136160111Y-101038239D01*
X136207756Y-100990594D01*
X136271214Y-100927136D01*
X136346519Y-100796704D01*
X136380917Y-100668325D01*
X136417282Y-100608666D01*
X136480129Y-100578137D01*
X136500692Y-100576420D01*
X147016016Y-100576420D01*
X147016018Y-100576420D01*
X147043767Y-100564926D01*
X147065006Y-100543687D01*
X147076500Y-100515938D01*
X147076500Y-99941884D01*
X147096185Y-99874845D01*
X147148989Y-99829090D01*
X147218147Y-99819146D01*
X147281703Y-99848171D01*
X147288181Y-99854203D01*
X152919553Y-105485575D01*
X152953038Y-105546898D01*
X152948054Y-105616590D01*
X152919553Y-105660937D01*
X152855788Y-105724701D01*
X152855784Y-105724707D01*
X152780482Y-105855132D01*
X152780481Y-105855136D01*
X152741500Y-106000615D01*
X152741500Y-106151225D01*
X152780481Y-106296704D01*
X152780482Y-106296707D01*
X152826753Y-106376849D01*
X152855786Y-106427136D01*
X152962284Y-106533634D01*
X153044293Y-106580982D01*
X153092712Y-106608937D01*
X153092713Y-106608937D01*
X153092716Y-106608939D01*
X153238195Y-106647920D01*
X153238197Y-106647920D01*
X153388802Y-106647920D01*
X153388805Y-106647920D01*
X153534284Y-106608939D01*
X153664716Y-106533634D01*
X153771214Y-106427136D01*
X153846519Y-106296704D01*
X153885500Y-106151225D01*
X153885500Y-106000615D01*
X153846519Y-105855136D01*
X153771214Y-105724704D01*
X153705919Y-105659409D01*
X153691215Y-105632481D01*
X153674623Y-105606663D01*
X153673731Y-105600462D01*
X153672434Y-105598086D01*
X153669600Y-105571728D01*
X153669600Y-105432803D01*
X153669601Y-105432790D01*
X153669601Y-105329041D01*
X153669601Y-105329039D01*
X153645333Y-105238471D01*
X153645333Y-105238470D01*
X153598451Y-105157269D01*
X153532151Y-105090969D01*
X147952172Y-99510990D01*
X147918687Y-99449667D01*
X147923671Y-99379975D01*
X147965543Y-99324042D01*
X148031007Y-99299625D01*
X148087305Y-99308747D01*
X148121083Y-99322739D01*
X148305485Y-99359419D01*
X148305488Y-99359420D01*
X148305490Y-99359420D01*
X148493512Y-99359420D01*
X148493513Y-99359419D01*
X148677917Y-99322739D01*
X148851625Y-99250787D01*
X149007958Y-99146328D01*
X149140908Y-99013378D01*
X149245367Y-98857045D01*
X149317319Y-98683337D01*
X149354000Y-98498930D01*
X149354000Y-98310910D01*
X149354000Y-98310907D01*
X149353999Y-98310905D01*
X149344979Y-98265560D01*
X149317319Y-98126503D01*
X149257017Y-97980920D01*
X149245370Y-97952801D01*
X149245363Y-97952788D01*
X149140908Y-97796462D01*
X149140905Y-97796458D01*
X149007961Y-97663514D01*
X149007957Y-97663511D01*
X148851631Y-97559056D01*
X148851618Y-97559049D01*
X148677921Y-97487102D01*
X148677909Y-97487099D01*
X148493513Y-97450420D01*
X148493510Y-97450420D01*
X148305490Y-97450420D01*
X148305487Y-97450420D01*
X148121090Y-97487099D01*
X148121078Y-97487102D01*
X147947381Y-97559049D01*
X147947368Y-97559056D01*
X147791042Y-97663511D01*
X147791038Y-97663514D01*
X147746381Y-97708172D01*
X147685058Y-97741657D01*
X147615366Y-97736673D01*
X147559433Y-97694801D01*
X147535016Y-97629337D01*
X147534700Y-97620491D01*
X147534700Y-96649349D01*
X147554385Y-96582310D01*
X147607189Y-96536555D01*
X147676347Y-96526611D01*
X147739903Y-96555636D01*
X147746381Y-96561668D01*
X147791038Y-96606325D01*
X147791042Y-96606328D01*
X147947368Y-96710783D01*
X147947381Y-96710790D01*
X148121078Y-96782737D01*
X148121083Y-96782739D01*
X148305485Y-96819419D01*
X148305488Y-96819420D01*
X148305490Y-96819420D01*
X148493512Y-96819420D01*
X148493513Y-96819419D01*
X148677917Y-96782739D01*
X148851625Y-96710787D01*
X149007958Y-96606328D01*
X149140908Y-96473378D01*
X149245367Y-96317045D01*
X149317319Y-96143337D01*
X149354000Y-95958930D01*
X149354000Y-95770910D01*
X149354000Y-95770907D01*
X149353999Y-95770905D01*
X149345671Y-95729039D01*
X149317319Y-95586503D01*
X149277748Y-95490969D01*
X149245370Y-95412801D01*
X149245363Y-95412788D01*
X149140908Y-95256462D01*
X149140905Y-95256458D01*
X149007961Y-95123514D01*
X149007957Y-95123511D01*
X148851631Y-95019056D01*
X148851618Y-95019049D01*
X148677921Y-94947102D01*
X148677909Y-94947099D01*
X148493513Y-94910420D01*
X148493510Y-94910420D01*
X148305490Y-94910420D01*
X148305487Y-94910420D01*
X148121090Y-94947099D01*
X148121078Y-94947102D01*
X147947381Y-95019049D01*
X147947368Y-95019056D01*
X147791042Y-95123511D01*
X147791038Y-95123514D01*
X147746381Y-95168172D01*
X147685058Y-95201657D01*
X147615366Y-95196673D01*
X147559433Y-95154801D01*
X147535016Y-95089337D01*
X147534700Y-95080491D01*
X147534700Y-93380478D01*
X147534699Y-93380471D01*
X147510434Y-93289908D01*
X147510433Y-93289906D01*
X147463551Y-93208705D01*
X147397251Y-93142405D01*
X147293215Y-93038369D01*
X147212014Y-92991487D01*
X147212011Y-92991485D01*
X147121448Y-92967220D01*
X147121445Y-92967220D01*
X132112981Y-92967220D01*
X132019219Y-92967220D01*
X132019215Y-92967220D01*
X131928652Y-92991485D01*
X131847449Y-93038369D01*
X131847446Y-93038371D01*
X131418217Y-93467601D01*
X131391289Y-93482304D01*
X131365471Y-93498897D01*
X131359270Y-93499788D01*
X131356894Y-93501086D01*
X131330536Y-93503920D01*
X131296464Y-93503920D01*
X131229425Y-93484235D01*
X131208783Y-93467601D01*
X131159653Y-93418471D01*
X131159651Y-93418469D01*
X131104185Y-93386445D01*
X131078447Y-93371585D01*
X130987884Y-93347320D01*
X130987881Y-93347320D01*
X127939119Y-93347320D01*
X127939115Y-93347320D01*
X127848552Y-93371585D01*
X127767349Y-93418469D01*
X127767346Y-93418471D01*
X122728551Y-98457266D01*
X122728549Y-98457269D01*
X122681665Y-98538472D01*
X122657400Y-98629035D01*
X122657400Y-100605056D01*
X122637715Y-100672095D01*
X122621081Y-100692737D01*
X122342217Y-100971601D01*
X122280894Y-101005086D01*
X122254536Y-101007920D01*
X122162195Y-101007920D01*
X122049043Y-101038239D01*
X122016712Y-101046902D01*
X121886287Y-101122204D01*
X121886281Y-101122208D01*
X121779788Y-101228701D01*
X121779784Y-101228707D01*
X121704482Y-101359132D01*
X121704481Y-101359136D01*
X121665500Y-101504615D01*
X120789000Y-101504615D01*
X120789000Y-89278132D01*
X120789079Y-89273707D01*
X120798024Y-89023218D01*
X120806483Y-88786344D01*
X120807111Y-88777553D01*
X120859007Y-88294848D01*
X120860266Y-88286095D01*
X120908483Y-88018843D01*
X120946459Y-87808349D01*
X120948339Y-87799712D01*
X121018457Y-87524989D01*
X121068397Y-87329323D01*
X121070878Y-87320874D01*
X121224189Y-86860247D01*
X121227275Y-86851971D01*
X121413053Y-86403460D01*
X121416728Y-86395414D01*
X121429375Y-86370149D01*
X121634030Y-85961296D01*
X121638258Y-85953555D01*
X121670057Y-85899961D01*
X128976000Y-85899961D01*
X128976000Y-86101878D01*
X129015387Y-86299894D01*
X129015390Y-86299903D01*
X129092652Y-86486433D01*
X129120402Y-86527963D01*
X129601000Y-86047365D01*
X129601000Y-86053581D01*
X129628259Y-86155314D01*
X129680920Y-86246526D01*
X129755394Y-86321000D01*
X129846606Y-86373661D01*
X129948339Y-86400920D01*
X129954553Y-86400920D01*
X129473954Y-86881516D01*
X129473955Y-86881517D01*
X129515475Y-86909261D01*
X129515484Y-86909266D01*
X129702016Y-86986529D01*
X129702025Y-86986532D01*
X129900041Y-87025919D01*
X129900045Y-87025920D01*
X130101955Y-87025920D01*
X130101958Y-87025919D01*
X130299974Y-86986532D01*
X130299983Y-86986529D01*
X130486512Y-86909267D01*
X130486526Y-86909260D01*
X130528043Y-86881517D01*
X130528044Y-86881516D01*
X130047448Y-86400920D01*
X130053661Y-86400920D01*
X130155394Y-86373661D01*
X130246606Y-86321000D01*
X130321080Y-86246526D01*
X130373741Y-86155314D01*
X130401000Y-86053581D01*
X130401000Y-86047368D01*
X130881596Y-86527964D01*
X130881597Y-86527963D01*
X130909340Y-86486446D01*
X130909347Y-86486432D01*
X130986609Y-86299903D01*
X130986609Y-86299902D01*
X131004536Y-86209777D01*
X131036921Y-86147865D01*
X131097637Y-86113291D01*
X131167406Y-86117030D01*
X131224078Y-86157896D01*
X131247771Y-86209774D01*
X131251453Y-86228287D01*
X131251455Y-86228292D01*
X131310214Y-86370149D01*
X131395522Y-86497821D01*
X131395525Y-86497825D01*
X131504094Y-86606394D01*
X131504098Y-86606397D01*
X131631768Y-86691704D01*
X131773628Y-86750465D01*
X131924221Y-86780419D01*
X131924225Y-86780420D01*
X131924226Y-86780420D01*
X132077775Y-86780420D01*
X132077776Y-86780419D01*
X132228372Y-86750465D01*
X132370232Y-86691704D01*
X132497902Y-86606397D01*
X132606477Y-86497822D01*
X132691784Y-86370152D01*
X132750545Y-86228292D01*
X132780500Y-86077694D01*
X132780500Y-85924146D01*
X132780499Y-85924141D01*
X133221500Y-85924141D01*
X133221500Y-86077698D01*
X133251453Y-86228285D01*
X133251455Y-86228292D01*
X133310214Y-86370149D01*
X133395522Y-86497821D01*
X133395525Y-86497825D01*
X133504094Y-86606394D01*
X133504098Y-86606397D01*
X133631768Y-86691704D01*
X133773628Y-86750465D01*
X133924221Y-86780419D01*
X133924225Y-86780420D01*
X133924226Y-86780420D01*
X134077775Y-86780420D01*
X134077776Y-86780419D01*
X134228372Y-86750465D01*
X134370232Y-86691704D01*
X134497902Y-86606397D01*
X134606477Y-86497822D01*
X134691784Y-86370152D01*
X134750545Y-86228292D01*
X134780500Y-86077694D01*
X134780500Y-85924146D01*
X134780499Y-85924141D01*
X135221500Y-85924141D01*
X135221500Y-86077698D01*
X135251453Y-86228285D01*
X135251455Y-86228292D01*
X135310214Y-86370149D01*
X135395522Y-86497821D01*
X135395525Y-86497825D01*
X135504094Y-86606394D01*
X135504098Y-86606397D01*
X135631768Y-86691704D01*
X135773628Y-86750465D01*
X135924221Y-86780419D01*
X135924225Y-86780420D01*
X135924226Y-86780420D01*
X136077775Y-86780420D01*
X136077776Y-86780419D01*
X136228372Y-86750465D01*
X136370232Y-86691704D01*
X136497902Y-86606397D01*
X136606477Y-86497822D01*
X136691784Y-86370152D01*
X136750545Y-86228292D01*
X136780500Y-86077694D01*
X136780500Y-85924146D01*
X136780499Y-85924141D01*
X137221500Y-85924141D01*
X137221500Y-86077698D01*
X137251453Y-86228285D01*
X137251455Y-86228292D01*
X137310214Y-86370149D01*
X137395522Y-86497821D01*
X137395525Y-86497825D01*
X137504094Y-86606394D01*
X137504098Y-86606397D01*
X137631768Y-86691704D01*
X137773628Y-86750465D01*
X137924221Y-86780419D01*
X137924225Y-86780420D01*
X137924226Y-86780420D01*
X138077775Y-86780420D01*
X138077776Y-86780419D01*
X138228372Y-86750465D01*
X138370232Y-86691704D01*
X138497902Y-86606397D01*
X138606477Y-86497822D01*
X138691784Y-86370152D01*
X138750545Y-86228292D01*
X138780500Y-86077694D01*
X138780500Y-85924146D01*
X138780499Y-85924141D01*
X139221500Y-85924141D01*
X139221500Y-86077698D01*
X139251453Y-86228285D01*
X139251455Y-86228292D01*
X139310214Y-86370149D01*
X139395522Y-86497821D01*
X139395525Y-86497825D01*
X139504094Y-86606394D01*
X139504098Y-86606397D01*
X139631768Y-86691704D01*
X139773628Y-86750465D01*
X139924221Y-86780419D01*
X139924225Y-86780420D01*
X139924226Y-86780420D01*
X140077775Y-86780420D01*
X140077776Y-86780419D01*
X140228372Y-86750465D01*
X140370232Y-86691704D01*
X140497902Y-86606397D01*
X140606477Y-86497822D01*
X140691784Y-86370152D01*
X140750545Y-86228292D01*
X140780500Y-86077694D01*
X140780500Y-85924146D01*
X140780499Y-85924141D01*
X141221500Y-85924141D01*
X141221500Y-86077698D01*
X141251453Y-86228285D01*
X141251455Y-86228292D01*
X141310214Y-86370149D01*
X141395522Y-86497821D01*
X141395525Y-86497825D01*
X141504094Y-86606394D01*
X141504098Y-86606397D01*
X141631768Y-86691704D01*
X141773628Y-86750465D01*
X141924221Y-86780419D01*
X141924225Y-86780420D01*
X141924226Y-86780420D01*
X142077775Y-86780420D01*
X142077776Y-86780419D01*
X142228372Y-86750465D01*
X142370232Y-86691704D01*
X142497902Y-86606397D01*
X142606477Y-86497822D01*
X142691784Y-86370152D01*
X142750545Y-86228292D01*
X142780500Y-86077694D01*
X142780500Y-85924146D01*
X142780499Y-85924141D01*
X143221500Y-85924141D01*
X143221500Y-86077698D01*
X143251453Y-86228285D01*
X143251455Y-86228292D01*
X143310214Y-86370149D01*
X143395522Y-86497821D01*
X143395525Y-86497825D01*
X143504094Y-86606394D01*
X143504098Y-86606397D01*
X143631768Y-86691704D01*
X143773628Y-86750465D01*
X143924221Y-86780419D01*
X143924225Y-86780420D01*
X143924226Y-86780420D01*
X144077775Y-86780420D01*
X144077776Y-86780419D01*
X144228372Y-86750465D01*
X144370232Y-86691704D01*
X144497902Y-86606397D01*
X144606477Y-86497822D01*
X144691784Y-86370152D01*
X144750545Y-86228292D01*
X144780500Y-86077694D01*
X144780500Y-85924146D01*
X144780499Y-85924141D01*
X145221500Y-85924141D01*
X145221500Y-86077698D01*
X145251453Y-86228285D01*
X145251455Y-86228292D01*
X145310214Y-86370149D01*
X145395522Y-86497821D01*
X145395525Y-86497825D01*
X145504094Y-86606394D01*
X145504098Y-86606397D01*
X145631768Y-86691704D01*
X145773628Y-86750465D01*
X145924221Y-86780419D01*
X145924225Y-86780420D01*
X145924226Y-86780420D01*
X146077775Y-86780420D01*
X146077776Y-86780419D01*
X146228372Y-86750465D01*
X146370232Y-86691704D01*
X146497902Y-86606397D01*
X146606477Y-86497822D01*
X146691784Y-86370152D01*
X146750545Y-86228292D01*
X146780500Y-86077694D01*
X146780500Y-85924146D01*
X146750545Y-85773548D01*
X146691784Y-85631688D01*
X146689439Y-85628179D01*
X146612918Y-85513656D01*
X146612916Y-85513654D01*
X146606476Y-85504016D01*
X146553308Y-85450848D01*
X147221500Y-85450848D01*
X147221500Y-86550983D01*
X147236266Y-86625221D01*
X147292515Y-86709404D01*
X147326234Y-86731934D01*
X147376699Y-86765654D01*
X147376702Y-86765654D01*
X147376703Y-86765655D01*
X147401666Y-86770620D01*
X147450933Y-86780420D01*
X148551066Y-86780419D01*
X148625301Y-86765654D01*
X148709484Y-86709404D01*
X148765734Y-86625221D01*
X148780500Y-86550987D01*
X148780499Y-85450854D01*
X148765734Y-85376619D01*
X148721310Y-85310134D01*
X148709484Y-85292435D01*
X148659019Y-85258716D01*
X148625301Y-85236186D01*
X148625299Y-85236185D01*
X148625296Y-85236184D01*
X148551069Y-85221420D01*
X147450936Y-85221420D01*
X147376698Y-85236186D01*
X147292515Y-85292435D01*
X147236266Y-85376619D01*
X147236264Y-85376623D01*
X147221500Y-85450848D01*
X146553308Y-85450848D01*
X146497905Y-85395445D01*
X146497901Y-85395442D01*
X146370229Y-85310134D01*
X146228372Y-85251375D01*
X146228365Y-85251373D01*
X146077778Y-85221420D01*
X146077774Y-85221420D01*
X145924226Y-85221420D01*
X145924221Y-85221420D01*
X145773634Y-85251373D01*
X145773627Y-85251375D01*
X145631770Y-85310134D01*
X145504098Y-85395442D01*
X145504094Y-85395445D01*
X145395525Y-85504014D01*
X145395522Y-85504018D01*
X145310214Y-85631690D01*
X145251455Y-85773547D01*
X145251453Y-85773554D01*
X145221500Y-85924141D01*
X144780499Y-85924141D01*
X144750545Y-85773548D01*
X144691784Y-85631688D01*
X144606477Y-85504018D01*
X144606475Y-85504016D01*
X144606474Y-85504014D01*
X144497905Y-85395445D01*
X144497901Y-85395442D01*
X144370229Y-85310134D01*
X144228372Y-85251375D01*
X144228365Y-85251373D01*
X144077778Y-85221420D01*
X144077774Y-85221420D01*
X143924226Y-85221420D01*
X143924221Y-85221420D01*
X143773634Y-85251373D01*
X143773627Y-85251375D01*
X143631770Y-85310134D01*
X143504098Y-85395442D01*
X143504094Y-85395445D01*
X143395525Y-85504014D01*
X143395522Y-85504018D01*
X143310214Y-85631690D01*
X143251455Y-85773547D01*
X143251453Y-85773554D01*
X143221500Y-85924141D01*
X142780499Y-85924141D01*
X142750545Y-85773548D01*
X142691784Y-85631688D01*
X142606477Y-85504018D01*
X142606475Y-85504016D01*
X142606474Y-85504014D01*
X142497905Y-85395445D01*
X142497901Y-85395442D01*
X142370229Y-85310134D01*
X142228372Y-85251375D01*
X142228365Y-85251373D01*
X142077778Y-85221420D01*
X142077774Y-85221420D01*
X141924226Y-85221420D01*
X141924221Y-85221420D01*
X141773634Y-85251373D01*
X141773627Y-85251375D01*
X141631770Y-85310134D01*
X141504098Y-85395442D01*
X141504094Y-85395445D01*
X141395525Y-85504014D01*
X141395522Y-85504018D01*
X141310214Y-85631690D01*
X141251455Y-85773547D01*
X141251453Y-85773554D01*
X141221500Y-85924141D01*
X140780499Y-85924141D01*
X140750545Y-85773548D01*
X140691784Y-85631688D01*
X140606477Y-85504018D01*
X140606475Y-85504016D01*
X140606474Y-85504014D01*
X140497905Y-85395445D01*
X140497901Y-85395442D01*
X140370229Y-85310134D01*
X140228372Y-85251375D01*
X140228365Y-85251373D01*
X140077778Y-85221420D01*
X140077774Y-85221420D01*
X139924226Y-85221420D01*
X139924221Y-85221420D01*
X139773634Y-85251373D01*
X139773627Y-85251375D01*
X139631770Y-85310134D01*
X139504098Y-85395442D01*
X139504094Y-85395445D01*
X139395525Y-85504014D01*
X139395522Y-85504018D01*
X139310214Y-85631690D01*
X139251455Y-85773547D01*
X139251453Y-85773554D01*
X139221500Y-85924141D01*
X138780499Y-85924141D01*
X138750545Y-85773548D01*
X138691784Y-85631688D01*
X138606477Y-85504018D01*
X138606475Y-85504016D01*
X138606474Y-85504014D01*
X138497905Y-85395445D01*
X138497901Y-85395442D01*
X138370229Y-85310134D01*
X138228372Y-85251375D01*
X138228365Y-85251373D01*
X138077778Y-85221420D01*
X138077774Y-85221420D01*
X137924226Y-85221420D01*
X137924221Y-85221420D01*
X137773634Y-85251373D01*
X137773627Y-85251375D01*
X137631770Y-85310134D01*
X137504098Y-85395442D01*
X137504094Y-85395445D01*
X137395525Y-85504014D01*
X137395522Y-85504018D01*
X137310214Y-85631690D01*
X137251455Y-85773547D01*
X137251453Y-85773554D01*
X137221500Y-85924141D01*
X136780499Y-85924141D01*
X136750545Y-85773548D01*
X136691784Y-85631688D01*
X136606477Y-85504018D01*
X136606475Y-85504016D01*
X136606474Y-85504014D01*
X136497905Y-85395445D01*
X136497901Y-85395442D01*
X136370229Y-85310134D01*
X136228372Y-85251375D01*
X136228365Y-85251373D01*
X136077778Y-85221420D01*
X136077774Y-85221420D01*
X135924226Y-85221420D01*
X135924221Y-85221420D01*
X135773634Y-85251373D01*
X135773627Y-85251375D01*
X135631770Y-85310134D01*
X135504098Y-85395442D01*
X135504094Y-85395445D01*
X135395525Y-85504014D01*
X135395522Y-85504018D01*
X135310214Y-85631690D01*
X135251455Y-85773547D01*
X135251453Y-85773554D01*
X135221500Y-85924141D01*
X134780499Y-85924141D01*
X134750545Y-85773548D01*
X134691784Y-85631688D01*
X134606477Y-85504018D01*
X134606475Y-85504016D01*
X134606474Y-85504014D01*
X134497905Y-85395445D01*
X134497901Y-85395442D01*
X134370229Y-85310134D01*
X134228372Y-85251375D01*
X134228365Y-85251373D01*
X134077778Y-85221420D01*
X134077774Y-85221420D01*
X133924226Y-85221420D01*
X133924221Y-85221420D01*
X133773634Y-85251373D01*
X133773627Y-85251375D01*
X133631770Y-85310134D01*
X133504098Y-85395442D01*
X133504094Y-85395445D01*
X133395525Y-85504014D01*
X133395522Y-85504018D01*
X133310214Y-85631690D01*
X133251455Y-85773547D01*
X133251453Y-85773554D01*
X133221500Y-85924141D01*
X132780499Y-85924141D01*
X132750545Y-85773548D01*
X132691784Y-85631688D01*
X132606477Y-85504018D01*
X132606475Y-85504016D01*
X132606474Y-85504014D01*
X132497905Y-85395445D01*
X132497901Y-85395442D01*
X132370229Y-85310134D01*
X132228372Y-85251375D01*
X132228365Y-85251373D01*
X132077778Y-85221420D01*
X132077774Y-85221420D01*
X131924226Y-85221420D01*
X131924221Y-85221420D01*
X131773634Y-85251373D01*
X131773627Y-85251375D01*
X131631770Y-85310134D01*
X131504098Y-85395442D01*
X131504094Y-85395445D01*
X131395525Y-85504014D01*
X131395522Y-85504018D01*
X131310214Y-85631690D01*
X131251455Y-85773547D01*
X131251454Y-85773551D01*
X131247771Y-85792066D01*
X131215384Y-85853976D01*
X131154668Y-85888549D01*
X131084898Y-85884808D01*
X131028227Y-85843940D01*
X131004537Y-85792063D01*
X130986611Y-85701945D01*
X130986609Y-85701936D01*
X130909346Y-85515404D01*
X130909341Y-85515395D01*
X130881597Y-85473875D01*
X130881596Y-85473874D01*
X130401000Y-85954471D01*
X130401000Y-85948259D01*
X130373741Y-85846526D01*
X130321080Y-85755314D01*
X130246606Y-85680840D01*
X130155394Y-85628179D01*
X130053661Y-85600920D01*
X130047447Y-85600920D01*
X130528043Y-85120322D01*
X130486513Y-85092572D01*
X130299983Y-85015310D01*
X130299974Y-85015307D01*
X130101958Y-84975920D01*
X129900041Y-84975920D01*
X129702025Y-85015307D01*
X129702016Y-85015310D01*
X129515487Y-85092572D01*
X129515469Y-85092582D01*
X129473955Y-85120320D01*
X129473955Y-85120322D01*
X129954554Y-85600920D01*
X129948339Y-85600920D01*
X129846606Y-85628179D01*
X129755394Y-85680840D01*
X129680920Y-85755314D01*
X129628259Y-85846526D01*
X129601000Y-85948259D01*
X129601000Y-85954473D01*
X129120402Y-85473875D01*
X129120400Y-85473875D01*
X129092662Y-85515389D01*
X129092652Y-85515407D01*
X129015390Y-85701936D01*
X129015387Y-85701945D01*
X128976000Y-85899961D01*
X121670057Y-85899961D01*
X121885988Y-85536025D01*
X121890742Y-85528627D01*
X122167620Y-85129847D01*
X122172920Y-85122767D01*
X122477543Y-84744751D01*
X122483312Y-84738095D01*
X122814121Y-84382779D01*
X122820365Y-84376535D01*
X123175704Y-84045702D01*
X123182319Y-84039970D01*
X123560370Y-83735316D01*
X123567417Y-83730041D01*
X123966196Y-83453164D01*
X123973612Y-83448397D01*
X124391145Y-83200663D01*
X124398880Y-83196440D01*
X124833001Y-82979133D01*
X124841043Y-82975461D01*
X125289556Y-82789680D01*
X125297827Y-82786596D01*
X125758448Y-82633286D01*
X125766912Y-82630801D01*
X126237317Y-82510737D01*
X126245913Y-82508866D01*
X126723704Y-82422664D01*
X126732412Y-82421411D01*
X127215134Y-82369513D01*
X127223923Y-82368885D01*
X127710728Y-82351498D01*
X127715154Y-82351420D01*
X127738031Y-82351420D01*
X148063969Y-82351420D01*
X148086286Y-82351420D01*
X148090711Y-82351498D01*
G37*
%TD.AperFunction*%
%TD*%
M02*
