M48
; DRILL file {KiCad 9.0.1} date 2025-07-31T18:48:42+0200
; FORMAT={-:-/ absolute / metric / decimal}
; #@! TF.CreationDate,2025-07-31T18:48:42+02:00
; #@! TF.GenerationSoftware,Kicad,Pcbnew,9.0.1
; #@! TF.FileFunction,Plated,1,2,PTH
FMAT,2
METRIC
; #@! TA.AperFunction,Plated,PTH,ComponentDrill
T1C0.300
; #@! TA.AperFunction,Plated,PTH,ViaDrill
T2C0.381
; #@! TA.AperFunction,Plated,PTH,ComponentDrill
T3C0.800
%
G90
G05
T1
X128.976Y-97.101
X129.726Y-96.601
X129.726Y-97.601
X130.776Y-96.601
X130.776Y-97.601
X131.526Y-97.101
T2
X122.237Y-101.58
X126.913Y-95.876
X129.013Y-94.276
X129.418Y-99.98
X130.565Y-99.991
X131.314Y-94.076
X131.613Y-99.976
X133.913Y-110.276
X134.314Y-95.876
X135.814Y-100.576
X135.814Y-101.676
X135.913Y-102.776
X149.913Y-106.276
X153.314Y-106.076
T3
X130.001Y-86.001
X130.001Y-108.001
X132.001Y-86.001
X132.001Y-108.001
X134.001Y-86.001
X134.001Y-108.001
X136.001Y-86.001
X136.001Y-108.001
X138.001Y-86.001
X138.001Y-108.001
X140.001Y-86.001
X140.001Y-108.001
X142.001Y-86.001
X142.001Y-108.001
X144.001Y-86.001
X144.001Y-108.001
X146.001Y-86.001
X146.001Y-108.001
X148.001Y-86.001
X148.001Y-108.001
X148.399Y-95.865
X148.399Y-98.405
M30
